# Blender 4.4.1
# www.blender.org
mtllib SunLaserArea.mtl
o 円柱
v 0.000000 0.020000 -1.000000
v 0.195090 0.020000 -0.980785
v 0.382683 0.020000 -0.923880
v 0.555570 0.020000 -0.831470
v 0.707107 0.020000 -0.707107
v 0.831470 0.020000 -0.555570
v 0.923880 0.020000 -0.382683
v 0.980785 0.020000 -0.195090
v 1.000000 0.020000 0.000000
v 0.980785 0.020000 0.195090
v 0.923880 0.020000 0.382683
v 0.831470 0.020000 0.555570
v 0.707107 0.020000 0.707107
v 0.555570 0.020000 0.831470
v 0.382683 0.020000 0.923880
v 0.195090 0.020000 0.980785
v 0.000000 0.020000 1.000000
v -0.195090 0.020000 0.980785
v -0.382683 0.020000 0.923880
v -0.555570 0.020000 0.831470
v -0.707107 0.020000 0.707107
v -0.831470 0.020000 0.555570
v -0.923880 0.020000 0.382683
v -0.980785 0.020000 0.195090
v -1.000000 0.020000 0.000000
v -0.980785 0.020000 -0.195090
v -0.923880 0.020000 -0.382683
v -0.831470 0.020000 -0.555570
v -0.707107 0.020000 -0.707107
v -0.555570 0.020000 -0.831470
v -0.382683 0.020000 -0.923880
v -0.195090 0.020000 -0.980785
vn -0.0000 1.0000 -0.0000
vt 0.158156 0.028269
vt 0.471731 0.158156
vt 0.341844 0.471731
vt 0.296822 0.485388
vt 0.250000 0.490000
vt 0.203178 0.485388
vt 0.158156 0.471731
vt 0.116663 0.449553
vt 0.080294 0.419706
vt 0.050447 0.383337
vt 0.028269 0.341844
vt 0.014612 0.296822
vt 0.010000 0.250000
vt 0.014612 0.203178
vt 0.028269 0.158156
vt 0.050447 0.116663
vt 0.080294 0.080294
vt 0.116663 0.050447
vt 0.203178 0.014612
vt 0.341844 0.028269
vt 0.250000 0.010000
vt 0.296822 0.014612
vt 0.383337 0.050447
vt 0.419706 0.080294
vt 0.449553 0.116663
vt 0.485388 0.203178
vt 0.471731 0.341844
vt 0.490000 0.250000
vt 0.485388 0.296822
vt 0.449553 0.383337
vt 0.419706 0.419706
vt 0.383337 0.449553
s 0
usemtl Material
f 19/1/1 11/2/1 3/3/1
f 3/3/1 2/4/1 1/5/1
f 1/5/1 32/6/1 3/3/1
f 32/6/1 31/7/1 3/3/1
f 31/7/1 30/8/1 29/9/1
f 29/9/1 28/10/1 27/11/1
f 27/11/1 26/12/1 25/13/1
f 25/13/1 24/14/1 27/11/1
f 24/14/1 23/15/1 27/11/1
f 23/15/1 22/16/1 21/17/1
f 21/17/1 20/18/1 19/1/1
f 19/1/1 18/19/1 15/20/1
f 18/19/1 17/21/1 15/20/1
f 17/21/1 16/22/1 15/20/1
f 15/20/1 14/23/1 13/24/1
f 13/24/1 12/25/1 11/2/1
f 11/2/1 10/26/1 7/27/1
f 10/26/1 9/28/1 7/27/1
f 9/28/1 8/29/1 7/27/1
f 7/27/1 6/30/1 5/31/1
f 5/31/1 4/32/1 3/3/1
f 31/7/1 29/9/1 3/3/1
f 29/9/1 27/11/1 3/3/1
f 23/15/1 21/17/1 27/11/1
f 21/17/1 19/1/1 27/11/1
f 15/20/1 13/24/1 19/1/1
f 13/24/1 11/2/1 19/1/1
f 7/27/1 5/31/1 11/2/1
f 5/31/1 3/3/1 11/2/1
f 3/3/1 27/11/1 19/1/1
