# Blender 4.4.1
# www.blender.org
mtllib repairpartHigh.mtl
o 円柱
v 0.512188 -0.168036 0.389138
v 0.437043 -0.267579 0.423551
v 0.344195 -0.355291 0.444183
v 0.237211 -0.427801 0.450242
v 0.120204 -0.482322 0.441494
v -0.002331 -0.516760 0.418275
v -0.125684 -0.529791 0.381479
v -0.245116 -0.520913 0.332518
v -0.356036 -0.490469 0.273275
v -0.454182 -0.439628 0.206025
v -0.535782 -0.370344 0.133355
v -0.597700 -0.285280 0.058055
v -0.637557 -0.187704 -0.016980
v -0.653821 -0.081366 -0.088866
v -0.645868 0.029647 -0.154841
v -0.614002 0.141069 -0.212370
v -0.559448 0.248618 -0.259242
v -0.484304 0.348161 -0.293655
v -0.391456 0.435873 -0.314288
v -0.284472 0.508383 -0.320346
v -0.167465 0.562905 -0.311598
v -0.044929 0.597343 -0.288380
v 0.078424 0.610373 -0.251583
v 0.197855 0.601496 -0.202622
v 0.308775 0.571052 -0.143379
v 0.406921 0.520211 -0.076130
v 0.488521 0.450927 -0.003459
v 0.550439 0.365862 0.071841
v 0.590297 0.268286 0.146875
v 0.606561 0.161949 0.218762
v 0.598607 0.050936 0.284737
v 0.566741 -0.060486 0.342266
v 0.333662 -0.119287 0.228479
v 0.503691 -0.164234 0.385265
v 0.285756 -0.182748 0.250419
v 0.429685 -0.262269 0.419156
v 0.226563 -0.238666 0.263572
v 0.338244 -0.348652 0.439476
v 0.158359 -0.284892 0.267435
v 0.232881 -0.420063 0.445443
v 0.083764 -0.319651 0.261857
v 0.117647 -0.473759 0.436828
v 0.005646 -0.341605 0.247055
v -0.003031 -0.507675 0.413961
v -0.072994 -0.349913 0.223597
v -0.124516 -0.520508 0.377722
v -0.149134 -0.344253 0.192383
v -0.242138 -0.511765 0.329503
v -0.219848 -0.324845 0.154615
v -0.351378 -0.481782 0.271157
v -0.282418 -0.292432 0.111742
v -0.448036 -0.431712 0.204927
v -0.334439 -0.248262 0.065413
v -0.528400 -0.363477 0.133357
v -0.373913 -0.194032 0.017408
v -0.589380 -0.279702 0.059198
v -0.399323 -0.131826 -0.030428
v -0.628633 -0.183604 -0.014699
v -0.409692 -0.064034 -0.076257
v -0.644651 -0.078878 -0.085496
v -0.404621 0.006739 -0.118318
v -0.636818 0.030453 -0.150472
v -0.384306 0.077773 -0.154993
v -0.605435 0.140187 -0.207130
v -0.349527 0.146338 -0.184875
v -0.551708 0.246107 -0.253291
v -0.301621 0.209798 -0.206814
v -0.477702 0.344142 -0.287183
v -0.242428 0.265717 -0.219968
v -0.386260 0.430525 -0.307503
v -0.174224 0.311943 -0.223830
v -0.280898 0.501936 -0.313469
v -0.099630 0.346701 -0.218253
v -0.165663 0.555631 -0.304854
v -0.021511 0.368656 -0.203451
v -0.044985 0.589547 -0.281987
v 0.057129 0.376963 -0.179992
v 0.076500 0.602381 -0.245748
v 0.133269 0.371304 -0.148779
v 0.194122 0.593638 -0.197529
v 0.203983 0.351896 -0.111010
v 0.303361 0.563655 -0.139184
v 0.266552 0.319483 -0.068138
v 0.400020 0.513584 -0.072953
v 0.318574 0.275313 -0.021808
v 0.480384 0.445350 -0.001383
v 0.358048 0.221083 0.026196
v 0.541364 0.361574 0.072775
v 0.383458 0.158876 0.074032
v 0.580617 0.265477 0.146673
v 0.393827 0.091084 0.119861
v 0.596635 0.160750 0.217470
v 0.388756 0.020311 0.161922
v 0.588802 0.051419 0.282446
v 0.368441 -0.050723 0.198598
v 0.557418 -0.058314 0.339103
v 1.065077 -0.635222 0.081060
v 0.939267 -0.801882 0.138676
v 0.783816 -0.948733 0.173220
v 0.604700 -1.070133 0.183363
v 0.408801 -1.161415 0.168717
v 0.203648 -1.219072 0.129843
v -0.002876 -1.240888 0.068237
v -0.202833 -1.226025 -0.013736
v -0.388540 -1.175054 -0.112923
v -0.552860 -1.089934 -0.225515
v -0.689478 -0.973936 -0.347183
v -0.793144 -0.831517 -0.473253
v -0.859875 -0.668152 -0.598879
v -0.887105 -0.490117 -0.719234
v -0.873789 -0.304254 -0.829693
v -0.820438 -0.117707 -0.926010
v -0.729101 0.062357 -1.004485
v -0.603291 0.229016 -1.062101
v -0.447841 0.375867 -1.096645
v -0.268725 0.497267 -1.106788
v -0.072826 0.588549 -1.092142
v 0.132327 0.646206 -1.053269
v 0.338851 0.668022 -0.991662
v 0.538808 0.653159 -0.909690
v 0.724515 0.602188 -0.810502
v 0.888835 0.517068 -0.697911
v 1.025454 0.401070 -0.576242
v 1.129120 0.258652 -0.450172
v 1.195850 0.095286 -0.324546
v 1.223081 -0.082749 -0.204191
v 1.209764 -0.268612 -0.093732
v 1.156413 -0.455159 0.002585
v 0.953255 -0.612907 -0.040509
v 0.845381 -0.755805 0.008893
v 0.712094 -0.881720 0.038512
v 0.558514 -0.985811 0.047209
v 0.390545 -1.064080 0.034651
v 0.214640 -1.113517 0.001320
v 0.037560 -1.132222 -0.051504
v -0.133889 -1.119479 -0.121789
v -0.293119 -1.075775 -0.206835
v -0.434013 -1.002790 -0.303375
v -0.551153 -0.903330 -0.407697
v -0.640039 -0.781216 -0.515793
v -0.697256 -0.641141 -0.623509
v -0.720604 -0.488489 -0.726705
v -0.709186 -0.329125 -0.821415
v -0.663441 -0.169173 -0.904001
v -0.585127 -0.014782 -0.971287
v -0.477254 0.128117 -1.020689
v -0.343966 0.254032 -1.050308
v -0.190386 0.358123 -1.059005
v -0.022417 0.436391 -1.046447
v 0.153488 0.485828 -1.013115
v 0.330567 0.504534 -0.960292
v 0.502016 0.491790 -0.890007
v 0.661247 0.448086 -0.804960
v 0.802140 0.375102 -0.708421
v 0.919281 0.275642 -0.604099
v 1.008167 0.153528 -0.496003
v 1.065384 0.013453 -0.388287
v 1.088732 -0.139199 -0.285091
v 1.077314 -0.298564 -0.190381
v 1.031569 -0.458515 -0.107795
vn 0.2954 -0.5036 -0.8118
vn 0.8628 -0.4501 0.2299
vn 0.4024 -0.0933 0.9107
vn 0.7541 -0.5943 0.2797
vn 0.2872 -0.2022 0.9363
vn 0.6196 -0.7212 0.3096
vn 0.1544 -0.2922 0.9438
vn 0.4647 -0.8262 0.3184
vn 0.2954 -0.9052 0.3057
vn -0.1430 -0.4026 0.9041
vn 0.1180 -0.9550 0.2721
vn -0.2961 -0.4188 0.8585
vn -0.0606 -0.9739 0.2188
vn -0.4443 -0.4078 0.7977
vn -0.2336 -0.9610 0.1480
vn -0.3941 -0.9170 0.0622
vn -0.7038 -0.3069 0.6407
vn -0.5362 -0.8433 -0.0352
vn -0.6543 -0.7430 -0.1404
vn -0.8820 -0.1153 0.4570
vn -0.7440 -0.6199 -0.2494
vn -0.9314 0.0058 0.3639
vn -0.8017 -0.4786 -0.3580
vn -0.8252 -0.3247 -0.4621
vn -0.9516 0.1378 0.2746
vn -0.8137 -0.1639 -0.5576
vn -0.9417 0.2756 0.1927
vn -0.7676 -0.0026 -0.6409
vn -0.9022 0.4139 0.1213
vn -0.6886 0.1531 -0.7088
vn -0.7412 0.6710 0.0204
vn -0.5798 0.2972 -0.7586
vn -0.4454 0.4242 -0.7885
vn -0.6260 0.7798 -0.0052
vn -0.2905 0.5291 -0.7972
vn -0.4932 0.8698 -0.0127
vn -0.1211 0.6081 -0.7846
vn -0.1958 0.9803 0.0270
vn 0.0563 0.6579 -0.7510
vn 0.2349 0.6768 -0.6977
vn -0.0427 0.9964 0.0727
vn 0.4078 0.6639 -0.6268
vn 0.2432 0.9476 0.2070
vn 0.5684 0.6199 -0.5410
vn 0.7105 0.5463 -0.4437
vn 0.4663 0.7985 0.3807
vn 0.8286 0.4460 -0.3384
vn 0.9182 0.3228 -0.2295
vn 0.5432 0.6929 0.4741
vn 0.9759 0.1815 -0.1208
vn 0.6128 0.4398 0.6565
vn 0.9995 0.0276 -0.0167
vn 0.6030 0.3020 0.7384
vn 0.9880 -0.1331 0.0788
vn 0.5634 0.1637 0.8098
vn 0.9418 -0.2944 0.1621
vn -0.1406 -0.3803 -0.9141
vn 0.4151 -0.0652 -0.9074
vn 0.6676 -0.5183 -0.5344
vn 0.0908 -0.4126 -0.9064
vn 0.1183 -0.3762 -0.9189
vn 0.1522 -0.3442 -0.9265
vn 0.1913 -0.3177 -0.9287
vn 0.2341 -0.2978 -0.9255
vn 0.2789 -0.2852 -0.9170
vn 0.3240 -0.2804 -0.9036
vn 0.3676 -0.2837 -0.8857
vn 0.4082 -0.2948 -0.8640
vn 0.4440 -0.3134 -0.8394
vn 0.4739 -0.3387 -0.8129
vn 0.4965 -0.3698 -0.7854
vn 0.5110 -0.4054 -0.7579
vn 0.5170 -0.4443 -0.7316
vn 0.5141 -0.4849 -0.7075
vn 0.5024 -0.5256 -0.6865
vn 0.4825 -0.5649 -0.6694
vn 0.4550 -0.6013 -0.6568
vn 0.4211 -0.6334 -0.6493
vn 0.3820 -0.6599 -0.6470
vn 0.3392 -0.6798 -0.6502
vn 0.2944 -0.6924 -0.6587
vn 0.2494 -0.6971 -0.6722
vn 0.2057 -0.6939 -0.6901
vn 0.1652 -0.6828 -0.7117
vn 0.1293 -0.6642 -0.7363
vn 0.0995 -0.6389 -0.7629
vn 0.0768 -0.6078 -0.7904
vn 0.0623 -0.5721 -0.8178
vn 0.0563 -0.5332 -0.8441
vn 0.0592 -0.4927 -0.8682
vn 0.0709 -0.4519 -0.8892
vn -0.1033 -0.3067 -0.9462
vn -0.0518 -0.2386 -0.9697
vn 0.0117 -0.1785 -0.9839
vn 0.0850 -0.1289 -0.9880
vn 0.1651 -0.0916 -0.9820
vn 0.2489 -0.0680 -0.9661
vn 0.3334 -0.0591 -0.9409
vn 0.4910 -0.0860 -0.8669
vn 0.5582 -0.1208 -0.8208
vn 0.6141 -0.1682 -0.7711
vn 0.6565 -0.2265 -0.7196
vn 0.6838 -0.2933 -0.6682
vn 0.6949 -0.3660 -0.6190
vn 0.6894 -0.4420 -0.5738
vn 0.6303 -0.5919 -0.5024
vn 0.5789 -0.6601 -0.4788
vn 0.5153 -0.7201 -0.4647
vn 0.4421 -0.7697 -0.4605
vn 0.3620 -0.8071 -0.4665
vn 0.2781 -0.8306 -0.4824
vn 0.1937 -0.8395 -0.5076
vn 0.1119 -0.8335 -0.5411
vn 0.0360 -0.8126 -0.5817
vn -0.0312 -0.7778 -0.6277
vn -0.0871 -0.7304 -0.6774
vn -0.1294 -0.6722 -0.7290
vn -0.1567 -0.6054 -0.7804
vn -0.1679 -0.5326 -0.8296
vn -0.1624 -0.4566 -0.8747
vn 0.4957 0.0302 0.8680
vn 0.0091 -0.3599 0.9330
vn -0.5820 -0.3700 0.7242
vn -0.8051 -0.2209 0.5505
vn -0.8345 0.5474 0.0632
vn -0.3479 0.9375 -0.0018
vn 0.1055 0.9854 0.1334
vn 0.3650 0.8845 0.2904
vn 0.5927 0.5718 0.5673
vt 0.936311 0.690841
vt 0.774661 0.777245
vt 0.688257 0.615595
vt 0.433082 0.699546
vt 0.488254 0.741465
vt 0.428094 0.710617
vt 0.476911 0.764180
vt 0.421342 0.720907
vt 0.460774 0.785201
vt 0.412323 0.729581
vt 0.401868 0.736725
vt 0.415044 0.817973
vt 0.390117 0.741737
vt 0.386200 0.820176
vt 0.377341 0.744432
vt 0.357926 0.823760
vt 0.364006 0.744202
vt 0.350833 0.741639
vt 0.298068 0.813675
vt 0.338493 0.735982
vt 0.327291 0.728115
vt 0.241500 0.777674
vt 0.317981 0.717979
vt 0.218027 0.749449
vt 0.311018 0.706184
vt 0.306688 0.693118
vt 0.210391 0.713594
vt 0.304811 0.679353
vt 0.210391 0.678499
vt 0.306357 0.665589
vt 0.217267 0.645507
vt 0.310400 0.652459
vt 0.248355 0.589845
vt 0.317013 0.640624
vt 0.325778 0.630413
vt 0.270549 0.568785
vt 0.336508 0.622569
vt 0.295697 0.552964
vt 0.348259 0.616767
vt 0.350559 0.538013
vt 0.360758 0.613379
vt 0.373591 0.612800
vt 0.378008 0.538715
vt 0.386106 0.614711
vt 0.428091 0.554940
vt 0.397958 0.618585
vt 0.408526 0.624899
vt 0.466489 0.587038
vt 0.417843 0.632724
vt 0.425515 0.642039
vt 0.479909 0.607108
vt 0.431026 0.652681
vt 0.494078 0.650817
vt 0.434882 0.663963
vt 0.495026 0.672743
vt 0.436754 0.675824
vt 0.496988 0.694880
vt 0.435941 0.687849
vt 0.396514 0.681948
vt 0.369391 0.702245
vt 0.348770 0.673750
vt 0.424664 0.696786
vt 0.420361 0.706299
vt 0.414297 0.715017
vt 0.406599 0.722495
vt 0.397557 0.728435
vt 0.387316 0.732596
vt 0.376318 0.734780
vt 0.365051 0.734604
vt 0.353893 0.732185
vt 0.343401 0.727463
vt 0.334028 0.720727
vt 0.326169 0.712107
vt 0.320235 0.701977
vt 0.316469 0.690874
vt 0.315015 0.679222
vt 0.316110 0.667567
vt 0.319479 0.656482
vt 0.325055 0.646378
vt 0.332548 0.637642
vt 0.341525 0.630708
vt 0.351513 0.625731
vt 0.362301 0.622853
vt 0.373320 0.622150
vt 0.384036 0.623566
vt 0.394188 0.626943
vt 0.403424 0.632157
vt 0.411443 0.638887
vt 0.418064 0.647001
vt 0.423049 0.656111
vt 0.426297 0.665892
vt 0.427716 0.676223
vt 0.427139 0.686657
vt 0.395422 0.686458
vt 0.393477 0.690660
vt 0.390740 0.694413
vt 0.387311 0.697568
vt 0.383302 0.700035
vt 0.378866 0.701679
vt 0.374164 0.702430
vt 0.364702 0.701056
vt 0.360313 0.698963
vt 0.356400 0.696041
vt 0.353131 0.692400
vt 0.350667 0.688146
vt 0.349084 0.683491
vt 0.348443 0.678629
vt 0.350176 0.669091
vt 0.352467 0.664803
vt 0.355544 0.661053
vt 0.359280 0.657988
vt 0.363522 0.655757
vt 0.368101 0.654401
vt 0.372833 0.653966
vt 0.377538 0.654461
vt 0.382027 0.655774
vt 0.386148 0.657925
vt 0.389744 0.660814
vt 0.392700 0.664340
vt 0.394919 0.668357
vt 0.396312 0.672734
vt 0.396867 0.677319
vt 0.926588 0.714315
vt 0.873381 0.767522
vt 0.912472 0.735440
vt 0.894506 0.753406
vt 0.849907 0.777245
vt 0.824988 0.782201
vt 0.799580 0.782201
vt 0.751187 0.767522
vt 0.730062 0.753406
vt 0.712096 0.735440
vt 0.697980 0.714315
vt 0.688257 0.690841
vt 0.683300 0.665922
vt 0.683300 0.640514
vt 0.697980 0.592121
vt 0.751187 0.538914
vt 0.712096 0.570996
vt 0.730062 0.553030
vt 0.774661 0.529191
vt 0.799580 0.524234
vt 0.824988 0.524234
vt 0.849907 0.529191
vt 0.873381 0.538914
vt 0.894506 0.553030
vt 0.912472 0.570996
vt 0.926588 0.592121
vt 0.936311 0.615595
vt 0.941268 0.640514
vt 0.941268 0.665922
vt 0.494870 0.718057
vt 0.440040 0.803483
vt 0.328215 0.821782
vt 0.268718 0.799063
vt 0.230228 0.615644
vt 0.322752 0.542693
vt 0.404139 0.544517
vt 0.449079 0.569353
vt 0.489107 0.628661
s 1
usemtl Material.002
f 32/1/1 8/2/1 16/3/1
f 97/4/2 36/5/3 98/6/4
f 98/6/4 38/7/5 99/8/6
f 99/8/6 40/9/7 100/10/8
f 40/9/7 101/11/9 100/10/8
f 101/11/9 44/12/10 102/13/11
f 102/13/11 46/14/12 103/15/13
f 103/15/13 48/16/14 104/17/15
f 48/16/14 105/18/16 104/17/15
f 105/18/16 52/19/17 106/20/18
f 52/19/17 107/21/19 106/20/18
f 107/21/19 56/22/20 108/23/21
f 108/23/21 58/24/22 109/25/23
f 58/24/22 110/26/24 109/25/23
f 60/27/25 111/28/26 110/26/24
f 62/29/27 112/30/28 111/28/26
f 64/31/29 113/32/30 112/30/28
f 113/32/30 68/33/31 114/34/32
f 68/33/31 115/35/33 114/34/32
f 70/36/34 116/37/35 115/35/33
f 72/38/36 117/39/37 116/37/35
f 117/39/37 76/40/38 118/41/39
f 76/40/38 119/42/40 118/41/39
f 78/43/41 120/44/42 119/42/40
f 120/44/42 82/45/43 121/46/44
f 82/45/43 122/47/45 121/46/44
f 122/47/45 86/48/46 123/49/47
f 86/48/46 124/50/48 123/49/47
f 88/51/49 125/52/50 124/50/48
f 125/52/50 92/53/51 126/54/52
f 126/54/52 94/55/53 127/56/54
f 127/56/54 96/57/55 128/58/56
f 96/57/55 97/4/2 128/58/56
f 95/59/57 47/60/58 63/61/59
f 129/62/60 98/6/4 130/63/61
f 131/64/62 98/6/4 99/8/6
f 131/64/62 100/10/8 132/65/63
f 133/66/64 100/10/8 101/11/9
f 133/66/64 102/13/11 134/67/65
f 134/67/65 103/15/13 135/68/66
f 136/69/67 103/15/13 104/17/15
f 136/69/67 105/18/16 137/70/68
f 138/71/69 105/18/16 106/20/18
f 138/71/69 107/21/19 139/72/70
f 140/73/71 107/21/19 108/23/21
f 141/74/72 108/23/21 109/25/23
f 141/74/72 110/26/24 142/75/73
f 143/76/74 110/26/24 111/28/26
f 144/77/75 111/28/26 112/30/28
f 144/77/75 113/32/30 145/78/76
f 146/79/77 113/32/30 114/34/32
f 146/79/77 115/35/33 147/80/78
f 147/80/78 116/37/35 148/81/79
f 149/82/80 116/37/35 117/39/37
f 149/82/80 118/41/39 150/83/81
f 151/84/82 118/41/39 119/42/40
f 151/84/82 120/44/42 152/85/83
f 153/86/84 120/44/42 121/46/44
f 153/86/84 122/47/45 154/87/85
f 155/88/86 122/47/45 123/49/47
f 155/88/86 124/50/48 156/89/87
f 157/90/88 124/50/48 125/52/50
f 158/91/89 125/52/50 126/54/52
f 159/92/90 126/54/52 127/56/54
f 159/92/90 128/58/56 160/93/91
f 129/62/60 128/58/56 97/4/2
f 33/94/92 130/63/61 35/95/93
f 37/96/94 130/63/61 131/64/62
f 37/96/94 132/65/63 39/97/95
f 41/98/96 132/65/63 133/66/64
f 41/98/96 134/67/65 43/99/97
f 43/99/97 135/68/66 45/100/98
f 47/60/58 135/68/66 136/69/67
f 49/101/99 136/69/67 137/70/68
f 51/102/100 137/70/68 138/71/69
f 51/102/100 139/72/70 53/103/101
f 55/104/102 139/72/70 140/73/71
f 57/105/103 140/73/71 141/74/72
f 57/105/103 142/75/73 59/106/104
f 61/107/105 142/75/73 143/76/74
f 61/107/105 144/77/75 63/61/59
f 63/61/59 145/78/76 65/108/106
f 67/109/107 145/78/76 146/79/77
f 69/110/108 146/79/77 147/80/78
f 69/110/108 148/81/79 71/111/109
f 73/112/110 148/81/79 149/82/80
f 73/112/110 150/83/81 75/113/111
f 77/114/112 150/83/81 151/84/82
f 77/114/112 152/85/83 79/115/113
f 81/116/114 152/85/83 153/86/84
f 81/116/114 154/87/85 83/117/115
f 85/118/116 154/87/85 155/88/86
f 85/118/116 156/89/87 87/119/117
f 87/119/117 157/90/88 89/120/118
f 91/121/119 157/90/88 158/91/89
f 93/122/120 158/91/89 159/92/90
f 93/122/120 160/93/91 95/59/57
f 33/94/92 160/93/91 129/62/60
f 32/1/1 1/123/1 4/124/1
f 1/123/1 2/125/1 4/124/1
f 2/125/1 3/126/1 4/124/1
f 4/124/1 5/127/1 6/128/1
f 6/128/1 7/129/1 8/2/1
f 8/2/1 9/130/1 10/131/1
f 10/131/1 11/132/1 12/133/1
f 12/133/1 13/134/1 14/135/1
f 14/135/1 15/136/1 16/3/1
f 16/3/1 17/137/1 20/138/1
f 17/137/1 18/139/1 20/138/1
f 18/139/1 19/140/1 20/138/1
f 20/138/1 21/141/1 22/142/1
f 22/142/1 23/143/1 20/138/1
f 23/143/1 24/144/1 20/138/1
f 24/144/1 25/145/1 26/146/1
f 26/146/1 27/147/1 24/144/1
f 27/147/1 28/148/1 24/144/1
f 28/148/1 29/149/1 30/150/1
f 30/150/1 31/151/1 32/1/1
f 4/124/1 6/128/1 8/2/1
f 8/2/1 10/131/1 12/133/1
f 12/133/1 14/135/1 8/2/1
f 14/135/1 16/3/1 8/2/1
f 28/148/1 30/150/1 24/144/1
f 30/150/1 32/1/1 24/144/1
f 32/1/1 4/124/1 8/2/1
f 16/3/1 20/138/1 32/1/1
f 20/138/1 24/144/1 32/1/1
f 97/4/2 34/152/121 36/5/3
f 98/6/4 36/5/3 38/7/5
f 99/8/6 38/7/5 40/9/7
f 40/9/7 42/153/122 101/11/9
f 101/11/9 42/153/122 44/12/10
f 102/13/11 44/12/10 46/14/12
f 103/15/13 46/14/12 48/16/14
f 48/16/14 50/154/123 105/18/16
f 105/18/16 50/154/123 52/19/17
f 52/19/17 54/155/124 107/21/19
f 107/21/19 54/155/124 56/22/20
f 108/23/21 56/22/20 58/24/22
f 58/24/22 60/27/25 110/26/24
f 60/27/25 62/29/27 111/28/26
f 62/29/27 64/31/29 112/30/28
f 64/31/29 66/156/125 113/32/30
f 113/32/30 66/156/125 68/33/31
f 68/33/31 70/36/34 115/35/33
f 70/36/34 72/38/36 116/37/35
f 72/38/36 74/157/126 117/39/37
f 117/39/37 74/157/126 76/40/38
f 76/40/38 78/43/41 119/42/40
f 78/43/41 80/158/127 120/44/42
f 120/44/42 80/158/127 82/45/43
f 82/45/43 84/159/128 122/47/45
f 122/47/45 84/159/128 86/48/46
f 86/48/46 88/51/49 124/50/48
f 88/51/49 90/160/129 125/52/50
f 125/52/50 90/160/129 92/53/51
f 126/54/52 92/53/51 94/55/53
f 127/56/54 94/55/53 96/57/55
f 96/57/55 34/152/121 97/4/2
f 95/59/57 33/94/92 39/97/95
f 33/94/92 35/95/93 39/97/95
f 35/95/93 37/96/94 39/97/95
f 39/97/95 41/98/96 43/99/97
f 43/99/97 45/100/98 47/60/58
f 47/60/58 49/101/99 51/102/100
f 51/102/100 53/103/101 47/60/58
f 53/103/101 55/104/102 47/60/58
f 55/104/102 57/105/103 59/106/104
f 59/106/104 61/107/105 63/61/59
f 63/61/59 65/108/106 67/109/107
f 67/109/107 69/110/108 71/111/109
f 71/111/109 73/112/110 75/113/111
f 75/113/111 77/114/112 71/111/109
f 77/114/112 79/115/113 71/111/109
f 79/115/113 81/116/114 83/117/115
f 83/117/115 85/118/116 79/115/113
f 85/118/116 87/119/117 79/115/113
f 87/119/117 89/120/118 95/59/57
f 89/120/118 91/121/119 95/59/57
f 91/121/119 93/122/120 95/59/57
f 39/97/95 43/99/97 95/59/57
f 43/99/97 47/60/58 95/59/57
f 55/104/102 59/106/104 63/61/59
f 63/61/59 67/109/107 79/115/113
f 67/109/107 71/111/109 79/115/113
f 47/60/58 55/104/102 63/61/59
f 79/115/113 87/119/117 63/61/59
f 87/119/117 95/59/57 63/61/59
f 129/62/60 97/4/2 98/6/4
f 131/64/62 130/63/61 98/6/4
f 131/64/62 99/8/6 100/10/8
f 133/66/64 132/65/63 100/10/8
f 133/66/64 101/11/9 102/13/11
f 134/67/65 102/13/11 103/15/13
f 136/69/67 135/68/66 103/15/13
f 136/69/67 104/17/15 105/18/16
f 138/71/69 137/70/68 105/18/16
f 138/71/69 106/20/18 107/21/19
f 140/73/71 139/72/70 107/21/19
f 141/74/72 140/73/71 108/23/21
f 141/74/72 109/25/23 110/26/24
f 143/76/74 142/75/73 110/26/24
f 144/77/75 143/76/74 111/28/26
f 144/77/75 112/30/28 113/32/30
f 146/79/77 145/78/76 113/32/30
f 146/79/77 114/34/32 115/35/33
f 147/80/78 115/35/33 116/37/35
f 149/82/80 148/81/79 116/37/35
f 149/82/80 117/39/37 118/41/39
f 151/84/82 150/83/81 118/41/39
f 151/84/82 119/42/40 120/44/42
f 153/86/84 152/85/83 120/44/42
f 153/86/84 121/46/44 122/47/45
f 155/88/86 154/87/85 122/47/45
f 155/88/86 123/49/47 124/50/48
f 157/90/88 156/89/87 124/50/48
f 158/91/89 157/90/88 125/52/50
f 159/92/90 158/91/89 126/54/52
f 159/92/90 127/56/54 128/58/56
f 129/62/60 160/93/91 128/58/56
f 33/94/92 129/62/60 130/63/61
f 37/96/94 35/95/93 130/63/61
f 37/96/94 131/64/62 132/65/63
f 41/98/96 39/97/95 132/65/63
f 41/98/96 133/66/64 134/67/65
f 43/99/97 134/67/65 135/68/66
f 47/60/58 45/100/98 135/68/66
f 49/101/99 47/60/58 136/69/67
f 51/102/100 49/101/99 137/70/68
f 51/102/100 138/71/69 139/72/70
f 55/104/102 53/103/101 139/72/70
f 57/105/103 55/104/102 140/73/71
f 57/105/103 141/74/72 142/75/73
f 61/107/105 59/106/104 142/75/73
f 61/107/105 143/76/74 144/77/75
f 63/61/59 144/77/75 145/78/76
f 67/109/107 65/108/106 145/78/76
f 69/110/108 67/109/107 146/79/77
f 69/110/108 147/80/78 148/81/79
f 73/112/110 71/111/109 148/81/79
f 73/112/110 149/82/80 150/83/81
f 77/114/112 75/113/111 150/83/81
f 77/114/112 151/84/82 152/85/83
f 81/116/114 79/115/113 152/85/83
f 81/116/114 153/86/84 154/87/85
f 85/118/116 83/117/115 154/87/85
f 85/118/116 155/88/86 156/89/87
f 87/119/117 156/89/87 157/90/88
f 91/121/119 89/120/118 157/90/88
f 93/122/120 91/121/119 158/91/89
f 93/122/120 159/92/90 160/93/91
f 33/94/92 95/59/57 160/93/91
