# Blender 4.4.1
# www.blender.org
mtllib Mummy.mtl
o 立方体
v -0.400000 0.200000 0.400000
v -0.400000 1.000000 0.400000
v -0.400000 0.200000 -0.400000
v -0.400000 1.000000 -0.400000
v 0.400000 0.200000 0.400000
v 0.400000 1.000000 0.400000
v 0.400000 0.200000 -0.400000
v 0.400000 1.000000 -0.400000
v -0.400000 -0.904000 0.400000
v -0.400000 0.104000 0.400000
v -0.400000 -0.904000 -0.400000
v -0.400000 0.104000 -0.400000
v 0.400000 -0.904000 0.400000
v 0.400000 0.104000 0.400000
v 0.400000 -0.904000 -0.400000
v 0.400000 0.104000 -0.400000
v -0.500000 -0.400000 0.700000
v -0.500000 -0.000000 0.700000
v -0.500000 -0.400000 0.300000
v -0.500000 -0.000000 0.300000
v -0.100000 -0.400000 0.700000
v -0.100000 -0.000000 0.700000
v -0.100000 -0.400000 0.300000
v -0.100000 -0.000000 0.300000
v 0.100000 -0.400000 0.700000
v 0.100000 -0.000000 0.700000
v 0.100000 -0.400000 0.300000
v 0.100000 -0.000000 0.300000
v 0.500000 -0.400000 0.700000
v 0.500000 -0.000000 0.700000
v 0.500000 -0.400000 0.300000
v 0.500000 -0.000000 0.300000
v 0.200000 -0.980000 0.500000
v 0.200000 -0.820000 0.500000
v 0.200000 -0.980000 -0.500000
v 0.200000 -0.820000 -0.500000
v 0.600000 -0.980000 0.500000
v 0.600000 -0.820000 0.500000
v 0.600000 -0.980000 -0.500000
v 0.600000 -0.820000 -0.500000
v -0.600000 -0.980000 0.500000
v -0.600000 -0.820000 0.500000
v -0.600000 -0.980000 -0.500000
v -0.600000 -0.820000 -0.500000
v -0.200000 -0.980000 0.500000
v -0.200000 -0.820000 0.500000
v -0.200000 -0.980000 -0.500000
v -0.200000 -0.820000 -0.500000
vn -1.0000 -0.0000 -0.0000
vn -0.0000 -0.0000 -1.0000
vn 1.0000 -0.0000 -0.0000
vn -0.0000 -0.0000 1.0000
vn -0.0000 -1.0000 -0.0000
vn -0.0000 1.0000 -0.0000
vt 0.774970 0.882930
vt 0.774970 0.667010
vt 0.882930 0.774970
vt 0.667010 0.774970
vt 0.667010 0.559051
vt 0.559051 0.667010
vt 0.559051 0.451091
vt 0.155396 0.002718
vt 0.002718 0.155396
vt 0.002718 0.002718
vt 0.882930 0.559051
vt 0.451091 0.774970
vt 0.333474 0.002437
vt 0.168092 0.167818
vt 0.168092 0.002437
vt 0.333474 0.167818
vt 0.168092 0.333200
vt 0.333474 0.333200
vt 0.168092 0.498581
vt 0.333474 0.498581
vt 0.168092 0.663963
vt 0.002710 0.498581
vt 0.002710 0.333200
vt 0.498855 0.333200
vt 0.762444 0.120216
vt 0.686105 0.196555
vt 0.686105 0.120216
vt 0.762444 0.196555
vt 0.686105 0.272894
vt 0.762444 0.272894
vt 0.686105 0.349233
vt 0.762444 0.349233
vt 0.686105 0.425572
vt 0.609766 0.349233
vt 0.609766 0.272894
vt 0.838783 0.272894
vt 0.921372 0.003669
vt 0.845033 0.080008
vt 0.845033 0.003669
vt 0.921372 0.080008
vt 0.845033 0.156347
vt 0.921372 0.156347
vt 0.845033 0.232686
vt 0.921372 0.232686
vt 0.845033 0.309025
vt 0.768694 0.232686
vt 0.768694 0.156347
vt 0.997711 0.156347
vt 0.003247 0.756528
vt 0.090287 0.843568
vt 0.003247 0.843568
vt 0.090286 0.756528
vt 0.177326 0.843568
vt 0.177326 0.756528
vt 0.264366 0.843568
vt 0.264366 0.756528
vt 0.351406 0.843568
vt 0.264366 0.930608
vt 0.177326 0.930608
vt 0.177326 0.669488
vt 0.591050 0.003247
vt 0.504010 0.090286
vt 0.504010 0.003247
vt 0.591050 0.090286
vt 0.504010 0.177326
vt 0.591050 0.177326
vt 0.504010 0.264366
vt 0.591050 0.264366
vt 0.504010 0.351406
vt 0.416970 0.264366
vt 0.416970 0.177326
vt 0.678090 0.177326
vt 0.451091 0.559051
vt 0.155396 0.155396
vt 0.774970 0.451091
vt 0.559051 0.882930
vt 0.333474 0.663963
vt 0.498855 0.498581
vt 0.762444 0.425572
vt 0.838783 0.349233
vt 0.921372 0.309025
vt 0.997711 0.232686
vt 0.351406 0.756528
vt 0.264366 0.669488
vt 0.591050 0.351406
vt 0.678090 0.264366
s 0
usemtl Material
f 2/1/1 3/2/1 1/3/1
f 4/4/2 7/5/2 3/2/2
f 8/6/3 5/7/3 7/5/3
f 6/8/4 1/9/4 5/10/4
f 7/5/5 1/11/5 3/2/5
f 4/4/6 6/12/6 8/6/6
f 10/13/1 11/14/1 9/15/1
f 12/16/2 15/17/2 11/14/2
f 16/18/3 13/19/3 15/17/3
f 14/20/4 9/21/4 13/19/4
f 15/17/5 9/22/5 11/23/5
f 12/24/6 14/20/6 16/18/6
f 18/25/1 19/26/1 17/27/1
f 20/28/2 23/29/2 19/26/2
f 24/30/3 21/31/3 23/29/3
f 22/32/4 17/33/4 21/31/4
f 23/29/5 17/34/5 19/35/5
f 20/36/6 22/32/6 24/30/6
f 26/37/1 27/38/1 25/39/1
f 28/40/2 31/41/2 27/38/2
f 32/42/3 29/43/3 31/41/3
f 30/44/4 25/45/4 29/43/4
f 31/41/5 25/46/5 27/47/5
f 28/48/6 30/44/6 32/42/6
f 34/49/1 35/50/1 33/51/1
f 36/52/2 39/53/2 35/50/2
f 40/54/3 37/55/3 39/53/3
f 38/56/4 33/57/4 37/55/4
f 39/53/5 33/58/5 35/59/5
f 36/60/6 38/56/6 40/54/6
f 42/61/1 43/62/1 41/63/1
f 44/64/2 47/65/2 43/62/2
f 48/66/3 45/67/3 47/65/3
f 46/68/4 41/69/4 45/67/4
f 47/65/5 41/70/5 43/71/5
f 44/72/6 46/68/6 48/66/6
f 2/1/1 4/4/1 3/2/1
f 4/4/2 8/6/2 7/5/2
f 8/6/3 6/73/3 5/7/3
f 6/8/4 2/74/4 1/9/4
f 7/5/5 5/75/5 1/11/5
f 4/4/6 2/76/6 6/12/6
f 10/13/1 12/16/1 11/14/1
f 12/16/2 16/18/2 15/17/2
f 16/18/3 14/20/3 13/19/3
f 14/20/4 10/77/4 9/21/4
f 15/17/5 13/19/5 9/22/5
f 12/24/6 10/78/6 14/20/6
f 18/25/1 20/28/1 19/26/1
f 20/28/2 24/30/2 23/29/2
f 24/30/3 22/32/3 21/31/3
f 22/32/4 18/79/4 17/33/4
f 23/29/5 21/31/5 17/34/5
f 20/36/6 18/80/6 22/32/6
f 26/37/1 28/40/1 27/38/1
f 28/40/2 32/42/2 31/41/2
f 32/42/3 30/44/3 29/43/3
f 30/44/4 26/81/4 25/45/4
f 31/41/5 29/43/5 25/46/5
f 28/48/6 26/82/6 30/44/6
f 34/49/1 36/52/1 35/50/1
f 36/52/2 40/54/2 39/53/2
f 40/54/3 38/56/3 37/55/3
f 38/56/4 34/83/4 33/57/4
f 39/53/5 37/55/5 33/58/5
f 36/60/6 34/84/6 38/56/6
f 42/61/1 44/64/1 43/62/1
f 44/64/2 48/66/2 47/65/2
f 48/66/3 46/68/3 45/67/3
f 46/68/4 42/85/4 41/69/4
f 47/65/5 45/67/5 41/70/5
f 44/72/6 42/86/6 46/68/6
