# Blender 4.4.0
# www.blender.org
mtllib workBench.mtl
o 立方体.004
v -0.622572 0.819938 -0.623239
v -0.660812 0.834414 -0.658032
v -0.612830 0.834414 -0.633946
v -0.660812 0.945462 -0.658032
v -0.622572 0.959938 -0.623239
v -0.612830 0.945462 -0.633946
v -0.329224 0.819938 -0.356332
v -0.319482 0.834414 -0.367039
v -0.290984 0.834414 -0.321539
v -0.329224 0.959938 -0.356332
v -0.290984 0.945462 -0.321539
v -0.319482 0.945462 -0.367039
v -0.697306 0.819938 -0.541101
v -0.707048 0.834414 -0.530394
v -0.735546 0.834414 -0.575894
v -0.697306 0.959938 -0.541101
v -0.735546 0.945462 -0.575894
v -0.707048 0.945462 -0.530394
v -0.403958 0.819938 -0.274195
v -0.365718 0.834414 -0.239401
v -0.413700 0.834414 -0.263487
v -0.403958 0.959938 -0.274195
v -0.413700 0.945462 -0.263487
v -0.365718 0.945462 -0.239401
v -0.221321 0.789938 -0.462931
v -0.234046 0.807142 -0.474510
v -0.192374 0.807142 -0.494745
v -0.234046 0.972733 -0.474510
v -0.221321 0.989938 -0.462931
v -0.192374 0.972733 -0.494745
v -0.098841 0.789938 -0.351491
v -0.069894 0.807142 -0.383305
v -0.086115 0.807142 -0.339913
v -0.098841 0.989938 -0.351491
v -0.086115 0.972733 -0.339913
v -0.069894 0.972733 -0.383305
v -0.499921 0.789938 -0.156731
v -0.528867 0.807142 -0.124917
v -0.512646 0.807142 -0.168310
v -0.499921 0.989938 -0.156731
v -0.512646 0.972733 -0.168310
v -0.528867 0.972733 -0.124917
v -0.377441 0.789938 -0.045291
v -0.364715 0.807142 -0.033712
v -0.406387 0.807142 -0.013477
v -0.377441 0.989938 -0.045291
v -0.406387 0.972733 -0.013477
v -0.364715 0.972733 -0.033712
v -0.980790 0.800000 0.880790
v -0.980790 0.819210 0.900000
v -1.000000 0.819210 0.880790
v -0.980790 1.380790 0.900000
v -0.980790 1.400000 0.880790
v -1.000000 1.380790 0.880790
v -0.980790 0.800000 0.719210
v -1.000000 0.819210 0.719210
v -0.980790 0.819210 0.700000
v -0.980790 1.400000 0.719210
v -0.980790 1.380790 0.700000
v -1.000000 1.380790 0.719210
v 0.980790 0.800000 0.880790
v 1.000000 0.819210 0.880790
v 0.980790 0.819210 0.900000
v 0.980790 1.400000 0.880790
v 0.980790 1.380790 0.900000
v 1.000000 1.380790 0.880790
v 0.980790 0.800000 0.719210
v 0.980790 0.819210 0.700000
v 1.000000 0.819210 0.719210
v 0.980790 1.400000 0.719210
v 1.000000 1.380790 0.719210
v 0.980790 1.380790 0.700000
v -0.630790 0.000000 0.880790
v -0.630790 0.019210 0.900000
v -0.650000 0.019210 0.880790
v -0.630790 0.180790 0.900000
v -0.630790 0.200000 0.880790
v -0.650000 0.180790 0.880790
v -0.630790 0.000000 0.719210
v -0.650000 0.019210 0.719210
v -0.630790 0.019210 0.700000
v -0.630790 0.200000 0.719210
v -0.630790 0.180790 0.700000
v -0.650000 0.180790 0.719210
v 0.630790 0.000000 0.880790
v 0.650000 0.019210 0.880790
v 0.630790 0.019210 0.900000
v 0.630790 0.200000 0.880790
v 0.630790 0.180790 0.900000
v 0.650000 0.180790 0.880790
v 0.630790 0.000000 0.719210
v 0.630790 0.019210 0.700000
v 0.650000 0.019210 0.719210
v 0.630790 0.200000 0.719210
v 0.650000 0.180790 0.719210
v 0.630790 0.180790 0.700000
v 0.669209 -1.000000 -0.669210
v 0.669210 -0.980790 -0.650000
v 0.650000 -0.980790 -0.669210
v 0.669210 0.580790 -0.650000
v 0.669209 0.600000 -0.669210
v 0.650000 0.580790 -0.669210
v 0.669209 -1.000000 -0.930790
v 0.650000 -0.980790 -0.930790
v 0.669209 -0.980790 -0.950000
v 0.669209 0.600000 -0.930790
v 0.669209 0.580790 -0.950000
v 0.650000 0.580790 -0.930790
v 0.930790 -1.000000 -0.669210
v 0.950000 -0.980790 -0.669210
v 0.930790 -0.980790 -0.650000
v 0.930790 0.600000 -0.669210
v 0.930790 0.580790 -0.650000
v 0.950000 0.580790 -0.669210
v 0.930790 -1.000000 -0.930790
v 0.930790 -0.980790 -0.950000
v 0.950000 -0.980790 -0.930790
v 0.930790 0.600000 -0.930790
v 0.950000 0.580790 -0.930790
v 0.930790 0.580790 -0.950000
v 0.669210 -1.000000 0.930790
v 0.669210 -0.980790 0.950000
v 0.650000 -0.980790 0.930790
v 0.669210 0.580790 0.950000
v 0.669210 0.600000 0.930790
v 0.650000 0.580790 0.930790
v 0.669210 -1.000000 0.669210
v 0.650000 -0.980790 0.669210
v 0.669210 -0.980790 0.650000
v 0.669210 0.600000 0.669210
v 0.669210 0.580790 0.650000
v 0.650000 0.580790 0.669210
v 0.930790 -1.000000 0.930790
v 0.950000 -0.980790 0.930790
v 0.930790 -0.980790 0.950000
v 0.930790 0.600000 0.930790
v 0.930790 0.580790 0.950000
v 0.950000 0.580790 0.930790
v 0.930790 -1.000000 0.669210
v 0.930790 -0.980790 0.650000
v 0.950000 -0.980790 0.669210
v 0.930790 0.600000 0.669210
v 0.950000 0.580790 0.669210
v 0.930790 0.580790 0.650000
v -0.930790 -1.000000 0.930790
v -0.930790 -0.980790 0.950000
v -0.950000 -0.980790 0.930790
v -0.930790 0.580790 0.950000
v -0.930790 0.600000 0.930790
v -0.950000 0.580790 0.930790
v -0.930790 -1.000000 0.669210
v -0.950000 -0.980790 0.669210
v -0.930790 -0.980790 0.650000
v -0.930790 0.600000 0.669210
v -0.930790 0.580790 0.650000
v -0.950000 0.580790 0.669210
v -0.669210 -1.000000 0.930790
v -0.650000 -0.980790 0.930790
v -0.669210 -0.980790 0.950000
v -0.669210 0.600000 0.930790
v -0.669210 0.580790 0.950000
v -0.650000 0.580790 0.930790
v -0.669210 -1.000000 0.669210
v -0.669210 -0.980790 0.650000
v -0.650000 -0.980790 0.669210
v -0.669210 0.600000 0.669210
v -0.650000 0.580790 0.669210
v -0.669210 0.580790 0.650000
v -0.930790 -1.000000 -0.669210
v -0.930790 -0.980790 -0.650000
v -0.950000 -0.980790 -0.669210
v -0.930790 0.580790 -0.650000
v -0.930790 0.600000 -0.669210
v -0.950000 0.580790 -0.669210
v -0.930790 -1.000000 -0.930790
v -0.950000 -0.980790 -0.930790
v -0.930790 -0.980790 -0.950000
v -0.930790 0.600000 -0.930790
v -0.930790 0.580790 -0.950000
v -0.950000 0.580790 -0.930790
v -0.669210 -1.000000 -0.669210
v -0.650000 -0.980790 -0.669210
v -0.669210 -0.980790 -0.650000
v -0.669210 0.600000 -0.669210
v -0.669210 0.580790 -0.650000
v -0.650000 0.580790 -0.669210
v -0.669210 -1.000000 -0.930790
v -0.669210 -0.980790 -0.950000
v -0.650000 -0.980790 -0.930790
v -0.669210 0.600000 -0.930790
v -0.650000 0.580790 -0.930790
v -0.669210 0.580790 -0.950000
v -0.980790 0.600000 0.980790
v -0.980790 0.619210 1.000000
v -1.000000 0.619210 0.980790
v -0.980790 0.780790 1.000000
v -0.980790 0.800000 0.980790
v -1.000000 0.780790 0.980790
v -0.980790 0.600000 -0.980790
v -1.000000 0.619210 -0.980790
v -0.980790 0.619210 -1.000000
v -0.980790 0.800000 -0.980790
v -0.980790 0.780790 -1.000000
v -1.000000 0.780790 -0.980790
v 0.980790 0.600000 0.980790
v 1.000000 0.619210 0.980790
v 0.980790 0.619210 1.000000
v 0.980790 0.800000 0.980790
v 0.980790 0.780790 1.000000
v 1.000000 0.780790 0.980790
v 0.980790 0.600000 -0.980790
v 0.980790 0.619210 -1.000000
v 1.000000 0.619210 -0.980790
v 0.980790 0.800000 -0.980790
v 1.000000 0.780790 -0.980790
v 0.980790 0.780790 -1.000000
v -0.630790 0.000000 -0.719210
v -0.630790 0.019210 -0.700000
v -0.650000 0.019210 -0.719210
v -0.630790 0.180790 -0.700000
v -0.630790 0.200000 -0.719210
v -0.650000 0.180790 -0.719210
v -0.630790 0.000000 -0.880790
v -0.650000 0.019210 -0.880790
v -0.630790 0.019210 -0.900000
v -0.630790 0.200000 -0.880790
v -0.630790 0.180790 -0.900000
v -0.650000 0.180790 -0.880790
v 0.630790 0.000000 -0.719210
v 0.650000 0.019210 -0.719210
v 0.630790 0.019210 -0.700000
v 0.630790 0.200000 -0.719210
v 0.630790 0.180790 -0.700000
v 0.650000 0.180790 -0.719210
v 0.630790 0.000000 -0.880790
v 0.630790 0.019210 -0.900000
v 0.650000 0.019210 -0.880790
v 0.630790 0.200000 -0.880790
v 0.650000 0.180790 -0.880790
v 0.630790 0.180790 -0.900000
v 0.719210 0.000000 0.630790
v 0.719210 0.019210 0.650000
v 0.700000 0.019210 0.630790
v 0.719210 0.180790 0.650000
v 0.719210 0.200000 0.630790
v 0.700000 0.180790 0.630790
v 0.719210 0.000000 -0.630790
v 0.700000 0.019210 -0.630790
v 0.719210 0.019210 -0.650000
v 0.719210 0.200000 -0.630790
v 0.719210 0.180790 -0.650000
v 0.700000 0.180790 -0.630790
v 0.880790 0.000000 0.630790
v 0.900000 0.019210 0.630790
v 0.880790 0.019210 0.650000
v 0.880790 0.200000 0.630790
v 0.880790 0.180790 0.650000
v 0.900000 0.180790 0.630790
v 0.880790 0.000000 -0.630790
v 0.880790 0.019210 -0.650000
v 0.900000 0.019210 -0.630790
v 0.880790 0.200000 -0.630790
v 0.900000 0.180790 -0.630790
v 0.880790 0.180790 -0.650000
v -0.880790 0.000000 0.630790
v -0.880790 0.019210 0.650000
v -0.900000 0.019210 0.630790
v -0.880790 0.180790 0.650000
v -0.880790 0.200000 0.630790
v -0.900000 0.180790 0.630790
v -0.880790 0.000000 -0.630790
v -0.900000 0.019210 -0.630790
v -0.880790 0.019210 -0.650000
v -0.880790 0.200000 -0.630790
v -0.880790 0.180790 -0.650000
v -0.900000 0.180790 -0.630790
v -0.719210 0.000000 0.630790
v -0.700000 0.019210 0.630790
v -0.719210 0.019210 0.650000
v -0.719210 0.200000 0.630790
v -0.719210 0.180790 0.650000
v -0.700000 0.180790 0.630790
v -0.719210 0.000000 -0.630790
v -0.719210 0.019210 -0.650000
v -0.700000 0.019210 -0.630790
v -0.719210 0.200000 -0.630790
v -0.700000 0.180790 -0.630790
v -0.719210 0.180790 -0.650000
v 0.700000 1.200000 0.700000
v 0.700000 1.600000 0.700000
v 0.656699 1.200000 0.675000
v 0.656699 1.600000 0.675000
v 0.656699 1.200000 0.625000
v 0.656699 1.600000 0.625000
v 0.700000 1.200000 0.600000
v 0.700000 1.600000 0.600000
v 0.743301 1.200000 0.625000
v 0.743301 1.600000 0.625000
v 0.743301 1.200000 0.675000
v 0.743301 1.600000 0.675000
v 0.727308 0.950000 0.640897
v 0.727308 0.967945 0.640000
v 0.730000 0.967945 0.640897
v 0.727308 1.332056 0.640000
v 0.727308 1.350000 0.640897
v 0.730000 1.332056 0.640897
v 0.727308 0.950000 0.659103
v 0.730000 0.967945 0.659103
v 0.727308 0.967945 0.660000
v 0.727308 1.350000 0.659103
v 0.727308 1.332056 0.660000
v 0.730000 1.332056 0.659103
v 0.672692 0.950000 0.640897
v 0.670000 0.967945 0.640897
v 0.672692 0.967945 0.640000
v 0.672692 1.350000 0.640897
v 0.672692 1.332056 0.640000
v 0.670000 1.332056 0.640897
v 0.672692 0.950000 0.659103
v 0.672692 0.967945 0.660000
v 0.670000 0.967945 0.659103
v 0.672692 1.350000 0.659103
v 0.670000 1.332056 0.659103
v 0.672692 1.332056 0.660000
v 0.427308 0.950000 0.640897
v 0.427308 0.967945 0.640000
v 0.430000 0.967945 0.640897
v 0.427308 1.332056 0.640000
v 0.427308 1.350000 0.640897
v 0.430000 1.332056 0.640897
v 0.427308 0.950000 0.659103
v 0.430000 0.967945 0.659103
v 0.427308 0.967945 0.660000
v 0.427308 1.350000 0.659103
v 0.427308 1.332056 0.660000
v 0.430000 1.332056 0.659103
v 0.372692 0.950000 0.640897
v 0.370000 0.967945 0.640897
v 0.372692 0.967945 0.640000
v 0.372692 1.350000 0.640897
v 0.372692 1.332056 0.640000
v 0.370000 1.332056 0.640897
v 0.372692 0.950000 0.659103
v 0.372692 0.967945 0.660000
v 0.370000 0.967945 0.659103
v 0.372692 1.350000 0.659103
v 0.370000 1.332056 0.659103
v 0.372692 1.332056 0.660000
v 0.400000 1.200000 0.700000
v 0.400000 1.600000 0.700000
v 0.356699 1.200000 0.675000
v 0.356699 1.600000 0.675000
v 0.356699 1.200000 0.625000
v 0.356699 1.600000 0.625000
v 0.400000 1.200000 0.600000
v 0.400000 1.600000 0.600000
v 0.443301 1.200000 0.625000
v 0.443301 1.600000 0.625000
v 0.443301 1.200000 0.675000
v 0.443301 1.600000 0.675000
v 0.127308 0.950000 0.640897
v 0.127308 0.967945 0.640000
v 0.130000 0.967945 0.640897
v 0.127308 1.332056 0.640000
v 0.127308 1.350000 0.640897
v 0.130000 1.332056 0.640897
v 0.127308 0.950000 0.659103
v 0.130000 0.967945 0.659103
v 0.127308 0.967945 0.660000
v 0.127308 1.350000 0.659103
v 0.127308 1.332056 0.660000
v 0.130000 1.332056 0.659103
v 0.072692 0.950000 0.640897
v 0.070000 0.967945 0.640897
v 0.072692 0.967945 0.640000
v 0.072692 1.350000 0.640897
v 0.072692 1.332056 0.640000
v 0.070000 1.332056 0.640897
v 0.072692 0.950000 0.659103
v 0.072692 0.967945 0.660000
v 0.070000 0.967945 0.659103
v 0.072692 1.350000 0.659103
v 0.070000 1.332056 0.659103
v 0.072692 1.332056 0.660000
v 0.100000 1.200000 0.700000
v 0.100000 1.600000 0.700000
v 0.056699 1.200000 0.675000
v 0.056699 1.600000 0.675000
v 0.056699 1.200000 0.625000
v 0.056699 1.600000 0.625000
v 0.100000 1.200000 0.600000
v 0.100000 1.600000 0.600000
v 0.143301 1.200000 0.625000
v 0.143301 1.600000 0.625000
v 0.143301 1.200000 0.675000
v 0.143301 1.600000 0.675000
vn -0.7397 -0.0000 -0.6730
vn -0.6730 -0.0000 0.7397
vn -0.0000 1.0000 -0.0000
vn 0.6730 -0.0000 -0.7397
vn 0.7397 -0.0000 0.6730
vn 0.3232 -0.6936 -0.6438
vn 0.3232 0.6936 -0.6438
vn 0.6105 -0.6936 -0.3823
vn 0.6105 0.6936 -0.3823
vn -0.6105 -0.6936 0.3823
vn -0.6105 0.6936 0.3823
vn -0.3232 -0.6936 0.6438
vn -0.3232 0.6936 0.6438
vn 0.4759 -0.7071 -0.5230
vn 0.4486 -0.0000 -0.8937
vn 0.4759 0.7071 -0.5230
vn 0.8475 -0.0000 -0.5308
vn 0.1994 -0.9630 0.1815
vn 0.1994 0.9630 0.1815
vn -0.4486 -0.0000 0.8937
vn -0.4759 -0.7071 0.5230
vn -0.4759 0.7071 0.5230
vn -0.8475 -0.0000 0.5308
vn -0.1994 -0.9630 -0.1815
vn -0.1994 0.9630 -0.1815
vn -0.0000 -1.0000 -0.0000
vn -0.3201 -0.6804 -0.6592
vn -0.3201 0.6804 -0.6592
vn 0.6864 -0.6804 0.2566
vn 0.6864 0.6804 0.2566
vn -0.6864 -0.6804 -0.2566
vn -0.6864 0.6804 -0.2566
vn 0.3201 -0.6804 0.6592
vn 0.3201 0.6804 0.6592
vn 0.2499 -0.9285 -0.2747
vn -0.4368 -0.0000 -0.8996
vn 0.2499 0.9285 -0.2747
vn 0.9367 -0.0000 0.3502
vn 0.5230 -0.7071 0.4759
vn 0.5230 0.7071 0.4759
vn 0.4368 -0.0000 0.8996
vn -0.2499 -0.9285 0.2747
vn -0.2499 0.9285 0.2747
vn -0.9367 -0.0000 -0.3501
vn -0.5230 -0.7071 -0.4759
vn -0.5230 0.7071 -0.4759
vn -0.0000 -0.0000 1.0000
vn 1.0000 -0.0000 -0.0000
vn -1.0000 -0.0000 -0.0000
vn -0.0000 -0.0000 -1.0000
vn -0.5774 -0.5774 0.5774
vn -0.5774 0.5774 0.5774
vn -0.5773 -0.5773 -0.5774
vn -0.5773 0.5774 -0.5774
vn 0.5774 -0.5774 0.5773
vn 0.5773 0.5774 0.5773
vn 0.5773 -0.5773 -0.5774
vn 0.5773 0.5774 -0.5774
vn -0.5773 -0.5774 0.5773
vn -0.5773 0.5774 0.5773
vn -0.5774 -0.5774 -0.5773
vn -0.5773 0.5774 -0.5773
vn 0.5773 -0.5774 0.5774
vn 0.5773 0.5773 -0.5774
vn -0.5774 0.5773 0.5774
vn -0.5773 -0.5774 -0.5773
vn 0.5773 -0.5774 0.5773
vn 0.5774 0.5774 0.5774
vn 0.5773 -0.5774 -0.5773
vn -0.5773 -0.5774 0.5774
vn -0.5774 0.5773 -0.5774
vn 0.5773 0.5774 0.5774
vn -0.5773 0.5774 0.5774
vn -0.5773 -0.5774 -0.5774
vn -0.5774 0.5773 -0.5773
vn 0.5774 0.5773 -0.5773
vn -0.5773 0.5773 0.5774
vn -0.5774 -0.5774 0.5773
vn -0.5774 0.5774 0.5773
vn -0.5774 -0.5774 -0.5774
vn 0.5774 -0.5773 0.5774
vn 0.5774 0.5773 0.5774
vn 0.5774 -0.5773 -0.5773
vn 0.5774 0.5774 -0.5774
vn -0.5774 -0.5773 -0.5773
vn -0.5774 0.5774 -0.5773
vn 0.5774 0.5774 0.5773
vn 0.5773 0.5774 -0.5773
vn -0.5774 -0.5773 -0.5774
vn 0.5773 -0.5773 0.5774
vn 0.5774 -0.5773 -0.5774
vn -0.7071 -0.7071 -0.0000
vn -0.7071 -0.0000 0.7071
vn -0.7071 0.7071 -0.0000
vn -0.7071 -0.0000 -0.7071
vn -0.0000 -0.7071 -0.7071
vn -0.0000 0.7071 -0.7071
vn 0.7071 -0.0000 -0.7071
vn 0.7071 -0.7071 -0.0000
vn 0.7071 0.7071 -0.0000
vn 0.7071 -0.0000 0.7071
vn -0.0000 -0.7071 0.7071
vn -0.0000 0.7071 0.7071
vn -0.5000 -0.0000 0.8660
vn -0.5000 -0.0000 -0.8660
vn 0.5000 -0.0000 -0.8660
vn 0.5000 -0.0000 0.8660
vn 0.3159 -0.0474 -0.9476
vn 0.3159 0.0474 -0.9476
vn 0.3159 -0.0474 0.9476
vn 0.3159 0.0474 0.9476
vn -0.3158 -0.0474 -0.9476
vn -0.3158 0.0474 -0.9476
vn -0.3159 -0.0474 0.9476
vn -0.3159 0.0474 0.9476
vn 0.9889 -0.1483 -0.0000
vn 0.3162 -0.0000 -0.9487
vn 0.9889 0.1483 -0.0000
vn 0.3162 -0.0000 0.9487
vn -0.0000 -0.0499 0.9988
vn -0.0000 0.0499 0.9988
vn -0.3162 -0.0000 0.9487
vn -0.9889 -0.1483 -0.0000
vn -0.9889 0.1483 -0.0000
vn -0.3162 -0.0000 -0.9487
vn -0.0000 -0.0499 -0.9988
vn -0.0000 0.0499 -0.9988
vn -0.3159 -0.0474 -0.9476
vn -0.3159 0.0474 -0.9476
vn 0.3163 -0.0000 -0.9487
vn -0.3163 -0.0000 0.9487
vt 0.800632 0.614673
vt 0.755256 0.660049
vt 0.755256 0.614673
vt 0.800632 0.557467
vt 0.755256 0.602843
vt 0.755256 0.557467
vt 0.857838 0.557467
vt 0.812462 0.602843
vt 0.812462 0.557467
vt 0.800632 0.443055
vt 0.755256 0.488431
vt 0.755256 0.443055
vt 0.800632 0.500261
vt 0.755256 0.545637
vt 0.755256 0.500261
vt 0.698050 0.602843
vt 0.698050 0.608758
vt 0.692135 0.602843
vt 0.800632 0.437140
vt 0.806547 0.443055
vt 0.698050 0.557467
vt 0.692135 0.557467
vt 0.698050 0.551552
vt 0.806547 0.488431
vt 0.800632 0.494346
vt 0.800632 0.488431
vt 0.743426 0.602843
vt 0.749341 0.602843
vt 0.743426 0.608758
vt 0.806547 0.614673
vt 0.800632 0.608758
vt 0.743426 0.557467
vt 0.743426 0.551552
vt 0.749341 0.557467
vt 0.806547 0.545637
vt 0.800632 0.551552
vt 0.800632 0.545637
vt 0.755256 0.437140
vt 0.806547 0.500261
vt 0.800632 0.602843
vt 0.806547 0.660049
vt 0.174375 0.567773
vt 0.123240 0.618909
vt 0.123240 0.567773
vt 0.174375 0.506012
vt 0.123240 0.557147
vt 0.123240 0.506012
vt 0.236136 0.506012
vt 0.185001 0.557147
vt 0.185001 0.506012
vt 0.174375 0.382490
vt 0.123240 0.433625
vt 0.123240 0.382490
vt 0.174375 0.444251
vt 0.123240 0.495386
vt 0.123240 0.444251
vt 0.061479 0.557147
vt 0.061479 0.562460
vt 0.056166 0.557147
vt 0.174375 0.377177
vt 0.179688 0.382490
vt 0.061478 0.506012
vt 0.056166 0.506012
vt 0.061479 0.500699
vt 0.179688 0.433625
vt 0.174375 0.438938
vt 0.174375 0.433625
vt 0.112614 0.557147
vt 0.117927 0.557147
vt 0.112614 0.562460
vt 0.179688 0.567773
vt 0.174375 0.562460
vt 0.112614 0.506012
vt 0.112614 0.500699
vt 0.117927 0.506012
vt 0.179688 0.495386
vt 0.174375 0.500699
vt 0.174375 0.495386
vt 0.123240 0.377177
vt 0.179688 0.444251
vt 0.174375 0.557147
vt 0.179688 0.618909
vt 0.552339 0.263398
vt 0.480448 0.338732
vt 0.480448 0.263398
vt 0.552339 0.193229
vt 0.480448 0.255283
vt 0.480448 0.193229
vt 0.402315 0.193229
vt 0.476854 0.255283
vt 0.402315 0.255283
vt 0.630870 0.193229
vt 0.555536 0.255283
vt 0.555536 0.193229
vt 0.552339 0.039611
vt 0.480448 0.101665
vt 0.480448 0.039611
vt 0.552339 0.109780
vt 0.480448 0.185114
vt 0.480448 0.109780
vt 0.547421 0.263796
vt 0.485367 0.338335
vt 0.485367 0.263796
vt 0.547421 0.193229
vt 0.485367 0.255283
vt 0.485367 0.193229
vt 0.406098 0.190770
vt 0.473071 0.257742
vt 0.406098 0.257742
vt 0.630472 0.193229
vt 0.555933 0.255283
vt 0.555933 0.193229
vt 0.547421 0.039611
vt 0.485367 0.101665
vt 0.485367 0.039611
vt 0.547421 0.110177
vt 0.485367 0.184717
vt 0.485367 0.110177
vt 0.553876 0.267579
vt 0.478911 0.334551
vt 0.478911 0.267579
vt 0.553876 0.190770
vt 0.478911 0.257742
vt 0.478911 0.190770
vt 0.626689 0.190770
vt 0.559717 0.257742
vt 0.559717 0.190770
vt 0.553876 0.037152
vt 0.478911 0.104124
vt 0.478911 0.037152
vt 0.553876 0.113961
vt 0.478911 0.180933
vt 0.478911 0.113961
vt 0.626689 0.190770
vt 0.559717 0.257742
vt 0.478911 0.037152
vt 0.478911 0.190770
vt 0.478911 0.104124
vt 0.401918 0.186589
vt 0.477251 0.261923
vt 0.401918 0.261923
vt 0.547421 0.263398
vt 0.485367 0.338732
vt 0.485367 0.263398
vt 0.547421 0.186589
vt 0.485367 0.261923
vt 0.485367 0.186589
vt 0.630870 0.186589
vt 0.555536 0.261923
vt 0.555536 0.186589
vt 0.547421 0.032971
vt 0.485367 0.108305
vt 0.485367 0.032971
vt 0.547421 0.109780
vt 0.485367 0.185114
vt 0.485367 0.109780
vt 0.485367 0.255283
vt 0.408558 0.186987
vt 0.470612 0.261526
vt 0.408558 0.261526
vt 0.630472 0.193229
vt 0.555933 0.255283
vt 0.547421 0.270038
vt 0.485367 0.332092
vt 0.485367 0.270038
vt 0.547421 0.186987
vt 0.485367 0.261526
vt 0.485367 0.186987
vt 0.408558 0.261526
vt 0.624230 0.186987
vt 0.562176 0.261526
vt 0.562176 0.186987
vt 0.547421 0.033368
vt 0.485367 0.107908
vt 0.485367 0.033368
vt 0.547421 0.116420
vt 0.485367 0.178474
vt 0.485367 0.116420
vt 0.401918 0.255283
vt 0.401918 0.262661
vt 0.401180 0.255283
vt 0.552339 0.338732
vt 0.554798 0.338732
vt 0.552339 0.339470
vt 0.401918 0.193229
vt 0.401180 0.193229
vt 0.401918 0.185852
vt 0.554798 0.109780
vt 0.552339 0.109042
vt 0.477251 0.255283
vt 0.477989 0.255283
vt 0.477251 0.262661
vt 0.554798 0.255283
vt 0.552339 0.262661
vt 0.552339 0.255283
vt 0.477251 0.193229
vt 0.477251 0.185852
vt 0.477989 0.193229
vt 0.554798 0.193229
vt 0.552339 0.185852
vt 0.402315 0.262661
vt 0.547421 0.338335
vt 0.554798 0.338335
vt 0.547421 0.339470
vt 0.402315 0.185852
vt 0.554798 0.110177
vt 0.547421 0.109042
vt 0.476854 0.262661
vt 0.547421 0.262661
vt 0.547421 0.255283
vt 0.476854 0.193229
vt 0.476854 0.185852
vt 0.547421 0.185852
vt 0.406098 0.262661
vt 0.401180 0.257742
vt 0.553876 0.334551
vt 0.554798 0.334551
vt 0.553876 0.339470
vt 0.401180 0.190770
vt 0.406098 0.185852
vt 0.554798 0.113961
vt 0.553876 0.109042
vt 0.477989 0.257742
vt 0.473071 0.262661
vt 0.554798 0.257742
vt 0.553876 0.262661
vt 0.553876 0.257742
vt 0.473071 0.190770
vt 0.473071 0.185852
vt 0.477989 0.190770
vt 0.554798 0.190770
vt 0.553876 0.185852
vt 0.473071 0.190770
vt 0.553876 0.262661
vt 0.553876 0.257742
vt 0.401180 0.261923
vt 0.547421 0.338732
vt 0.401180 0.186589
vt 0.401918 0.185852
vt 0.477989 0.261923
vt 0.554798 0.261923
vt 0.547421 0.261923
vt 0.477251 0.186589
vt 0.477989 0.186589
vt 0.554798 0.186589
vt 0.477989 0.255283
vt 0.554798 0.255283
vt 0.408558 0.262661
vt 0.401180 0.261526
vt 0.547421 0.332092
vt 0.554798 0.332092
vt 0.401180 0.186987
vt 0.408558 0.185852
vt 0.554798 0.116420
vt 0.477989 0.261526
vt 0.470612 0.262661
vt 0.554798 0.261526
vt 0.547421 0.261526
vt 0.470612 0.186987
vt 0.470612 0.185852
vt 0.477989 0.186987
vt 0.554798 0.186987
vt 0.480448 0.339470
vt 0.554798 0.039611
vt 0.552339 0.101665
vt 0.554798 0.185114
vt 0.552339 0.185114
vt 0.554798 0.263398
vt 0.485367 0.339470
vt 0.547421 0.101665
vt 0.554798 0.184717
vt 0.547421 0.184717
vt 0.554798 0.263796
vt 0.478911 0.339470
vt 0.554798 0.037152
vt 0.553876 0.104124
vt 0.554798 0.180933
vt 0.553876 0.180933
vt 0.554798 0.267579
vt 0.554798 0.032971
vt 0.547421 0.108305
vt 0.547421 0.185114
vt 0.554798 0.033368
vt 0.547421 0.107907
vt 0.554798 0.178474
vt 0.547421 0.178474
vt 0.554798 0.270038
vt 0.152456 0.966072
vt 0.132920 0.907465
vt 0.152456 0.907465
vt 0.132920 0.966072
vt 0.113384 0.907465
vt 0.113384 0.966072
vt 0.093849 0.907465
vt 0.093849 0.966072
vt 0.074313 0.907465
vt 0.088907 0.864095
vt 0.040182 0.892227
vt 0.064545 0.850029
vt 0.074313 0.966072
vt 0.054777 0.907465
vt 0.054777 0.966072
vt 0.035241 0.907465
vt 0.123152 0.850029
vt 0.098790 0.864095
vt 0.098790 0.892227
vt 0.176917 0.565231
vt 0.120697 0.621451
vt 0.120697 0.565231
vt 0.176917 0.503470
vt 0.120697 0.559690
vt 0.120697 0.503470
vt 0.238678 0.503470
vt 0.182459 0.559690
vt 0.182459 0.503470
vt 0.176917 0.379948
vt 0.120697 0.436167
vt 0.120697 0.379948
vt 0.176917 0.441709
vt 0.120697 0.497929
vt 0.120697 0.441709
vt 0.058936 0.559690
vt 0.058936 0.562460
vt 0.056166 0.559690
vt 0.176917 0.377177
vt 0.179688 0.379948
vt 0.058936 0.503470
vt 0.056166 0.503470
vt 0.058936 0.500699
vt 0.179688 0.436167
vt 0.176917 0.438938
vt 0.176917 0.436167
vt 0.115156 0.559690
vt 0.117927 0.559690
vt 0.115156 0.562460
vt 0.179688 0.565231
vt 0.176917 0.562460
vt 0.115156 0.503470
vt 0.115156 0.500699
vt 0.117927 0.503470
vt 0.179688 0.497929
vt 0.176917 0.500699
vt 0.176917 0.497929
vt 0.120697 0.377177
vt 0.179688 0.441709
vt 0.176917 0.559690
vt 0.179688 0.621451
vt 0.578792 0.958384
vt 0.546842 0.866302
vt 0.577662 0.865926
vt 0.547972 0.958761
vt 0.516023 0.866679
vt 0.517153 0.959137
vt 0.485203 0.867056
vt 0.486333 0.959514
vt 0.454384 0.867432
vt 0.476572 0.798732
vt 0.400246 0.844051
vt 0.437867 0.777011
vt 0.455514 0.959890
vt 0.423565 0.867809
vt 0.424695 0.960267
vt 0.392745 0.868186
vt 0.530325 0.775881
vt 0.492162 0.798541
vt 0.492705 0.842921
vt 0.950917 0.952319
vt 0.912987 0.838529
vt 0.950917 0.838529
vt 0.912987 0.952319
vt 0.875057 0.838529
vt 0.875057 0.952319
vt 0.837127 0.838529
vt 0.837127 0.952319
vt 0.799197 0.838529
vt 0.827534 0.754324
vt 0.732930 0.808943
vt 0.780232 0.727014
vt 0.799197 0.952319
vt 0.761267 0.838529
vt 0.761267 0.952319
vt 0.723337 0.838529
vt 0.894022 0.727014
vt 0.846721 0.754324
vt 0.846721 0.808943
vt 0.800632 0.660049
vt 0.857838 0.602843
vt 0.174375 0.618909
vt 0.236136 0.557147
vt 0.630870 0.255283
vt 0.630472 0.255283
vt 0.626689 0.257742
vt 0.626689 0.257742
vt 0.630870 0.261923
vt 0.624230 0.261526
vt 0.554798 0.101665
vt 0.554798 0.101665
vt 0.554798 0.104124
vt 0.554798 0.108305
vt 0.554798 0.107907
vt 0.088907 0.892227
vt 0.064545 0.906293
vt 0.040182 0.864095
vt 0.035241 0.966072
vt 0.123152 0.906293
vt 0.147515 0.864095
vt 0.147515 0.892227
vt 0.176917 0.621451
vt 0.238678 0.559690
vt 0.477115 0.843112
vt 0.438952 0.865771
vt 0.399704 0.799671
vt 0.393875 0.960644
vt 0.531410 0.864641
vt 0.569031 0.797602
vt 0.569573 0.841982
vt 0.827534 0.808943
vt 0.780232 0.836253
vt 0.732930 0.754324
vt 0.723337 0.952319
vt 0.894022 0.836253
vt 0.941324 0.754324
vt 0.941324 0.808943
s 0
usemtl マテリアル
f 17/1/1 2/2/1 15/3/1
f 23/4/2 14/5/2 21/6/2
f 10/7/3 16/8/3 22/9/3
f 6/10/4 8/11/4 3/12/4
f 11/13/5 20/14/5 9/15/5
f 1/16/6 2/17/6 3/18/6
f 4/19/7 5/20/7 6/10/7
f 7/21/8 8/22/8 9/23/8
f 10/24/9 11/25/9 12/26/9
f 13/27/10 14/28/10 15/29/10
f 16/30/11 17/1/11 18/31/11
f 19/32/12 20/33/12 21/34/12
f 22/35/13 23/36/13 24/37/13
f 1/16/14 8/22/14 7/21/14
f 4/19/15 3/12/15 2/38/15
f 10/24/16 6/10/16 5/20/16
f 9/15/17 12/26/17 11/13/17
f 7/21/18 20/33/18 19/32/18
f 22/35/19 11/13/19 10/39/19
f 21/6/20 24/37/20 23/4/20
f 19/32/21 14/5/21 13/27/21
f 16/8/22 23/4/22 22/9/22
f 15/3/23 18/40/23 17/1/23
f 13/27/24 2/17/24 1/16/24
f 5/41/25 17/1/25 16/30/25
f 19/32/26 1/16/26 7/21/26
f 41/42/1 26/43/1 39/44/1
f 47/45/2 38/46/2 45/47/2
f 34/48/3 40/49/3 46/50/3
f 30/51/4 32/52/4 27/53/4
f 35/54/5 44/55/5 33/56/5
f 25/57/27 26/58/27 27/59/27
f 28/60/28 29/61/28 30/51/28
f 31/62/29 32/63/29 33/64/29
f 34/65/30 35/66/30 36/67/30
f 37/68/31 38/69/31 39/70/31
f 40/71/32 41/42/32 42/72/32
f 43/73/33 44/74/33 45/75/33
f 46/76/34 47/77/34 48/78/34
f 25/57/35 32/63/35 31/62/35
f 28/60/36 27/53/36 26/79/36
f 34/65/37 30/51/37 29/61/37
f 33/56/38 36/67/38 35/54/38
f 31/62/39 44/74/39 43/73/39
f 46/76/40 35/54/40 34/80/40
f 45/47/41 48/78/41 47/45/41
f 43/73/42 38/46/42 37/68/42
f 40/49/43 47/45/43 46/50/43
f 39/44/44 42/81/44 41/42/44
f 37/68/45 26/58/45 25/57/45
f 29/82/46 41/42/46 40/71/46
f 43/73/26 25/57/26 31/62/26
f 65/83/47 50/84/47 63/85/47
f 71/86/48 62/87/48 69/88/48
f 79/89/26 85/90/26 73/91/26
f 58/92/3 64/93/3 70/94/3
f 54/95/49 56/96/49 51/97/49
f 59/98/50 68/99/50 57/100/50
f 89/101/47 74/102/47 87/103/47
f 95/104/48 86/105/48 93/106/48
f 103/107/26 109/108/26 97/109/26
f 82/110/3 88/111/3 94/112/3
f 78/113/49 80/114/49 75/115/49
f 83/116/50 92/117/50 81/118/50
f 113/119/47 98/120/47 111/121/47
f 119/122/48 110/123/48 117/124/48
f 127/107/26 133/108/26 121/109/26
f 106/125/3 112/126/3 118/127/3
f 102/128/49 104/129/49 99/130/49
f 107/131/50 116/132/50 105/133/50
f 137/119/47 122/120/47 135/121/47
f 143/122/48 134/123/48 141/124/48
f 151/107/26 157/108/26 145/109/26
f 130/134/3 136/135/3 142/127/3
f 126/128/49 128/129/49 123/136/49
f 131/131/50 140/132/50 129/133/50
f 161/119/47 146/120/47 159/121/47
f 167/122/48 158/123/48 165/137/48
f 175/107/26 181/108/26 169/109/26
f 154/134/3 160/135/3 166/127/3
f 150/128/49 152/138/49 147/136/49
f 155/131/50 164/132/50 153/133/50
f 185/119/47 170/120/47 183/121/47
f 191/122/48 182/123/48 189/124/48
f 199/139/26 205/140/26 193/141/26
f 178/125/3 184/126/3 190/127/3
f 174/128/49 176/129/49 171/130/49
f 179/131/50 188/132/50 177/133/50
f 209/142/47 194/143/47 207/144/47
f 215/145/48 206/146/48 213/147/48
f 223/89/26 229/90/26 217/91/26
f 202/148/3 208/149/3 214/150/3
f 198/151/49 200/152/49 195/153/49
f 203/154/50 212/155/50 201/156/50
f 233/101/47 218/102/47 231/103/47
f 239/104/48 230/157/48 237/106/48
f 247/158/26 253/159/26 241/160/26
f 226/161/3 232/162/3 238/112/3
f 222/113/49 224/114/49 219/115/49
f 227/116/50 236/117/50 225/118/50
f 257/163/47 242/164/47 255/165/47
f 263/166/48 254/167/48 261/168/48
f 271/158/26 277/159/26 265/169/26
f 250/170/3 256/171/3 262/172/3
f 246/173/49 248/174/49 243/175/49
f 251/176/50 260/177/50 249/178/50
f 281/163/47 266/164/47 279/165/47
f 287/166/48 278/167/48 285/168/48
f 274/170/3 280/171/3 286/172/3
f 270/173/49 272/174/49 267/175/49
f 275/176/50 284/177/50 273/178/50
f 49/179/51 50/180/51 51/181/51
f 52/182/52 53/183/52 54/184/52
f 55/185/53 56/186/53 57/187/53
f 58/188/54 59/98/54 60/189/54
f 61/190/55 62/191/55 63/192/55
f 64/193/56 65/194/56 66/195/56
f 67/196/57 68/197/57 69/198/57
f 70/199/58 71/86/58 72/200/58
f 73/91/59 74/201/59 75/181/59
f 76/202/60 77/203/60 78/204/60
f 79/89/61 80/186/61 81/205/61
f 82/206/62 83/116/62 84/207/62
f 85/90/63 86/191/63 87/208/63
f 88/193/56 89/209/56 90/210/56
f 91/211/57 92/212/57 93/198/57
f 94/199/64 95/104/64 96/213/64
f 97/109/51 98/214/51 99/215/51
f 100/216/65 101/217/65 102/218/65
f 103/107/66 104/219/66 105/220/66
f 106/221/54 107/131/54 108/222/54
f 109/108/67 110/223/67 111/224/67
f 112/225/68 113/226/68 114/227/68
f 115/228/69 116/229/69 117/230/69
f 118/231/58 119/122/58 120/232/58
f 121/109/70 122/214/70 123/215/70
f 124/216/60 125/217/60 126/218/60
f 127/107/53 128/219/53 129/220/53
f 130/221/71 131/131/71 132/222/71
f 133/108/67 134/223/67 135/224/67
f 136/225/72 137/226/72 138/227/72
f 139/233/69 140/229/69 141/230/69
f 142/231/64 143/122/64 144/232/64
f 145/109/59 146/214/59 147/215/59
f 148/216/73 149/217/73 150/218/73
f 151/107/74 152/219/74 153/220/74
f 154/221/75 155/131/75 156/222/75
f 157/108/63 158/223/63 159/224/63
f 160/225/72 161/234/72 162/235/72
f 163/233/69 164/229/69 165/230/69
f 166/231/76 167/122/76 168/232/76
f 169/109/70 170/214/70 171/215/70
f 172/216/77 173/217/77 174/218/77
f 175/107/61 176/219/61 177/220/61
f 178/221/75 179/131/75 180/222/75
f 181/108/67 182/223/67 183/224/67
f 184/225/56 185/226/56 186/227/56
f 187/228/69 188/229/69 189/230/69
f 190/231/58 191/122/58 192/232/58
f 193/141/78 194/180/78 195/236/78
f 196/237/79 197/183/79 198/204/79
f 199/139/80 200/238/80 201/239/80
f 202/188/62 203/154/62 204/207/62
f 205/140/81 206/240/81 207/192/81
f 208/241/82 209/209/82 210/242/82
f 211/243/83 212/197/83 213/244/83
f 214/245/84 215/145/84 216/213/84
f 217/91/51 218/201/51 219/181/51
f 220/202/79 221/203/79 222/204/79
f 223/89/85 224/186/85 225/205/85
f 226/206/86 227/116/86 228/207/86
f 229/90/63 230/246/63 231/208/63
f 232/247/72 233/209/72 234/210/72
f 235/211/57 236/212/57 237/198/57
f 238/199/58 239/104/58 240/213/58
f 241/160/59 242/248/59 243/249/59
f 244/250/73 245/251/73 246/204/73
f 247/158/61 248/252/61 249/253/61
f 250/254/86 251/176/86 252/207/86
f 253/159/55 254/255/55 255/256/55
f 256/257/87 257/209/87 258/258/87
f 259/259/69 260/260/69 261/261/69
f 262/262/88 263/166/88 264/213/88
f 265/169/78 266/248/78 267/249/78
f 268/250/60 269/251/60 270/204/60
f 271/158/89 272/252/89 273/253/89
f 274/254/71 275/176/71 276/207/71
f 277/159/90 278/255/90 279/256/90
f 280/257/72 281/209/72 282/258/72
f 283/259/91 284/260/91 285/261/91
f 286/262/58 287/166/58 288/213/58
f 49/179/92 56/186/92 55/185/92
f 52/182/93 51/263/93 50/84/93
f 53/264/94 60/265/94 54/95/94
f 57/100/95 60/265/95 59/98/95
f 67/196/96 57/187/96 68/197/96
f 70/266/97 59/98/97 58/188/97
f 69/88/98 72/267/98 71/86/98
f 67/196/99 62/87/99 61/190/99
f 70/94/100 66/195/100 71/86/100
f 63/85/101 66/195/101 65/83/101
f 49/179/102 63/192/102 50/180/102
f 53/183/103 65/83/103 64/268/103
f 73/91/92 80/186/92 79/89/92
f 76/202/93 75/269/93 74/102/93
f 77/264/94 84/270/94 78/113/94
f 81/118/95 84/270/95 83/116/95
f 91/211/96 81/205/96 92/212/96
f 94/271/97 83/116/97 82/206/97
f 93/106/98 96/272/98 95/104/98
f 91/211/99 86/105/99 85/90/99
f 94/112/100 90/210/100 95/104/100
f 87/103/101 90/210/101 89/101/101
f 73/91/102 87/208/102 74/201/102
f 77/203/103 89/101/103 88/273/103
f 97/109/92 104/219/92 103/107/92
f 100/216/93 99/274/93 98/120/93
f 101/275/94 108/276/94 102/128/94
f 105/133/95 108/276/95 107/131/95
f 115/228/96 105/220/96 116/229/96
f 118/277/97 107/131/97 106/221/97
f 117/124/98 120/278/98 119/122/98
f 115/228/99 110/123/99 109/108/99
f 118/127/100 114/227/100 119/122/100
f 111/121/101 114/227/101 113/119/101
f 97/109/102 111/224/102 98/214/102
f 101/217/103 113/119/103 112/279/103
f 121/109/92 128/219/92 127/107/92
f 124/216/93 123/274/93 122/120/93
f 125/275/94 132/276/94 126/128/94
f 129/133/95 132/276/95 131/131/95
f 139/233/96 129/220/96 140/229/96
f 142/277/97 131/131/97 130/221/97
f 141/124/98 144/278/98 143/122/98
f 139/233/99 134/123/99 133/108/99
f 142/127/100 138/227/100 143/122/100
f 135/121/101 138/227/101 137/119/101
f 121/109/102 135/224/102 122/214/102
f 125/217/103 137/119/103 136/279/103
f 145/109/92 152/219/92 151/107/92
f 148/216/93 147/274/93 146/120/93
f 149/275/94 156/276/94 150/128/94
f 153/133/95 156/276/95 155/131/95
f 163/233/96 153/220/96 164/229/96
f 166/277/97 155/131/97 154/221/97
f 165/137/98 168/278/98 167/122/98
f 163/233/99 158/123/99 157/108/99
f 166/127/100 162/235/100 167/122/100
f 159/121/101 162/235/101 161/119/101
f 145/109/102 159/224/102 146/214/102
f 149/217/103 161/119/103 160/279/103
f 169/109/92 176/219/92 175/107/92
f 172/216/93 171/274/93 170/120/93
f 173/275/94 180/276/94 174/128/94
f 177/133/95 180/276/95 179/131/95
f 187/228/96 177/220/96 188/229/96
f 190/277/97 179/131/97 178/221/97
f 189/124/98 192/278/98 191/122/98
f 187/228/99 182/123/99 181/108/99
f 190/127/100 186/227/100 191/122/100
f 183/121/101 186/227/101 185/119/101
f 169/109/102 183/224/102 170/214/102
f 173/217/103 185/119/103 184/279/103
f 193/141/92 200/238/92 199/139/92
f 196/237/93 195/269/93 194/143/93
f 197/280/94 204/281/94 198/151/94
f 201/156/95 204/281/95 203/154/95
f 211/243/96 201/239/96 212/197/96
f 214/266/97 203/154/97 202/188/97
f 213/147/98 216/282/98 215/145/98
f 211/243/99 206/146/99 205/140/99
f 214/150/100 210/242/100 215/145/100
f 207/144/101 210/242/101 209/142/101
f 193/141/102 207/192/102 194/180/102
f 197/183/103 209/142/103 208/268/103
f 217/91/92 224/186/92 223/89/92
f 220/202/93 219/269/93 218/102/93
f 221/264/94 228/270/94 222/113/94
f 225/118/95 228/270/95 227/116/95
f 235/211/96 225/205/96 236/212/96
f 238/271/97 227/116/97 226/206/97
f 237/106/98 240/272/98 239/104/98
f 235/211/99 230/157/99 229/90/99
f 238/112/100 234/210/100 239/104/100
f 231/103/101 234/210/101 233/101/101
f 217/91/102 231/208/102 218/201/102
f 221/203/103 233/101/103 232/273/103
f 241/160/92 248/252/92 247/158/92
f 244/250/93 243/269/93 242/164/93
f 245/283/94 252/284/94 246/173/94
f 249/178/95 252/284/95 251/176/95
f 259/259/96 249/253/96 260/260/96
f 262/285/97 251/176/97 250/254/97
f 261/168/98 264/286/98 263/166/98
f 259/259/99 254/167/99 253/159/99
f 262/172/100 258/258/100 263/166/100
f 255/165/101 258/258/101 257/163/101
f 241/160/102 255/256/102 242/248/102
f 245/251/103 257/163/103 256/287/103
f 265/169/92 272/252/92 271/158/92
f 268/250/93 267/269/93 266/164/93
f 269/283/94 276/284/94 270/173/94
f 273/178/95 276/284/95 275/176/95
f 283/259/96 273/253/96 284/260/96
f 286/285/97 275/176/97 274/254/97
f 285/168/98 288/286/98 287/166/98
f 283/259/99 278/167/99 277/159/99
f 286/172/100 282/258/100 287/166/100
f 279/165/101 282/258/101 281/163/101
f 265/169/102 279/256/102 266/248/102
f 269/251/103 281/163/103 280/287/103
f 55/185/26 61/190/26 49/179/26
f 290/288/104 291/289/104 289/290/104
f 292/291/49 293/292/49 291/289/49
f 294/293/105 295/294/105 293/292/105
f 296/295/106 297/296/106 295/294/106
f 294/297/3 300/298/3 296/299/3
f 298/300/48 299/301/48 297/296/48
f 300/302/107 289/303/107 299/301/107
f 295/304/26 297/305/26 299/306/26
f 317/307/50 302/308/50 315/309/50
f 323/310/49 314/311/49 321/312/49
f 310/313/3 316/314/3 322/315/3
f 306/316/48 308/317/48 303/318/48
f 311/319/47 320/320/47 309/321/47
f 301/322/108 302/323/108 303/324/108
f 304/325/109 305/326/109 306/316/109
f 307/327/110 308/328/110 309/329/110
f 310/330/111 311/331/111 312/332/111
f 313/333/112 314/334/112 315/335/112
f 316/336/113 317/307/113 318/337/113
f 319/338/114 320/339/114 321/340/114
f 322/341/115 323/342/115 324/343/115
f 301/322/116 308/328/116 307/327/116
f 304/325/117 303/318/117 302/344/117
f 305/326/118 312/332/118 306/316/118
f 309/321/119 312/332/119 311/319/119
f 319/338/120 309/329/120 320/339/120
f 322/341/121 311/319/121 310/345/121
f 321/312/122 324/343/122 323/310/122
f 319/338/123 314/311/123 313/333/123
f 322/315/124 318/346/124 323/310/124
f 315/309/125 318/346/125 317/307/125
f 301/322/126 315/335/126 302/323/126
f 305/347/127 317/307/127 316/336/127
f 307/327/26 313/333/26 301/322/26
f 341/307/50 326/308/50 339/309/50
f 347/310/49 338/311/49 345/312/49
f 334/313/3 340/314/3 346/315/3
f 330/316/48 332/317/48 327/318/48
f 335/319/47 344/320/47 333/321/47
f 325/322/108 326/323/108 327/324/108
f 328/325/109 329/326/109 330/316/109
f 331/327/110 332/328/110 333/329/110
f 334/330/111 335/331/111 336/332/111
f 337/333/128 338/334/128 339/335/128
f 340/336/129 341/307/129 342/337/129
f 343/338/114 344/339/114 345/340/114
f 346/341/115 347/342/115 348/343/115
f 325/322/116 332/328/116 331/327/116
f 328/325/130 327/318/130 326/344/130
f 329/326/118 336/332/118 330/316/118
f 333/321/119 336/332/119 335/319/119
f 343/338/120 333/329/120 344/339/120
f 346/341/121 335/319/121 334/345/121
f 345/312/131 348/343/131 347/310/131
f 343/338/123 338/311/123 337/333/123
f 346/315/124 342/346/124 347/310/124
f 339/309/125 342/346/125 341/307/125
f 325/322/126 339/335/126 326/323/126
f 329/347/127 341/307/127 340/336/127
f 331/327/26 337/333/26 325/322/26
f 350/348/104 351/349/104 349/350/104
f 352/351/49 353/352/49 351/349/49
f 354/353/105 355/354/105 353/352/105
f 356/355/106 357/356/106 355/354/106
f 354/357/3 360/358/3 356/359/3
f 358/360/48 359/361/48 357/356/48
f 360/362/107 349/363/107 359/361/107
f 355/364/26 357/365/26 359/366/26
f 377/307/50 362/308/50 375/309/50
f 383/310/49 374/311/49 381/312/49
f 370/313/3 376/314/3 382/315/3
f 366/316/48 368/317/48 363/318/48
f 371/319/47 380/320/47 369/321/47
f 361/322/108 362/323/108 363/324/108
f 364/325/109 365/326/109 366/316/109
f 367/327/110 368/328/110 369/329/110
f 370/330/111 371/331/111 372/332/111
f 373/333/128 374/334/128 375/335/128
f 376/336/129 377/307/129 378/337/129
f 379/338/114 380/339/114 381/340/114
f 382/341/115 383/342/115 384/343/115
f 361/322/116 368/328/116 367/327/116
f 364/325/130 363/318/130 362/344/130
f 365/326/118 372/332/118 366/316/118
f 369/321/119 372/332/119 371/319/119
f 379/338/120 369/329/120 380/339/120
f 382/341/121 371/319/121 370/345/121
f 381/312/122 384/343/122 383/310/122
f 379/338/123 374/311/123 373/333/123
f 382/315/124 378/346/124 383/310/124
f 375/309/125 378/346/125 377/307/125
f 361/322/126 375/335/126 362/323/126
f 365/347/127 377/307/127 376/336/127
f 367/327/26 373/333/26 361/322/26
f 386/367/104 387/368/104 385/369/104
f 388/370/49 389/371/49 387/368/49
f 390/372/105 391/373/105 389/371/105
f 392/374/106 393/375/106 391/373/106
f 390/376/3 396/377/3 392/378/3
f 394/379/48 395/380/48 393/375/48
f 396/381/107 385/382/107 395/380/107
f 391/383/26 393/384/26 395/385/26
f 17/1/1 4/386/1 2/2/1
f 23/4/2 18/40/2 14/5/2
f 10/7/3 5/387/3 16/8/3
f 6/10/4 12/26/4 8/11/4
f 11/13/5 24/37/5 20/14/5
f 1/16/14 3/18/14 8/22/14
f 4/19/15 6/10/15 3/12/15
f 10/24/16 12/26/16 6/10/16
f 9/15/17 8/11/17 12/26/17
f 7/21/18 9/23/18 20/33/18
f 22/35/19 24/37/19 11/13/19
f 21/6/20 20/14/20 24/37/20
f 19/32/21 21/6/21 14/5/21
f 16/8/22 18/40/22 23/4/22
f 15/3/23 14/5/23 18/40/23
f 13/27/24 15/29/24 2/17/24
f 5/41/25 4/386/25 17/1/25
f 19/32/26 13/27/26 1/16/26
f 41/42/1 28/388/1 26/43/1
f 47/45/2 42/81/2 38/46/2
f 34/48/3 29/389/3 40/49/3
f 30/51/4 36/67/4 32/52/4
f 35/54/5 48/78/5 44/55/5
f 25/57/35 27/59/35 32/63/35
f 28/60/36 30/51/36 27/53/36
f 34/65/37 36/67/37 30/51/37
f 33/56/38 32/52/38 36/67/38
f 31/62/39 33/64/39 44/74/39
f 46/76/40 48/78/40 35/54/40
f 45/47/41 44/55/41 48/78/41
f 43/73/42 45/47/42 38/46/42
f 40/49/43 42/81/43 47/45/43
f 39/44/44 38/46/44 42/81/44
f 37/68/45 39/70/45 26/58/45
f 29/82/46 28/388/46 41/42/46
f 43/73/26 37/68/26 25/57/26
f 65/83/47 52/182/47 50/84/47
f 71/86/48 66/195/48 62/87/48
f 79/89/26 91/211/26 85/90/26
f 58/92/3 53/390/3 64/93/3
f 54/95/49 60/265/49 56/96/49
f 59/98/50 72/267/50 68/99/50
f 89/101/47 76/202/47 74/102/47
f 95/104/48 90/210/48 86/105/48
f 103/107/26 115/228/26 109/108/26
f 82/110/3 77/391/3 88/111/3
f 78/113/49 84/270/49 80/114/49
f 83/116/50 96/272/50 92/117/50
f 113/119/47 100/216/47 98/120/47
f 119/122/48 114/227/48 110/123/48
f 127/107/26 139/233/26 133/108/26
f 106/125/3 101/392/3 112/126/3
f 102/128/49 108/276/49 104/129/49
f 107/131/50 120/278/50 116/132/50
f 137/119/47 124/216/47 122/120/47
f 143/122/48 138/227/48 134/123/48
f 151/107/26 163/233/26 157/108/26
f 130/134/3 125/392/3 136/135/3
f 126/128/49 132/276/49 128/129/49
f 131/131/50 144/278/50 140/132/50
f 161/119/47 148/216/47 146/120/47
f 167/122/48 162/235/48 158/123/48
f 175/107/26 187/228/26 181/108/26
f 154/134/3 149/393/3 160/135/3
f 150/128/49 156/276/49 152/138/49
f 155/131/50 168/278/50 164/132/50
f 185/119/47 172/216/47 170/120/47
f 191/122/48 186/227/48 182/123/48
f 199/139/26 211/243/26 205/140/26
f 178/125/3 173/392/3 184/126/3
f 174/128/49 180/276/49 176/129/49
f 179/131/50 192/278/50 188/132/50
f 209/142/47 196/237/47 194/143/47
f 215/145/48 210/242/48 206/146/48
f 223/89/26 235/211/26 229/90/26
f 202/148/3 197/394/3 208/149/3
f 198/151/49 204/281/49 200/152/49
f 203/154/50 216/282/50 212/155/50
f 233/101/47 220/202/47 218/102/47
f 239/104/48 234/210/48 230/157/48
f 247/158/26 259/259/26 253/159/26
f 226/161/3 221/391/3 232/162/3
f 222/113/49 228/270/49 224/114/49
f 227/116/50 240/272/50 236/117/50
f 257/163/47 244/250/47 242/164/47
f 263/166/48 258/258/48 254/167/48
f 271/158/26 283/259/26 277/159/26
f 250/170/3 245/395/3 256/171/3
f 246/173/49 252/284/49 248/174/49
f 251/176/50 264/286/50 260/177/50
f 281/163/47 268/250/47 266/164/47
f 287/166/48 282/258/48 278/167/48
f 274/170/3 269/395/3 280/171/3
f 270/173/49 276/284/49 272/174/49
f 275/176/50 288/286/50 284/177/50
f 49/179/92 51/181/92 56/186/92
f 52/182/93 54/184/93 51/263/93
f 53/264/94 58/396/94 60/265/94
f 57/100/95 56/96/95 60/265/95
f 67/196/96 55/185/96 57/187/96
f 70/266/97 72/267/97 59/98/97
f 69/88/98 68/99/98 72/267/98
f 67/196/99 69/88/99 62/87/99
f 70/94/100 64/93/100 66/195/100
f 63/85/101 62/87/101 66/195/101
f 49/179/102 61/190/102 63/192/102
f 53/183/103 52/182/103 65/83/103
f 73/91/92 75/181/92 80/186/92
f 76/202/93 78/204/93 75/269/93
f 77/264/94 82/397/94 84/270/94
f 81/118/95 80/114/95 84/270/95
f 91/211/96 79/89/96 81/205/96
f 94/271/97 96/272/97 83/116/97
f 93/106/98 92/117/98 96/272/98
f 91/211/99 93/106/99 86/105/99
f 94/112/100 88/111/100 90/210/100
f 87/103/101 86/105/101 90/210/101
f 73/91/102 85/90/102 87/208/102
f 77/203/103 76/202/103 89/101/103
f 97/109/92 99/215/92 104/219/92
f 100/216/93 102/218/93 99/274/93
f 101/275/94 106/398/94 108/276/94
f 105/133/95 104/129/95 108/276/95
f 115/228/96 103/107/96 105/220/96
f 118/277/97 120/278/97 107/131/97
f 117/124/98 116/132/98 120/278/98
f 115/228/99 117/124/99 110/123/99
f 118/127/100 112/126/100 114/227/100
f 111/121/101 110/123/101 114/227/101
f 97/109/102 109/108/102 111/224/102
f 101/217/103 100/216/103 113/119/103
f 121/109/92 123/215/92 128/219/92
f 124/216/93 126/218/93 123/274/93
f 125/275/94 130/398/94 132/276/94
f 129/133/95 128/129/95 132/276/95
f 139/233/96 127/107/96 129/220/96
f 142/277/97 144/278/97 131/131/97
f 141/124/98 140/132/98 144/278/98
f 139/233/99 141/124/99 134/123/99
f 142/127/100 136/135/100 138/227/100
f 135/121/101 134/123/101 138/227/101
f 121/109/102 133/108/102 135/224/102
f 125/217/103 124/216/103 137/119/103
f 145/109/92 147/215/92 152/219/92
f 148/216/93 150/218/93 147/274/93
f 149/275/94 154/398/94 156/276/94
f 153/133/95 152/138/95 156/276/95
f 163/233/96 151/107/96 153/220/96
f 166/277/97 168/278/97 155/131/97
f 165/137/98 164/132/98 168/278/98
f 163/233/99 165/137/99 158/123/99
f 166/127/100 160/135/100 162/235/100
f 159/121/101 158/123/101 162/235/101
f 145/109/102 157/108/102 159/224/102
f 149/217/103 148/216/103 161/119/103
f 169/109/92 171/215/92 176/219/92
f 172/216/93 174/218/93 171/274/93
f 173/275/94 178/398/94 180/276/94
f 177/133/95 176/129/95 180/276/95
f 187/228/96 175/107/96 177/220/96
f 190/277/97 192/278/97 179/131/97
f 189/124/98 188/132/98 192/278/98
f 187/228/99 189/124/99 182/123/99
f 190/127/100 184/126/100 186/227/100
f 183/121/101 182/123/101 186/227/101
f 169/109/102 181/108/102 183/224/102
f 173/217/103 172/216/103 185/119/103
f 193/141/92 195/236/92 200/238/92
f 196/237/93 198/204/93 195/269/93
f 197/280/94 202/399/94 204/281/94
f 201/156/95 200/152/95 204/281/95
f 211/243/96 199/139/96 201/239/96
f 214/266/97 216/282/97 203/154/97
f 213/147/98 212/155/98 216/282/98
f 211/243/99 213/147/99 206/146/99
f 214/150/100 208/149/100 210/242/100
f 207/144/101 206/146/101 210/242/101
f 193/141/102 205/140/102 207/192/102
f 197/183/103 196/237/103 209/142/103
f 217/91/92 219/181/92 224/186/92
f 220/202/93 222/204/93 219/269/93
f 221/264/94 226/396/94 228/270/94
f 225/118/95 224/114/95 228/270/95
f 235/211/96 223/89/96 225/205/96
f 238/271/97 240/272/97 227/116/97
f 237/106/98 236/117/98 240/272/98
f 235/211/99 237/106/99 230/157/99
f 238/112/100 232/162/100 234/210/100
f 231/103/101 230/157/101 234/210/101
f 217/91/102 229/90/102 231/208/102
f 221/203/103 220/202/103 233/101/103
f 241/160/92 243/249/92 248/252/92
f 244/250/93 246/204/93 243/269/93
f 245/283/94 250/400/94 252/284/94
f 249/178/95 248/174/95 252/284/95
f 259/259/96 247/158/96 249/253/96
f 262/285/97 264/286/97 251/176/97
f 261/168/98 260/177/98 264/286/98
f 259/259/99 261/168/99 254/167/99
f 262/172/100 256/171/100 258/258/100
f 255/165/101 254/167/101 258/258/101
f 241/160/102 253/159/102 255/256/102
f 245/251/103 244/250/103 257/163/103
f 265/169/92 267/249/92 272/252/92
f 268/250/93 270/204/93 267/269/93
f 269/283/94 274/400/94 276/284/94
f 273/178/95 272/174/95 276/284/95
f 283/259/96 271/158/96 273/253/96
f 286/285/97 288/286/97 275/176/97
f 285/168/98 284/177/98 288/286/98
f 283/259/99 285/168/99 278/167/99
f 286/172/100 280/171/100 282/258/100
f 279/165/101 278/167/101 282/258/101
f 265/169/102 277/159/102 279/256/102
f 269/251/103 268/250/103 281/163/103
f 55/185/26 67/196/26 61/190/26
f 290/288/104 292/291/104 291/289/104
f 292/291/49 294/293/49 293/292/49
f 294/293/105 296/295/105 295/294/105
f 296/295/106 298/300/106 297/296/106
f 294/297/3 292/401/3 290/402/3
f 290/402/3 300/298/3 294/297/3
f 300/298/3 298/403/3 296/299/3
f 298/300/48 300/302/48 299/301/48
f 300/302/107 290/404/107 289/303/107
f 299/306/26 289/405/26 293/406/26
f 289/405/26 291/407/26 293/406/26
f 293/406/26 295/304/26 299/306/26
f 317/307/50 304/408/50 302/308/50
f 323/310/49 318/346/49 314/311/49
f 310/313/3 305/409/3 316/314/3
f 306/316/48 312/332/48 308/317/48
f 311/319/47 324/343/47 320/320/47
f 301/322/116 303/324/116 308/328/116
f 304/325/117 306/316/117 303/318/117
f 305/326/118 310/330/118 312/332/118
f 309/321/119 308/317/119 312/332/119
f 319/338/120 307/327/120 309/329/120
f 322/341/121 324/343/121 311/319/121
f 321/312/122 320/320/122 324/343/122
f 319/338/123 321/312/123 314/311/123
f 322/315/124 316/314/124 318/346/124
f 315/309/125 314/311/125 318/346/125
f 301/322/126 313/333/126 315/335/126
f 305/347/127 304/408/127 317/307/127
f 307/327/26 319/338/26 313/333/26
f 341/307/50 328/408/50 326/308/50
f 347/310/49 342/346/49 338/311/49
f 334/313/3 329/409/3 340/314/3
f 330/316/48 336/332/48 332/317/48
f 335/319/47 348/343/47 344/320/47
f 325/322/116 327/324/116 332/328/116
f 328/325/130 330/316/130 327/318/130
f 329/326/118 334/330/118 336/332/118
f 333/321/119 332/317/119 336/332/119
f 343/338/120 331/327/120 333/329/120
f 346/341/121 348/343/121 335/319/121
f 345/312/131 344/320/131 348/343/131
f 343/338/123 345/312/123 338/311/123
f 346/315/124 340/314/124 342/346/124
f 339/309/125 338/311/125 342/346/125
f 325/322/126 337/333/126 339/335/126
f 329/347/127 328/408/127 341/307/127
f 331/327/26 343/338/26 337/333/26
f 350/348/104 352/351/104 351/349/104
f 352/351/49 354/353/49 353/352/49
f 354/353/105 356/355/105 355/354/105
f 356/355/106 358/360/106 357/356/106
f 354/357/3 352/410/3 350/411/3
f 350/411/3 360/358/3 354/357/3
f 360/358/3 358/412/3 356/359/3
f 358/360/48 360/362/48 359/361/48
f 360/362/107 350/413/107 349/363/107
f 359/366/26 349/414/26 353/415/26
f 349/414/26 351/416/26 353/415/26
f 353/415/26 355/364/26 359/366/26
f 377/307/50 364/408/50 362/308/50
f 383/310/49 378/346/49 374/311/49
f 370/313/3 365/409/3 376/314/3
f 366/316/48 372/332/48 368/317/48
f 371/319/47 384/343/47 380/320/47
f 361/322/116 363/324/116 368/328/116
f 364/325/130 366/316/130 363/318/130
f 365/326/118 370/330/118 372/332/118
f 369/321/119 368/317/119 372/332/119
f 379/338/120 367/327/120 369/329/120
f 382/341/121 384/343/121 371/319/121
f 381/312/122 380/320/122 384/343/122
f 379/338/123 381/312/123 374/311/123
f 382/315/124 376/314/124 378/346/124
f 375/309/125 374/311/125 378/346/125
f 361/322/126 373/333/126 375/335/126
f 365/347/127 364/408/127 377/307/127
f 367/327/26 379/338/26 373/333/26
f 386/367/104 388/370/104 387/368/104
f 388/370/49 390/372/49 389/371/49
f 390/372/105 392/374/105 391/373/105
f 392/374/106 394/379/106 393/375/106
f 390/376/3 388/417/3 386/418/3
f 386/418/3 396/377/3 390/376/3
f 396/377/3 394/419/3 392/378/3
f 394/379/48 396/381/48 395/380/48
f 396/381/107 386/420/107 385/382/107
f 395/385/26 385/421/26 389/422/26
f 385/421/26 387/423/26 389/422/26
f 389/422/26 391/383/26 395/385/26
