# Blender 4.1.1
# www.blender.org
mtllib sphinx.mtl
o 立方体.001
v 1.016892 -2.000000 -3.026088
v 1.016892 -0.447683 -3.026088
v 1.016892 -2.000000 1.295169
v 1.016892 -0.447683 1.295169
v -1.016892 -2.000000 -3.026088
v -1.016892 -0.447683 -3.026088
v -1.016892 -2.000000 1.295169
v -1.016892 -0.447683 1.295169
v 1.791418 -2.000000 -2.900606
v 1.791418 -0.667492 -2.900606
v 1.791418 -0.667492 -1.939394
v -1.791418 -2.000000 -2.900606
v -1.791418 -0.667492 -2.900606
v -1.791418 -0.667492 -1.939394
v 1.791418 -1.482785 -1.939394
v -1.791418 -1.482785 -1.939394
v 1.791418 -1.482785 -1.474207
v 1.791418 -2.000000 -1.474207
v -1.791418 -2.000000 -1.474207
v -1.791418 -1.482785 -1.474207
v -0.750000 -2.000000 0.100000
v -0.750000 -1.300000 0.100000
v -0.750000 -2.000000 2.900000
v -0.750000 -1.300000 2.900000
v -1.650000 -2.000000 0.100000
v -1.650000 -1.300000 0.100000
v -1.650000 -2.000000 2.900000
v -1.650000 -1.300000 2.900000
v 1.650000 -2.000000 0.100000
v 1.650000 -1.300000 0.100000
v 1.650000 -2.000000 2.900000
v 1.650000 -1.300000 2.900000
v 0.750000 -2.000000 0.100000
v 0.750000 -1.300000 0.100000
v 0.750000 -2.000000 2.900000
v 0.750000 -1.300000 2.900000
v 0.660770 -0.513960 -0.051501
v 0.660770 0.896603 -0.051501
v 0.660770 -0.513960 1.450598
v 0.660770 0.896603 1.450598
v -0.660770 -0.513960 -0.051501
v -0.660770 0.896603 -0.051501
v -0.660770 -0.513960 1.450598
v -0.660770 0.896603 1.450598
v 1.000000 -0.074624 0.519582
v 1.000000 1.187184 0.519582
v 1.000000 -0.074624 1.205825
v 1.000000 1.187184 1.205825
v -1.000000 -0.074624 0.519582
v -1.000000 1.187184 0.519582
v -1.000000 -0.074624 1.205825
v -1.000000 1.187184 1.205825
vn 1.0000 -0.0000 -0.0000
vn -0.0000 -0.0000 1.0000
vn -1.0000 -0.0000 -0.0000
vn -0.0000 -0.0000 -1.0000
vn -0.0000 -1.0000 -0.0000
vn -0.0000 1.0000 -0.0000
vt 0.863652 0.630189
vt 0.595820 0.533976
vt 0.863652 0.533976
vt 0.595820 0.630189
vt 0.469765 0.533976
vt 0.469765 0.630189
vt 0.201933 0.533976
vt 0.469766 0.898021
vt 0.595820 0.994234
vt 0.469766 0.994234
vt 0.595820 0.266143
vt 0.693835 0.715851
vt 0.915900 0.766384
vt 0.693835 0.766384
vt 0.915900 0.827273
vt 0.947958 0.827273
vt 0.947958 0.856106
vt 0.693835 0.827273
vt 0.915900 0.915682
vt 0.693835 0.915682
vt 0.915900 0.656275
vt 0.915900 0.715851
vt 0.661778 0.856106
vt 0.661778 0.827273
vt 0.693835 0.795216
vt 0.967025 0.247707
vt 0.793398 0.204649
vt 0.966943 0.204321
vt 0.793480 0.248035
vt 0.737616 0.204754
vt 0.737698 0.248140
vt 0.564072 0.205082
vt 0.738026 0.421684
vt 0.793890 0.464965
vt 0.738108 0.465070
vt 0.793070 0.031104
vt 0.453071 0.247477
vt 0.279445 0.204419
vt 0.452990 0.204091
vt 0.279527 0.247805
vt 0.223663 0.204524
vt 0.223745 0.247910
vt 0.050119 0.204852
vt 0.224073 0.421454
vt 0.279937 0.464735
vt 0.224155 0.464840
vt 0.279117 0.030874
vt 0.277063 0.734717
vt 0.183963 0.647290
vt 0.277063 0.647290
vt 0.183963 0.734717
vt 0.102053 0.647290
vt 0.102053 0.734717
vt 0.008953 0.647290
vt 0.102053 0.827817
vt 0.183963 0.915244
vt 0.102053 0.915244
vt 0.183962 0.554189
vt 0.247506 0.773553
vt 0.290039 0.851760
vt 0.247506 0.851760
vt 0.290039 0.773553
vt 0.414000 0.851760
vt 0.414000 0.773553
vt 0.456533 0.851760
vt 0.414000 0.731020
vt 0.290039 0.652812
vt 0.414000 0.652813
vt 0.290039 0.894294
vt 0.915900 0.998271
vt 0.201933 0.630189
vt 0.595820 0.898021
vt 0.469765 0.266143
vt 0.998490 0.856106
vt 0.998490 0.915682
vt 0.693835 0.656275
vt 0.611246 0.915682
vt 0.611246 0.856106
vt 0.915900 0.795216
vt 0.564154 0.248468
vt 0.793808 0.421579
vt 0.737288 0.031210
vt 0.050200 0.248238
vt 0.279855 0.421349
vt 0.223335 0.030980
vt 0.008953 0.734717
vt 0.183963 0.827817
vt 0.102053 0.554189
vt 0.456533 0.773553
vt 0.290039 0.731020
vt 0.414000 0.894294
vt 0.693835 0.998271
s 0
usemtl マテリアル.001
f 2/1/1 3/2/1 1/3/1
f 4/4/2 7/5/2 3/2/2
f 8/6/3 5/7/3 7/5/3
f 6/8/4 1/9/4 5/10/4
f 7/5/5 1/11/5 3/2/5
f 4/4/6 6/8/6 8/6/6
f 11/12/2 16/13/2 15/14/2
f 19/15/3 20/16/3 16/17/3
f 18/18/5 12/19/5 9/20/5
f 11/12/6 13/21/6 14/22/6
f 15/23/1 17/24/1 18/18/1
f 17/25/2 19/15/2 18/18/2
f 16/13/6 17/25/6 15/14/6
f 22/26/1 23/27/1 21/28/1
f 24/29/2 27/30/2 23/27/2
f 28/31/3 25/32/3 27/30/3
f 26/33/4 21/34/4 25/35/4
f 27/30/5 21/36/5 23/27/5
f 24/29/6 26/33/6 28/31/6
f 30/37/1 31/38/1 29/39/1
f 32/40/2 35/41/2 31/38/2
f 36/42/3 33/43/3 35/41/3
f 34/44/4 29/45/4 33/46/4
f 35/41/5 29/47/5 31/38/5
f 32/40/6 34/44/6 36/42/6
f 38/48/1 39/49/1 37/50/1
f 40/51/2 43/52/2 39/49/2
f 44/53/3 41/54/3 43/52/3
f 42/55/4 37/56/4 41/57/4
f 43/52/5 37/58/5 39/49/5
f 40/51/6 42/55/6 44/53/6
f 46/59/1 47/60/1 45/61/1
f 48/62/2 51/63/2 47/60/2
f 52/64/3 49/65/3 51/63/3
f 50/66/4 45/67/4 49/68/4
f 51/63/5 45/69/5 47/60/5
f 48/62/6 50/66/6 52/64/6
f 13/70/4 9/20/4 12/19/4
f 2/1/1 4/4/1 3/2/1
f 4/4/2 8/6/2 7/5/2
f 8/6/3 6/71/3 5/7/3
f 6/8/4 2/72/4 1/9/4
f 7/5/5 5/73/5 1/11/5
f 4/4/6 2/72/6 6/8/6
f 11/12/2 14/22/2 16/13/2
f 16/17/3 14/74/3 13/75/3
f 13/75/3 12/19/3 16/17/3
f 12/19/3 19/15/3 16/17/3
f 18/18/5 19/15/5 12/19/5
f 11/12/6 10/76/6 13/21/6
f 18/18/1 9/20/1 15/23/1
f 9/20/1 10/77/1 15/23/1
f 10/77/1 11/78/1 15/23/1
f 17/25/2 20/79/2 19/15/2
f 16/13/6 20/79/6 17/25/6
f 22/26/1 24/29/1 23/27/1
f 24/29/2 28/31/2 27/30/2
f 28/31/3 26/80/3 25/32/3
f 26/33/4 22/81/4 21/34/4
f 27/30/5 25/82/5 21/36/5
f 24/29/6 22/81/6 26/33/6
f 30/37/1 32/40/1 31/38/1
f 32/40/2 36/42/2 35/41/2
f 36/42/3 34/83/3 33/43/3
f 34/44/4 30/84/4 29/45/4
f 35/41/5 33/85/5 29/47/5
f 32/40/6 30/84/6 34/44/6
f 38/48/1 40/51/1 39/49/1
f 40/51/2 44/53/2 43/52/2
f 44/53/3 42/86/3 41/54/3
f 42/55/4 38/87/4 37/56/4
f 43/52/5 41/88/5 37/58/5
f 40/51/6 38/87/6 42/55/6
f 46/59/1 48/62/1 47/60/1
f 48/62/2 52/64/2 51/63/2
f 52/64/3 50/89/3 49/65/3
f 50/66/4 46/90/4 45/67/4
f 51/63/5 49/91/5 45/69/5
f 48/62/6 46/90/6 50/66/6
f 13/70/4 10/92/4 9/20/4
