# Blender 4.4.1
# www.blender.org
mtllib repairpartMedium.mtl
o 円柱.001
v 0.000000 -0.761794 0.655492
v -0.000000 0.876510 -0.491661
v -0.019509 -0.762897 0.653918
v -0.019509 0.875408 -0.493235
v -0.038268 -0.766160 0.649256
v -0.038268 0.872144 -0.497897
v -0.055557 -0.771461 0.641686
v -0.055557 0.866843 -0.505466
v -0.070711 -0.778594 0.631499
v -0.070711 0.859710 -0.515654
v -0.083147 -0.787286 0.619086
v -0.083147 0.851018 -0.528067
v -0.092388 -0.797202 0.604924
v -0.092388 0.841102 -0.542229
v -0.098079 -0.807962 0.589557
v -0.098079 0.830342 -0.557596
v -0.100000 -0.819152 0.573576
v -0.100000 0.819152 -0.573576
v -0.098079 -0.830342 0.557596
v -0.098079 0.807962 -0.589557
v -0.092388 -0.841102 0.542229
v -0.092388 0.797202 -0.604924
v -0.083147 -0.851018 0.528067
v -0.083147 0.787286 -0.619086
v -0.070711 -0.859710 0.515654
v -0.070711 0.778594 -0.631499
v -0.055557 -0.866843 0.505466
v -0.055557 0.771461 -0.641686
v -0.038268 -0.872144 0.497897
v -0.038268 0.766160 -0.649256
v -0.019509 -0.875408 0.493235
v -0.019509 0.762897 -0.653918
v 0.000000 -0.876510 0.491661
v -0.000000 0.761794 -0.655492
v 0.019509 -0.875408 0.493235
v 0.019509 0.762897 -0.653918
v 0.038268 -0.872144 0.497897
v 0.038268 0.766160 -0.649256
v 0.055557 -0.866843 0.505466
v 0.055557 0.771461 -0.641686
v 0.070711 -0.859710 0.515654
v 0.070711 0.778594 -0.631499
v 0.083147 -0.851018 0.528067
v 0.083147 0.787286 -0.619086
v 0.092388 -0.841102 0.542229
v 0.092388 0.797202 -0.604924
v 0.098079 -0.830342 0.557596
v 0.098079 0.807962 -0.589557
v 0.100000 -0.819152 0.573576
v 0.100000 0.819152 -0.573576
v 0.098079 -0.807962 0.589557
v 0.098079 0.830342 -0.557596
v 0.092388 -0.797202 0.604924
v 0.092388 0.841102 -0.542229
v 0.083147 -0.787286 0.619086
v 0.083147 0.851018 -0.528067
v 0.070711 -0.778594 0.631499
v 0.070711 0.859710 -0.515654
v 0.055557 -0.771461 0.641686
v 0.055557 0.866843 -0.505466
v 0.038268 -0.766160 0.649256
v 0.038268 0.872144 -0.497897
v 0.019509 -0.762897 0.653918
v 0.019509 0.875408 -0.493235
v 0.000000 -0.450559 0.666671
v 0.000000 -0.533329 0.749441
v 0.000000 -0.641473 0.794236
v -0.000000 -0.700000 0.800000
v 0.000000 -0.758527 0.794236
v 0.000000 -0.866671 0.749441
v -0.011418 -0.405764 0.557403
v -0.022397 -0.422836 0.612599
v -0.032516 -0.450559 0.663469
v -0.041385 -0.487868 0.708056
v -0.048664 -0.533329 0.744648
v -0.054072 -0.585195 0.771838
v -0.057403 -0.641473 0.788582
v -0.058527 -0.700000 0.794236
v -0.057403 -0.758527 0.788582
v -0.054072 -0.814805 0.771838
v -0.048664 -0.866671 0.744648
v -0.041385 -0.912132 0.708056
v -0.032516 -0.949441 0.663469
v -0.022397 -0.977164 0.612599
v -0.011418 -0.994236 0.557403
v -0.022397 -0.405764 0.554072
v -0.043934 -0.422836 0.606066
v -0.063782 -0.450559 0.653984
v -0.081179 -0.487868 0.695984
v -0.095457 -0.533329 0.730453
v -0.106066 -0.585195 0.756066
v -0.112599 -0.641473 0.771838
v -0.114805 -0.700000 0.777164
v -0.112599 -0.758527 0.771838
v -0.106066 -0.814805 0.756066
v -0.095457 -0.866671 0.730453
v -0.081179 -0.912132 0.695985
v -0.063782 -0.949441 0.653984
v -0.043934 -0.977164 0.606066
v -0.022397 -0.994236 0.554072
v -0.032516 -0.405764 0.548663
v -0.063782 -0.422836 0.595457
v -0.092597 -0.450559 0.638582
v -0.117854 -0.487868 0.676381
v -0.138582 -0.533329 0.707403
v -0.153984 -0.585195 0.730453
v -0.163469 -0.641473 0.744648
v -0.166671 -0.700000 0.749441
v -0.163469 -0.758527 0.744648
v -0.153984 -0.814805 0.730453
v -0.138582 -0.866671 0.707402
v -0.117854 -0.912132 0.676381
v -0.092597 -0.949441 0.638582
v -0.063782 -0.977164 0.595457
v -0.032516 -0.994236 0.548664
v -0.041385 -0.405764 0.541385
v -0.081179 -0.422836 0.581179
v -0.117854 -0.450559 0.617854
v -0.150000 -0.487868 0.650000
v -0.176381 -0.533329 0.676381
v -0.195984 -0.585195 0.695984
v -0.208056 -0.641473 0.708056
v -0.212132 -0.700000 0.712132
v -0.208056 -0.758527 0.708056
v -0.195984 -0.814805 0.695984
v -0.176381 -0.866671 0.676381
v -0.150000 -0.912132 0.650000
v -0.117854 -0.949441 0.617854
v -0.081179 -0.977164 0.581179
v -0.041385 -0.994236 0.541385
v -0.048664 -0.405764 0.532516
v -0.095457 -0.422836 0.563782
v -0.138582 -0.450559 0.592597
v -0.176381 -0.487868 0.617854
v -0.207403 -0.533329 0.638582
v -0.230453 -0.585195 0.653984
v -0.244648 -0.641473 0.663469
v -0.249441 -0.700000 0.666671
v -0.244648 -0.758527 0.663469
v -0.230453 -0.814805 0.653984
v -0.207403 -0.866671 0.638582
v -0.176381 -0.912132 0.617854
v -0.138582 -0.949441 0.592597
v -0.095457 -0.977164 0.563782
v -0.048664 -0.994236 0.532516
v 0.000000 -0.400000 0.500000
v -0.054072 -0.405764 0.522397
v -0.106066 -0.422836 0.543934
v -0.153984 -0.450559 0.563782
v -0.195984 -0.487868 0.581179
v -0.230453 -0.533329 0.595457
v -0.256066 -0.585195 0.606066
v -0.271838 -0.641473 0.612599
v -0.277164 -0.700000 0.614805
v -0.271838 -0.758527 0.612599
v -0.256066 -0.814805 0.606066
v -0.230453 -0.866671 0.595457
v -0.195984 -0.912132 0.581179
v -0.153984 -0.949441 0.563782
v -0.106066 -0.977164 0.543934
v -0.054072 -0.994236 0.522397
v -0.057403 -0.405764 0.511418
v -0.112599 -0.422836 0.522397
v -0.163469 -0.450559 0.532516
v -0.208056 -0.487868 0.541385
v -0.244648 -0.533329 0.548663
v -0.271838 -0.585195 0.554072
v -0.288582 -0.641473 0.557402
v -0.294236 -0.700000 0.558527
v -0.288582 -0.758527 0.557402
v -0.271838 -0.814805 0.554072
v -0.244648 -0.866671 0.548663
v -0.208056 -0.912132 0.541385
v -0.163469 -0.949441 0.532516
v -0.112599 -0.977164 0.522397
v -0.057403 -0.994236 0.511418
v -0.058527 -0.405764 0.500000
v -0.114805 -0.422836 0.500000
v -0.166671 -0.450559 0.500000
v -0.212132 -0.487868 0.500000
v -0.249441 -0.533329 0.500000
v -0.277164 -0.585195 0.500000
v -0.294236 -0.641473 0.500000
v -0.300000 -0.700000 0.500000
v -0.294236 -0.758527 0.500000
v -0.277164 -0.814805 0.500000
v -0.249441 -0.866671 0.500000
v -0.212132 -0.912132 0.500000
v -0.166671 -0.949441 0.500000
v -0.114805 -0.977164 0.500000
v -0.058527 -0.994236 0.500000
v -0.057402 -0.405764 0.488582
v -0.112599 -0.422836 0.477603
v -0.163469 -0.450559 0.467484
v -0.208056 -0.487868 0.458615
v -0.244648 -0.533329 0.451337
v -0.271838 -0.585195 0.445928
v -0.288582 -0.641473 0.442598
v -0.294235 -0.700000 0.441473
v -0.288582 -0.758527 0.442597
v -0.271838 -0.814805 0.445928
v -0.244648 -0.866671 0.451337
v -0.208056 -0.912132 0.458615
v -0.163469 -0.949441 0.467484
v -0.112599 -0.977164 0.477603
v -0.057402 -0.994236 0.488582
v -0.054072 -0.405764 0.477603
v -0.106066 -0.422836 0.456066
v -0.153984 -0.450559 0.436218
v -0.195984 -0.487868 0.418821
v -0.230453 -0.533329 0.404543
v -0.256066 -0.585195 0.393934
v -0.271838 -0.641473 0.387401
v -0.277164 -0.700000 0.385195
v -0.271838 -0.758527 0.387401
v -0.256066 -0.814805 0.393934
v -0.230453 -0.866671 0.404543
v -0.195984 -0.912132 0.418821
v -0.153984 -0.949441 0.436218
v -0.106066 -0.977164 0.456066
v -0.054072 -0.994236 0.477603
v -0.048663 -0.405764 0.467484
v -0.095457 -0.422836 0.436218
v -0.138582 -0.450559 0.407403
v -0.176381 -0.487868 0.382146
v -0.207402 -0.533329 0.361418
v -0.230453 -0.585195 0.346016
v -0.244648 -0.641473 0.336532
v -0.249441 -0.700000 0.333329
v -0.244648 -0.758527 0.336532
v -0.230453 -0.814805 0.346016
v -0.207402 -0.866671 0.361418
v -0.176381 -0.912132 0.382146
v -0.138582 -0.949441 0.407403
v -0.095457 -0.977164 0.436218
v -0.048663 -0.994236 0.467484
v -0.041385 -0.405764 0.458615
v -0.081179 -0.422836 0.418821
v -0.117854 -0.450559 0.382146
v -0.150000 -0.487868 0.350000
v -0.176381 -0.533329 0.323619
v -0.195984 -0.585195 0.304016
v -0.208056 -0.641473 0.291944
v -0.212132 -0.700000 0.287868
v -0.208056 -0.758527 0.291944
v -0.195984 -0.814805 0.304016
v -0.176381 -0.866671 0.323619
v -0.150000 -0.912132 0.350000
v -0.117854 -0.949441 0.382146
v -0.081179 -0.977164 0.418821
v -0.041385 -0.994236 0.458615
v -0.032516 -0.405764 0.451337
v -0.063782 -0.422836 0.404543
v -0.092597 -0.450559 0.361418
v -0.117854 -0.487868 0.323619
v -0.138582 -0.533329 0.292598
v -0.153984 -0.585195 0.269547
v -0.163468 -0.641473 0.255352
v -0.166671 -0.700000 0.250559
v -0.163468 -0.758527 0.255352
v -0.153984 -0.814805 0.269547
v -0.138582 -0.866671 0.292598
v -0.117854 -0.912132 0.323619
v -0.092597 -0.949441 0.361418
v -0.063782 -0.977164 0.404543
v -0.032516 -0.994236 0.451337
v -0.022397 -0.405764 0.445928
v -0.043934 -0.422836 0.393934
v -0.063782 -0.450559 0.346016
v -0.081179 -0.487868 0.304016
v -0.095457 -0.533329 0.269547
v -0.106066 -0.585195 0.243934
v -0.112599 -0.641473 0.228162
v -0.114805 -0.700000 0.222836
v -0.112599 -0.758527 0.228162
v -0.106066 -0.814805 0.243934
v -0.095457 -0.866671 0.269547
v -0.081179 -0.912132 0.304016
v -0.063782 -0.949441 0.346016
v -0.043934 -0.977164 0.393934
v -0.022397 -0.994236 0.445928
v -0.011418 -0.405764 0.442598
v -0.022397 -0.422836 0.387401
v -0.032516 -0.450559 0.336532
v -0.041385 -0.487868 0.291944
v -0.048663 -0.533329 0.255352
v -0.054072 -0.585195 0.228162
v -0.057402 -0.641473 0.211418
v -0.058527 -0.700000 0.205765
v -0.057402 -0.758527 0.211418
v -0.054072 -0.814805 0.228162
v -0.048663 -0.866671 0.255352
v -0.041385 -0.912132 0.291944
v -0.032516 -0.949441 0.336532
v -0.022397 -0.977164 0.387401
v -0.011418 -0.994236 0.442598
v 0.000000 -0.405764 0.441473
v 0.000000 -0.422836 0.385195
v 0.000000 -0.450559 0.333329
v 0.000000 -0.487868 0.287868
v 0.000000 -0.533329 0.250559
v -0.000000 -0.585195 0.222836
v 0.000000 -0.641473 0.205765
v 0.000000 -0.700000 0.200000
v 0.000000 -0.758527 0.205765
v -0.000000 -0.814805 0.222836
v 0.000000 -0.866671 0.250559
v 0.000000 -0.912132 0.287868
v 0.000000 -0.949441 0.333329
v 0.000000 -0.977164 0.385195
v 0.000000 -0.994236 0.441473
v 0.011418 -0.405764 0.442598
v 0.022397 -0.422836 0.387401
v 0.032516 -0.450559 0.336532
v 0.041385 -0.487868 0.291944
v 0.048664 -0.533329 0.255352
v 0.054072 -0.585195 0.228162
v 0.057403 -0.641473 0.211418
v 0.058527 -0.700000 0.205765
v 0.057403 -0.758527 0.211418
v 0.054072 -0.814805 0.228162
v 0.048664 -0.866671 0.255352
v 0.041385 -0.912132 0.291944
v 0.032516 -0.949441 0.336532
v 0.022397 -0.977164 0.387401
v 0.011418 -0.994236 0.442598
v 0.022397 -0.405764 0.445928
v 0.043934 -0.422836 0.393934
v 0.063782 -0.450559 0.346016
v 0.081179 -0.487868 0.304016
v 0.095457 -0.533329 0.269547
v 0.106066 -0.585195 0.243934
v 0.112599 -0.641473 0.228162
v 0.114805 -0.700000 0.222836
v 0.112599 -0.758527 0.228162
v 0.106066 -0.814805 0.243934
v 0.095457 -0.866671 0.269547
v 0.081179 -0.912132 0.304016
v 0.063782 -0.949441 0.346016
v 0.043934 -0.977164 0.393934
v 0.022397 -0.994236 0.445928
v 0.032516 -0.405764 0.451337
v 0.063782 -0.422836 0.404543
v 0.092597 -0.450559 0.361418
v 0.117854 -0.487868 0.323619
v 0.138582 -0.533329 0.292598
v 0.153984 -0.585195 0.269547
v 0.163469 -0.641473 0.255352
v 0.166671 -0.700000 0.250559
v 0.163469 -0.758527 0.255352
v 0.153984 -0.814805 0.269547
v 0.138582 -0.866671 0.292598
v 0.117854 -0.912132 0.323619
v 0.092597 -0.949441 0.361418
v 0.063782 -0.977164 0.404543
v 0.032516 -0.994236 0.451337
v 0.041385 -0.405764 0.458615
v 0.081179 -0.422836 0.418821
v 0.117854 -0.450559 0.382146
v 0.150000 -0.487868 0.350000
v 0.176381 -0.533329 0.323619
v 0.195984 -0.585195 0.304016
v 0.208056 -0.641473 0.291944
v 0.212132 -0.700000 0.287868
v 0.208056 -0.758527 0.291944
v 0.195984 -0.814805 0.304016
v 0.176381 -0.866671 0.323619
v 0.150000 -0.912132 0.350000
v 0.117854 -0.949441 0.382146
v 0.081179 -0.977164 0.418821
v 0.041385 -0.994236 0.458615
v 0.000000 -1.000000 0.500000
v 0.048663 -0.405764 0.467484
v 0.095457 -0.422836 0.436218
v 0.138582 -0.450559 0.407403
v 0.176381 -0.487868 0.382146
v 0.207402 -0.533329 0.361418
v 0.230453 -0.585195 0.346016
v 0.244648 -0.641473 0.336532
v 0.249441 -0.700000 0.333329
v 0.244648 -0.758527 0.336532
v 0.230453 -0.814805 0.346016
v 0.207402 -0.866671 0.361418
v 0.176381 -0.912132 0.382146
v 0.138582 -0.949441 0.407403
v 0.095457 -0.977164 0.436218
v 0.048663 -0.994236 0.467484
v 0.054072 -0.405764 0.477603
v 0.106066 -0.422836 0.456066
v 0.153984 -0.450559 0.436218
v 0.195984 -0.487868 0.418821
v 0.230453 -0.533329 0.404543
v 0.256066 -0.585195 0.393934
v 0.271838 -0.641473 0.387401
v 0.277164 -0.700000 0.385195
v 0.271838 -0.758527 0.387401
v 0.256066 -0.814805 0.393934
v 0.230453 -0.866671 0.404543
v 0.195984 -0.912132 0.418821
v 0.153984 -0.949441 0.436218
v 0.106066 -0.977164 0.456066
v 0.054072 -0.994236 0.477603
v 0.057402 -0.405764 0.488582
v 0.112599 -0.422836 0.477603
v 0.163468 -0.450559 0.467484
v 0.208056 -0.487868 0.458615
v 0.244648 -0.533329 0.451337
v 0.271838 -0.585195 0.445928
v 0.288582 -0.641473 0.442598
v 0.294235 -0.700000 0.441473
v 0.288582 -0.758527 0.442598
v 0.271838 -0.814805 0.445928
v 0.244648 -0.866671 0.451337
v 0.208056 -0.912132 0.458615
v 0.163468 -0.949441 0.467484
v 0.112599 -0.977164 0.477603
v 0.057402 -0.994236 0.488582
v 0.058527 -0.405764 0.500000
v 0.114805 -0.422836 0.500000
v 0.166671 -0.450559 0.500000
v 0.212132 -0.487868 0.500000
v 0.249441 -0.533329 0.500000
v 0.277164 -0.585195 0.500000
v 0.294235 -0.641473 0.500000
v 0.300000 -0.700000 0.500000
v 0.294235 -0.758527 0.500000
v 0.277164 -0.814805 0.500000
v 0.249441 -0.866671 0.500000
v 0.212132 -0.912132 0.500000
v 0.166671 -0.949441 0.500000
v 0.114805 -0.977164 0.500000
v 0.058527 -0.994236 0.500000
v 0.057402 -0.405764 0.511418
v 0.112599 -0.422836 0.522397
v 0.163468 -0.450559 0.532516
v 0.208056 -0.487868 0.541385
v 0.244648 -0.533329 0.548664
v 0.271838 -0.585195 0.554072
v 0.288582 -0.641473 0.557403
v 0.294235 -0.700000 0.558527
v 0.288582 -0.758527 0.557403
v 0.271838 -0.814805 0.554072
v 0.244648 -0.866671 0.548664
v 0.208056 -0.912132 0.541385
v 0.163468 -0.949441 0.532516
v 0.112599 -0.977164 0.522397
v 0.057402 -0.994236 0.511418
v 0.054072 -0.405764 0.522397
v 0.106066 -0.422836 0.543934
v 0.153984 -0.450559 0.563782
v 0.195984 -0.487868 0.581179
v 0.230453 -0.533329 0.595457
v 0.256066 -0.585195 0.606066
v 0.271838 -0.641473 0.612599
v 0.277164 -0.700000 0.614805
v 0.271838 -0.758527 0.612599
v 0.256066 -0.814805 0.606066
v 0.230453 -0.866671 0.595457
v 0.195984 -0.912132 0.581179
v 0.153984 -0.949441 0.563782
v 0.106066 -0.977164 0.543934
v 0.054072 -0.994236 0.522397
v 0.048663 -0.405764 0.532516
v 0.095457 -0.422836 0.563782
v 0.138582 -0.450559 0.592597
v 0.176381 -0.487868 0.617854
v 0.207402 -0.533329 0.638582
v 0.230453 -0.585195 0.653984
v 0.244648 -0.641473 0.663469
v 0.249441 -0.700000 0.666671
v 0.244648 -0.758527 0.663469
v 0.230453 -0.814805 0.653984
v 0.207402 -0.866671 0.638582
v 0.176381 -0.912132 0.617854
v 0.138582 -0.949441 0.592597
v 0.095457 -0.977164 0.563782
v 0.048663 -0.994236 0.532516
v 0.041385 -0.405764 0.541385
v 0.081179 -0.422836 0.581179
v 0.117854 -0.450559 0.617854
v 0.150000 -0.487868 0.650000
v 0.176381 -0.533329 0.676381
v 0.195984 -0.585195 0.695984
v 0.208056 -0.641473 0.708056
v 0.212132 -0.700000 0.712132
v 0.208056 -0.758527 0.708056
v 0.195984 -0.814805 0.695984
v 0.176381 -0.866671 0.676381
v 0.150000 -0.912132 0.650000
v 0.117854 -0.949441 0.617854
v 0.081179 -0.977164 0.581179
v 0.041385 -0.994236 0.541385
v 0.032516 -0.405764 0.548663
v 0.063782 -0.422836 0.595457
v 0.092597 -0.450559 0.638582
v 0.117854 -0.487868 0.676381
v 0.138582 -0.533329 0.707402
v 0.153984 -0.585195 0.730453
v 0.163468 -0.641473 0.744648
v 0.166671 -0.700000 0.749441
v 0.163468 -0.758527 0.744648
v 0.153984 -0.814805 0.730453
v 0.138582 -0.866671 0.707402
v 0.117854 -0.912132 0.676381
v 0.092597 -0.949441 0.638582
v 0.063782 -0.977164 0.595457
v 0.032516 -0.994236 0.548663
v 0.022397 -0.405764 0.554072
v 0.043934 -0.422836 0.606066
v 0.063782 -0.450559 0.653984
v 0.081179 -0.487868 0.695984
v 0.095457 -0.533329 0.730453
v 0.106066 -0.585195 0.756066
v 0.112599 -0.641473 0.771838
v 0.114805 -0.700000 0.777164
v 0.112599 -0.758527 0.771838
v 0.106066 -0.814805 0.756066
v 0.095457 -0.866671 0.730453
v 0.081179 -0.912132 0.695984
v 0.063782 -0.949441 0.653984
v 0.043934 -0.977164 0.606066
v 0.022397 -0.994236 0.554072
v 0.011418 -0.405764 0.557402
v 0.022397 -0.422836 0.612599
v 0.032516 -0.450559 0.663468
v 0.041385 -0.487868 0.708056
v 0.048663 -0.533329 0.744648
v 0.054072 -0.585195 0.771838
v 0.057402 -0.641473 0.788582
v 0.058527 -0.700000 0.794235
v 0.057402 -0.758527 0.788582
v 0.054072 -0.814805 0.771838
v 0.048663 -0.866671 0.744648
v 0.041385 -0.912132 0.708056
v 0.032516 -0.949441 0.663468
v 0.022397 -0.977164 0.612599
v 0.011418 -0.994236 0.557402
v -0.000000 -0.405764 0.558527
v -0.000000 -0.422836 0.614805
v -0.000000 -0.487868 0.712132
v -0.000000 -0.585195 0.777164
v -0.000000 -0.814805 0.777164
v -0.000000 -0.912132 0.712132
v -0.000000 -0.949441 0.666671
v -0.000000 -0.977164 0.614805
v -0.000000 -0.994236 0.558527
v -0.000000 1.519615 0.473615
v -0.117054 1.509631 0.479379
v -0.229610 1.480062 0.496451
v -0.333342 1.432044 0.524174
v -0.424264 1.367424 0.561483
v -0.498882 1.288683 0.606944
v -0.554328 1.198848 0.658810
v -0.588471 1.101372 0.715088
v -0.600000 1.000000 0.773615
v -0.588471 0.898628 0.832142
v -0.554328 0.801152 0.888420
v -0.498882 0.711317 0.940286
v -0.424264 0.632577 0.985747
v -0.333342 0.567956 1.023056
v -0.229610 0.519938 1.050779
v -0.117054 0.490369 1.067851
v -0.000000 0.480385 1.073615
v 0.117054 0.490369 1.067851
v 0.229610 0.519938 1.050779
v 0.333342 0.567956 1.023056
v 0.424264 0.632577 0.985747
v 0.498882 0.711317 0.940286
v 0.554328 0.801152 0.888420
v 0.588471 0.898628 0.832142
v 0.600000 1.000000 0.773615
v 0.588471 1.101372 0.715088
v 0.554328 1.198848 0.658810
v 0.498882 1.288683 0.606944
v 0.424264 1.367424 0.561483
v 0.333342 1.432044 0.524174
v 0.229610 1.480062 0.496451
v 0.117054 1.509631 0.479379
v 0.000000 0.400000 -0.265615
v 0.000000 -0.719615 -1.003615
v -0.117054 -0.709631 -1.009380
v -0.229610 -0.680062 -1.026452
v -0.333342 -0.632044 -1.054175
v -0.424264 -0.567424 -1.091483
v -0.498882 -0.488683 -1.136944
v -0.554328 -0.398848 -1.188810
v -0.588471 -0.301372 -1.245088
v -0.600000 -0.200000 -1.303615
v -0.588471 -0.098628 -1.362143
v -0.554328 -0.001152 -1.418421
v -0.498882 0.088683 -1.470287
v -0.424264 0.167424 -1.515748
v -0.333342 0.232044 -1.553056
v -0.229610 0.280062 -1.580779
v -0.117054 0.309631 -1.597851
v 0.000000 0.319615 -1.603616
v 0.117054 0.309631 -1.597851
v 0.229610 0.280062 -1.580779
v 0.333342 0.232044 -1.553056
v 0.424264 0.167424 -1.515748
v 0.498882 0.088683 -1.470287
v 0.554328 -0.001152 -1.418421
v 0.588471 -0.098628 -1.362143
v 0.600000 -0.200000 -1.303615
v 0.588471 -0.301372 -1.245088
v 0.554328 -0.398848 -1.188810
v 0.498882 -0.488683 -1.136944
v 0.424264 -0.567424 -1.091483
v 0.333342 -0.632044 -1.054175
v 0.229610 -0.680062 -1.026452
v 0.117054 -0.709631 -1.009380
v 0.000000 0.400000 -0.264385
vn -0.0980 0.5708 0.8152
vn -0.2903 0.5489 0.7839
vn -0.4714 0.5058 0.7224
vn -0.6344 0.4434 0.6332
vn -0.7730 0.3639 0.5197
vn -0.8819 0.2704 0.3861
vn -0.9569 0.1665 0.2378
vn -0.9952 0.0562 0.0803
vn -0.9952 -0.0562 -0.0803
vn -0.9569 -0.1665 -0.2378
vn -0.8819 -0.2704 -0.3861
vn -0.7730 -0.3639 -0.5197
vn -0.6344 -0.4434 -0.6332
vn -0.4714 -0.5058 -0.7224
vn -0.2903 -0.5489 -0.7839
vn -0.0980 -0.5708 -0.8152
vn 0.0980 -0.5708 -0.8152
vn 0.2903 -0.5489 -0.7839
vn 0.4714 -0.5058 -0.7224
vn 0.6344 -0.4434 -0.6332
vn 0.7730 -0.3639 -0.5197
vn 0.8819 -0.2704 -0.3861
vn 0.9569 -0.1665 -0.2378
vn 0.9952 -0.0562 -0.0803
vn 0.9952 0.0562 0.0803
vn 0.9569 0.1665 0.2378
vn 0.8819 0.2704 0.3861
vn 0.7730 0.3639 0.5197
vn 0.6344 0.4434 0.6332
vn 0.4714 0.5058 0.7224
vn -0.0000 0.8192 -0.5736
vn 0.2903 0.5489 0.7839
vn 0.0980 0.5708 0.8152
vn -0.0000 -0.8192 0.5736
vn -0.0624 0.7715 0.6332
vn -0.0759 -0.6326 0.7708
vn -0.0759 0.6326 0.7708
vn -0.0624 -0.7715 0.6332
vn -0.0865 0.4696 0.8786
vn -0.0464 -0.8810 0.4709
vn -0.0938 0.2890 0.9527
vn -0.0285 -0.9566 0.2902
vn -0.0975 0.0976 0.9904
vn -0.0097 0.9951 0.0980
vn -0.0096 -0.9951 0.0980
vn -0.0975 -0.0976 0.9904
vn -0.0286 0.9565 0.2902
vn -0.0938 -0.2890 0.9527
vn -0.0464 0.8810 0.4709
vn -0.0865 -0.4696 0.8786
vn -0.2779 -0.2890 0.9161
vn -0.1374 0.8810 0.4528
vn -0.2563 -0.4696 0.8448
vn -0.1847 0.7715 0.6088
vn -0.2248 -0.6326 0.7412
vn -0.2248 0.6326 0.7412
vn -0.1847 -0.7715 0.6088
vn -0.2563 0.4696 0.8448
vn -0.1374 -0.8810 0.4528
vn -0.2779 0.2890 0.9161
vn -0.0846 -0.9565 0.2790
vn -0.2889 0.0975 0.9524
vn -0.0286 0.9951 0.0942
vn -0.0286 -0.9951 0.0942
vn -0.2889 -0.0975 0.9524
vn -0.0846 0.9565 0.2790
vn -0.2230 -0.8810 0.4173
vn -0.4513 0.2890 0.8443
vn -0.1375 -0.9565 0.2571
vn -0.4691 0.0975 0.8777
vn -0.0464 0.9951 0.0869
vn -0.0464 -0.9951 0.0869
vn -0.4692 -0.0976 0.8777
vn -0.1374 0.9565 0.2571
vn -0.4513 -0.2890 0.8443
vn -0.2231 0.8810 0.4173
vn -0.4162 -0.4696 0.7786
vn -0.2999 0.7715 0.5611
vn -0.3651 -0.6326 0.6831
vn -0.3651 0.6326 0.6831
vn -0.2999 -0.7715 0.5611
vn -0.4162 0.4696 0.7786
vn -0.5601 -0.4696 0.6825
vn -0.4036 0.7715 0.4918
vn -0.4913 -0.6326 0.5987
vn -0.4913 0.6326 0.5987
vn -0.4036 -0.7715 0.4918
vn -0.5601 0.4696 0.6825
vn -0.3002 -0.8810 0.3658
vn -0.6073 0.2890 0.7400
vn -0.1850 -0.9565 0.2254
vn -0.6314 0.0976 0.7693
vn -0.0625 0.9951 0.0761
vn -0.0625 -0.9951 0.0761
vn -0.6314 -0.0975 0.7693
vn -0.1850 0.9565 0.2254
vn -0.6073 -0.2890 0.7400
vn -0.3002 0.8810 0.3658
vn -0.2254 -0.9566 0.1850
vn -0.7693 0.0975 0.6314
vn -0.0761 0.9951 0.0625
vn -0.0761 -0.9951 0.0625
vn -0.7693 -0.0975 0.6314
vn -0.2254 0.9565 0.1850
vn -0.7400 -0.2890 0.6073
vn -0.3658 0.8810 0.3002
vn -0.6825 -0.4696 0.5601
vn -0.4918 0.7715 0.4036
vn -0.5987 -0.6326 0.4913
vn -0.5987 0.6326 0.4913
vn -0.4918 -0.7715 0.4036
vn -0.6825 0.4696 0.5601
vn -0.3658 -0.8810 0.3002
vn -0.7400 0.2890 0.6073
vn -0.5611 0.7715 0.2999
vn -0.6831 -0.6326 0.3651
vn -0.6831 0.6326 0.3651
vn -0.5611 -0.7715 0.2999
vn -0.7786 0.4696 0.4162
vn -0.4173 -0.8810 0.2231
vn -0.8443 0.2890 0.4513
vn -0.2571 -0.9566 0.1374
vn -0.8777 0.0975 0.4691
vn -0.0869 0.9951 0.0464
vn -0.0869 -0.9951 0.0464
vn -0.8777 -0.0975 0.4691
vn -0.2571 0.9565 0.1374
vn -0.8443 -0.2890 0.4513
vn -0.4173 0.8810 0.2230
vn -0.7786 -0.4696 0.4162
vn -0.9524 0.0975 0.2889
vn -0.0942 0.9951 0.0286
vn -0.0942 -0.9951 0.0286
vn -0.9524 -0.0975 0.2889
vn -0.2790 0.9565 0.0846
vn -0.9161 -0.2890 0.2779
vn -0.4528 0.8810 0.1374
vn -0.8448 -0.4696 0.2563
vn -0.6088 0.7715 0.1847
vn -0.7412 -0.6326 0.2248
vn -0.7412 0.6326 0.2248
vn -0.6088 -0.7715 0.1847
vn -0.8448 0.4696 0.2563
vn -0.4528 -0.8810 0.1374
vn -0.9161 0.2890 0.2779
vn -0.2790 -0.9565 0.0846
vn -0.7708 -0.6326 0.0759
vn -0.7708 0.6326 0.0759
vn -0.6332 -0.7715 0.0624
vn -0.8786 0.4696 0.0865
vn -0.4709 -0.8810 0.0464
vn -0.9527 0.2890 0.0938
vn -0.2902 -0.9565 0.0286
vn -0.9904 0.0975 0.0975
vn -0.0980 0.9951 0.0097
vn -0.0980 -0.9951 0.0097
vn -0.9904 -0.0975 0.0975
vn -0.2902 0.9565 0.0286
vn -0.9527 -0.2890 0.0938
vn -0.4709 0.8810 0.0464
vn -0.8786 -0.4696 0.0865
vn -0.6332 0.7715 0.0624
vn -0.0980 0.9951 -0.0097
vn -0.0980 -0.9951 -0.0097
vn -0.9904 -0.0975 -0.0976
vn -0.2902 0.9565 -0.0286
vn -0.9527 -0.2890 -0.0938
vn -0.4709 0.8810 -0.0464
vn -0.8786 -0.4696 -0.0865
vn -0.6332 0.7715 -0.0624
vn -0.7708 -0.6326 -0.0759
vn -0.7708 0.6326 -0.0759
vn -0.6332 -0.7715 -0.0624
vn -0.8786 0.4696 -0.0865
vn -0.4709 -0.8810 -0.0464
vn -0.9527 0.2890 -0.0938
vn -0.2902 -0.9565 -0.0286
vn -0.9904 0.0975 -0.0975
vn -0.7412 0.6326 -0.2248
vn -0.6088 -0.7715 -0.1847
vn -0.8448 0.4696 -0.2563
vn -0.4528 -0.8810 -0.1374
vn -0.9161 0.2890 -0.2779
vn -0.2790 -0.9565 -0.0846
vn -0.9524 0.0975 -0.2889
vn -0.0942 0.9951 -0.0286
vn -0.0942 -0.9951 -0.0286
vn -0.9524 -0.0975 -0.2889
vn -0.2790 0.9566 -0.0846
vn -0.9161 -0.2890 -0.2779
vn -0.4528 0.8810 -0.1374
vn -0.8448 -0.4696 -0.2563
vn -0.6088 0.7715 -0.1847
vn -0.7412 -0.6326 -0.2248
vn -0.8777 -0.0975 -0.4691
vn -0.2571 0.9565 -0.1374
vn -0.8443 -0.2890 -0.4513
vn -0.4173 0.8810 -0.2230
vn -0.7786 -0.4696 -0.4162
vn -0.5611 0.7715 -0.2999
vn -0.6831 -0.6326 -0.3651
vn -0.6831 0.6326 -0.3651
vn -0.5611 -0.7715 -0.2999
vn -0.7786 0.4696 -0.4162
vn -0.4173 -0.8810 -0.2230
vn -0.8443 0.2890 -0.4513
vn -0.2571 -0.9565 -0.1374
vn -0.8777 0.0975 -0.4691
vn -0.0869 0.9951 -0.0464
vn -0.0869 -0.9951 -0.0464
vn -0.4918 -0.7715 -0.4036
vn -0.6825 0.4696 -0.5601
vn -0.3658 -0.8810 -0.3002
vn -0.7400 0.2890 -0.6073
vn -0.2254 -0.9566 -0.1850
vn -0.7693 0.0975 -0.6314
vn -0.0761 0.9951 -0.0625
vn -0.0761 -0.9951 -0.0625
vn -0.7693 -0.0975 -0.6314
vn -0.2254 0.9565 -0.1850
vn -0.7400 -0.2890 -0.6073
vn -0.3658 0.8810 -0.3002
vn -0.6825 -0.4696 -0.5601
vn -0.4918 0.7715 -0.4036
vn -0.5987 -0.6326 -0.4913
vn -0.5987 0.6326 -0.4913
vn -0.6073 -0.2890 -0.7400
vn -0.3002 0.8810 -0.3658
vn -0.5601 -0.4696 -0.6825
vn -0.4036 0.7715 -0.4918
vn -0.4913 -0.6326 -0.5987
vn -0.4913 0.6326 -0.5987
vn -0.4036 -0.7715 -0.4918
vn -0.5601 0.4696 -0.6825
vn -0.3002 -0.8810 -0.3658
vn -0.6073 0.2890 -0.7400
vn -0.1850 -0.9565 -0.2254
vn -0.6314 0.0975 -0.7693
vn -0.0625 0.9951 -0.0761
vn -0.0625 -0.9951 -0.0761
vn -0.6314 -0.0975 -0.7693
vn -0.1850 0.9565 -0.2254
vn -0.2230 -0.8810 -0.4173
vn -0.4513 0.2890 -0.8443
vn -0.1374 -0.9566 -0.2571
vn -0.4691 0.0975 -0.8777
vn -0.0464 0.9951 -0.0869
vn -0.0464 -0.9951 -0.0869
vn -0.4691 -0.0975 -0.8777
vn -0.1374 0.9565 -0.2571
vn -0.4513 -0.2890 -0.8443
vn -0.2231 0.8810 -0.4173
vn -0.4162 -0.4696 -0.7786
vn -0.2999 0.7715 -0.5611
vn -0.3651 -0.6326 -0.6831
vn -0.3651 0.6326 -0.6831
vn -0.2999 -0.7715 -0.5611
vn -0.4162 0.4696 -0.7786
vn -0.1374 0.8810 -0.4528
vn -0.2563 -0.4696 -0.8448
vn -0.1847 0.7715 -0.6088
vn -0.2248 -0.6326 -0.7412
vn -0.2248 0.6326 -0.7412
vn -0.1847 -0.7715 -0.6088
vn -0.2563 0.4696 -0.8448
vn -0.1374 -0.8810 -0.4528
vn -0.2779 0.2890 -0.9161
vn -0.0846 -0.9565 -0.2790
vn -0.2889 0.0975 -0.9524
vn -0.0286 0.9951 -0.0942
vn -0.0286 -0.9951 -0.0942
vn -0.2889 -0.0975 -0.9524
vn -0.0846 0.9565 -0.2790
vn -0.2779 -0.2890 -0.9161
vn -0.0938 0.2890 -0.9527
vn -0.0286 -0.9565 -0.2902
vn -0.0975 0.0975 -0.9904
vn -0.0096 0.9951 -0.0980
vn -0.0097 -0.9951 -0.0980
vn -0.0975 -0.0975 -0.9904
vn -0.0286 0.9565 -0.2902
vn -0.0938 -0.2890 -0.9527
vn -0.0464 0.8810 -0.4709
vn -0.0865 -0.4696 -0.8786
vn -0.0624 0.7715 -0.6332
vn -0.0759 -0.6326 -0.7708
vn -0.0759 0.6326 -0.7708
vn -0.0624 -0.7715 -0.6332
vn -0.0865 0.4696 -0.8786
vn -0.0464 -0.8810 -0.4709
vn 0.0865 -0.4696 -0.8786
vn 0.0624 0.7715 -0.6332
vn 0.0759 -0.6326 -0.7708
vn 0.0759 0.6326 -0.7708
vn 0.0624 -0.7715 -0.6332
vn 0.0865 0.4696 -0.8786
vn 0.0464 -0.8810 -0.4709
vn 0.0938 0.2890 -0.9527
vn 0.0286 -0.9565 -0.2902
vn 0.0976 0.0975 -0.9904
vn 0.0096 0.9951 -0.0980
vn 0.0097 -0.9951 -0.0980
vn 0.0975 -0.0975 -0.9904
vn 0.0286 0.9565 -0.2902
vn 0.0938 -0.2890 -0.9527
vn 0.0464 0.8810 -0.4709
vn 0.0846 -0.9565 -0.2790
vn 0.2889 0.0975 -0.9524
vn 0.0286 0.9951 -0.0942
vn 0.0286 -0.9951 -0.0942
vn 0.2889 -0.0975 -0.9524
vn 0.0846 0.9565 -0.2790
vn 0.2779 -0.2890 -0.9161
vn 0.1374 0.8810 -0.4528
vn 0.2563 -0.4696 -0.8448
vn 0.1847 0.7715 -0.6088
vn 0.2248 -0.6326 -0.7412
vn 0.2248 0.6326 -0.7412
vn 0.1847 -0.7715 -0.6088
vn 0.2563 0.4696 -0.8448
vn 0.1374 -0.8810 -0.4528
vn 0.2779 0.2890 -0.9161
vn 0.2999 0.7715 -0.5611
vn 0.3651 -0.6326 -0.6831
vn 0.3651 0.6326 -0.6831
vn 0.2999 -0.7715 -0.5611
vn 0.4162 0.4696 -0.7786
vn 0.2231 -0.8810 -0.4173
vn 0.4513 0.2890 -0.8443
vn 0.1374 -0.9566 -0.2571
vn 0.4691 0.0975 -0.8777
vn 0.0464 0.9951 -0.0869
vn 0.0464 -0.9951 -0.0869
vn 0.4691 -0.0975 -0.8777
vn 0.1374 0.9565 -0.2571
vn 0.4513 -0.2890 -0.8443
vn 0.2230 0.8810 -0.4173
vn 0.4162 -0.4696 -0.7786
vn 0.6314 0.0975 -0.7693
vn 0.0625 0.9951 -0.0761
vn 0.0625 -0.9951 -0.0761
vn 0.6314 -0.0975 -0.7693
vn 0.1850 0.9565 -0.2254
vn 0.6073 -0.2890 -0.7400
vn 0.3002 0.8810 -0.3658
vn 0.5601 -0.4696 -0.6825
vn 0.4036 0.7715 -0.4918
vn 0.4913 -0.6326 -0.5987
vn 0.4913 0.6326 -0.5987
vn 0.4036 -0.7715 -0.4918
vn 0.5601 0.4696 -0.6825
vn 0.3002 -0.8810 -0.3658
vn 0.6073 0.2890 -0.7400
vn 0.1850 -0.9566 -0.2254
vn 0.5987 -0.6326 -0.4913
vn 0.5987 0.6326 -0.4913
vn 0.4918 -0.7715 -0.4036
vn 0.6825 0.4696 -0.5601
vn 0.3658 -0.8810 -0.3002
vn 0.7400 0.2890 -0.6073
vn 0.2254 -0.9565 -0.1850
vn 0.7693 0.0975 -0.6314
vn 0.0761 0.9951 -0.0625
vn 0.0761 -0.9951 -0.0625
vn 0.7693 -0.0975 -0.6314
vn 0.2254 0.9565 -0.1850
vn 0.7400 -0.2890 -0.6073
vn 0.3658 0.8810 -0.3002
vn 0.6825 -0.4696 -0.5601
vn 0.4918 0.7715 -0.4036
vn 0.0869 -0.9951 -0.0464
vn 0.8777 -0.0975 -0.4691
vn 0.2571 0.9566 -0.1374
vn 0.8443 -0.2890 -0.4513
vn 0.4173 0.8810 -0.2231
vn 0.7786 -0.4696 -0.4162
vn 0.5611 0.7715 -0.2999
vn 0.6831 -0.6326 -0.3651
vn 0.6831 0.6326 -0.3651
vn 0.5611 -0.7715 -0.2999
vn 0.7786 0.4696 -0.4162
vn 0.4173 -0.8810 -0.2230
vn 0.8443 0.2890 -0.4513
vn 0.2571 -0.9565 -0.1374
vn 0.8777 0.0975 -0.4691
vn 0.0869 0.9951 -0.0464
vn 0.6088 -0.7715 -0.1847
vn 0.8448 0.4696 -0.2563
vn 0.4528 -0.8810 -0.1374
vn 0.9161 0.2890 -0.2779
vn 0.2790 -0.9565 -0.0846
vn 0.9524 0.0975 -0.2889
vn 0.0942 0.9951 -0.0286
vn 0.0942 -0.9951 -0.0286
vn 0.9524 -0.0975 -0.2889
vn 0.2790 0.9566 -0.0846
vn 0.9161 -0.2890 -0.2779
vn 0.4528 0.8810 -0.1374
vn 0.8448 -0.4696 -0.2563
vn 0.6088 0.7715 -0.1847
vn 0.7412 -0.6326 -0.2248
vn 0.7412 0.6326 -0.2248
vn 0.2902 0.9565 -0.0286
vn 0.9527 -0.2890 -0.0938
vn 0.4709 0.8810 -0.0464
vn 0.8786 -0.4696 -0.0865
vn 0.6332 0.7715 -0.0624
vn 0.7708 -0.6326 -0.0759
vn 0.7708 0.6326 -0.0759
vn 0.6332 -0.7715 -0.0624
vn 0.8786 0.4696 -0.0865
vn 0.4709 -0.8810 -0.0464
vn 0.9527 0.2890 -0.0938
vn 0.2902 -0.9565 -0.0286
vn 0.9904 0.0975 -0.0976
vn 0.0980 0.9951 -0.0097
vn 0.0980 -0.9951 -0.0097
vn 0.9904 -0.0975 -0.0975
vn 0.8786 0.4696 0.0865
vn 0.4709 -0.8810 0.0464
vn 0.9527 0.2890 0.0938
vn 0.2902 -0.9565 0.0286
vn 0.9904 0.0975 0.0975
vn 0.0980 0.9951 0.0097
vn 0.0980 -0.9951 0.0097
vn 0.9904 -0.0975 0.0976
vn 0.2902 0.9565 0.0286
vn 0.9527 -0.2890 0.0938
vn 0.4709 0.8810 0.0464
vn 0.8786 -0.4696 0.0865
vn 0.6332 0.7715 0.0624
vn 0.7708 -0.6326 0.0759
vn 0.7708 0.6326 0.0759
vn 0.6332 -0.7715 0.0624
vn 0.9161 -0.2890 0.2779
vn 0.4528 0.8810 0.1374
vn 0.8448 -0.4696 0.2563
vn 0.6088 0.7715 0.1847
vn 0.7412 -0.6326 0.2248
vn 0.7412 0.6326 0.2248
vn 0.6088 -0.7715 0.1847
vn 0.8448 0.4696 0.2563
vn 0.4528 -0.8810 0.1374
vn 0.9161 0.2890 0.2779
vn 0.2790 -0.9565 0.0846
vn 0.9524 0.0975 0.2889
vn 0.0942 0.9951 0.0286
vn 0.0942 -0.9951 0.0286
vn 0.9524 -0.0975 0.2889
vn 0.2790 0.9565 0.0846
vn 0.4173 -0.8810 0.2231
vn 0.8443 0.2890 0.4513
vn 0.2571 -0.9566 0.1374
vn 0.8777 0.0975 0.4691
vn 0.0869 0.9951 0.0464
vn 0.0869 -0.9951 0.0464
vn 0.8777 -0.0975 0.4691
vn 0.2571 0.9565 0.1374
vn 0.8443 -0.2890 0.4513
vn 0.4173 0.8810 0.2231
vn 0.7786 -0.4696 0.4162
vn 0.5611 0.7715 0.2999
vn 0.6831 -0.6326 0.3651
vn 0.6831 0.6326 0.3651
vn 0.5611 -0.7715 0.2999
vn 0.7786 0.4696 0.4162
vn 0.3658 0.8810 0.3002
vn 0.6825 -0.4696 0.5601
vn 0.4918 0.7715 0.4036
vn 0.5987 -0.6326 0.4913
vn 0.5987 0.6326 0.4913
vn 0.4918 -0.7715 0.4036
vn 0.6825 0.4696 0.5601
vn 0.3658 -0.8810 0.3002
vn 0.7400 0.2890 0.6073
vn 0.2254 -0.9566 0.1850
vn 0.7693 0.0975 0.6314
vn 0.0761 0.9951 0.0625
vn 0.0761 -0.9951 0.0625
vn 0.7693 -0.0975 0.6314
vn 0.2254 0.9565 0.1850
vn 0.7400 -0.2890 0.6073
vn 0.6073 0.2890 0.7400
vn 0.1850 -0.9565 0.2254
vn 0.6314 0.0975 0.7693
vn 0.0625 0.9951 0.0761
vn 0.0625 -0.9951 0.0761
vn 0.6314 -0.0975 0.7693
vn 0.1850 0.9565 0.2254
vn 0.6073 -0.2890 0.7400
vn 0.3002 0.8810 0.3658
vn 0.5601 -0.4696 0.6825
vn 0.4036 0.7715 0.4918
vn 0.4913 -0.6326 0.5987
vn 0.4913 0.6326 0.5987
vn 0.4036 -0.7715 0.4918
vn 0.5601 0.4696 0.6825
vn 0.3002 -0.8810 0.3658
vn 0.4162 -0.4696 0.7786
vn 0.2999 0.7715 0.5611
vn 0.3651 -0.6326 0.6831
vn 0.3651 0.6326 0.6831
vn 0.2999 -0.7715 0.5611
vn 0.4162 0.4696 0.7786
vn 0.2230 -0.8810 0.4173
vn 0.4513 0.2890 0.8443
vn 0.1375 -0.9565 0.2571
vn 0.4691 0.0975 0.8777
vn 0.0464 0.9951 0.0869
vn 0.0464 -0.9951 0.0869
vn 0.4691 -0.0975 0.8777
vn 0.1374 0.9565 0.2571
vn 0.4513 -0.2890 0.8443
vn 0.2230 0.8810 0.4173
vn 0.0846 -0.9566 0.2790
vn 0.2889 0.0975 0.9524
vn 0.0286 0.9951 0.0942
vn 0.0286 -0.9951 0.0942
vn 0.2889 -0.0975 0.9524
vn 0.0846 0.9565 0.2790
vn 0.2779 -0.2890 0.9161
vn 0.1374 0.8810 0.4528
vn 0.2563 -0.4696 0.8448
vn 0.1847 0.7715 0.6088
vn 0.2248 -0.6326 0.7412
vn 0.2248 0.6326 0.7412
vn 0.1847 -0.7715 0.6088
vn 0.2563 0.4696 0.8448
vn 0.1374 -0.8810 0.4528
vn 0.2779 0.2890 0.9161
vn 0.0759 -0.6326 0.7708
vn 0.0759 0.6326 0.7708
vn 0.0624 -0.7715 0.6332
vn 0.0865 0.4696 0.8786
vn 0.0464 -0.8810 0.4709
vn 0.0938 0.2890 0.9527
vn 0.0286 -0.9566 0.2902
vn 0.0976 0.0975 0.9904
vn 0.0097 0.9951 0.0980
vn 0.0096 -0.9951 0.0980
vn 0.0976 -0.0975 0.9904
vn 0.0286 0.9565 0.2902
vn 0.0938 -0.2890 0.9527
vn 0.0464 0.8810 0.4709
vn 0.0865 -0.4696 0.8786
vn 0.0624 0.7715 0.6332
vn -0.0878 0.5489 -0.8313
vn -0.2599 0.5192 -0.8142
vn -0.4220 0.4610 -0.7806
vn -0.5680 0.3766 -0.7318
vn -0.6921 0.2691 -0.6698
vn -0.7896 0.1427 -0.5968
vn -0.8567 0.0023 -0.5157
vn -0.8910 -0.1467 -0.4297
vn -0.8910 -0.2987 -0.3419
vn -0.8567 -0.4478 -0.2559
vn -0.7896 -0.5882 -0.1748
vn -0.6921 -0.7146 -0.1018
vn -0.5680 -0.8221 -0.0398
vn -0.4220 -0.9065 0.0090
vn -0.2599 -0.9647 0.0426
vn -0.0878 -0.9944 0.0597
vn 0.0878 -0.9944 0.0597
vn 0.2599 -0.9647 0.0426
vn 0.4220 -0.9065 0.0090
vn 0.5680 -0.8221 -0.0398
vn 0.6921 -0.7146 -0.1018
vn 0.7896 -0.5882 -0.1748
vn 0.8567 -0.4478 -0.2559
vn 0.8910 -0.2987 -0.3419
vn 0.8910 -0.1467 -0.4297
vn 0.8567 0.0023 -0.5157
vn 0.7896 0.1427 -0.5968
vn 0.6921 0.2691 -0.6698
vn 0.5680 0.3766 -0.7318
vn 0.4220 0.4610 -0.7806
vn -0.0000 0.5000 0.8660
vn 0.2599 0.5192 -0.8142
vn 0.0878 0.5489 -0.8313
vn -0.0878 -0.5489 0.8313
vn -0.2599 -0.5192 0.8142
vn -0.4220 -0.4610 0.7806
vn -0.5680 -0.3766 0.7318
vn -0.6921 -0.2691 0.6698
vn -0.7896 -0.1427 0.5968
vn -0.8567 -0.0023 0.5157
vn -0.8910 0.1467 0.4297
vn -0.8910 0.2987 0.3419
vn -0.8567 0.4478 0.2559
vn -0.7896 0.5882 0.1748
vn -0.6921 0.7146 0.1018
vn -0.5680 0.8221 0.0398
vn -0.4220 0.9065 -0.0090
vn -0.2599 0.9647 -0.0426
vn -0.0878 0.9944 -0.0597
vn 0.0878 0.9944 -0.0597
vn 0.2599 0.9647 -0.0426
vn 0.4220 0.9065 -0.0090
vn 0.5680 0.8221 0.0398
vn 0.6921 0.7146 0.1018
vn 0.7896 0.5882 0.1748
vn 0.8567 0.4478 0.2559
vn 0.8910 0.2987 0.3419
vn 0.8910 0.1467 0.4297
vn 0.8567 -0.0023 0.5157
vn 0.7896 -0.1427 0.5968
vn 0.6921 -0.2691 0.6698
vn 0.5680 -0.3766 0.7318
vn 0.4220 -0.4610 0.7806
vn -0.0000 -0.5000 -0.8660
vn 0.2599 -0.5192 0.8142
vn 0.0878 -0.5489 0.8313
vn -0.0286 -0.9565 0.2902
vn -0.0975 0.0975 0.9904
vn -0.0976 -0.0975 0.9904
vn -0.0846 -0.9566 0.2790
vn -0.2889 0.0976 0.9524
vn -0.2231 -0.8810 0.4173
vn -0.1374 -0.9565 0.2571
vn -0.4691 -0.0975 0.8777
vn -0.2230 0.8810 0.4173
vn -0.6314 0.0975 0.7693
vn -0.6314 -0.0976 0.7693
vn -0.2254 -0.9565 0.1850
vn -0.7693 -0.0976 0.6314
vn -0.2254 0.9566 0.1850
vn -0.4173 -0.8810 0.2230
vn -0.2571 -0.9565 0.1374
vn -0.4173 0.8810 0.2231
vn -0.9904 -0.0975 -0.0975
vn -0.2902 -0.9566 -0.0286
vn -0.2790 0.9565 -0.0846
vn -0.4173 0.8810 -0.2231
vn -0.4173 -0.8810 -0.2231
vn -0.2254 -0.9565 -0.1850
vn -0.2254 0.9566 -0.1850
vn -0.2231 -0.8810 -0.4173
vn -0.1374 -0.9565 -0.2571
vn -0.1374 0.9566 -0.2571
vn -0.2230 0.8810 -0.4173
vn -0.0847 0.9565 -0.2790
vn 0.0975 0.0975 -0.9904
vn 0.0976 -0.0975 -0.9904
vn 0.0847 0.9565 -0.2790
vn 0.2230 -0.8810 -0.4173
vn 0.1374 -0.9565 -0.2571
vn 0.1374 0.9566 -0.2571
vn 0.2231 0.8810 -0.4173
vn 0.1850 -0.9565 -0.2254
vn 0.2254 0.9566 -0.1850
vn 0.2571 0.9565 -0.1374
vn 0.4173 -0.8810 -0.2231
vn 0.2790 0.9565 -0.0846
vn 0.2902 -0.9566 -0.0286
vn 0.9904 0.0975 -0.0975
vn 0.9904 0.0975 0.0976
vn 0.9904 -0.0975 0.0975
vn 0.4173 -0.8810 0.2230
vn 0.2571 -0.9565 0.1374
vn 0.2254 -0.9565 0.1850
vn 0.2254 0.9566 0.1850
vn 0.1850 -0.9566 0.2254
vn 0.2231 -0.8810 0.4173
vn 0.1374 -0.9566 0.2571
vn 0.0286 -0.9565 0.2902
vt 1.000000 1.000000
vt 0.968750 0.500000
vt 1.000000 0.500000
vt 0.968750 1.000000
vt 0.937500 0.500000
vt 0.937500 1.000000
vt 0.906250 0.500000
vt 0.906250 1.000000
vt 0.875000 0.500000
vt 0.875000 1.000000
vt 0.843750 0.500000
vt 0.843750 1.000000
vt 0.812500 0.500000
vt 0.812500 1.000000
vt 0.781250 0.500000
vt 0.781250 1.000000
vt 0.750000 0.500000
vt 0.750000 1.000000
vt 0.718750 0.500000
vt 0.718750 1.000000
vt 0.687500 0.500000
vt 0.687500 1.000000
vt 0.656250 0.500000
vt 0.656250 1.000000
vt 0.625000 0.500000
vt 0.625000 1.000000
vt 0.593750 0.500000
vt 0.593750 1.000000
vt 0.562500 0.500000
vt 0.562500 1.000000
vt 0.531250 0.500000
vt 0.531250 1.000000
vt 0.500000 0.500000
vt 0.500000 1.000000
vt 0.468750 0.500000
vt 0.468750 1.000000
vt 0.437500 0.500000
vt 0.437500 1.000000
vt 0.406250 0.500000
vt 0.406250 1.000000
vt 0.375000 0.500000
vt 0.375000 1.000000
vt 0.343750 0.500000
vt 0.343750 1.000000
vt 0.312500 0.500000
vt 0.312500 1.000000
vt 0.281250 0.500000
vt 0.281250 1.000000
vt 0.250000 0.500000
vt 0.250000 1.000000
vt 0.218750 0.500000
vt 0.218750 1.000000
vt 0.187500 0.500000
vt 0.187500 1.000000
vt 0.156250 0.500000
vt 0.156250 1.000000
vt 0.125000 0.500000
vt 0.125000 1.000000
vt 0.093750 0.500000
vt 0.093750 1.000000
vt 0.062500 0.500000
vt 0.158156 0.028269
vt 0.471731 0.158156
vt 0.341844 0.471731
vt 0.062500 1.000000
vt 0.031250 0.500000
vt 0.031250 1.000000
vt 0.000000 0.500000
vt 0.796822 0.014612
vt 0.514612 0.203178
vt 0.703178 0.485388
vt 0.750000 0.750000
vt 0.718750 0.812500
vt 0.718750 0.750000
vt 0.750000 0.250000
vt 0.718750 0.312500
vt 0.718750 0.250000
vt 0.750000 0.687500
vt 0.718750 0.687500
vt 0.750000 0.187500
vt 0.718750 0.187500
vt 0.750000 0.625000
vt 0.718750 0.625000
vt 0.718750 0.125000
vt 0.750000 0.125000
vt 0.750000 0.562500
vt 0.718750 0.562500
vt 0.718750 0.062500
vt 0.750000 0.062500
vt 0.750000 0.937500
vt 0.734375 1.000000
vt 0.718750 0.937500
vt 0.734375 0.000000
vt 0.750000 0.437500
vt 0.718750 0.437500
vt 0.750000 0.875000
vt 0.718750 0.875000
vt 0.750000 0.375000
vt 0.718750 0.375000
vt 0.750000 0.812500
vt 0.750000 0.312500
vt 0.687500 0.437500
vt 0.687500 0.375000
vt 0.687500 0.875000
vt 0.687500 0.812500
vt 0.687500 0.312500
vt 0.687500 0.750000
vt 0.687500 0.250000
vt 0.687500 0.687500
vt 0.687500 0.187500
vt 0.687500 0.625000
vt 0.687500 0.125000
vt 0.687500 0.562500
vt 0.687500 0.062500
vt 0.703125 1.000000
vt 0.687500 0.937500
vt 0.703125 0.000000
vt 0.656250 0.125000
vt 0.656250 0.625000
vt 0.656250 0.562500
vt 0.656250 0.062500
vt 0.671875 1.000000
vt 0.656250 0.937500
vt 0.671875 0.000000
vt 0.656250 0.437500
vt 0.656250 0.875000
vt 0.656250 0.375000
vt 0.656250 0.812500
vt 0.656250 0.312500
vt 0.656250 0.750000
vt 0.656250 0.250000
vt 0.656250 0.687500
vt 0.656250 0.187500
vt 0.625000 0.375000
vt 0.625000 0.312500
vt 0.625000 0.812500
vt 0.625000 0.750000
vt 0.625000 0.250000
vt 0.625000 0.687500
vt 0.625000 0.187500
vt 0.625000 0.625000
vt 0.625000 0.125000
vt 0.625000 0.562500
vt 0.625000 0.062500
vt 0.640625 1.000000
vt 0.625000 0.937500
vt 0.640625 0.000000
vt 0.625000 0.437500
vt 0.625000 0.875000
vt 0.593750 0.062500
vt 0.593750 0.562500
vt 0.609375 1.000000
vt 0.593750 0.937500
vt 0.609375 0.000000
vt 0.593750 0.437500
vt 0.593750 0.875000
vt 0.593750 0.375000
vt 0.593750 0.812500
vt 0.593750 0.312500
vt 0.593750 0.750000
vt 0.593750 0.250000
vt 0.593750 0.687500
vt 0.593750 0.187500
vt 0.593750 0.625000
vt 0.593750 0.125000
vt 0.562500 0.812500
vt 0.562500 0.750000
vt 0.562500 0.312500
vt 0.562500 0.250000
vt 0.562500 0.687500
vt 0.562500 0.187500
vt 0.562500 0.625000
vt 0.562500 0.125000
vt 0.562500 0.562500
vt 0.562500 0.062500
vt 0.578125 1.000000
vt 0.562500 0.937500
vt 0.578125 0.000000
vt 0.562500 0.437500
vt 0.562500 0.875000
vt 0.562500 0.375000
vt 0.531250 0.562500
vt 0.546875 1.000000
vt 0.531250 0.937500
vt 0.546875 0.000000
vt 0.531250 0.062500
vt 0.531250 0.437500
vt 0.531250 0.875000
vt 0.531250 0.375000
vt 0.531250 0.812500
vt 0.531250 0.312500
vt 0.531250 0.750000
vt 0.531250 0.250000
vt 0.531250 0.687500
vt 0.531250 0.187500
vt 0.531250 0.625000
vt 0.531250 0.125000
vt 0.500000 0.312500
vt 0.500000 0.250000
vt 0.500000 0.750000
vt 0.500000 0.687500
vt 0.500000 0.187500
vt 0.500000 0.625000
vt 0.500000 0.125000
vt 0.500000 0.562500
vt 0.500000 0.062500
vt 0.500000 0.500000
vt 0.515625 1.000000
vt 0.500000 0.937500
vt 0.515625 0.000000
vt 0.500000 0.437500
vt 0.500000 0.875000
vt 0.500000 0.375000
vt 0.500000 0.812500
vt 0.484375 1.000000
vt 0.468750 0.937500
vt 0.484375 0.000000
vt 0.468750 0.062500
vt 0.468750 0.500000
vt 0.468750 0.437500
vt 0.468750 0.875000
vt 0.468750 0.375000
vt 0.468750 0.812500
vt 0.468750 0.312500
vt 0.468750 0.750000
vt 0.468750 0.250000
vt 0.468750 0.687500
vt 0.468750 0.187500
vt 0.468750 0.625000
vt 0.468750 0.125000
vt 0.468750 0.562500
vt 0.437500 0.750000
vt 0.437500 0.687500
vt 0.437500 0.250000
vt 0.437500 0.187500
vt 0.437500 0.625000
vt 0.437500 0.125000
vt 0.437500 0.562500
vt 0.437500 0.062500
vt 0.437500 0.500000
vt 0.453125 1.000000
vt 0.437500 0.937500
vt 0.453125 0.000000
vt 0.437500 0.437500
vt 0.437500 0.875000
vt 0.437500 0.375000
vt 0.437500 0.812500
vt 0.437500 0.312500
vt 0.406250 0.500000
vt 0.406250 0.437500
vt 0.406250 0.875000
vt 0.406250 0.375000
vt 0.406250 0.812500
vt 0.406250 0.312500
vt 0.406250 0.750000
vt 0.406250 0.250000
vt 0.406250 0.687500
vt 0.406250 0.187500
vt 0.406250 0.625000
vt 0.406250 0.125000
vt 0.406250 0.562500
vt 0.406250 0.062500
vt 0.421875 1.000000
vt 0.406250 0.937500
vt 0.421875 0.000000
vt 0.375000 0.250000
vt 0.375000 0.187500
vt 0.375000 0.687500
vt 0.375000 0.625000
vt 0.375000 0.125000
vt 0.375000 0.562500
vt 0.375000 0.062500
vt 0.375000 0.500000
vt 0.390625 1.000000
vt 0.375000 0.937500
vt 0.390625 0.000000
vt 0.375000 0.437500
vt 0.375000 0.875000
vt 0.375000 0.375000
vt 0.375000 0.812500
vt 0.375000 0.312500
vt 0.375000 0.750000
vt 0.343750 0.437500
vt 0.343750 0.375000
vt 0.343750 0.812500
vt 0.343750 0.312500
vt 0.343750 0.750000
vt 0.343750 0.250000
vt 0.343750 0.687500
vt 0.343750 0.187500
vt 0.343750 0.625000
vt 0.343750 0.125000
vt 0.343750 0.562500
vt 0.343750 0.062500
vt 0.343750 0.500000
vt 0.359375 1.000000
vt 0.343750 0.937500
vt 0.359375 0.000000
vt 0.343750 0.875000
vt 0.312500 0.187500
vt 0.312500 0.125000
vt 0.312500 0.625000
vt 0.312500 0.562500
vt 0.312500 0.062500
vt 0.312500 0.500000
vt 0.328125 1.000000
vt 0.312500 0.937500
vt 0.328125 0.000000
vt 0.312500 0.437500
vt 0.312500 0.875000
vt 0.312500 0.375000
vt 0.312500 0.812500
vt 0.312500 0.312500
vt 0.312500 0.750000
vt 0.312500 0.250000
vt 0.312500 0.687500
vt 0.281250 0.812500
vt 0.281250 0.375000
vt 0.281250 0.312500
vt 0.281250 0.750000
vt 0.281250 0.250000
vt 0.281250 0.687500
vt 0.281250 0.187500
vt 0.281250 0.625000
vt 0.281250 0.125000
vt 0.281250 0.562500
vt 0.281250 0.062500
vt 0.281250 0.500000
vt 0.296875 1.000000
vt 0.281250 0.937500
vt 0.296875 0.000000
vt 0.281250 0.437500
vt 0.281250 0.875000
vt 0.250000 0.625000
vt 0.250000 0.562500
vt 0.250000 0.125000
vt 0.250000 0.062500
vt 0.250000 0.500000
vt 0.265625 1.000000
vt 0.250000 0.937500
vt 0.265625 0.000000
vt 0.250000 0.437500
vt 0.250000 0.875000
vt 0.250000 0.375000
vt 0.250000 0.812500
vt 0.250000 0.312500
vt 0.250000 0.750000
vt 0.250000 0.250000
vt 0.250000 0.687500
vt 0.250000 0.187500
vt 0.218750 0.312500
vt 0.218750 0.750000
vt 0.218750 0.250000
vt 0.218750 0.687500
vt 0.218750 0.187500
vt 0.218750 0.625000
vt 0.218750 0.125000
vt 0.218750 0.562500
vt 0.218750 0.062500
vt 0.218750 0.500000
vt 0.234375 1.000000
vt 0.218750 0.937500
vt 0.234375 0.000000
vt 0.218750 0.437500
vt 0.218750 0.875000
vt 0.218750 0.375000
vt 0.218750 0.812500
vt 0.187500 0.062500
vt 0.187500 0.500000
vt 0.203125 1.000000
vt 0.187500 0.937500
vt 0.203125 0.000000
vt 0.187500 0.437500
vt 0.187500 0.875000
vt 0.187500 0.375000
vt 0.187500 0.812500
vt 0.187500 0.312500
vt 0.187500 0.750000
vt 0.187500 0.250000
vt 0.187500 0.687500
vt 0.187500 0.187500
vt 0.187500 0.625000
vt 0.187500 0.125000
vt 0.187500 0.562500
vt 0.156250 0.750000
vt 0.156250 0.250000
vt 0.156250 0.687500
vt 0.156250 0.187500
vt 0.156250 0.625000
vt 0.156250 0.125000
vt 0.156250 0.562500
vt 0.156250 0.062500
vt 0.156250 0.500000
vt 0.171875 1.000000
vt 0.156250 0.937500
vt 0.171875 0.000000
vt 0.156250 0.437500
vt 0.156250 0.875000
vt 0.156250 0.375000
vt 0.156250 0.812500
vt 0.156250 0.312500
vt 0.125000 0.500000
vt 0.140625 1.000000
vt 0.125000 0.937500
vt 0.140625 0.000000
vt 0.125000 0.062500
vt 0.125000 0.437500
vt 0.125000 0.875000
vt 0.125000 0.375000
vt 0.125000 0.812500
vt 0.125000 0.312500
vt 0.125000 0.750000
vt 0.125000 0.250000
vt 0.125000 0.687500
vt 0.125000 0.187500
vt 0.125000 0.625000
vt 0.125000 0.125000
vt 0.125000 0.562500
vt 0.093750 0.250000
vt 0.093750 0.687500
vt 0.093750 0.187500
vt 0.093750 0.625000
vt 0.093750 0.125000
vt 0.093750 0.562500
vt 0.093750 0.062500
vt 0.093750 0.500000
vt 0.109375 1.000000
vt 0.093750 0.937500
vt 0.109375 0.000000
vt 0.093750 0.437500
vt 0.093750 0.875000
vt 0.093750 0.375000
vt 0.093750 0.812500
vt 0.093750 0.312500
vt 0.093750 0.750000
vt 0.078125 0.000000
vt 0.062500 0.062500
vt 0.062500 0.437500
vt 0.062500 0.937500
vt 0.062500 0.875000
vt 0.062500 0.375000
vt 0.062500 0.812500
vt 0.062500 0.312500
vt 0.062500 0.750000
vt 0.062500 0.250000
vt 0.062500 0.687500
vt 0.062500 0.187500
vt 0.062500 0.625000
vt 0.062500 0.125000
vt 0.062500 0.562500
vt 0.062500 0.500000
vt 0.078125 1.000000
vt 0.031250 0.187500
vt 0.031250 0.625000
vt 0.031250 0.125000
vt 0.031250 0.562500
vt 0.031250 0.062500
vt 0.031250 0.500000
vt 0.046875 1.000000
vt 0.031250 0.937500
vt 0.046875 0.000000
vt 0.031250 0.437500
vt 0.031250 0.875000
vt 0.031250 0.375000
vt 0.031250 0.812500
vt 0.031250 0.312500
vt 0.031250 0.750000
vt 0.031250 0.250000
vt 0.031250 0.687500
vt 0.000000 0.875000
vt 0.000000 0.375000
vt 0.000000 0.812500
vt 0.000000 0.312500
vt 0.000000 0.750000
vt 0.000000 0.250000
vt 0.000000 0.687500
vt 0.000000 0.187500
vt 0.000000 0.625000
vt 0.000000 0.125000
vt 0.000000 0.562500
vt 0.000000 0.062500
vt 0.015625 1.000000
vt 0.000000 0.937500
vt 0.015625 0.000000
vt 0.000000 0.437500
vt 1.000000 0.687500
vt 0.968750 0.625000
vt 1.000000 0.625000
vt 1.000000 0.187500
vt 0.968750 0.125000
vt 1.000000 0.125000
vt 0.968750 0.562500
vt 1.000000 0.562500
vt 0.968750 0.062500
vt 1.000000 0.062500
vt 0.968750 0.500000
vt 1.000000 0.937500
vt 0.984375 1.000000
vt 0.968750 0.937500
vt 0.984375 0.000000
vt 0.968750 0.437500
vt 1.000000 0.437500
vt 0.968750 0.875000
vt 1.000000 0.875000
vt 0.968750 0.375000
vt 1.000000 0.375000
vt 0.968750 0.812500
vt 1.000000 0.812500
vt 0.968750 0.312500
vt 1.000000 0.312500
vt 0.968750 0.750000
vt 1.000000 0.750000
vt 0.968750 0.250000
vt 1.000000 0.250000
vt 0.968750 0.687500
vt 0.968750 0.187500
vt 0.937500 0.375000
vt 0.937500 0.812500
vt 0.937500 0.312500
vt 0.937500 0.750000
vt 0.937500 0.250000
vt 0.937500 0.687500
vt 0.937500 0.187500
vt 0.937500 0.625000
vt 0.937500 0.125000
vt 0.937500 0.562500
vt 0.937500 0.062500
vt 0.937500 0.500000
vt 0.953125 1.000000
vt 0.937500 0.937500
vt 0.953125 0.000000
vt 0.937500 0.437500
vt 0.937500 0.875000
vt 0.906250 0.125000
vt 0.906250 0.562500
vt 0.906250 0.062500
vt 0.906250 0.500000
vt 0.921875 1.000000
vt 0.906250 0.937500
vt 0.921875 0.000000
vt 0.906250 0.437500
vt 0.906250 0.875000
vt 0.906250 0.375000
vt 0.906250 0.812500
vt 0.906250 0.312500
vt 0.906250 0.750000
vt 0.906250 0.250000
vt 0.906250 0.687500
vt 0.906250 0.187500
vt 0.906250 0.625000
vt 0.875000 0.812500
vt 0.875000 0.312500
vt 0.875000 0.750000
vt 0.875000 0.250000
vt 0.875000 0.687500
vt 0.875000 0.187500
vt 0.875000 0.625000
vt 0.875000 0.125000
vt 0.875000 0.562500
vt 0.875000 0.062500
vt 0.875000 0.500000
vt 0.890625 1.000000
vt 0.875000 0.937500
vt 0.890625 0.000000
vt 0.875000 0.437500
vt 0.875000 0.875000
vt 0.875000 0.375000
vt 0.843750 0.562500
vt 0.843750 0.125000
vt 0.843750 0.062500
vt 0.843750 0.500000
vt 0.859375 1.000000
vt 0.843750 0.937500
vt 0.859375 0.000000
vt 0.843750 0.437500
vt 0.843750 0.875000
vt 0.843750 0.375000
vt 0.843750 0.812500
vt 0.843750 0.312500
vt 0.843750 0.750000
vt 0.843750 0.250000
vt 0.843750 0.687500
vt 0.843750 0.187500
vt 0.843750 0.625000
vt 0.812500 0.312500
vt 0.812500 0.750000
vt 0.812500 0.250000
vt 0.812500 0.687500
vt 0.812500 0.187500
vt 0.812500 0.625000
vt 0.812500 0.125000
vt 0.812500 0.562500
vt 0.812500 0.062500
vt 0.812500 0.500000
vt 0.828125 1.000000
vt 0.812500 0.937500
vt 0.828125 0.000000
vt 0.812500 0.437500
vt 0.812500 0.875000
vt 0.812500 0.375000
vt 0.812500 0.812500
vt 0.781250 0.125000
vt 0.781250 0.062500
vt 0.781250 0.500000
vt 0.796875 1.000000
vt 0.781250 0.937500
vt 0.796875 0.000000
vt 0.781250 0.437500
vt 0.781250 0.875000
vt 0.781250 0.375000
vt 0.781250 0.812500
vt 0.781250 0.312500
vt 0.781250 0.750000
vt 0.781250 0.250000
vt 0.781250 0.687500
vt 0.781250 0.187500
vt 0.781250 0.625000
vt 0.781250 0.562500
vt 0.765625 1.000000
vt 0.765625 0.000000
vt 0.250000 0.490000
vt 0.296822 0.485388
vt 0.383337 0.449553
vt 0.419706 0.419706
vt 0.449553 0.383337
vt 0.471731 0.341844
vt 0.485388 0.296822
vt 0.490000 0.250000
vt 0.485388 0.203178
vt 0.449553 0.116663
vt 0.419706 0.080294
vt 0.383337 0.050447
vt 0.341844 0.028269
vt 0.296822 0.014612
vt 0.250000 0.010000
vt 0.203178 0.014612
vt 0.116663 0.050447
vt 0.080294 0.080294
vt 0.050447 0.116663
vt 0.028269 0.158156
vt 0.014612 0.203178
vt 0.010000 0.250000
vt 0.014612 0.296822
vt 0.028269 0.341844
vt 0.050447 0.383337
vt 0.080294 0.419706
vt 0.116663 0.449553
vt 0.158156 0.471731
vt 0.616663 0.449553
vt 0.658156 0.471731
vt 0.616663 0.050447
vt 0.203178 0.485388
vt 0.000000 1.000000
vt 0.750000 0.490000
vt 0.796822 0.485388
vt 0.841844 0.471731
vt 0.883337 0.449553
vt 0.919706 0.419706
vt 0.949553 0.383337
vt 0.971731 0.341844
vt 0.985388 0.296822
vt 0.990000 0.250000
vt 0.985388 0.203178
vt 0.971731 0.158156
vt 0.949553 0.116663
vt 0.919706 0.080294
vt 0.883337 0.050447
vt 0.841844 0.028269
vt 0.750000 0.010000
vt 0.703178 0.014612
vt 0.658156 0.028269
vt 0.580294 0.080294
vt 0.550447 0.116663
vt 0.528269 0.158156
vt 0.510000 0.250000
vt 0.514612 0.296822
vt 0.528269 0.341844
vt 0.550447 0.383337
vt 0.580294 0.419706
s 0
usemtl Material.001
f 2/1/1 3/2/1 1/3/1
f 4/4/2 5/5/2 3/2/2
f 6/6/3 7/7/3 5/5/3
f 8/8/4 9/9/4 7/7/4
f 10/10/5 11/11/5 9/9/5
f 12/12/6 13/13/6 11/11/6
f 14/14/7 15/15/7 13/13/7
f 16/16/8 17/17/8 15/15/8
f 18/18/9 19/19/9 17/17/9
f 20/20/10 21/21/10 19/19/10
f 22/22/11 23/23/11 21/21/11
f 24/24/12 25/25/12 23/23/12
f 26/26/13 27/27/13 25/25/13
f 28/28/14 29/29/14 27/27/14
f 30/30/15 31/31/15 29/29/15
f 32/32/16 33/33/16 31/31/16
f 34/34/17 35/35/17 33/33/17
f 36/36/18 37/37/18 35/35/18
f 38/38/19 39/39/19 37/37/19
f 40/40/20 41/41/20 39/39/20
f 42/42/21 43/43/21 41/41/21
f 44/44/22 45/45/22 43/43/22
f 46/46/23 47/47/23 45/45/23
f 48/48/24 49/49/24 47/47/24
f 50/50/25 51/51/25 49/49/25
f 52/52/26 53/53/26 51/51/26
f 54/54/27 55/55/27 53/53/27
f 56/56/28 57/57/28 55/55/28
f 58/58/29 59/59/29 57/57/29
f 60/60/30 61/61/30 59/59/30
f 38/62/31 22/63/31 6/64/31
f 62/65/32 63/66/32 61/61/32
f 64/67/33 1/68/33 63/66/33
f 31/69/34 47/70/34 63/71/34
f 540/72/35 73/73/35 74/74/35
f 543/75/36 81/76/36 82/77/36
f 66/78/37 74/74/37 75/79/37
f 544/80/38 82/77/38 83/81/38
f 541/82/39 75/79/39 76/83/39
f 544/80/40 84/84/40 545/85/40
f 67/86/41 76/83/41 77/87/41
f 545/85/42 85/88/42 546/89/42
f 68/17/43 77/87/43 78/19/43
f 538/90/44 146/91/44 71/92/44
f 372/93/45 546/89/45 85/88/45
f 69/94/46 78/19/46 79/95/46
f 539/96/47 71/92/47 72/97/47
f 542/98/48 79/95/48 80/99/48
f 65/100/49 72/97/49 73/73/49
f 70/101/50 80/99/50 81/76/50
f 80/99/51 94/102/51 95/103/51
f 73/73/52 87/104/52 88/105/52
f 81/76/53 95/103/53 96/106/53
f 74/74/54 88/105/54 89/107/54
f 82/77/55 96/106/55 97/108/55
f 75/79/56 89/107/56 90/109/56
f 83/81/57 97/108/57 98/110/57
f 76/83/58 90/109/58 91/111/58
f 83/81/59 99/112/59 84/84/59
f 77/87/60 91/111/60 92/113/60
f 84/84/61 100/114/61 85/88/61
f 78/19/62 92/113/62 93/21/62
f 71/92/63 146/115/63 86/116/63
f 372/117/64 85/88/64 100/114/64
f 79/95/65 93/21/65 94/102/65
f 72/97/66 86/116/66 87/104/66
f 98/110/67 114/118/67 99/112/67
f 92/113/68 106/119/68 107/120/68
f 99/112/69 115/121/69 100/114/69
f 93/21/70 107/120/70 108/23/70
f 86/116/71 146/122/71 101/123/71
f 372/124/72 100/114/72 115/121/72
f 94/102/73 108/23/73 109/125/73
f 87/104/74 101/123/74 102/126/74
f 95/103/75 109/125/75 110/127/75
f 88/105/76 102/126/76 103/128/76
f 96/106/77 110/127/77 111/129/77
f 89/107/78 103/128/78 104/130/78
f 97/108/79 111/129/79 112/131/79
f 90/109/80 104/130/80 105/132/80
f 98/110/81 112/131/81 113/133/81
f 91/111/82 105/132/82 106/119/82
f 111/129/83 125/134/83 126/135/83
f 104/130/84 118/136/84 119/137/84
f 112/131/85 126/135/85 127/138/85
f 105/132/86 119/137/86 120/139/86
f 113/133/87 127/138/87 128/140/87
f 106/119/88 120/139/88 121/141/88
f 113/133/89 129/142/89 114/118/89
f 107/120/90 121/141/90 122/143/90
f 114/118/91 130/144/91 115/121/91
f 108/23/92 122/143/92 123/25/92
f 101/123/93 146/145/93 116/146/93
f 372/147/94 115/121/94 130/144/94
f 109/125/95 123/25/95 124/148/95
f 102/126/96 116/146/96 117/149/96
f 110/127/97 124/148/97 125/134/97
f 103/128/98 117/149/98 118/136/98
f 129/142/99 145/150/99 130/144/99
f 123/25/100 137/151/100 138/27/100
f 116/146/101 146/152/101 131/153/101
f 372/154/102 130/144/102 145/150/102
f 124/148/103 138/27/103 139/155/103
f 117/149/104 131/153/104 132/156/104
f 125/134/105 139/155/105 140/157/105
f 118/136/106 132/156/106 133/158/106
f 126/135/107 140/157/107 141/159/107
f 119/137/108 133/158/108 134/160/108
f 127/138/109 141/159/109 142/161/109
f 120/139/110 134/160/110 135/162/110
f 128/140/111 142/161/111 143/163/111
f 121/141/112 135/162/112 136/164/112
f 129/142/113 143/163/113 144/165/113
f 122/143/114 136/164/114 137/151/114
f 134/160/115 149/166/115 150/167/115
f 142/161/116 157/168/116 158/169/116
f 135/162/117 150/167/117 151/170/117
f 143/163/118 158/169/118 159/171/118
f 136/164/119 151/170/119 152/172/119
f 144/165/120 159/171/120 160/173/120
f 137/151/121 152/172/121 153/174/121
f 144/165/122 161/175/122 145/150/122
f 138/27/123 153/174/123 154/29/123
f 131/153/124 146/176/124 147/177/124
f 372/178/125 145/150/125 161/175/125
f 139/155/126 154/29/126 155/179/126
f 132/156/127 147/177/127 148/180/127
f 140/157/128 155/179/128 156/181/128
f 133/158/129 148/180/129 149/166/129
f 141/159/130 156/181/130 157/168/130
f 154/29/131 168/182/131 169/31/131
f 147/177/132 146/183/132 162/184/132
f 372/185/133 161/175/133 176/186/133
f 155/179/134 169/31/134 170/187/134
f 148/180/135 162/184/135 163/188/135
f 156/181/136 170/187/136 171/189/136
f 149/166/137 163/188/137 164/190/137
f 157/168/138 171/189/138 172/191/138
f 150/167/139 164/190/139 165/192/139
f 158/169/140 172/191/140 173/193/140
f 151/170/141 165/192/141 166/194/141
f 159/171/142 173/193/142 174/195/142
f 152/172/143 166/194/143 167/196/143
f 160/173/144 174/195/144 175/197/144
f 153/174/145 167/196/145 168/182/145
f 161/175/146 175/197/146 176/186/146
f 173/193/147 187/198/147 188/199/147
f 166/194/148 180/200/148 181/201/148
f 174/195/149 188/199/149 189/202/149
f 167/196/150 181/201/150 182/203/150
f 175/197/151 189/202/151 190/204/151
f 168/182/152 182/203/152 183/205/152
f 176/186/153 190/204/153 191/206/153
f 169/31/154 183/205/154 184/207/154
f 162/184/155 146/208/155 177/209/155
f 372/210/156 176/186/156 191/206/156
f 170/187/157 184/207/157 185/211/157
f 163/188/158 177/209/158 178/212/158
f 171/189/159 185/211/159 186/213/159
f 164/190/160 178/212/160 179/214/160
f 172/191/161 186/213/161 187/198/161
f 165/192/162 179/214/162 180/200/162
f 177/209/163 146/215/163 192/216/163
f 372/217/164 191/206/164 206/218/164
f 185/211/165 199/219/165 200/220/165
f 178/212/166 192/216/166 193/221/166
f 186/213/167 200/220/167 201/222/167
f 179/214/168 193/221/168 194/223/168
f 187/198/169 201/222/169 202/224/169
f 180/200/170 194/223/170 195/225/170
f 188/199/171 202/224/171 203/226/171
f 181/201/172 195/225/172 196/227/172
f 189/202/173 203/226/173 204/228/173
f 182/203/174 196/227/174 197/229/174
f 190/204/175 204/228/175 205/230/175
f 183/205/176 197/229/176 198/231/176
f 191/206/177 205/230/177 206/218/177
f 184/207/178 198/231/178 199/219/178
f 196/227/179 210/232/179 211/233/179
f 204/228/180 218/234/180 219/235/180
f 197/229/181 211/233/181 212/236/181
f 205/230/182 219/235/182 220/237/182
f 198/231/183 212/236/183 213/238/183
f 206/218/184 220/237/184 221/239/184
f 199/219/185 213/238/185 214/240/185
f 192/216/186 146/241/186 207/242/186
f 372/243/187 206/218/187 221/239/187
f 200/220/188 214/240/188 215/244/188
f 193/221/189 207/242/189 208/245/189
f 201/222/190 215/244/190 216/246/190
f 194/223/191 208/245/191 209/247/191
f 202/224/192 216/246/192 217/248/192
f 195/225/193 209/247/193 210/232/193
f 203/226/194 217/248/194 218/234/194
f 215/244/195 229/249/195 230/250/195
f 207/242/196 223/251/196 208/245/196
f 216/246/197 230/250/197 231/252/197
f 209/247/198 223/251/198 224/253/198
f 217/248/199 231/252/199 232/254/199
f 210/232/200 224/253/200 225/255/200
f 218/234/201 232/254/201 233/256/201
f 211/233/202 225/255/202 226/257/202
f 219/235/203 233/256/203 234/258/203
f 212/236/204 226/257/204 227/259/204
f 220/237/205 234/258/205 235/260/205
f 213/238/206 227/259/206 228/261/206
f 221/239/207 235/260/207 236/262/207
f 214/240/208 228/261/208 229/249/208
f 207/242/209 146/263/209 222/264/209
f 372/265/210 221/239/210 236/262/210
f 234/258/211 248/266/211 249/267/211
f 227/259/212 241/268/212 242/269/212
f 235/260/213 249/267/213 250/270/213
f 228/261/214 242/269/214 243/271/214
f 236/262/215 250/270/215 251/272/215
f 229/249/216 243/271/216 244/273/216
f 222/264/217 146/274/217 237/275/217
f 372/276/218 236/262/218 251/272/218
f 230/250/219 244/273/219 245/277/219
f 222/264/220 238/278/220 223/251/220
f 231/252/221 245/277/221 246/279/221
f 224/253/222 238/278/222 239/280/222
f 232/254/223 246/279/223 247/281/223
f 225/255/224 239/280/224 240/282/224
f 233/256/225 247/281/225 248/266/225
f 226/257/226 240/282/226 241/268/226
f 246/279/227 260/283/227 261/284/227
f 238/278/228 254/285/228 239/280/228
f 247/281/229 261/284/229 262/286/229
f 240/282/230 254/285/230 255/287/230
f 248/266/231 262/286/231 263/288/231
f 241/268/232 255/287/232 256/289/232
f 249/267/233 263/288/233 264/290/233
f 242/269/234 256/289/234 257/291/234
f 250/270/235 264/290/235 265/292/235
f 243/271/236 257/291/236 258/293/236
f 251/272/237 265/292/237 266/294/237
f 244/273/238 258/293/238 259/295/238
f 237/275/239 146/296/239 252/297/239
f 372/298/240 251/272/240 266/294/240
f 245/277/241 259/295/241 260/283/241
f 237/275/242 253/299/242 238/278/242
f 265/292/243 279/300/243 280/301/243
f 258/293/244 272/302/244 273/303/244
f 266/294/245 280/301/245 281/304/245
f 259/295/246 273/303/246 274/305/246
f 252/297/247 146/306/247 267/307/247
f 372/308/248 266/294/248 281/304/248
f 260/283/249 274/305/249 275/309/249
f 252/297/250 268/310/250 253/299/250
f 261/284/251 275/309/251 276/311/251
f 253/299/252 269/312/252 254/285/252
f 262/286/253 276/311/253 277/313/253
f 255/287/254 269/312/254 270/314/254
f 263/288/255 277/313/255 278/315/255
f 256/289/256 270/314/256 271/316/256
f 264/290/257 278/315/257 279/300/257
f 257/291/258 271/316/258 272/302/258
f 268/310/259 284/317/259 269/312/259
f 277/313/260 291/318/260 292/319/260
f 270/314/261 284/317/261 285/320/261
f 278/315/262 292/319/262 293/321/262
f 271/316/263 285/320/263 286/322/263
f 279/300/264 293/321/264 294/323/264
f 272/302/265 286/322/265 287/324/265
f 280/301/266 294/323/266 295/325/266
f 273/303/267 287/324/267 288/326/267
f 281/304/268 295/325/268 296/327/268
f 274/305/269 288/326/269 289/328/269
f 267/307/270 146/329/270 282/330/270
f 372/331/271 281/304/271 296/327/271
f 275/309/272 289/328/272 290/332/272
f 267/307/273 283/333/273 268/310/273
f 276/311/274 290/332/274 291/318/274
f 288/326/275 302/334/275 303/335/275
f 296/327/276 310/336/276 311/337/276
f 289/328/277 303/335/277 304/338/277
f 282/330/278 146/339/278 297/340/278
f 372/341/279 296/327/279 311/337/279
f 290/332/280 304/338/280 305/342/280
f 282/330/281 298/343/281 283/333/281
f 291/318/282 305/342/282 306/344/282
f 283/333/283 299/345/283 284/317/283
f 292/319/284 306/344/284 307/346/284
f 285/320/285 299/345/285 300/347/285
f 293/321/286 307/346/286 308/348/286
f 286/322/287 300/347/287 301/349/287
f 294/323/288 308/348/288 309/350/288
f 287/324/289 301/349/289 302/334/289
f 295/325/290 309/350/290 310/336/290
f 306/344/291 322/351/291 307/346/291
f 299/345/292 315/352/292 300/347/292
f 307/346/293 323/353/293 308/348/293
f 300/347/294 316/354/294 301/349/294
f 308/348/295 324/355/295 309/350/295
f 301/349/296 317/356/296 302/334/296
f 309/350/297 325/357/297 310/336/297
f 302/334/298 318/358/298 303/335/298
f 310/336/299 326/359/299 311/337/299
f 303/335/300 319/360/300 304/338/300
f 297/340/301 146/361/301 312/362/301
f 372/363/302 311/337/302 326/359/302
f 304/338/303 320/364/303 305/342/303
f 298/343/304 312/362/304 313/365/304
f 305/342/305 321/366/305 306/344/305
f 299/345/306 313/365/306 314/367/306
f 325/357/307 341/368/307 326/359/307
f 318/358/308 334/369/308 319/360/308
f 312/362/309 146/370/309 327/371/309
f 372/372/310 326/359/310 341/368/310
f 319/360/311 335/373/311 320/364/311
f 313/365/312 327/371/312 328/374/312
f 320/364/313 336/375/313 321/366/313
f 314/367/314 328/374/314 329/376/314
f 321/366/315 337/377/315 322/351/315
f 314/367/316 330/378/316 315/352/316
f 322/351/317 338/379/317 323/353/317
f 315/352/318 331/380/318 316/354/318
f 323/353/319 339/381/319 324/355/319
f 316/354/320 332/382/320 317/356/320
f 324/355/321 340/383/321 325/357/321
f 317/356/322 333/384/322 318/358/322
f 329/376/323 345/385/323 330/378/323
f 337/377/324 353/386/324 338/379/324
f 330/378/325 346/387/325 331/380/325
f 338/379/326 354/388/326 339/381/326
f 331/380/327 347/389/327 332/382/327
f 339/381/328 355/390/328 340/383/328
f 332/382/329 348/391/329 333/384/329
f 340/383/330 356/392/330 341/368/330
f 333/384/331 349/393/331 334/369/331
f 327/371/332 146/394/332 342/395/332
f 372/396/333 341/368/333 356/392/333
f 334/369/334 350/397/334 335/373/334
f 328/374/335 342/395/335 343/398/335
f 335/373/336 351/399/336 336/375/336
f 329/376/337 343/398/337 344/400/337
f 336/375/338 352/401/338 337/377/338
f 348/391/339 364/402/339 349/393/339
f 342/395/340 146/403/340 357/404/340
f 372/405/341 356/392/341 371/406/341
f 349/393/342 365/407/342 350/397/342
f 343/398/343 357/404/343 358/408/343
f 350/397/344 366/409/344 351/399/344
f 344/400/345 358/408/345 359/410/345
f 351/399/346 367/411/346 352/401/346
f 344/400/347 360/412/347 345/385/347
f 352/401/348 368/413/348 353/386/348
f 345/385/349 361/414/349 346/387/349
f 353/386/350 369/415/350 354/388/350
f 346/387/351 362/416/351 347/389/351
f 354/388/352 370/417/352 355/390/352
f 347/389/353 363/418/353 348/391/353
f 355/390/354 371/406/354 356/392/354
f 367/411/355 384/419/355 368/413/355
f 360/412/356 377/420/356 361/414/356
f 368/413/357 385/421/357 369/415/357
f 361/414/358 378/422/358 362/416/358
f 369/415/359 386/423/359 370/417/359
f 362/416/360 379/424/360 363/418/360
f 370/417/361 387/425/361 371/406/361
f 363/418/362 380/426/362 364/402/362
f 357/404/363 146/427/363 373/428/363
f 372/429/364 371/406/364 387/425/364
f 364/402/365 381/430/365 365/407/365
f 358/408/366 373/428/366 374/431/366
f 365/407/367 382/432/367 366/409/367
f 358/408/368 375/433/368 359/410/368
f 366/409/369 383/434/369 367/411/369
f 359/410/370 376/435/370 360/412/370
f 372/436/371 387/425/371 402/437/371
f 380/426/372 396/438/372 381/430/372
f 374/431/373 388/439/373 389/440/373
f 381/430/374 397/441/374 382/432/374
f 374/431/375 390/442/375 375/433/375
f 382/432/376 398/443/376 383/434/376
f 375/433/377 391/444/377 376/435/377
f 383/434/378 399/445/378 384/419/378
f 376/435/379 392/446/379 377/420/379
f 384/419/380 400/447/380 385/421/380
f 377/420/381 393/448/381 378/422/381
f 385/421/382 401/449/382 386/423/382
f 378/422/383 394/450/383 379/424/383
f 386/423/384 402/437/384 387/425/384
f 379/424/385 395/451/385 380/426/385
f 373/428/386 146/452/386 388/439/386
f 399/445/387 415/453/387 400/447/387
f 392/446/388 408/454/388 393/448/388
f 400/447/389 416/455/389 401/449/389
f 393/448/390 409/456/390 394/450/390
f 401/449/391 417/457/391 402/437/391
f 394/450/392 410/458/392 395/451/392
f 388/439/393 146/459/393 403/460/393
f 372/461/394 402/437/394 417/457/394
f 395/451/395 411/462/395 396/438/395
f 388/439/396 404/463/396 389/440/396
f 396/438/397 412/464/397 397/441/397
f 389/440/398 405/465/398 390/442/398
f 397/441/399 413/466/399 398/443/399
f 390/442/400 406/467/400 391/444/400
f 398/443/401 414/468/401 399/445/401
f 391/444/402 407/469/402 392/446/402
f 403/460/403 419/470/403 404/463/403
f 411/462/404 427/471/404 412/464/404
f 404/463/405 420/472/405 405/465/405
f 412/464/406 428/473/406 413/466/406
f 405/465/407 421/474/407 406/467/407
f 413/466/408 429/475/408 414/468/408
f 406/467/409 422/476/409 407/469/409
f 414/468/410 430/477/410 415/453/410
f 407/469/411 423/478/411 408/454/411
f 415/453/412 431/479/412 416/455/412
f 408/454/413 424/480/413 409/456/413
f 416/455/414 432/481/414 417/457/414
f 409/456/415 425/68/415 410/458/415
f 403/460/416 146/482/416 418/483/416
f 372/484/417 417/457/417 432/481/417
f 410/458/418 426/485/418 411/462/418
f 422/486/419 438/487/419 423/488/419
f 430/489/420 446/490/420 431/491/420
f 423/488/421 439/492/421 424/493/421
f 431/491/422 447/494/422 432/495/422
f 424/493/423 440/496/423 425/3/423
f 418/497/424 146/498/424 433/499/424
f 372/500/425 432/495/425 447/494/425
f 425/3/426 441/501/426 426/502/426
f 418/497/427 434/503/427 419/504/427
f 426/502/428 442/505/428 427/506/428
f 419/504/429 435/507/429 420/508/429
f 427/506/430 443/509/430 428/510/430
f 420/508/431 436/511/431 421/512/431
f 428/510/432 444/513/432 429/514/432
f 421/512/433 437/515/433 422/486/433
f 429/514/434 445/516/434 430/489/434
f 441/501/435 457/517/435 442/505/435
f 434/503/436 450/518/436 435/507/436
f 442/505/437 458/519/437 443/509/437
f 435/507/438 451/520/438 436/511/438
f 443/509/439 459/521/439 444/513/439
f 436/511/440 452/522/440 437/515/440
f 444/513/441 460/523/441 445/516/441
f 437/515/442 453/524/442 438/487/442
f 445/516/443 461/525/443 446/490/443
f 438/487/444 454/526/444 439/492/444
f 446/490/445 462/527/445 447/494/445
f 439/492/446 455/528/446 440/496/446
f 433/499/447 146/529/447 448/530/447
f 372/531/448 447/494/448 462/527/448
f 440/496/449 456/532/449 441/501/449
f 433/499/450 449/533/450 434/503/450
f 460/523/451 476/534/451 461/525/451
f 453/524/452 469/535/452 454/526/452
f 462/527/453 476/534/453 477/536/453
f 454/526/454 470/537/454 455/528/454
f 448/530/455 146/538/455 463/539/455
f 372/540/456 462/527/456 477/536/456
f 455/528/457 471/541/457 456/532/457
f 448/530/458 464/542/458 449/533/458
f 456/532/459 472/543/459 457/517/459
f 449/533/460 465/544/460 450/518/460
f 457/517/461 473/545/461 458/519/461
f 450/518/462 466/546/462 451/520/462
f 458/519/463 474/547/463 459/521/463
f 451/520/464 467/548/464 452/522/464
f 459/521/465 475/549/465 460/523/465
f 452/522/466 468/550/466 453/524/466
f 464/542/467 480/551/467 465/544/467
f 472/543/468 488/552/468 473/545/468
f 465/544/469 481/553/469 466/546/469
f 473/545/470 489/554/470 474/547/470
f 466/546/471 482/555/471 467/548/471
f 474/547/472 490/556/472 475/549/472
f 467/548/473 483/557/473 468/550/473
f 475/549/474 491/558/474 476/534/474
f 468/550/475 484/559/475 469/535/475
f 477/536/476 491/558/476 492/560/476
f 469/535/477 485/561/477 470/537/477
f 463/539/478 146/562/478 478/563/478
f 372/564/479 477/536/479 492/560/479
f 470/537/480 486/565/480 471/541/480
f 463/539/481 479/566/481 464/542/481
f 471/541/482 487/567/482 472/543/482
f 483/557/483 499/568/483 484/559/483
f 492/560/484 506/569/484 507/570/484
f 484/559/485 500/571/485 485/561/485
f 478/563/486 146/572/486 493/573/486
f 372/574/487 492/560/487 507/570/487
f 485/561/488 501/575/488 486/565/488
f 478/563/489 494/576/489 479/566/489
f 486/565/490 502/577/490 487/567/490
f 479/566/491 495/578/491 480/551/491
f 487/567/492 503/579/492 488/552/492
f 480/551/493 496/580/493 481/553/493
f 488/552/494 504/581/494 489/554/494
f 481/553/495 497/582/495 482/555/495
f 489/554/496 505/583/496 490/556/496
f 482/555/497 498/584/497 483/557/497
f 491/558/498 505/583/498 506/569/498
f 502/577/499 518/585/499 503/579/499
f 495/578/500 511/586/500 496/580/500
f 503/579/501 519/587/501 504/581/501
f 496/580/502 512/588/502 497/582/502
f 504/581/503 520/589/503 505/583/503
f 497/582/504 513/590/504 498/584/504
f 506/569/505 520/589/505 521/591/505
f 498/584/506 514/592/506 499/568/506
f 507/570/507 521/591/507 522/593/507
f 499/568/508 515/594/508 500/571/508
f 493/573/509 146/595/509 508/596/509
f 372/597/510 507/570/510 522/593/510
f 500/571/511 516/598/511 501/575/511
f 493/573/512 509/599/512 494/576/512
f 501/575/513 517/600/513 502/577/513
f 494/576/514 510/601/514 495/578/514
f 522/593/515 536/602/515 537/603/515
f 514/592/516 530/604/516 515/594/516
f 508/596/517 146/605/517 523/606/517
f 372/607/518 522/593/518 537/603/518
f 515/594/519 531/608/519 516/598/519
f 508/596/520 524/609/520 509/599/520
f 516/598/521 532/610/521 517/600/521
f 509/599/522 525/611/522 510/601/522
f 517/600/523 533/612/523 518/585/523
f 510/601/524 526/613/524 511/586/524
f 518/585/525 534/614/525 519/587/525
f 511/586/526 527/615/526 512/588/526
f 519/587/527 535/616/527 520/589/527
f 512/588/528 528/617/528 513/590/528
f 521/591/529 535/616/529 536/602/529
f 513/590/530 529/618/530 514/592/530
f 533/612/531 543/75/531 534/614/531
f 526/613/532 66/78/532 527/615/532
f 534/614/533 544/80/533 535/616/533
f 527/615/534 541/82/534 528/617/534
f 536/602/535 544/80/535 545/85/535
f 528/617/536 67/86/536 529/618/536
f 537/603/537 545/85/537 546/89/537
f 529/618/538 68/17/538 530/604/538
f 523/606/539 146/619/539 538/90/539
f 372/620/540 537/603/540 546/89/540
f 530/604/541 69/94/541 531/608/541
f 523/606/542 539/96/542 524/609/542
f 531/608/543 542/98/543 532/610/543
f 524/609/544 65/100/544 525/611/544
f 532/610/545 70/101/545 533/612/545
f 525/611/546 540/72/546 526/613/546
f 547/621/547 579/348/547 548/622/547
f 548/622/548 579/348/548 549/64/548
f 549/64/549 579/348/549 550/623/549
f 550/623/550 579/348/550 551/624/550
f 551/624/551 579/348/551 552/625/551
f 552/625/552 579/348/552 553/626/552
f 553/626/553 579/348/553 554/627/553
f 554/627/554 579/348/554 555/628/554
f 555/628/555 579/348/555 556/629/555
f 556/629/556 579/348/556 557/63/556
f 557/63/557 579/348/557 558/630/557
f 558/630/558 579/348/558 559/631/558
f 559/631/559 579/348/559 560/632/559
f 560/632/560 579/348/560 561/633/560
f 561/633/561 579/348/561 562/634/561
f 562/634/562 579/348/562 563/635/562
f 563/635/563 579/348/563 564/636/563
f 564/636/564 579/348/564 565/62/564
f 565/62/565 579/348/565 566/637/565
f 566/637/566 579/348/566 567/638/566
f 567/638/567 579/348/567 568/639/567
f 568/639/568 579/348/568 569/640/568
f 569/640/569 579/348/569 570/641/569
f 570/641/570 579/348/570 571/642/570
f 571/642/571 579/348/571 572/643/571
f 572/643/572 579/348/572 573/644/572
f 573/644/573 579/348/573 574/645/573
f 574/645/574 579/348/574 575/646/574
f 575/646/575 579/348/575 576/647/575
f 576/647/576 579/348/576 577/648/576
f 576/649/577 577/650/577 566/651/577
f 577/648/578 579/348/578 578/652/578
f 578/652/579 579/348/579 547/621/579
f 580/621/580 612/348/580 581/622/580
f 581/622/581 612/348/581 582/64/581
f 582/64/582 612/348/582 583/623/582
f 583/623/583 612/348/583 584/624/583
f 584/624/584 612/348/584 585/625/584
f 585/625/585 612/348/585 586/626/585
f 586/626/586 612/348/586 587/627/586
f 587/627/587 612/348/587 588/628/587
f 588/628/588 612/348/588 589/629/588
f 589/629/589 612/348/589 590/63/589
f 590/63/590 612/348/590 591/630/590
f 591/630/591 612/348/591 592/631/591
f 592/631/592 612/348/592 593/632/592
f 593/632/593 612/348/593 594/633/593
f 594/633/594 612/348/594 595/634/594
f 595/634/595 612/348/595 596/635/595
f 596/635/596 612/348/596 597/636/596
f 597/636/597 612/348/597 598/62/597
f 598/62/598 612/348/598 599/637/598
f 599/637/599 612/348/599 600/638/599
f 600/638/600 612/348/600 601/639/600
f 601/639/601 612/348/601 602/640/601
f 602/640/602 612/348/602 603/641/602
f 603/641/603 612/348/603 604/642/603
f 604/642/604 612/348/604 605/643/604
f 605/643/605 612/348/605 606/644/605
f 606/644/606 612/348/606 607/645/606
f 607/645/607 612/348/607 608/646/607
f 608/646/608 612/348/608 609/647/608
f 609/647/609 612/348/609 610/648/609
f 609/649/610 610/650/610 599/651/610
f 610/648/611 612/348/611 611/652/611
f 611/652/612 612/348/612 580/621/612
f 2/1/1 4/4/1 3/2/1
f 4/4/2 6/6/2 5/5/2
f 6/6/3 8/8/3 7/7/3
f 8/8/4 10/10/4 9/9/4
f 10/10/5 12/12/5 11/11/5
f 12/12/6 14/14/6 13/13/6
f 14/14/7 16/16/7 15/15/7
f 16/16/8 18/18/8 17/17/8
f 18/18/9 20/20/9 19/19/9
f 20/20/10 22/22/10 21/21/10
f 22/22/11 24/24/11 23/23/11
f 24/24/12 26/26/12 25/25/12
f 26/26/13 28/28/13 27/27/13
f 28/28/14 30/30/14 29/29/14
f 30/30/15 32/32/15 31/31/15
f 32/32/16 34/34/16 33/33/16
f 34/34/17 36/36/17 35/35/17
f 36/36/18 38/38/18 37/37/18
f 38/38/19 40/40/19 39/39/19
f 40/40/20 42/42/20 41/41/20
f 42/42/21 44/44/21 43/43/21
f 44/44/22 46/46/22 45/45/22
f 46/46/23 48/48/23 47/47/23
f 48/48/24 50/50/24 49/49/24
f 50/50/25 52/52/25 51/51/25
f 52/52/26 54/54/26 53/53/26
f 54/54/27 56/56/27 55/55/27
f 56/56/28 58/58/28 57/57/28
f 58/58/29 60/60/29 59/59/29
f 60/60/30 62/65/30 61/61/30
f 6/64/31 4/622/31 2/621/31
f 2/621/31 64/652/31 6/64/31
f 64/652/31 62/648/31 6/64/31
f 62/648/31 60/647/31 58/646/31
f 58/646/31 56/645/31 54/644/31
f 54/644/31 52/643/31 50/642/31
f 50/642/31 48/641/31 54/644/31
f 48/641/31 46/640/31 54/644/31
f 46/640/31 44/639/31 42/638/31
f 42/638/31 40/637/31 38/62/31
f 38/62/31 36/636/31 30/633/31
f 36/636/31 34/635/31 30/633/31
f 34/635/31 32/634/31 30/633/31
f 30/633/31 28/632/31 26/631/31
f 26/631/31 24/630/31 22/63/31
f 22/63/31 20/629/31 14/626/31
f 20/629/31 18/628/31 14/626/31
f 18/628/31 16/627/31 14/626/31
f 14/626/31 12/625/31 10/624/31
f 10/624/31 8/623/31 6/64/31
f 62/648/31 58/646/31 6/64/31
f 58/646/31 54/644/31 6/64/31
f 46/640/31 42/638/31 54/644/31
f 42/638/31 38/62/31 54/644/31
f 30/633/31 26/631/31 38/62/31
f 26/631/31 22/63/31 38/62/31
f 14/626/31 10/624/31 22/63/31
f 10/624/31 6/64/31 22/63/31
f 6/64/31 54/644/31 38/62/31
f 62/65/32 64/67/32 63/66/32
f 64/67/33 2/653/33 1/68/33
f 63/71/34 1/654/34 3/655/34
f 3/655/34 5/656/34 7/657/34
f 7/657/34 9/658/34 11/659/34
f 11/659/34 13/660/34 15/661/34
f 15/661/34 17/662/34 19/663/34
f 19/663/34 21/664/34 23/665/34
f 23/665/34 25/666/34 27/667/34
f 27/667/34 29/668/34 31/69/34
f 31/69/34 33/669/34 35/670/34
f 35/670/34 37/671/34 39/651/34
f 39/651/34 41/672/34 43/673/34
f 43/673/34 45/674/34 47/70/34
f 47/70/34 49/675/34 51/676/34
f 51/676/34 53/677/34 55/678/34
f 55/678/34 57/679/34 59/649/34
f 59/649/34 61/650/34 63/71/34
f 63/71/34 3/655/34 15/661/34
f 3/655/34 7/657/34 15/661/34
f 7/657/34 11/659/34 15/661/34
f 15/661/34 19/663/34 31/69/34
f 19/663/34 23/665/34 31/69/34
f 23/665/34 27/667/34 31/69/34
f 31/69/34 35/670/34 47/70/34
f 35/670/34 39/651/34 47/70/34
f 39/651/34 43/673/34 47/70/34
f 47/70/34 51/676/34 63/71/34
f 51/676/34 55/678/34 63/71/34
f 55/678/34 59/649/34 63/71/34
f 63/71/34 15/661/34 31/69/34
f 540/72/35 65/100/35 73/73/35
f 543/75/36 70/101/36 81/76/36
f 66/78/37 540/72/37 74/74/37
f 544/80/38 543/75/38 82/77/38
f 541/82/39 66/78/39 75/79/39
f 544/80/40 83/81/40 84/84/40
f 67/86/41 541/82/41 76/83/41
f 545/85/613 84/84/613 85/88/613
f 68/17/614 67/86/614 77/87/614
f 69/94/615 68/17/615 78/19/615
f 539/96/47 538/90/47 71/92/47
f 542/98/48 69/94/48 79/95/48
f 65/100/49 539/96/49 72/97/49
f 70/101/50 542/98/50 80/99/50
f 80/99/51 79/95/51 94/102/51
f 73/73/52 72/97/52 87/104/52
f 81/76/53 80/99/53 95/103/53
f 74/74/54 73/73/54 88/105/54
f 82/77/55 81/76/55 96/106/55
f 75/79/56 74/74/56 89/107/56
f 83/81/57 82/77/57 97/108/57
f 76/83/58 75/79/58 90/109/58
f 83/81/59 98/110/59 99/112/59
f 77/87/60 76/83/60 91/111/60
f 84/84/616 99/112/616 100/114/616
f 78/19/617 77/87/617 92/113/617
f 79/95/65 78/19/65 93/21/65
f 72/97/66 71/92/66 86/116/66
f 98/110/618 113/133/618 114/118/618
f 92/113/68 91/111/68 106/119/68
f 99/112/619 114/118/619 115/121/619
f 93/21/70 92/113/70 107/120/70
f 94/102/620 93/21/620 108/23/620
f 87/104/74 86/116/74 101/123/74
f 95/103/75 94/102/75 109/125/75
f 88/105/621 87/104/621 102/126/621
f 96/106/77 95/103/77 110/127/77
f 89/107/78 88/105/78 103/128/78
f 97/108/79 96/106/79 111/129/79
f 90/109/80 89/107/80 104/130/80
f 98/110/81 97/108/81 112/131/81
f 91/111/82 90/109/82 105/132/82
f 111/129/83 110/127/83 125/134/83
f 104/130/84 103/128/84 118/136/84
f 112/131/85 111/129/85 126/135/85
f 105/132/86 104/130/86 119/137/86
f 113/133/87 112/131/87 127/138/87
f 106/119/88 105/132/88 120/139/88
f 113/133/89 128/140/89 129/142/89
f 107/120/90 106/119/90 121/141/90
f 114/118/91 129/142/91 130/144/91
f 108/23/622 107/120/622 122/143/622
f 109/125/623 108/23/623 123/25/623
f 102/126/96 101/123/96 116/146/96
f 110/127/97 109/125/97 124/148/97
f 103/128/98 102/126/98 117/149/98
f 129/142/624 144/165/624 145/150/624
f 123/25/100 122/143/100 137/151/100
f 124/148/625 123/25/625 138/27/625
f 117/149/626 116/146/626 131/153/626
f 125/134/105 124/148/105 139/155/105
f 118/136/106 117/149/106 132/156/106
f 126/135/107 125/134/107 140/157/107
f 119/137/108 118/136/108 133/158/108
f 127/138/109 126/135/109 141/159/109
f 120/139/110 119/137/110 134/160/110
f 128/140/111 127/138/111 142/161/111
f 121/141/112 120/139/112 135/162/112
f 129/142/113 128/140/113 143/163/113
f 122/143/114 121/141/114 136/164/114
f 134/160/115 133/158/115 149/166/115
f 142/161/116 141/159/116 157/168/116
f 135/162/117 134/160/117 150/167/117
f 143/163/118 142/161/118 158/169/118
f 136/164/119 135/162/119 151/170/119
f 144/165/627 143/163/627 159/171/627
f 137/151/121 136/164/121 152/172/121
f 144/165/628 160/173/628 161/175/628
f 138/27/123 137/151/123 153/174/123
f 139/155/126 138/27/126 154/29/126
f 132/156/127 131/153/127 147/177/127
f 140/157/128 139/155/128 155/179/128
f 133/158/629 132/156/629 148/180/629
f 141/159/130 140/157/130 156/181/130
f 154/29/131 153/174/131 168/182/131
f 155/179/134 154/29/134 169/31/134
f 148/180/135 147/177/135 162/184/135
f 156/181/136 155/179/136 170/187/136
f 149/166/137 148/180/137 163/188/137
f 157/168/138 156/181/138 171/189/138
f 150/167/139 149/166/139 164/190/139
f 158/169/140 157/168/140 172/191/140
f 151/170/141 150/167/141 165/192/141
f 159/171/142 158/169/142 173/193/142
f 152/172/143 151/170/143 166/194/143
f 160/173/144 159/171/144 174/195/144
f 153/174/145 152/172/145 167/196/145
f 161/175/146 160/173/146 175/197/146
f 173/193/147 172/191/147 187/198/147
f 166/194/148 165/192/148 180/200/148
f 174/195/149 173/193/149 188/199/149
f 167/196/150 166/194/150 181/201/150
f 175/197/151 174/195/151 189/202/151
f 168/182/152 167/196/152 182/203/152
f 176/186/153 175/197/153 190/204/153
f 169/31/154 168/182/154 183/205/154
f 170/187/157 169/31/157 184/207/157
f 163/188/158 162/184/158 177/209/158
f 171/189/159 170/187/159 185/211/159
f 164/190/160 163/188/160 178/212/160
f 172/191/161 171/189/161 186/213/161
f 165/192/162 164/190/162 179/214/162
f 185/211/630 184/207/630 199/219/630
f 178/212/166 177/209/166 192/216/166
f 186/213/167 185/211/167 200/220/167
f 179/214/168 178/212/168 193/221/168
f 187/198/169 186/213/169 201/222/169
f 180/200/170 179/214/170 194/223/170
f 188/199/171 187/198/171 202/224/171
f 181/201/172 180/200/172 195/225/172
f 189/202/173 188/199/173 203/226/173
f 182/203/174 181/201/174 196/227/174
f 190/204/175 189/202/175 204/228/175
f 183/205/176 182/203/176 197/229/176
f 191/206/631 190/204/631 205/230/631
f 184/207/178 183/205/178 198/231/178
f 196/227/179 195/225/179 210/232/179
f 204/228/180 203/226/180 218/234/180
f 197/229/181 196/227/181 211/233/181
f 205/230/182 204/228/182 219/235/182
f 198/231/183 197/229/183 212/236/183
f 206/218/184 205/230/184 220/237/184
f 199/219/185 198/231/185 213/238/185
f 200/220/188 199/219/188 214/240/188
f 193/221/632 192/216/632 207/242/632
f 201/222/190 200/220/190 215/244/190
f 194/223/191 193/221/191 208/245/191
f 202/224/192 201/222/192 216/246/192
f 195/225/193 194/223/193 209/247/193
f 203/226/194 202/224/194 217/248/194
f 215/244/195 214/240/195 229/249/195
f 207/242/196 222/264/196 223/251/196
f 216/246/197 215/244/197 230/250/197
f 209/247/633 208/245/633 223/251/633
f 217/248/199 216/246/199 231/252/199
f 210/232/200 209/247/200 224/253/200
f 218/234/201 217/248/201 232/254/201
f 211/233/202 210/232/202 225/255/202
f 219/235/203 218/234/203 233/256/203
f 212/236/204 211/233/204 226/257/204
f 220/237/634 219/235/634 234/258/634
f 213/238/206 212/236/206 227/259/206
f 221/239/207 220/237/207 235/260/207
f 214/240/208 213/238/208 228/261/208
f 234/258/211 233/256/211 248/266/211
f 227/259/212 226/257/212 241/268/212
f 235/260/213 234/258/213 249/267/213
f 228/261/214 227/259/214 242/269/214
f 236/262/635 235/260/635 250/270/635
f 229/249/216 228/261/216 243/271/216
f 230/250/219 229/249/219 244/273/219
f 222/264/636 237/275/636 238/278/636
f 231/252/221 230/250/221 245/277/221
f 224/253/222 223/251/222 238/278/222
f 232/254/223 231/252/223 246/279/223
f 225/255/224 224/253/224 239/280/224
f 233/256/225 232/254/225 247/281/225
f 226/257/226 225/255/226 240/282/226
f 246/279/227 245/277/227 260/283/227
f 238/278/228 253/299/228 254/285/228
f 247/281/229 246/279/229 261/284/229
f 240/282/230 239/280/230 254/285/230
f 248/266/231 247/281/231 262/286/231
f 241/268/232 240/282/232 255/287/232
f 249/267/233 248/266/233 263/288/233
f 242/269/234 241/268/234 256/289/234
f 250/270/235 249/267/235 264/290/235
f 243/271/236 242/269/236 257/291/236
f 251/272/237 250/270/237 265/292/237
f 244/273/238 243/271/238 258/293/238
f 245/277/241 244/273/241 259/295/241
f 237/275/242 252/297/242 253/299/242
f 265/292/637 264/290/637 279/300/637
f 258/293/244 257/291/244 272/302/244
f 266/294/638 265/292/638 280/301/638
f 259/295/246 258/293/246 273/303/246
f 260/283/249 259/295/249 274/305/249
f 252/297/639 267/307/639 268/310/639
f 261/284/251 260/283/251 275/309/251
f 253/299/640 268/310/640 269/312/640
f 262/286/253 261/284/253 276/311/253
f 255/287/254 254/285/254 269/312/254
f 263/288/255 262/286/255 277/313/255
f 256/289/256 255/287/256 270/314/256
f 264/290/257 263/288/257 278/315/257
f 257/291/258 256/289/258 271/316/258
f 268/310/259 283/333/259 284/317/259
f 277/313/260 276/311/260 291/318/260
f 270/314/261 269/312/261 284/317/261
f 278/315/262 277/313/262 292/319/262
f 271/316/263 270/314/263 285/320/263
f 279/300/264 278/315/264 293/321/264
f 272/302/265 271/316/265 286/322/265
f 280/301/266 279/300/266 294/323/266
f 273/303/267 272/302/267 287/324/267
f 281/304/268 280/301/268 295/325/268
f 274/305/269 273/303/269 288/326/269
f 275/309/272 274/305/272 289/328/272
f 267/307/641 282/330/641 283/333/641
f 276/311/274 275/309/274 290/332/274
f 288/326/275 287/324/275 302/334/275
f 296/327/276 295/325/276 310/336/276
f 289/328/277 288/326/277 303/335/277
f 290/332/280 289/328/280 304/338/280
f 282/330/281 297/340/281 298/343/281
f 291/318/282 290/332/282 305/342/282
f 283/333/283 298/343/283 299/345/283
f 292/319/284 291/318/284 306/344/284
f 285/320/285 284/317/285 299/345/285
f 293/321/286 292/319/286 307/346/286
f 286/322/287 285/320/287 300/347/287
f 294/323/288 293/321/288 308/348/288
f 287/324/289 286/322/289 301/349/289
f 295/325/290 294/323/290 309/350/290
f 306/344/291 321/366/291 322/351/291
f 299/345/292 314/367/292 315/352/292
f 307/346/293 322/351/293 323/353/293
f 300/347/294 315/352/294 316/354/294
f 308/348/295 323/353/295 324/355/295
f 301/349/296 316/354/296 317/356/296
f 309/350/297 324/355/297 325/357/297
f 302/334/298 317/356/298 318/358/298
f 310/336/299 325/357/299 326/359/299
f 303/335/642 318/358/642 319/360/642
f 304/338/643 319/360/643 320/364/643
f 298/343/304 297/340/304 312/362/304
f 305/342/305 320/364/305 321/366/305
f 299/345/306 298/343/306 313/365/306
f 325/357/307 340/383/307 341/368/307
f 318/358/308 333/384/308 334/369/308
f 319/360/311 334/369/311 335/373/311
f 313/365/644 312/362/644 327/371/644
f 320/364/313 335/373/313 336/375/313
f 314/367/314 313/365/314 328/374/314
f 321/366/315 336/375/315 337/377/315
f 314/367/316 329/376/316 330/378/316
f 322/351/317 337/377/317 338/379/317
f 315/352/318 330/378/318 331/380/318
f 323/353/319 338/379/319 339/381/319
f 316/354/320 331/380/320 332/382/320
f 324/355/321 339/381/321 340/383/321
f 317/356/322 332/382/322 333/384/322
f 329/376/323 344/400/323 345/385/323
f 337/377/324 352/401/324 353/386/324
f 330/378/325 345/385/325 346/387/325
f 338/379/326 353/386/326 354/388/326
f 331/380/327 346/387/327 347/389/327
f 339/381/645 354/388/645 355/390/645
f 332/382/329 347/389/329 348/391/329
f 340/383/646 355/390/646 356/392/646
f 333/384/331 348/391/331 349/393/331
f 334/369/334 349/393/334 350/397/334
f 328/374/647 327/371/647 342/395/647
f 335/373/336 350/397/336 351/399/336
f 329/376/648 328/374/648 343/398/648
f 336/375/338 351/399/338 352/401/338
f 348/391/339 363/418/339 364/402/339
f 349/393/342 364/402/342 365/407/342
f 343/398/343 342/395/343 357/404/343
f 350/397/344 365/407/344 366/409/344
f 344/400/345 343/398/345 358/408/345
f 351/399/346 366/409/346 367/411/346
f 344/400/347 359/410/347 360/412/347
f 352/401/348 367/411/348 368/413/348
f 345/385/349 360/412/349 361/414/349
f 353/386/350 368/413/350 369/415/350
f 346/387/351 361/414/351 362/416/351
f 354/388/352 369/415/352 370/417/352
f 347/389/353 362/416/353 363/418/353
f 355/390/649 370/417/649 371/406/649
f 367/411/355 383/434/355 384/419/355
f 360/412/356 376/435/356 377/420/356
f 368/413/357 384/419/357 385/421/357
f 361/414/358 377/420/358 378/422/358
f 369/415/359 385/421/359 386/423/359
f 362/416/360 378/422/360 379/424/360
f 370/417/361 386/423/361 387/425/361
f 363/418/362 379/424/362 380/426/362
f 364/402/365 380/426/365 381/430/365
f 358/408/650 357/404/650 373/428/650
f 365/407/367 381/430/367 382/432/367
f 358/408/368 374/431/368 375/433/368
f 366/409/369 382/432/369 383/434/369
f 359/410/370 375/433/370 376/435/370
f 380/426/372 395/451/372 396/438/372
f 374/431/651 373/428/651 388/439/651
f 381/430/374 396/438/374 397/441/374
f 374/431/375 389/440/375 390/442/375
f 382/432/376 397/441/376 398/443/376
f 375/433/377 390/442/377 391/444/377
f 383/434/378 398/443/378 399/445/378
f 376/435/379 391/444/379 392/446/379
f 384/419/380 399/445/380 400/447/380
f 377/420/381 392/446/381 393/448/381
f 385/421/652 400/447/652 401/449/652
f 378/422/383 393/448/383 394/450/383
f 386/423/384 401/449/384 402/437/384
f 379/424/385 394/450/385 395/451/385
f 399/445/387 414/468/387 415/453/387
f 392/446/388 407/469/388 408/454/388
f 400/447/389 415/453/389 416/455/389
f 393/448/390 408/454/390 409/456/390
f 401/449/391 416/455/391 417/457/391
f 394/450/392 409/456/392 410/458/392
f 395/451/395 410/458/395 411/462/395
f 388/439/653 403/460/653 404/463/653
f 396/438/397 411/462/397 412/464/397
f 389/440/398 404/463/398 405/465/398
f 397/441/399 412/464/399 413/466/399
f 390/442/400 405/465/400 406/467/400
f 398/443/401 413/466/401 414/468/401
f 391/444/402 406/467/402 407/469/402
f 403/460/403 418/483/403 419/470/403
f 411/462/404 426/485/404 427/471/404
f 404/463/405 419/470/405 420/472/405
f 412/464/406 427/471/406 428/473/406
f 405/465/407 420/472/407 421/474/407
f 413/466/408 428/473/408 429/475/408
f 406/467/409 421/474/409 422/476/409
f 414/468/410 429/475/410 430/477/410
f 407/469/411 422/476/411 423/478/411
f 415/453/412 430/477/412 431/479/412
f 408/454/413 423/478/413 424/480/413
f 416/455/654 431/479/654 432/481/654
f 409/456/655 424/480/655 425/68/655
f 410/458/418 425/68/418 426/485/418
f 422/486/419 437/515/419 438/487/419
f 430/489/420 445/516/420 446/490/420
f 423/488/421 438/487/421 439/492/421
f 431/491/422 446/490/422 447/494/422
f 424/493/656 439/492/656 440/496/656
f 425/3/657 440/496/657 441/501/657
f 418/497/427 433/499/427 434/503/427
f 426/502/428 441/501/428 442/505/428
f 419/504/429 434/503/429 435/507/429
f 427/506/430 442/505/430 443/509/430
f 420/508/431 435/507/431 436/511/431
f 428/510/432 443/509/432 444/513/432
f 421/512/433 436/511/433 437/515/433
f 429/514/434 444/513/434 445/516/434
f 441/501/435 456/532/435 457/517/435
f 434/503/436 449/533/436 450/518/436
f 442/505/437 457/517/437 458/519/437
f 435/507/438 450/518/438 451/520/438
f 443/509/439 458/519/439 459/521/439
f 436/511/440 451/520/440 452/522/440
f 444/513/441 459/521/441 460/523/441
f 437/515/442 452/522/442 453/524/442
f 445/516/443 460/523/443 461/525/443
f 438/487/444 453/524/444 454/526/444
f 446/490/445 461/525/445 462/527/445
f 439/492/446 454/526/446 455/528/446
f 440/496/449 455/528/449 456/532/449
f 433/499/450 448/530/450 449/533/450
f 460/523/658 475/549/658 476/534/658
f 453/524/452 468/550/452 469/535/452
f 462/527/659 461/525/659 476/534/659
f 454/526/454 469/535/454 470/537/454
f 455/528/457 470/537/457 471/541/457
f 448/530/458 463/539/458 464/542/458
f 456/532/459 471/541/459 472/543/459
f 449/533/460 464/542/460 465/544/460
f 457/517/461 472/543/461 473/545/461
f 450/518/462 465/544/462 466/546/462
f 458/519/463 473/545/463 474/547/463
f 451/520/464 466/546/464 467/548/464
f 459/521/465 474/547/465 475/549/465
f 452/522/466 467/548/466 468/550/466
f 464/542/467 479/566/467 480/551/467
f 472/543/468 487/567/468 488/552/468
f 465/544/469 480/551/469 481/553/469
f 473/545/470 488/552/470 489/554/470
f 466/546/471 481/553/471 482/555/471
f 474/547/472 489/554/472 490/556/472
f 467/548/473 482/555/473 483/557/473
f 475/549/474 490/556/474 491/558/474
f 468/550/475 483/557/475 484/559/475
f 477/536/660 476/534/660 491/558/660
f 469/535/477 484/559/477 485/561/477
f 470/537/480 485/561/480 486/565/480
f 463/539/661 478/563/661 479/566/661
f 471/541/482 486/565/482 487/567/482
f 483/557/483 498/584/483 499/568/483
f 492/560/662 491/558/662 506/569/662
f 484/559/485 499/568/485 500/571/485
f 485/561/488 500/571/488 501/575/488
f 478/563/489 493/573/489 494/576/489
f 486/565/490 501/575/490 502/577/490
f 479/566/491 494/576/491 495/578/491
f 487/567/492 502/577/492 503/579/492
f 480/551/493 495/578/493 496/580/493
f 488/552/494 503/579/494 504/581/494
f 481/553/495 496/580/495 497/582/495
f 489/554/496 504/581/496 505/583/496
f 482/555/497 497/582/497 498/584/497
f 491/558/498 490/556/498 505/583/498
f 502/577/499 517/600/499 518/585/499
f 495/578/500 510/601/500 511/586/500
f 503/579/501 518/585/501 519/587/501
f 496/580/502 511/586/502 512/588/502
f 504/581/503 519/587/503 520/589/503
f 497/582/504 512/588/504 513/590/504
f 506/569/663 505/583/663 520/589/663
f 498/584/506 513/590/506 514/592/506
f 507/570/664 506/569/664 521/591/664
f 499/568/508 514/592/508 515/594/508
f 500/571/511 515/594/511 516/598/511
f 493/573/512 508/596/512 509/599/512
f 501/575/513 516/598/513 517/600/513
f 494/576/514 509/599/514 510/601/514
f 522/593/515 521/591/515 536/602/515
f 514/592/516 529/618/516 530/604/516
f 515/594/519 530/604/519 531/608/519
f 508/596/520 523/606/520 524/609/520
f 516/598/521 531/608/521 532/610/521
f 509/599/522 524/609/522 525/611/522
f 517/600/523 532/610/523 533/612/523
f 510/601/524 525/611/524 526/613/524
f 518/585/525 533/612/525 534/614/525
f 511/586/526 526/613/526 527/615/526
f 519/587/527 534/614/527 535/616/527
f 512/588/528 527/615/528 528/617/528
f 521/591/529 520/589/529 535/616/529
f 513/590/530 528/617/530 529/618/530
f 533/612/531 70/101/531 543/75/531
f 526/613/532 540/72/532 66/78/532
f 534/614/533 543/75/533 544/80/533
f 527/615/534 66/78/534 541/82/534
f 536/602/535 535/616/535 544/80/535
f 528/617/536 541/82/536 67/86/536
f 537/603/665 536/602/665 545/85/665
f 529/618/538 67/86/538 68/17/538
f 530/604/541 68/17/541 69/94/541
f 523/606/542 538/90/542 539/96/542
f 531/608/543 69/94/543 542/98/543
f 524/609/544 539/96/544 65/100/544
f 532/610/545 542/98/545 70/101/545
f 525/611/546 65/100/546 540/72/546
f 578/71/577 547/654/577 563/669/577
f 547/654/577 548/655/577 562/69/577
f 548/655/577 549/656/577 562/69/577
f 549/656/577 550/657/577 561/668/577
f 562/69/577 549/656/577 561/668/577
f 550/657/577 551/658/577 559/666/577
f 551/658/577 552/659/577 558/665/577
f 552/659/577 553/660/577 558/665/577
f 553/660/577 554/661/577 557/664/577
f 558/665/577 553/660/577 557/664/577
f 554/661/577 555/662/577 556/663/577
f 556/663/577 557/664/577 554/661/577
f 558/665/577 559/666/577 551/658/577
f 559/666/577 560/667/577 550/657/577
f 560/667/577 561/668/577 550/657/577
f 562/69/577 563/669/577 547/654/577
f 563/669/577 564/670/577 578/71/577
f 564/670/577 565/671/577 578/71/577
f 565/671/577 566/651/577 577/650/577
f 578/71/577 565/671/577 577/650/577
f 566/651/577 567/672/577 575/679/577
f 567/672/577 568/673/577 574/678/577
f 568/673/577 569/674/577 574/678/577
f 569/674/577 570/70/577 573/677/577
f 574/678/577 569/674/577 573/677/577
f 570/70/577 571/675/577 572/676/577
f 572/676/577 573/677/577 570/70/577
f 574/678/577 575/679/577 567/672/577
f 575/679/577 576/649/577 566/651/577
f 611/71/610 580/654/610 596/669/610
f 580/654/610 581/655/610 595/69/610
f 581/655/610 582/656/610 595/69/610
f 582/656/610 583/657/610 594/668/610
f 595/69/610 582/656/610 594/668/610
f 583/657/610 584/658/610 592/666/610
f 584/658/610 585/659/610 591/665/610
f 585/659/610 586/660/610 591/665/610
f 586/660/610 587/661/610 590/664/610
f 591/665/610 586/660/610 590/664/610
f 587/661/610 588/662/610 589/663/610
f 589/663/610 590/664/610 587/661/610
f 591/665/610 592/666/610 584/658/610
f 592/666/610 593/667/610 583/657/610
f 593/667/610 594/668/610 583/657/610
f 595/69/610 596/669/610 580/654/610
f 596/669/610 597/670/610 611/71/610
f 597/670/610 598/671/610 611/71/610
f 598/671/610 599/651/610 610/650/610
f 611/71/610 598/671/610 610/650/610
f 599/651/610 600/672/610 608/679/610
f 600/672/610 601/673/610 607/678/610
f 601/673/610 602/674/610 607/678/610
f 602/674/610 603/70/610 606/677/610
f 607/678/610 602/674/610 606/677/610
f 603/70/610 604/675/610 605/676/610
f 605/676/610 606/677/610 603/70/610
f 607/678/610 608/679/610 600/672/610
f 608/679/610 609/649/610 599/651/610
