# Blender 4.4.0
# www.blender.org
mtllib ore.mtl
o iwa
v -0.513094 -0.522080 0.539488
v -0.455460 0.284764 0.267224
v 0.544352 0.225199 0.492095
v -0.684275 -0.678352 -0.137928
v -0.437443 -0.754154 0.372484
v -0.535668 0.093547 0.642636
v -0.488255 0.257176 0.000000
v -0.665452 0.392426 -0.342661
v -0.590415 -0.003451 -0.643598
v -0.522781 -0.510608 -0.576356
v 0.256092 -0.600317 -0.664189
v 0.000000 -0.610494 -0.586931
v -0.376764 -0.479136 -0.752045
v -0.370405 0.488780 -0.361826
v 0.000000 0.553473 -0.855416
v 0.378988 0.264118 -0.456674
v 0.638086 0.127290 -0.638086
v 0.699918 -0.201178 -0.700849
v 0.506697 -0.781957 0.345012
v 0.562806 -0.593762 -0.226987
v 0.626972 0.422686 0.062212
v 0.668847 0.402912 0.341778
v 0.653030 -0.136844 0.653030
v 0.604079 -0.418208 0.629715
v -0.080051 -0.637983 0.645803
v 0.298903 -0.513320 0.758601
v 0.309136 0.346926 0.599470
v 0.000000 0.276548 0.512260
v -0.284124 0.367339 0.491989
v -0.876839 -0.365271 0.333347
v -0.853170 0.156590 0.363613
v -0.901016 -0.442331 -0.000000
v -0.733227 -0.136844 0.000000
v -0.718012 0.166416 -0.283481
v -0.821818 -0.227985 -0.347151
v 0.001941 0.176630 -0.981638
v -0.006281 -0.218771 -0.790492
v 0.271947 0.021116 -0.733113
v 0.577237 -0.405584 -0.353847
v 0.939060 0.193166 -0.075780
v 0.827180 -0.107656 -0.019111
v 0.824527 -0.206349 0.408685
v 0.757450 0.127071 0.327033
v 0.307851 -0.136844 0.715451
v 0.248226 0.063474 0.551232
v -0.000000 -0.394044 0.743962
v -0.000000 -0.136844 1.075891
v 0.000000 0.148497 0.835486
v -0.262922 -0.136844 0.597523
v -0.356069 0.150502 0.833429
v -0.272759 -0.735061 -0.224797
v -0.000000 -0.924445 -0.407106
v 0.312516 -0.717446 -0.312516
v -0.000294 -0.796395 0.321203
v -0.088817 0.459712 -0.243870
v 0.361432 0.547055 0.361432
v -0.000000 0.552405 0.360672
v 0.423793 0.661480 0.672248
v 0.208742 0.796319 1.024887
v 0.426465 0.423393 0.976882
v 0.064470 0.395374 1.109806
v -0.161928 0.616146 0.887323
v 0.060145 0.780609 0.616898
v 0.217054 0.022719 0.248775
v 0.218922 -0.143623 0.461609
v -0.033989 -0.163198 0.554477
v -0.192163 -0.008954 0.399039
v -0.037010 0.105948 0.210104
v -0.154523 0.829700 -0.647907
v -0.025917 1.213540 -0.486160
v 0.227689 0.895900 -0.643714
v 0.321581 1.034088 -0.293607
v -0.002603 1.053293 -0.081423
v -0.296852 0.926975 -0.300392
v 0.022545 0.128722 -0.313927
v 0.289580 0.174973 -0.310997
v 0.355179 0.271518 -0.066393
v 0.128686 0.284936 0.081851
v -0.076893 0.196683 -0.071133
v -0.706714 0.650138 -0.032785
v -1.030634 0.682839 0.284417
v -0.581666 0.718563 0.345757
v -0.776861 0.462089 0.590161
v -1.022545 0.235153 0.362668
v -0.979191 0.351374 -0.022333
v -0.136246 0.046849 -0.047059
v -0.048881 0.094655 0.217412
v -0.185255 -0.084532 0.388166
v -0.356904 -0.243082 0.229227
v -0.326615 -0.161884 -0.039756
v 0.029809 0.469718 -0.891230
v 0.331377 0.342447 -1.145517
v -0.023191 0.145777 -1.059463
v 0.286405 -0.051939 -1.026186
v 0.530746 0.149806 -0.837386
v 0.372161 0.472208 -0.753980
v -0.162832 0.107433 -0.254790
v -0.199861 -0.118890 -0.372327
v 0.016440 -0.257026 -0.349078
v 0.187151 -0.116075 -0.217172
v 0.076354 0.109173 -0.158899
v 0.728028 0.526138 -0.049619
v 1.102447 0.351743 -0.215917
v 0.706365 0.380153 -0.417339
v 0.879283 0.023645 -0.417927
v 1.007814 -0.050704 -0.050570
v 0.914333 0.259854 0.177056
v 0.055783 0.092474 0.097818
v 0.040649 -0.009519 -0.159092
v 0.161459 -0.258596 -0.159502
v 0.251258 -0.310540 0.097153
v 0.185947 -0.093567 0.256186
vn -0.8724 0.4791 0.0968
vn -0.9572 0.2219 0.1860
vn -0.5750 -0.5930 0.5636
vn -0.1868 0.8909 0.4139
vn -0.9182 0.1142 -0.3792
vn -0.8486 0.2943 -0.4395
vn -0.7019 -0.1848 -0.6879
vn -0.7706 -0.4466 -0.4547
vn 0.2104 -0.4290 -0.8785
vn 0.2930 -0.1128 -0.9494
vn -0.7394 -0.1845 -0.6475
vn -0.4905 -0.0217 -0.8711
vn -0.0522 0.7600 -0.6478
vn 0.1855 0.2180 -0.9582
vn 0.0174 -0.1107 -0.9937
vn -0.9684 -0.1425 -0.2044
vn 0.2239 -0.4466 -0.8663
vn 0.8005 -0.5955 -0.0677
vn 0.2975 0.9168 -0.2666
vn 0.7788 -0.1852 0.5993
vn 0.8064 -0.4830 0.3413
vn -0.5788 -0.1337 0.8044
vn -0.1727 -0.3184 0.9321
vn -0.1030 -0.9929 -0.0601
vn 0.4613 -0.6201 0.6345
vn -0.0366 -0.9016 0.4310
vn -0.1513 -0.9858 -0.0732
vn 0.2071 0.9035 -0.3751
vn -0.5597 0.8275 -0.0447
vn 0.0363 0.9870 0.1566
vn 0.0910 0.4796 0.8728
vn -0.8755 0.4809 -0.0477
vn -0.3121 0.9487 -0.0508
vn -0.5376 -0.1585 0.8281
vn -0.6616 -0.0135 0.7498
vn -0.6534 -0.7258 0.2152
vn -0.7834 0.3215 0.5320
vn -0.7729 -0.4458 -0.4516
vn -0.5284 0.5872 -0.6132
vn 0.4940 -0.3867 -0.7787
vn 0.7790 0.2027 -0.5933
vn -0.7972 0.1880 -0.5736
vn 0.8946 -0.2649 0.3599
vn 0.6450 -0.7361 -0.2056
vn -0.2414 -0.4505 -0.8595
vn 0.8318 -0.3847 -0.4001
vn 0.9434 0.3094 -0.1194
vn 0.3994 0.8059 -0.4371
vn 0.6663 0.4607 0.5864
vn 0.6511 0.1696 0.7398
vn 0.8911 -0.4433 -0.0967
vn 0.5828 -0.6424 0.4977
vn 0.8733 -0.3166 -0.3703
vn 0.6969 0.5672 0.4389
vn -0.0080 -0.6361 0.7716
vn -0.7443 -0.5279 0.4091
vn 0.1768 -0.1118 0.9779
vn 0.1349 0.6519 0.7462
vn -0.2464 -0.1109 0.9628
vn 0.3068 -0.2234 0.9252
vn 0.2169 0.8027 0.5555
vn -0.6504 0.7240 0.2298
vn 0.0243 -0.1643 0.9861
vn -0.4471 -0.6497 0.6148
vn 0.4156 -0.9049 0.0924
vn -0.4941 -0.8563 0.1504
vn -0.2642 -0.8871 -0.3785
vn 0.0416 -0.9503 -0.3086
vn -0.6791 -0.3649 -0.6370
vn -0.0550 -0.9499 -0.3076
vn 0.4933 -0.5119 -0.7033
vn -0.0017 -0.8390 0.5441
vn 0.1224 0.9782 -0.1680
vn -0.3396 -0.6198 0.7075
vn -0.2477 0.8506 0.4638
vn 0.4537 0.8686 0.1991
vn -0.3813 0.9232 -0.0485
vn -0.3361 0.4536 0.8254
vn 0.5222 0.3072 0.7956
vn 0.4246 0.9054 0.0004
vn 0.8311 0.4417 0.3379
vn 0.3384 0.0769 0.9378
vn -0.4683 0.3411 0.8151
vn -0.4742 0.8693 0.1392
vn 0.3288 0.9315 -0.1556
vn 0.2803 0.4657 -0.8394
vn -0.1626 -0.7781 -0.6067
vn -0.8066 -0.3392 0.4842
vn -0.8146 0.3810 -0.4373
vn 0.2934 -0.6995 0.6516
vn 0.9651 -0.2021 -0.1664
vn -0.0601 0.4046 -0.9125
vn 0.5905 0.6840 -0.4283
vn 0.2758 0.8990 0.3401
vn -0.5693 0.7527 0.3308
vn -0.7769 0.4471 -0.4433
vn -0.8961 -0.3540 -0.2679
vn 0.1579 -0.9322 0.3256
vn 0.5393 0.2622 0.8002
vn -0.6130 0.0626 0.7876
vn 0.9684 -0.0311 -0.2474
vn 0.0813 -0.4119 -0.9076
vn -0.0566 0.9856 -0.1594
vn -0.1486 0.7391 0.6570
vn -0.7264 0.1056 0.6791
vn -0.9915 -0.0395 -0.1236
vn -0.5776 0.5044 -0.6419
vn -0.0316 -0.0062 -0.9995
vn 0.7314 -0.6713 -0.1203
vn -0.2344 -0.5499 0.8017
vn -0.5959 -0.7477 -0.2928
vn 0.5535 0.3139 0.7715
vn 0.6788 0.6500 -0.3417
vn -0.4453 0.4690 -0.7628
vn -0.0765 -0.2808 -0.9567
vn 0.7197 -0.2750 -0.6376
vn 0.8429 0.4783 -0.2463
vn 0.1230 0.9381 -0.3237
vn -0.1842 0.8771 0.4435
vn -0.3404 -0.3889 0.8561
vn 0.6294 -0.7769 0.0156
vn 0.7975 0.2502 0.5491
vn -0.4561 -0.7848 -0.4196
vn -0.9589 0.2374 -0.1551
vn 0.2522 0.8942 -0.3699
vn 0.4546 0.2219 -0.8626
vn 0.8579 -0.3545 -0.3719
vn 0.9048 -0.0385 0.4241
vn 0.5305 0.7333 0.4254
vn -0.1837 0.5595 0.8082
vn -0.8774 -0.4259 0.2208
vn 0.2628 -0.9237 -0.2789
vn 0.3267 -0.4928 0.8065
vn -0.2871 -0.1377 -0.9479
vn -0.5630 0.7789 -0.2761
vn -0.9315 0.0630 -0.3581
vn -0.3190 0.9459 -0.0585
vn -0.6583 -0.7226 0.2110
vn -0.2344 0.5598 -0.7948
vn 0.7354 0.3417 -0.5851
vn 0.9762 0.2097 0.0544
vn 0.9533 0.2192 -0.2080
vn 0.6512 0.6453 0.3995
vn 0.8207 0.2862 0.4946
vn 0.8765 -0.4762 -0.0707
vn -0.0032 0.1139 0.9935
vn 0.6671 0.4800 0.5697
vn -0.8120 0.3760 0.4463
vn 0.3612 0.0977 0.9274
vn -0.0339 0.3974 0.9170
vn 0.5950 0.7473 0.2960
vn 0.0031 0.9297 0.3683
vn -0.5922 0.7308 0.3393
vn -0.2366 0.0073 0.9716
vn 0.5144 -0.8446 0.1487
vn -0.2097 -0.8849 -0.4158
vn -0.1342 -0.9016 -0.4112
vn 0.5093 -0.4277 -0.7467
vn 0.6995 -0.6368 -0.3243
vn 0.1495 -0.8736 0.4631
vn 0.0145 0.9278 -0.3728
vn -0.1239 0.8536 0.5060
vn -0.4569 0.8895 -0.0096
vn 0.0100 0.7643 0.6448
vn 0.3576 0.6746 0.6458
vt 0.194863 0.572165
vt 0.186153 0.592538
vt 0.174490 0.572165
vt 0.215236 0.589602
vt 0.158117 0.531420
vt 0.179221 0.551792
vt 0.154117 0.551792
vt 0.235609 0.550442
vt 0.215236 0.551792
vt 0.213915 0.531420
vt 0.235609 0.595694
vt 0.205399 0.612911
vt 0.160114 0.612911
vt 0.154117 0.580265
vt 0.215236 0.651949
vt 0.188280 0.653656
vt 0.169083 0.633283
vt 0.208201 0.674029
vt 0.159698 0.674029
vt 0.243888 0.703374
vt 0.215236 0.694402
vt 0.188655 0.694402
vt 0.154117 0.653656
vt 0.195193 0.732303
vt 0.166383 0.706667
vt 0.215236 0.731144
vt 0.188282 0.755520
vt 0.194863 0.775893
vt 0.169734 0.775893
vt 0.142342 0.755520
vt 0.174490 0.816639
vt 0.194863 0.837012
vt 0.153439 0.825381
vt 0.165865 0.796266
vt 0.092999 0.720402
vt 0.113372 0.754296
vt 0.086536 0.755520
vt 0.133745 0.775893
vt 0.104255 0.775893
vt 0.072626 0.727048
vt 0.281052 0.719738
vt 0.237900 0.735147
vt 0.296727 0.767556
vt 0.276354 0.755520
vt 0.296727 0.713099
vt 0.276354 0.694402
vt 0.276354 0.775893
vt 0.235609 0.572165
vt 0.235609 0.633283
vt 0.241600 0.701086
vt 0.235609 0.653656
vt 0.215236 0.755520
vt 0.235609 0.755520
vt 0.230517 0.775893
vt 0.151919 0.719967
vt 0.194863 0.796266
vt 0.194863 0.816639
vt 0.215236 0.816639
vt 0.215236 0.796266
vt 0.215236 0.837012
vt 0.235609 0.816639
vt 0.235609 0.796266
vt 0.235609 0.837012
vt 0.213915 0.857384
vt 0.235609 0.857384
vt 0.158117 0.857384
vt 0.133745 0.714775
vt 0.113372 0.714775
vt 0.072626 0.694402
vt 0.092999 0.694402
vt 0.113372 0.694402
vt 0.133745 0.694402
vt 0.072626 0.775893
vt 0.317100 0.735148
vt 0.317100 0.711619
vt 0.317100 0.756871
vt 0.255981 0.775893
vt 0.255981 0.755520
vt 0.934543 0.594916
vt 0.868016 0.761234
vt 0.868016 0.594916
vt 0.801489 0.761234
vt 0.801489 0.594916
vt 0.734962 0.761234
vt 0.734962 0.594916
vt 0.668435 0.761234
vt 0.668435 0.594916
vt 0.601907 0.761234
vt 0.601907 0.594916
vt 0.927310 0.536426
vt 0.898309 0.447171
vt 0.804460 0.447171
vt 0.775459 0.536426
vt 0.851384 0.591589
s 0
usemtl マテリアル
f 33/1/1 35/2/1 32/3/1
f 33/1/2 34/4/2 35/2/2
f 1/5/3 30/6/3 5/7/3
f 2/8/4 31/9/4 6/10/4
f 34/4/5 8/11/5 9/12/5
f 34/4/6 9/12/6 35/2/6
f 35/2/7 9/12/7 10/13/7
f 35/2/8 10/13/8 4/14/8
f 36/15/9 37/16/9 13/17/9
f 37/16/10 38/18/10 11/19/10
f 9/12/11 13/17/11 10/13/11
f 9/12/12 36/15/12 13/17/12
f 38/18/13 16/20/13 17/21/13
f 38/18/14 17/21/14 18/22/14
f 38/18/15 18/22/15 11/19/15
f 33/1/16 31/9/16 34/4/16
f 13/17/17 37/16/17 12/23/17
f 18/22/18 41/24/18 39/25/18
f 16/20/19 40/26/19 17/21/19
f 42/27/20 23/28/20 24/29/20
f 42/27/21 24/29/21 19/30/21
f 46/31/22 49/32/22 25/33/22
f 26/34/23 46/31/23 25/33/23
f 51/35/24 54/36/24 5/37/24
f 19/30/25 24/29/25 26/38/25
f 54/36/26 25/39/26 5/37/26
f 51/35/27 5/37/27 4/40/27
f 16/20/28 55/41/28 21/42/28
f 55/41/29 29/43/29 57/44/29
f 14/45/30 55/41/30 15/46/30
f 29/43/31 28/47/31 57/44/31
f 30/6/32 33/1/32 32/3/32
f 31/9/33 7/48/33 34/4/33
f 1/5/34 6/10/34 30/6/34
f 6/10/35 31/9/35 30/6/35
f 4/14/36 30/6/36 32/3/36
f 7/48/37 8/11/37 34/4/37
f 4/14/38 32/3/38 35/2/38
f 9/12/39 14/49/39 36/15/39
f 37/16/40 36/15/40 38/18/40
f 16/50/41 36/15/41 15/51/41
f 14/49/42 15/51/42 36/15/42
f 43/52/43 41/24/43 40/26/43
f 11/19/44 18/22/44 39/25/44
f 12/23/45 37/16/45 11/19/45
f 41/24/46 17/21/46 40/26/46
f 43/52/47 21/42/47 22/53/47
f 40/26/48 16/20/48 21/42/48
f 23/28/49 43/52/49 3/54/49
f 43/52/50 22/53/50 3/54/50
f 42/27/51 20/55/51 41/24/51
f 46/31/52 44/56/52 47/57/52
f 20/55/53 39/25/53 41/24/53
f 48/58/54 44/56/54 45/59/54
f 49/32/55 48/58/55 50/60/55
f 46/31/56 47/57/56 49/32/56
f 44/56/57 24/29/57 23/28/57
f 23/28/58 45/59/58 44/56/58
f 28/61/59 45/59/59 27/62/59
f 3/54/60 27/62/60 45/59/60
f 50/60/61 28/61/61 29/63/61
f 6/64/62 29/63/62 2/65/62
f 1/66/63 49/32/63 6/64/63
f 49/32/64 50/60/64 6/64/64
f 54/36/65 53/67/65 20/55/65
f 51/35/66 52/68/66 54/36/66
f 51/35/67 10/69/67 13/70/67
f 20/55/68 19/30/68 54/36/68
f 51/35/69 12/71/69 52/68/69
f 53/67/70 12/71/70 11/72/70
f 53/67/71 39/25/71 20/55/71
f 26/38/72 54/36/72 19/30/72
f 57/44/73 21/42/73 55/41/73
f 5/37/74 25/39/74 1/73/74
f 7/74/75 14/45/75 8/75/75
f 16/20/76 15/46/76 55/41/76
f 29/43/77 7/74/77 2/76/77
f 27/77/78 57/44/78 28/47/78
f 22/53/79 27/77/79 3/54/79
f 21/42/80 56/78/80 22/53/80
f 58/79/81 59/80/81 60/81/81
f 60/81/82 59/82/82 61/83/82
f 61/83/83 59/84/83 62/85/83
f 62/85/84 59/86/84 63/87/84
f 63/87/85 59/88/85 58/89/85
f 58/89/86 68/87/86 63/87/86
f 65/90/87 66/91/87 67/92/87
f 61/83/88 67/85/88 66/83/88
f 62/85/89 68/87/89 67/85/89
f 61/83/90 65/81/90 60/81/90
f 60/81/91 64/79/91 58/79/91
f 69/79/92 70/80/92 71/81/92
f 71/81/93 70/82/93 72/83/93
f 72/83/94 70/84/94 73/85/94
f 73/85/95 70/86/95 74/87/95
f 74/87/96 70/88/96 69/89/96
f 69/89/97 79/87/97 74/87/97
f 77/91/98 78/92/98 79/93/98
f 72/83/99 78/85/99 77/83/99
f 74/87/100 78/85/100 73/85/100
f 71/81/101 77/83/101 76/81/101
f 69/79/102 76/81/102 75/79/102
f 80/79/103 81/80/103 82/81/103
f 82/81/104 81/82/104 83/83/104
f 83/83/105 81/84/105 84/85/105
f 84/85/106 81/86/106 85/87/106
f 85/87/107 81/88/107 80/89/107
f 85/87/108 86/89/108 90/87/108
f 88/91/109 89/92/109 90/93/109
f 84/85/110 88/83/110 83/83/110
f 84/85/111 90/87/111 89/85/111
f 83/83/112 87/81/112 82/81/112
f 80/79/113 87/81/113 86/79/113
f 91/79/114 92/80/114 93/81/114
f 93/81/115 92/82/115 94/83/115
f 94/83/116 92/84/116 95/85/116
f 95/85/117 92/86/117 96/87/117
f 96/87/118 92/88/118 91/89/118
f 91/89/119 101/87/119 96/87/119
f 98/90/120 99/91/120 100/92/120
f 94/83/121 100/85/121 99/83/121
f 95/85/122 101/87/122 100/85/122
f 94/83/123 98/81/123 93/81/123
f 93/81/124 97/79/124 91/79/124
f 102/79/125 103/80/125 104/81/125
f 104/81/126 103/82/126 105/83/126
f 105/83/127 103/84/127 106/85/127
f 106/85/128 103/86/128 107/87/128
f 107/87/129 103/88/129 102/89/129
f 107/87/130 108/89/130 112/87/130
f 110/91/131 111/92/131 112/93/131
f 106/85/132 110/83/132 105/83/132
f 106/85/133 112/87/133 111/85/133
f 105/83/134 109/81/134 104/81/134
f 104/81/135 108/79/135 102/79/135
f 33/1/136 30/6/136 31/9/136
f 31/9/137 2/8/137 7/48/137
f 4/14/138 5/7/138 30/6/138
f 9/12/139 8/11/139 14/49/139
f 16/50/140 38/18/140 36/15/140
f 43/52/141 42/27/141 41/24/141
f 41/24/142 18/22/142 17/21/142
f 43/52/143 40/26/143 21/42/143
f 23/28/144 42/27/144 43/52/144
f 42/27/145 19/30/145 20/55/145
f 46/31/146 26/34/146 44/56/146
f 48/58/147 47/57/147 44/56/147
f 49/32/148 47/57/148 48/58/148
f 44/56/149 26/34/149 24/29/149
f 23/28/150 3/54/150 45/59/150
f 28/61/151 48/58/151 45/59/151
f 50/60/152 48/58/152 28/61/152
f 6/64/153 50/60/153 29/63/153
f 1/66/154 25/33/154 49/32/154
f 54/36/155 52/68/155 53/67/155
f 51/35/156 4/40/156 10/69/156
f 51/35/157 13/70/157 12/71/157
f 53/67/158 52/68/158 12/71/158
f 53/67/159 11/72/159 39/25/159
f 26/38/160 25/39/160 54/36/160
f 57/44/161 56/78/161 21/42/161
f 7/74/162 55/41/162 14/45/162
f 29/43/163 55/41/163 7/74/163
f 27/77/164 56/78/164 57/44/164
f 22/53/165 56/78/165 27/77/165
f 58/89/86 64/89/86 68/87/86
f 68/93/87 64/94/87 67/92/87
f 64/94/87 65/90/87 67/92/87
f 61/83/88 62/85/88 67/85/88
f 62/85/89 63/87/89 68/87/89
f 61/83/90 66/83/90 65/81/90
f 60/81/91 65/81/91 64/79/91
f 69/89/97 75/89/97 79/87/97
f 79/93/98 75/94/98 76/90/98
f 76/90/98 77/91/98 79/93/98
f 72/83/99 73/85/99 78/85/99
f 74/87/100 79/87/100 78/85/100
f 71/81/101 72/83/101 77/83/101
f 69/79/102 71/81/102 76/81/102
f 85/87/108 80/89/108 86/89/108
f 90/93/109 86/94/109 88/91/109
f 86/94/109 87/90/109 88/91/109
f 84/85/110 89/85/110 88/83/110
f 84/85/111 85/87/111 90/87/111
f 83/83/112 88/83/112 87/81/112
f 80/79/113 82/81/113 87/81/113
f 91/89/119 97/89/119 101/87/119
f 101/93/120 97/94/120 100/92/120
f 97/94/120 98/90/120 100/92/120
f 94/83/121 95/85/121 100/85/121
f 95/85/122 96/87/122 101/87/122
f 94/83/123 99/83/123 98/81/123
f 93/81/124 98/81/124 97/79/124
f 107/87/130 102/89/130 108/89/130
f 112/93/131 108/94/131 109/90/131
f 109/90/131 110/91/131 112/93/131
f 106/85/132 111/85/132 110/83/132
f 106/85/133 107/87/133 112/87/133
f 105/83/134 110/83/134 109/81/134
f 104/81/135 109/81/135 108/79/135
