# Blender 4.4.0
# www.blender.org
mtllib gear.mtl
o 円柱
v -0.848528 -0.848528 -0.200000
v -0.848528 -0.848528 0.200000
v -0.907841 -0.783086 -0.200000
v -0.907841 -0.783086 0.200000
v -0.748322 -0.500014 -0.200000
v -0.748322 -0.500014 0.200000
v -0.793729 -0.424258 -0.200000
v -0.793729 -0.424258 0.200000
v -0.831492 -0.344416 -0.200000
v -0.831492 -0.344416 0.200000
v -0.861246 -0.261256 -0.200000
v -0.861246 -0.261256 0.200000
v -0.882707 -0.175582 -0.200000
v -0.882707 -0.175582 0.200000
v -1.195666 -0.088216 -0.200000
v -1.195666 -0.088216 0.200000
v -1.200000 -0.000000 -0.200000
v -1.200000 0.000000 0.200000
v -1.195666 0.088216 -0.200000
v -1.195666 0.088216 0.200000
v -0.882707 0.175582 -0.200000
v -0.882707 0.175582 0.200000
v -0.861246 0.261256 -0.200000
v -0.861246 0.261256 0.200000
v -0.831492 0.344416 -0.200000
v -0.831492 0.344416 0.200000
v -0.793729 0.424258 -0.200000
v -0.793729 0.424258 0.200000
v -0.748322 0.500014 -0.200000
v -0.748322 0.500014 0.200000
v -0.907841 0.783086 -0.200000
v -0.907841 0.783086 0.200000
v -0.848528 0.848528 -0.200000
v -0.848528 0.848528 0.200000
v -0.783086 0.907841 -0.200000
v -0.783086 0.907841 0.200000
v -0.500014 0.748322 -0.200000
v -0.500014 0.748322 0.200000
v -0.424258 0.793729 -0.200000
v -0.424258 0.793729 0.200000
v -0.344416 0.831492 -0.200000
v -0.344416 0.831492 0.200000
v -0.261256 0.861246 -0.200000
v -0.261256 0.861246 0.200000
v -0.175582 0.882707 -0.200000
v -0.175582 0.882707 0.200000
v -0.088216 1.195666 -0.200000
v -0.088216 1.195666 0.200000
v 0.000000 1.200000 -0.200000
v 0.000000 1.200000 0.200000
v 0.000000 -1.200000 -0.200000
v 0.000000 -1.200000 0.200000
v -0.088216 -1.195666 -0.200000
v -0.088216 -1.195666 0.200000
v -0.175582 -0.882707 -0.200000
v -0.175582 -0.882707 0.200000
v -0.261256 -0.861246 -0.200000
v -0.261256 -0.861246 0.200000
v -0.344416 -0.831492 -0.200000
v -0.344416 -0.831492 0.200000
v -0.424258 -0.793729 -0.200000
v -0.424258 -0.793729 0.200000
v -0.500014 -0.748322 -0.200000
v -0.500014 -0.748322 0.200000
v -0.783086 -0.907841 -0.200000
v -0.783086 -0.907841 0.200000
v -0.783086 -0.907841 -0.200000
v -0.783086 -0.907841 0.200000
v -0.500014 -0.748322 -0.200000
v -0.500014 -0.748322 0.200000
v -0.424258 -0.793729 -0.200000
v -0.424258 -0.793729 0.200000
v -0.344416 -0.831492 -0.200000
v -0.344416 -0.831492 0.200000
v -0.261256 -0.861246 -0.200000
v -0.261256 -0.861246 0.200000
v -0.175582 -0.882707 -0.200000
v -0.175582 -0.882707 0.200000
v -0.088216 -1.195666 -0.200000
v -0.088216 -1.195666 0.200000
v 0.000000 -1.200000 -0.200000
v 0.000000 -1.200000 0.200000
v 0.088216 -1.195666 -0.200000
v 0.088216 -1.195666 0.200000
v 0.175582 -0.882707 -0.200000
v 0.175582 -0.882707 0.200000
v 0.261256 -0.861246 -0.200000
v 0.261256 -0.861246 0.200000
v 0.344416 -0.831492 -0.200000
v 0.344416 -0.831492 0.200000
v 0.424258 -0.793729 -0.200000
v 0.424258 -0.793729 0.200000
v 0.500014 -0.748322 -0.200000
v 0.500014 -0.748322 0.200000
v 0.783086 -0.907841 -0.200000
v 0.783086 -0.907841 0.200000
v 0.848528 -0.848528 -0.200000
v 0.848528 -0.848528 0.200000
v 0.907841 -0.783086 -0.200000
v 0.907841 -0.783086 0.200000
v 0.748322 -0.500014 -0.200000
v 0.748322 -0.500014 0.200000
v 0.793729 -0.424258 -0.200000
v 0.793729 -0.424258 0.200000
v 0.831492 -0.344416 -0.200000
v 0.831492 -0.344416 0.200000
v 0.861246 -0.261256 -0.200000
v 0.861246 -0.261256 0.200000
v 0.882707 -0.175582 -0.200000
v 0.882707 -0.175582 0.200000
v 1.195666 -0.088216 -0.200000
v 1.195666 -0.088216 0.200000
v 1.200000 -0.000000 -0.200000
v 1.200000 0.000000 0.200000
v -1.200000 -0.000000 -0.200000
v -1.200000 0.000000 0.200000
v -1.195666 -0.088216 -0.200000
v -1.195666 -0.088216 0.200000
v -0.882707 -0.175582 -0.200000
v -0.882707 -0.175582 0.200000
v -0.861246 -0.261256 -0.200000
v -0.861246 -0.261256 0.200000
v -0.831492 -0.344416 -0.200000
v -0.831492 -0.344416 0.200000
v -0.793729 -0.424258 -0.200000
v -0.793729 -0.424258 0.200000
v -0.748322 -0.500014 -0.200000
v -0.748322 -0.500014 0.200000
v -0.907841 -0.783086 -0.200000
v -0.907841 -0.783086 0.200000
v 0.848528 0.848528 -0.200000
v 0.848528 0.848528 0.200000
v 0.783086 0.907841 -0.200000
v 0.783086 0.907841 0.200000
v 0.500014 0.748322 -0.200000
v 0.500014 0.748322 0.200000
v 0.424258 0.793729 -0.200000
v 0.424258 0.793729 0.200000
v 0.344416 0.831492 -0.200000
v 0.344416 0.831492 0.200000
v 0.261256 0.861246 -0.200000
v 0.261256 0.861246 0.200000
v 0.175582 0.882707 -0.200000
v 0.175582 0.882707 0.200000
v 0.088216 1.195666 -0.200000
v 0.088216 1.195666 0.200000
v 0.000000 1.200000 -0.200000
v 0.000000 1.200000 0.200000
v -0.088216 1.195666 -0.200000
v -0.088216 1.195666 0.200000
v -0.175582 0.882707 -0.200000
v -0.175582 0.882707 0.200000
v -0.261256 0.861246 -0.200000
v -0.261256 0.861246 0.200000
v -0.344416 0.831492 -0.200000
v -0.344416 0.831492 0.200000
v -0.424258 0.793729 -0.200000
v -0.424258 0.793729 0.200000
v -0.500014 0.748322 -0.200000
v -0.500014 0.748322 0.200000
v -0.783086 0.907841 -0.200000
v -0.783086 0.907841 0.200000
v -0.907841 0.783086 -0.200000
v -0.907841 0.783086 0.200000
v -0.748322 0.500014 -0.200000
v -0.748322 0.500014 0.200000
v -0.793729 0.424258 -0.200000
v -0.793729 0.424258 0.200000
v -0.831492 0.344416 -0.200000
v -0.831492 0.344416 0.200000
v -0.861246 0.261256 -0.200000
v -0.861246 0.261256 0.200000
v -0.882707 0.175582 -0.200000
v -0.882707 0.175582 0.200000
v -1.195666 0.088216 -0.200000
v -1.195666 0.088216 0.200000
v -1.200000 -0.000000 -0.200000
v -1.200000 0.000000 0.200000
v 1.200000 -0.000000 -0.200000
v 1.200000 0.000000 0.200000
v 1.195666 0.088216 -0.200000
v 1.195666 0.088216 0.200000
v 0.882707 0.175582 -0.200000
v 0.882707 0.175582 0.200000
v 0.861246 0.261256 -0.200000
v 0.861246 0.261256 0.200000
v 0.831492 0.344416 -0.200000
v 0.831492 0.344416 0.200000
v 0.793729 0.424258 -0.200000
v 0.793729 0.424258 0.200000
v 0.748322 0.500014 -0.200000
v 0.748322 0.500014 0.200000
v 0.907841 0.783086 -0.200000
v 0.907841 0.783086 0.200000
v 0.907841 0.783086 -0.200000
v 0.907841 0.783086 0.200000
v 0.748322 0.500014 -0.200000
v 0.748322 0.500014 0.200000
v 0.793729 0.424258 -0.200000
v 0.793729 0.424258 0.200000
v 0.831492 0.344416 -0.200000
v 0.831492 0.344416 0.200000
v 0.861246 0.261256 -0.200000
v 0.861246 0.261256 0.200000
v 0.882707 0.175582 -0.200000
v 0.882707 0.175582 0.200000
v 1.195666 0.088216 -0.200000
v 1.195666 0.088216 0.200000
v 1.200000 -0.000000 -0.200000
v 1.200000 0.000000 0.200000
v 1.195666 -0.088216 -0.200000
v 1.195666 -0.088216 0.200000
v 0.882707 -0.175582 -0.200000
v 0.882707 -0.175582 0.200000
v 0.861246 -0.261256 -0.200000
v 0.861246 -0.261256 0.200000
v 0.831492 -0.344416 -0.200000
v 0.831492 -0.344416 0.200000
v 0.793729 -0.424258 -0.200000
v 0.793729 -0.424258 0.200000
v 0.748322 -0.500014 -0.200000
v 0.748322 -0.500014 0.200000
v 0.907841 -0.783086 -0.200000
v 0.907841 -0.783086 0.200000
v 0.783086 -0.907841 -0.200000
v 0.783086 -0.907841 0.200000
v 0.500014 -0.748322 -0.200000
v 0.500014 -0.748322 0.200000
v 0.424258 -0.793729 -0.200000
v 0.424258 -0.793729 0.200000
v 0.344416 -0.831492 -0.200000
v 0.344416 -0.831492 0.200000
v 0.261256 -0.861246 -0.200000
v 0.261256 -0.861246 0.200000
v 0.175582 -0.882707 -0.200000
v 0.175582 -0.882707 0.200000
v 0.088216 -1.195666 -0.200000
v 0.088216 -1.195666 0.200000
v 0.000000 -1.200000 -0.200000
v 0.000000 -1.200000 0.200000
v 0.000000 1.200000 -0.200000
v 0.000000 1.200000 0.200000
v 0.088216 1.195666 -0.200000
v 0.088216 1.195666 0.200000
v 0.175582 0.882707 -0.200000
v 0.175582 0.882707 0.200000
v 0.261256 0.861246 -0.200000
v 0.261256 0.861246 0.200000
v 0.344416 0.831492 -0.200000
v 0.344416 0.831492 0.200000
v 0.424258 0.793729 -0.200000
v 0.424258 0.793729 0.200000
v 0.500014 0.748322 -0.200000
v 0.500014 0.748322 0.200000
v 0.783086 0.907841 -0.200000
v 0.783086 0.907841 0.200000
vn -0.7410 -0.6716 -0.0000
vn -0.8712 0.4909 -0.0000
vn -0.8577 -0.5141 -0.0000
vn -0.9040 -0.4276 -0.0000
vn -0.9415 -0.3369 -0.0000
vn -0.9700 -0.2430 -0.0000
vn -0.2689 -0.9632 -0.0000
vn -0.9988 -0.0491 -0.0000
vn -0.9988 0.0491 -0.0000
vn -0.2689 0.9632 -0.0000
vn -0.9700 0.2430 -0.0000
vn -0.9415 0.3369 -0.0000
vn -0.9040 0.4276 -0.0000
vn -0.8577 0.5141 -0.0000
vn -0.8712 -0.4909 -0.0000
vn -0.7410 0.6716 -0.0000
vn -0.6716 0.7410 -0.0000
vn 0.4909 0.8712 -0.0000
vn -0.5141 0.8577 -0.0000
vn -0.4276 0.9040 -0.0000
vn -0.3369 0.9415 -0.0000
vn -0.2430 0.9700 -0.0000
vn -0.9632 0.2689 -0.0000
vn -0.0491 0.9988 -0.0000
vn -0.0491 -0.9988 -0.0000
vn -0.9632 -0.2689 -0.0000
vn -0.2430 -0.9700 -0.0000
vn -0.3369 -0.9415 -0.0000
vn -0.4276 -0.9040 -0.0000
vn -0.5141 -0.8577 -0.0000
vn -0.0000 -0.0000 1.0000
vn 0.4909 -0.8712 -0.0000
vn -0.6716 -0.7410 -0.0000
vn -0.0000 -0.0000 -1.0000
vn 1.0000 -0.0000 -0.0000
vn 0.0491 -0.9988 -0.0000
vn 0.9632 -0.2689 -0.0000
vn 0.2430 -0.9700 -0.0000
vn 0.3369 -0.9415 -0.0000
vn 0.4276 -0.9040 -0.0000
vn 0.5141 -0.8577 -0.0000
vn -0.4909 -0.8712 -0.0000
vn 0.6716 -0.7410 -0.0000
vn 0.7410 -0.6716 -0.0000
vn 0.8712 0.4909 -0.0000
vn 0.8577 -0.5141 -0.0000
vn 0.9040 -0.4276 -0.0000
vn 0.9415 -0.3369 -0.0000
vn 0.9700 -0.2430 -0.0000
vn 0.2689 -0.9632 -0.0000
vn 0.9988 -0.0491 -0.0000
vn -0.0000 1.0000 -0.0000
vn 0.6716 0.7410 -0.0000
vn -0.4909 0.8712 -0.0000
vn 0.5141 0.8577 -0.0000
vn 0.4276 0.9040 -0.0000
vn 0.3369 0.9415 -0.0000
vn 0.2430 0.9700 -0.0000
vn 0.9632 0.2689 -0.0000
vn 0.0491 0.9988 -0.0000
vn 0.9988 0.0491 -0.0000
vn 0.2689 0.9632 -0.0000
vn 0.9700 0.2430 -0.0000
vn 0.9415 0.3369 -0.0000
vn 0.9040 0.4276 -0.0000
vn 0.8577 0.5141 -0.0000
vn 0.8712 -0.4909 -0.0000
vn 0.7410 0.6716 -0.0000
vn -0.0000 -1.0000 -0.0000
vn -1.0000 -0.0000 -0.0000
vt 1.000000 1.000000
vt 0.984375 0.500000
vt 1.000000 0.500000
vt 0.984375 1.000000
vt 0.968750 0.500000
vt 0.968750 1.000000
vt 0.953125 0.500000
vt 0.953125 1.000000
vt 0.937500 0.500000
vt 0.937500 1.000000
vt 0.921875 0.500000
vt 0.921875 1.000000
vt 0.906250 0.500000
vt 0.906250 1.000000
vt 0.890625 0.500000
vt 0.890625 1.000000
vt 0.875000 0.500000
vt 0.875000 1.000000
vt 0.859375 0.500000
vt 0.859375 1.000000
vt 0.843750 0.500000
vt 0.843750 1.000000
vt 0.828125 0.500000
vt 0.828125 1.000000
vt 0.812500 0.500000
vt 0.812500 1.000000
vt 0.796875 0.500000
vt 0.796875 1.000000
vt 0.781250 0.500000
vt 0.781250 1.000000
vt 0.765625 0.500000
vt 0.765625 1.000000
vt 0.750000 0.500000
vt 0.750000 1.000000
vt 0.734375 0.500000
vt 0.734375 1.000000
vt 0.718750 0.500000
vt 0.718750 1.000000
vt 0.703125 0.500000
vt 0.703125 1.000000
vt 0.687500 0.500000
vt 0.687500 1.000000
vt 0.671875 0.500000
vt 0.671875 1.000000
vt 0.656250 0.500000
vt 0.656250 1.000000
vt 0.640625 0.500000
vt 0.640625 1.000000
vt 0.625000 0.500000
vt 0.125000 1.000000
vt 0.109375 0.500000
vt 0.125000 0.500000
vt 0.109375 1.000000
vt 0.093750 0.500000
vt 0.093750 1.000000
vt 0.078125 0.500000
vt 0.078125 1.000000
vt 0.062500 0.500000
vt 0.062500 1.000000
vt 0.046875 0.500000
vt 0.046875 1.000000
vt 0.031250 0.500000
vt 0.449553 0.383337
vt 0.383337 0.449553
vt 0.296822 0.485388
vt 0.031250 1.000000
vt 0.015625 0.500000
vt 0.015625 1.000000
vt 0.000000 0.500000
vt 0.883337 0.449553
vt 0.949553 0.383337
vt 0.985388 0.296822
vt 0.475000 0.282063
vt 0.525000 0.467937
vt 0.525000 0.282063
vt 0.485388 0.296822
vt 0.485388 0.203178
vt 0.203178 0.485388
vt 0.796822 0.485388
vt 0.625000 1.000000
vt 0.449553 0.116663
vt 0.461661 0.136865
vt 0.471731 0.158156
vt 0.479666 0.180332
vt 0.488844 0.226476
vt 0.490000 0.250000
vt 0.488844 0.273524
vt 0.479666 0.319668
vt 0.471731 0.341844
vt 0.461661 0.363135
vt 0.435522 0.402254
vt 0.419706 0.419706
vt 0.402254 0.435522
vt 0.363135 0.461661
vt 0.341844 0.471731
vt 0.319668 0.479666
vt 0.273524 0.488844
vt 0.250000 0.490000
vt 0.226476 0.488844
vt 0.180332 0.479666
vt 0.158156 0.471731
vt 0.136865 0.461661
vt 0.116663 0.449553
vt 0.097746 0.435522
vt 0.080294 0.419706
vt 0.419706 0.080294
vt 0.435522 0.097746
vt 0.000000 1.000000
vt 0.919706 0.080294
vt 0.580294 0.419706
vt 0.616663 0.449553
vt 0.597746 0.435522
vt 0.636865 0.461661
vt 0.658156 0.471731
vt 0.949553 0.116663
vt 0.935522 0.097746
vt 0.971731 0.158156
vt 0.961661 0.136865
vt 0.985388 0.203178
vt 0.979666 0.180332
vt 0.990000 0.250000
vt 0.988844 0.226476
vt 0.988844 0.273524
vt 0.971731 0.341844
vt 0.979666 0.319668
vt 0.961661 0.363135
vt 0.919706 0.419706
vt 0.935522 0.402254
vt 0.902254 0.435522
vt 0.841844 0.471731
vt 0.863135 0.461661
vt 0.703178 0.485388
vt 0.819668 0.479666
vt 0.750000 0.490000
vt 0.773524 0.488844
vt 0.726476 0.488844
vt 0.680332 0.479666
vt 0.475000 0.467937
s 1
usemtl マテリアル
f 2/1/1 3/2/1 1/3/1
f 4/4/2 5/5/2 3/2/2
f 6/6/3 7/7/3 5/5/3
f 8/8/4 9/9/4 7/7/4
f 10/10/5 11/11/5 9/9/5
f 12/12/6 13/13/6 11/11/6
f 14/14/7 15/15/7 13/13/7
f 16/16/8 17/17/8 15/15/8
f 18/18/9 19/19/9 17/17/9
f 20/20/10 21/21/10 19/19/10
f 22/22/11 23/23/11 21/21/11
f 24/24/12 25/25/12 23/23/12
f 26/26/13 27/27/13 25/25/13
f 28/28/14 29/29/14 27/27/14
f 30/30/15 31/31/15 29/29/15
f 32/32/16 33/33/16 31/31/16
f 34/34/17 35/35/17 33/33/17
f 36/36/18 37/37/18 35/35/18
f 38/38/19 39/39/19 37/37/19
f 40/40/20 41/41/20 39/39/20
f 42/42/21 43/43/21 41/41/21
f 44/44/22 45/45/22 43/43/22
f 46/46/23 47/47/23 45/45/23
f 48/48/24 49/49/24 47/47/24
f 52/50/25 53/51/25 51/52/25
f 54/53/26 55/54/26 53/51/26
f 56/55/27 57/56/27 55/54/27
f 58/57/28 59/58/28 57/56/28
f 60/59/29 61/60/29 59/58/29
f 62/61/30 63/62/30 61/60/30
f 22/63/31 14/64/31 6/65/31
f 64/66/32 65/67/32 63/62/32
f 66/68/33 1/69/33 65/67/33
f 13/70/34 21/71/34 29/72/34
f 51/73/35 50/74/35 52/75/35
f 67/2/33 2/1/33 1/3/33
f 69/5/32 68/4/32 67/2/32
f 71/7/30 70/6/30 69/5/30
f 73/9/29 72/8/29 71/7/29
f 75/11/28 74/10/28 73/9/28
f 77/13/27 76/12/27 75/11/27
f 79/15/26 78/14/26 77/13/26
f 81/17/25 80/16/25 79/15/25
f 83/19/36 82/18/36 81/17/36
f 85/21/37 84/20/37 83/19/37
f 87/23/38 86/22/38 85/21/38
f 89/25/39 88/24/39 87/23/39
f 91/27/40 90/26/40 89/25/40
f 93/29/41 92/28/41 91/27/41
f 95/31/42 94/30/42 93/29/42
f 97/33/43 96/32/43 95/31/43
f 99/35/44 98/34/44 97/33/44
f 101/37/45 100/36/45 99/35/45
f 103/39/46 102/38/46 101/37/46
f 105/41/47 104/40/47 103/39/47
f 107/43/48 106/42/48 105/41/48
f 109/45/49 108/44/49 107/43/49
f 111/47/50 110/46/50 109/45/50
f 113/49/51 112/48/51 111/47/51
f 117/51/8 116/50/8 115/52/8
f 119/54/7 118/53/7 117/51/7
f 121/56/6 120/55/6 119/54/6
f 123/58/5 122/57/5 121/56/5
f 125/60/4 124/59/4 123/58/4
f 127/62/3 126/61/3 125/60/3
f 94/76/31 102/77/31 128/78/31
f 129/67/2 128/66/2 127/62/2
f 1/69/1 130/68/1 129/67/1
f 93/72/34 85/71/34 69/79/34
f 114/74/52 115/73/52 116/75/52
f 133/2/53 132/1/53 131/3/53
f 135/5/54 134/4/54 133/2/54
f 137/7/55 136/6/55 135/5/55
f 139/9/56 138/8/56 137/7/56
f 141/11/57 140/10/57 139/9/57
f 143/13/58 142/12/58 141/11/58
f 145/15/59 144/14/59 143/13/59
f 147/17/60 146/16/60 145/15/60
f 149/19/24 148/18/24 147/17/24
f 151/21/23 150/20/23 149/19/23
f 153/23/22 152/22/22 151/21/22
f 155/25/21 154/24/21 153/23/21
f 157/27/20 156/26/20 155/25/20
f 159/29/19 158/28/19 157/27/19
f 161/31/18 160/30/18 159/29/18
f 33/33/17 162/32/17 161/31/17
f 163/35/16 34/34/16 33/33/16
f 165/37/15 164/36/15 163/35/15
f 167/39/14 166/38/14 165/37/14
f 169/41/13 168/40/13 167/39/13
f 171/43/12 170/42/12 169/41/12
f 173/45/11 172/44/11 171/43/11
f 175/47/10 174/46/10 173/45/10
f 177/49/9 176/48/9 175/47/9
f 181/51/61 180/50/61 179/52/61
f 183/54/62 182/53/62 181/51/62
f 185/56/63 184/55/63 183/54/63
f 187/58/64 186/57/64 185/56/64
f 189/60/65 188/59/65 187/58/65
f 191/62/66 190/61/66 189/60/66
f 160/76/31 166/77/31 192/78/31
f 193/67/67 192/66/67 191/62/67
f 131/69/68 194/68/68 193/67/68
f 159/72/34 151/71/34 135/79/34
f 178/74/69 179/73/69 180/75/69
f 132/1/68 195/2/68 131/3/68
f 196/4/67 197/5/67 195/2/67
f 198/6/66 199/7/66 197/5/66
f 200/8/65 201/9/65 199/7/65
f 202/10/64 203/11/64 201/9/64
f 204/12/63 205/13/63 203/11/63
f 206/14/62 207/15/62 205/13/62
f 208/16/61 209/17/61 207/15/61
f 210/18/51 211/19/51 209/17/51
f 212/20/50 213/21/50 211/19/50
f 214/22/49 215/23/49 213/21/49
f 216/24/48 217/25/48 215/23/48
f 218/26/47 219/27/47 217/25/47
f 220/28/46 221/29/46 219/27/46
f 222/30/45 223/31/45 221/29/45
f 224/32/44 97/33/44 223/31/44
f 98/34/43 225/35/43 97/33/43
f 226/36/42 227/37/42 225/35/42
f 228/38/41 229/39/41 227/37/41
f 230/40/40 231/41/40 229/39/40
f 232/42/39 233/43/39 231/41/39
f 234/44/38 235/45/38 233/43/38
f 236/46/37 237/47/37 235/45/37
f 238/48/36 239/49/36 237/47/36
f 242/50/60 243/51/60 241/52/60
f 244/53/59 245/54/59 243/51/59
f 246/55/58 247/56/58 245/54/58
f 248/57/57 249/58/57 247/56/57
f 250/59/56 251/60/56 249/58/56
f 252/61/55 253/62/55 251/60/55
f 214/63/31 206/64/31 198/65/31
f 254/66/54 255/67/54 253/62/54
f 256/68/53 131/69/53 255/67/53
f 205/70/34 213/71/34 221/72/34
f 241/73/70 240/74/70 242/75/70
f 2/1/1 4/4/1 3/2/1
f 4/4/2 6/6/2 5/5/2
f 6/6/3 8/8/3 7/7/3
f 8/8/4 10/10/4 9/9/4
f 10/10/5 12/12/5 11/11/5
f 12/12/6 14/14/6 13/13/6
f 14/14/7 16/16/7 15/15/7
f 16/16/8 18/18/8 17/17/8
f 18/18/9 20/20/9 19/19/9
f 20/20/10 22/22/10 21/21/10
f 22/22/11 24/24/11 23/23/11
f 24/24/12 26/26/12 25/25/12
f 26/26/13 28/28/13 27/27/13
f 28/28/14 30/30/14 29/29/14
f 30/30/15 32/32/15 31/31/15
f 32/32/16 34/34/16 33/33/16
f 34/34/17 36/36/17 35/35/17
f 36/36/18 38/38/18 37/37/18
f 38/38/19 40/40/19 39/39/19
f 40/40/20 42/42/20 41/41/20
f 42/42/21 44/44/21 43/43/21
f 44/44/22 46/46/22 45/45/22
f 46/46/23 48/48/23 47/47/23
f 48/48/24 50/80/24 49/49/24
f 52/50/25 54/53/25 53/51/25
f 54/53/26 56/55/26 55/54/26
f 56/55/27 58/57/27 57/56/27
f 58/57/28 60/59/28 59/58/28
f 60/59/29 62/61/29 61/60/29
f 62/61/30 64/66/30 63/62/30
f 46/81/31 44/82/31 38/77/31
f 44/82/31 42/83/31 38/77/31
f 42/83/31 40/84/31 38/77/31
f 38/77/31 36/85/31 34/86/31
f 34/86/31 32/87/31 30/76/31
f 30/76/31 28/88/31 26/89/31
f 26/89/31 24/90/31 38/77/31
f 24/90/31 22/63/31 38/77/31
f 22/63/31 20/91/31 18/92/31
f 18/92/31 16/93/31 14/64/31
f 14/64/31 12/94/31 6/65/31
f 12/94/31 10/95/31 6/65/31
f 10/95/31 8/96/31 6/65/31
f 6/65/31 4/97/31 2/98/31
f 2/98/31 66/99/31 64/78/31
f 64/78/31 62/100/31 60/101/31
f 60/101/31 58/102/31 64/78/31
f 58/102/31 56/103/31 64/78/31
f 56/103/31 54/104/31 52/105/31
f 52/105/31 50/106/31 46/81/31
f 50/106/31 48/107/31 46/81/31
f 56/103/31 52/105/31 46/81/31
f 38/77/31 34/86/31 30/76/31
f 56/103/31 46/81/31 38/77/31
f 6/65/31 2/98/31 64/78/31
f 64/78/31 56/103/31 38/77/31
f 38/77/31 30/76/31 26/89/31
f 22/63/31 18/92/31 14/64/31
f 6/65/31 64/78/31 38/77/31
f 38/77/31 22/63/31 6/65/31
f 64/66/32 66/68/32 65/67/32
f 66/68/33 2/108/33 1/69/33
f 49/109/34 51/110/34 55/111/34
f 51/110/34 53/112/34 55/111/34
f 55/111/34 57/113/34 59/114/34
f 45/115/34 47/116/34 49/109/34
f 41/117/34 43/118/34 37/119/34
f 43/118/34 45/115/34 37/119/34
f 37/119/34 39/120/34 41/117/34
f 33/121/34 35/122/34 37/119/34
f 29/72/34 31/123/34 33/121/34
f 25/124/34 27/125/34 29/72/34
f 21/71/34 23/126/34 29/72/34
f 23/126/34 25/124/34 29/72/34
f 17/127/34 19/128/34 21/71/34
f 13/70/34 15/129/34 17/127/34
f 9/130/34 11/131/34 63/132/34
f 11/131/34 13/70/34 63/132/34
f 5/79/34 7/133/34 9/130/34
f 1/134/34 3/135/34 5/79/34
f 63/132/34 65/136/34 1/134/34
f 59/114/34 61/137/34 63/132/34
f 49/109/34 55/111/34 45/115/34
f 55/111/34 59/114/34 45/115/34
f 63/132/34 1/134/34 5/79/34
f 45/115/34 59/114/34 63/132/34
f 29/72/34 33/121/34 37/119/34
f 37/119/34 45/115/34 63/132/34
f 63/132/34 5/79/34 9/130/34
f 13/70/34 17/127/34 21/71/34
f 29/72/34 37/119/34 63/132/34
f 63/132/34 13/70/34 29/72/34
f 51/73/35 49/138/35 50/74/35
f 67/2/33 68/4/33 2/1/33
f 69/5/32 70/6/32 68/4/32
f 71/7/30 72/8/30 70/6/30
f 73/9/29 74/10/29 72/8/29
f 75/11/28 76/12/28 74/10/28
f 77/13/27 78/14/27 76/12/27
f 79/15/26 80/16/26 78/14/26
f 81/17/25 82/18/25 80/16/25
f 83/19/36 84/20/36 82/18/36
f 85/21/37 86/22/37 84/20/37
f 87/23/38 88/24/38 86/22/38
f 89/25/39 90/26/39 88/24/39
f 91/27/40 92/28/40 90/26/40
f 93/29/41 94/30/41 92/28/41
f 95/31/42 96/32/42 94/30/42
f 97/33/43 98/34/43 96/32/43
f 99/35/44 100/36/44 98/34/44
f 101/37/45 102/38/45 100/36/45
f 103/39/46 104/40/46 102/38/46
f 105/41/47 106/42/47 104/40/47
f 107/43/48 108/44/48 106/42/48
f 109/45/49 110/46/49 108/44/49
f 111/47/50 112/48/50 110/46/50
f 113/49/51 114/80/51 112/48/51
f 117/51/8 118/53/8 116/50/8
f 119/54/7 120/55/7 118/53/7
f 121/56/6 122/57/6 120/55/6
f 123/58/5 124/59/5 122/57/5
f 125/60/4 126/61/4 124/59/4
f 127/62/3 128/66/3 126/61/3
f 110/81/31 112/107/31 114/106/31
f 114/106/31 116/105/31 120/103/31
f 116/105/31 118/104/31 120/103/31
f 120/103/31 122/102/31 126/100/31
f 122/102/31 124/101/31 126/100/31
f 106/83/31 108/82/31 120/103/31
f 108/82/31 110/81/31 120/103/31
f 110/81/31 114/106/31 120/103/31
f 128/78/31 130/99/31 2/98/31
f 120/103/31 126/100/31 128/78/31
f 102/77/31 104/84/31 106/83/31
f 98/86/31 100/85/31 102/77/31
f 94/76/31 96/87/31 98/86/31
f 90/89/31 92/88/31 94/76/31
f 86/63/31 88/90/31 94/76/31
f 88/90/31 90/89/31 94/76/31
f 82/92/31 84/91/31 86/63/31
f 78/64/31 80/93/31 82/92/31
f 74/95/31 76/94/31 70/65/31
f 76/94/31 78/64/31 70/65/31
f 70/65/31 72/96/31 74/95/31
f 2/98/31 68/97/31 70/65/31
f 106/83/31 120/103/31 102/77/31
f 120/103/31 128/78/31 102/77/31
f 128/78/31 2/98/31 70/65/31
f 78/64/31 82/92/31 86/63/31
f 94/76/31 98/86/31 102/77/31
f 128/78/31 70/65/31 94/76/31
f 70/65/31 78/64/31 94/76/31
f 78/64/31 86/63/31 94/76/31
f 129/67/2 130/68/2 128/66/2
f 1/69/1 2/108/1 130/68/1
f 117/112/34 115/110/34 119/111/34
f 115/110/34 113/109/34 119/111/34
f 113/109/34 111/116/34 109/115/34
f 109/115/34 107/118/34 101/119/34
f 107/118/34 105/117/34 101/119/34
f 105/117/34 103/120/34 101/119/34
f 101/119/34 99/122/34 97/121/34
f 97/121/34 95/123/34 93/72/34
f 93/72/34 91/125/34 89/124/34
f 89/124/34 87/126/34 93/72/34
f 87/126/34 85/71/34 93/72/34
f 85/71/34 83/128/34 81/127/34
f 81/127/34 79/129/34 77/70/34
f 77/70/34 75/131/34 69/79/34
f 75/131/34 73/130/34 69/79/34
f 73/130/34 71/133/34 69/79/34
f 69/79/34 67/135/34 1/134/34
f 1/134/34 129/136/34 127/132/34
f 127/132/34 125/137/34 123/114/34
f 123/114/34 121/113/34 127/132/34
f 121/113/34 119/111/34 127/132/34
f 119/111/34 113/109/34 109/115/34
f 69/79/34 1/134/34 127/132/34
f 85/71/34 81/127/34 77/70/34
f 101/119/34 97/121/34 93/72/34
f 119/111/34 109/115/34 101/119/34
f 69/79/34 127/132/34 101/119/34
f 127/132/34 119/111/34 101/119/34
f 85/71/34 77/70/34 69/79/34
f 101/119/34 93/72/34 69/79/34
f 114/74/52 113/138/52 115/73/52
f 133/2/53 134/4/53 132/1/53
f 135/5/54 136/6/54 134/4/54
f 137/7/55 138/8/55 136/6/55
f 139/9/56 140/10/56 138/8/56
f 141/11/57 142/12/57 140/10/57
f 143/13/58 144/14/58 142/12/58
f 145/15/59 146/16/59 144/14/59
f 147/17/60 148/18/60 146/16/60
f 149/19/24 150/20/24 148/18/24
f 151/21/23 152/22/23 150/20/23
f 153/23/22 154/24/22 152/22/22
f 155/25/21 156/26/21 154/24/21
f 157/27/20 158/28/20 156/26/20
f 159/29/19 160/30/19 158/28/19
f 161/31/18 162/32/18 160/30/18
f 33/33/17 34/34/17 162/32/17
f 163/35/16 164/36/16 34/34/16
f 165/37/15 166/38/15 164/36/15
f 167/39/14 168/40/14 166/38/14
f 169/41/13 170/42/13 168/40/13
f 171/43/12 172/44/12 170/42/12
f 173/45/11 174/46/11 172/44/11
f 175/47/10 176/48/10 174/46/10
f 177/49/9 178/80/9 176/48/9
f 181/51/61 182/53/61 180/50/61
f 183/54/62 184/55/62 182/53/62
f 185/56/63 186/57/63 184/55/63
f 187/58/64 188/59/64 186/57/64
f 189/60/65 190/61/65 188/59/65
f 191/62/66 192/66/66 190/61/66
f 174/81/31 176/107/31 178/106/31
f 178/106/31 180/105/31 184/103/31
f 180/105/31 182/104/31 184/103/31
f 184/103/31 186/102/31 190/100/31
f 186/102/31 188/101/31 190/100/31
f 170/83/31 172/82/31 184/103/31
f 172/82/31 174/81/31 184/103/31
f 174/81/31 178/106/31 184/103/31
f 192/78/31 194/99/31 132/98/31
f 184/103/31 190/100/31 192/78/31
f 166/77/31 168/84/31 170/83/31
f 34/86/31 164/85/31 166/77/31
f 160/76/31 162/87/31 34/86/31
f 156/89/31 158/88/31 160/76/31
f 152/63/31 154/90/31 160/76/31
f 154/90/31 156/89/31 160/76/31
f 148/92/31 150/91/31 152/63/31
f 144/64/31 146/93/31 148/92/31
f 140/95/31 142/94/31 136/65/31
f 142/94/31 144/64/31 136/65/31
f 136/65/31 138/96/31 140/95/31
f 132/98/31 134/97/31 136/65/31
f 170/83/31 184/103/31 166/77/31
f 184/103/31 192/78/31 166/77/31
f 192/78/31 132/98/31 136/65/31
f 144/64/31 148/92/31 152/63/31
f 160/76/31 34/86/31 166/77/31
f 192/78/31 136/65/31 160/76/31
f 136/65/31 144/64/31 160/76/31
f 144/64/31 152/63/31 160/76/31
f 193/67/67 194/68/67 192/66/67
f 131/69/68 132/108/68 194/68/68
f 181/112/34 179/110/34 183/111/34
f 179/110/34 177/109/34 183/111/34
f 177/109/34 175/116/34 173/115/34
f 173/115/34 171/118/34 165/119/34
f 171/118/34 169/117/34 165/119/34
f 169/117/34 167/120/34 165/119/34
f 165/119/34 163/122/34 33/121/34
f 33/121/34 161/123/34 159/72/34
f 159/72/34 157/125/34 155/124/34
f 155/124/34 153/126/34 159/72/34
f 153/126/34 151/71/34 159/72/34
f 151/71/34 149/128/34 147/127/34
f 147/127/34 145/129/34 143/70/34
f 143/70/34 141/131/34 135/79/34
f 141/131/34 139/130/34 135/79/34
f 139/130/34 137/133/34 135/79/34
f 135/79/34 133/135/34 131/134/34
f 131/134/34 193/136/34 191/132/34
f 191/132/34 189/137/34 187/114/34
f 187/114/34 185/113/34 191/132/34
f 185/113/34 183/111/34 191/132/34
f 183/111/34 177/109/34 173/115/34
f 135/79/34 131/134/34 191/132/34
f 151/71/34 147/127/34 143/70/34
f 165/119/34 33/121/34 159/72/34
f 183/111/34 173/115/34 165/119/34
f 135/79/34 191/132/34 165/119/34
f 191/132/34 183/111/34 165/119/34
f 151/71/34 143/70/34 135/79/34
f 165/119/34 159/72/34 135/79/34
f 178/74/69 177/138/69 179/73/69
f 132/1/68 196/4/68 195/2/68
f 196/4/67 198/6/67 197/5/67
f 198/6/66 200/8/66 199/7/66
f 200/8/65 202/10/65 201/9/65
f 202/10/64 204/12/64 203/11/64
f 204/12/63 206/14/63 205/13/63
f 206/14/62 208/16/62 207/15/62
f 208/16/61 210/18/61 209/17/61
f 210/18/51 212/20/51 211/19/51
f 212/20/50 214/22/50 213/21/50
f 214/22/49 216/24/49 215/23/49
f 216/24/48 218/26/48 217/25/48
f 218/26/47 220/28/47 219/27/47
f 220/28/46 222/30/46 221/29/46
f 222/30/45 224/32/45 223/31/45
f 224/32/44 98/34/44 97/33/44
f 98/34/43 226/36/43 225/35/43
f 226/36/42 228/38/42 227/37/42
f 228/38/41 230/40/41 229/39/41
f 230/40/40 232/42/40 231/41/40
f 232/42/39 234/44/39 233/43/39
f 234/44/38 236/46/38 235/45/38
f 236/46/37 238/48/37 237/47/37
f 238/48/36 240/80/36 239/49/36
f 242/50/60 244/53/60 243/51/60
f 244/53/59 246/55/59 245/54/59
f 246/55/58 248/57/58 247/56/58
f 248/57/57 250/59/57 249/58/57
f 250/59/56 252/61/56 251/60/56
f 252/61/55 254/66/55 253/62/55
f 236/81/31 234/82/31 228/77/31
f 234/82/31 232/83/31 228/77/31
f 232/83/31 230/84/31 228/77/31
f 228/77/31 226/85/31 98/86/31
f 98/86/31 224/87/31 222/76/31
f 222/76/31 220/88/31 218/89/31
f 218/89/31 216/90/31 228/77/31
f 216/90/31 214/63/31 228/77/31
f 214/63/31 212/91/31 210/92/31
f 210/92/31 208/93/31 206/64/31
f 206/64/31 204/94/31 198/65/31
f 204/94/31 202/95/31 198/65/31
f 202/95/31 200/96/31 198/65/31
f 198/65/31 196/97/31 132/98/31
f 132/98/31 256/99/31 254/78/31
f 254/78/31 252/100/31 250/101/31
f 250/101/31 248/102/31 254/78/31
f 248/102/31 246/103/31 254/78/31
f 246/103/31 244/104/31 242/105/31
f 242/105/31 240/106/31 236/81/31
f 240/106/31 238/107/31 236/81/31
f 246/103/31 242/105/31 236/81/31
f 228/77/31 98/86/31 222/76/31
f 246/103/31 236/81/31 228/77/31
f 198/65/31 132/98/31 254/78/31
f 254/78/31 246/103/31 228/77/31
f 228/77/31 222/76/31 218/89/31
f 214/63/31 210/92/31 206/64/31
f 198/65/31 254/78/31 228/77/31
f 228/77/31 214/63/31 198/65/31
f 254/66/54 256/68/54 255/67/54
f 256/68/53 132/108/53 131/69/53
f 239/109/34 241/110/34 245/111/34
f 241/110/34 243/112/34 245/111/34
f 245/111/34 247/113/34 249/114/34
f 235/115/34 237/116/34 239/109/34
f 231/117/34 233/118/34 227/119/34
f 233/118/34 235/115/34 227/119/34
f 227/119/34 229/120/34 231/117/34
f 97/121/34 225/122/34 227/119/34
f 221/72/34 223/123/34 97/121/34
f 217/124/34 219/125/34 221/72/34
f 213/71/34 215/126/34 221/72/34
f 215/126/34 217/124/34 221/72/34
f 209/127/34 211/128/34 213/71/34
f 205/70/34 207/129/34 209/127/34
f 201/130/34 203/131/34 253/132/34
f 203/131/34 205/70/34 253/132/34
f 197/79/34 199/133/34 201/130/34
f 131/134/34 195/135/34 197/79/34
f 253/132/34 255/136/34 131/134/34
f 249/114/34 251/137/34 253/132/34
f 239/109/34 245/111/34 235/115/34
f 245/111/34 249/114/34 235/115/34
f 253/132/34 131/134/34 197/79/34
f 235/115/34 249/114/34 253/132/34
f 221/72/34 97/121/34 227/119/34
f 227/119/34 235/115/34 253/132/34
f 253/132/34 197/79/34 201/130/34
f 205/70/34 209/127/34 213/71/34
f 221/72/34 227/119/34 253/132/34
f 253/132/34 205/70/34 221/72/34
f 241/73/70 239/138/70 240/74/70
