# Blender 4.4.1
# www.blender.org
mtllib spaceship.mtl
o 円柱
v 8.000000 1.684040 1.879385
v -8.000000 1.684041 1.879385
v 8.000000 1.304246 1.976723
v -8.000000 1.304247 1.976723
v 8.000000 0.912761 1.998097
v -8.000000 0.912762 1.998096
v 8.000000 0.524628 1.942684
v -8.000000 0.524629 1.942684
v 8.000000 0.154763 1.812616
v -8.000000 0.154764 1.812615
v 8.000000 -0.182620 1.612889
v -8.000000 -0.182619 1.612889
v 8.000000 -0.474555 1.351181
v -8.000000 -0.474554 1.351180
v 8.000000 -0.709824 1.037547
v -8.000000 -0.709823 1.037546
v 8.000000 -0.879386 0.684040
v -8.000000 -0.879385 0.684040
v 8.000000 -0.976723 0.304247
v -8.000000 -0.976722 0.304247
v 8.000000 -0.998097 -0.087239
v -8.000000 -0.998096 -0.087239
v 8.000000 -0.942685 -0.475372
v -8.000000 -0.942684 -0.475372
v 8.000000 -0.812616 -0.845236
v -8.000000 -0.812615 -0.845237
v 8.000000 -0.612890 -1.182619
v -8.000000 -0.612889 -1.182619
v 8.000000 -0.351181 -1.474554
v -8.000000 -0.351180 -1.474555
v 8.000000 -0.037547 -1.709823
v -8.000000 -0.037546 -1.709824
v 8.000000 0.315959 -1.879385
v -8.000000 0.315960 -1.879385
v 8.000000 0.695753 -1.976723
v -8.000000 0.695754 -1.976723
v 8.000000 1.087238 -1.998096
v -8.000000 1.087239 -1.998097
v 8.000000 1.475371 -1.942684
v -8.000000 1.475372 -1.942684
v 8.000000 1.845236 -1.812615
v -8.000000 1.845237 -1.812616
v 8.000000 2.182619 -1.612889
v -8.000000 2.182620 -1.612889
v 8.000000 2.474554 -1.351180
v -8.000000 2.474555 -1.351181
v 8.000000 2.709823 -1.037546
v -8.000000 2.709824 -1.037547
v 8.000000 2.879385 -0.684040
v -8.000000 2.879386 -0.684040
v 8.000000 2.976722 -0.304247
v -8.000000 2.976723 -0.304247
v 8.000000 2.998096 0.087239
v -8.000000 2.998097 0.087239
v 8.000000 2.942684 0.475372
v -8.000000 2.942685 0.475372
v 8.000000 2.812615 0.845237
v -8.000000 2.812616 0.845236
v 8.000000 2.612889 1.182619
v -8.000000 2.612890 1.182619
v 8.000000 2.351180 1.474555
v -8.000000 2.351181 1.474554
v 8.000000 2.037546 1.709824
v -8.000000 2.037547 1.709823
v 1.600000 -0.812616 -0.845236
v 1.600000 -0.612889 -1.182619
v 1.600000 -0.351181 -1.474555
v 1.600000 -0.037547 -1.709824
v 1.600000 0.315960 -1.879385
v 1.600000 0.695753 -1.976723
v 1.600000 1.087239 -1.998096
v 1.600000 1.475372 -1.942684
v 1.600000 1.845236 -1.812616
v -1.760000 -0.812615 -0.845236
v -1.760000 -0.612889 -1.182619
v -1.760000 -0.351180 -1.474555
v -1.760000 -0.037546 -1.709824
v -1.760000 0.315960 -1.879385
v -1.760000 0.695753 -1.976723
v -1.760000 1.087239 -1.998096
v -1.760000 1.475372 -1.942684
v -1.760000 1.845237 -1.812616
v -8.000000 1.684040 1.879385
v -8.000000 1.304247 1.976723
v -8.000000 0.912761 1.998097
v -8.000000 0.524628 1.942684
v -8.000000 0.154763 1.812616
v -8.000000 -0.182619 1.612889
v -8.000000 -0.474555 1.351181
v -8.000000 -0.709824 1.037547
v -8.000000 -0.879385 0.684040
v -8.000000 -0.976723 0.304247
v -8.000000 -0.998097 -0.087239
v -8.000000 -0.942684 -0.475372
v -8.000000 -0.812616 -0.845236
v -8.000000 -0.612889 -1.182619
v -8.000000 -0.351181 -1.474554
v -8.000000 -0.037547 -1.709823
v -8.000000 0.315960 -1.879385
v -8.000000 0.695753 -1.976723
v -8.000000 1.087239 -1.998096
v -8.000000 1.475372 -1.942684
v -8.000000 1.845236 -1.812615
v -8.000000 2.182619 -1.612889
v -8.000000 2.474554 -1.351180
v -8.000000 2.709824 -1.037546
v -8.000000 2.879385 -0.684040
v -8.000000 2.976723 -0.304247
v -8.000000 2.998096 0.087239
v -8.000000 2.942684 0.475372
v -8.000000 2.812615 0.845237
v -8.000000 2.612889 1.182619
v -8.000000 2.351180 1.474555
v -8.000000 2.037546 1.709824
v -12.000000 1.000000 0.000000
v 7.946290 1.287819 0.790775
v 7.837440 1.444627 1.221600
v 7.946290 1.128016 0.831731
v 7.837440 1.197761 1.284870
v 7.946290 0.963293 0.840725
v 7.837440 0.943295 1.298763
v 7.946290 0.799981 0.817409
v 7.837440 0.691009 1.262745
v 7.946290 0.644356 0.762681
v 7.837440 0.450597 1.178200
v 7.946290 0.502398 0.678644
v 7.837440 0.231298 1.048378
v 7.946290 0.379562 0.568526
v 7.837440 0.041540 0.878267
v 7.946290 0.280570 0.436561
v 7.837440 -0.111385 0.674405
v 7.946290 0.209224 0.287818
v 7.837440 -0.221600 0.444626
v 7.946290 0.168268 0.128015
v 7.837440 -0.284870 0.197760
v 7.946290 0.159275 -0.036707
v 7.837440 -0.298762 -0.056705
v 7.946290 0.182591 -0.200019
v 7.837440 -0.262744 -0.308992
v 7.946290 0.237319 -0.355644
v 7.837440 -0.178200 -0.549404
v 7.946290 0.321356 -0.497602
v 7.837440 -0.048378 -0.768703
v 7.946290 0.431473 -0.620438
v 7.837440 0.121733 -0.958461
v 7.946290 0.563439 -0.719431
v 7.837440 0.325595 -1.111385
v 7.946290 0.712181 -0.790776
v 7.837440 0.555374 -1.221601
v 7.946290 0.871984 -0.831732
v 7.837440 0.802240 -1.284870
v 7.946290 1.036707 -0.840725
v 7.837440 1.056706 -1.298763
v 7.946290 1.200019 -0.817410
v 7.837440 1.308992 -1.262745
v 7.946290 1.355644 -0.762681
v 7.837440 1.549404 -1.178200
v 7.946290 1.497602 -0.678644
v 7.837440 1.768703 -1.048378
v 7.946290 1.620438 -0.568527
v 7.837440 1.958461 -0.878267
v 7.946290 1.719430 -0.436561
v 7.837440 2.111386 -0.674405
v 7.946290 1.790775 -0.287819
v 7.837440 2.221601 -0.444626
v 7.946290 1.831732 -0.128016
v 7.837440 2.284871 -0.197760
v 7.946290 1.840725 0.036707
v 7.837440 2.298763 0.056705
v 7.946290 1.817409 0.200019
v 7.837440 2.262745 0.308992
v 7.946290 1.762681 0.355644
v 7.837440 2.178201 0.549404
v 7.946290 1.678644 0.497602
v 7.837440 2.048378 0.768703
v 7.946290 1.568526 0.620438
v 7.837440 1.878268 0.958461
v 7.946290 1.436561 0.719430
v 7.837440 1.674406 1.111385
v 9.137440 1.755865 2.076720
v 9.137440 1.336193 2.184279
v 9.137440 0.903601 2.207896
v 9.137440 0.474714 2.146666
v 9.137440 0.066013 2.002940
v 9.137440 -0.306795 1.782242
v 9.137440 -0.629383 1.493054
v 9.137440 -0.889355 1.146489
v 9.137440 -1.076721 0.755864
v 9.137440 -1.184279 0.336193
v 9.137440 -1.207897 -0.096399
v 9.137440 -1.146666 -0.525286
v 9.137440 -1.002941 -0.933987
v 9.137440 -0.782243 -1.306795
v 9.137440 -0.493055 -1.629383
v 9.137440 -0.146489 -1.889356
v 9.137440 0.244135 -2.076721
v 9.137440 0.663807 -2.184279
v 9.137440 1.096399 -2.207897
v 9.137440 1.525286 -2.146667
v 9.137440 1.933986 -2.002941
v 9.137440 2.306794 -1.782243
v 9.137440 2.629383 -1.493055
v 9.137440 2.889355 -1.146489
v 9.137440 3.076721 -0.755865
v 9.137440 3.184279 -0.336193
v 9.137440 3.207896 0.096399
v 9.137440 3.146666 0.525286
v 9.137440 3.002940 0.933986
v 9.137440 2.782243 1.306794
v 9.137440 2.493054 1.629383
v 9.137440 2.146489 1.889355
v 9.246291 1.648101 1.780642
v 9.246291 1.288261 1.872866
v 9.246291 0.917345 1.893116
v 9.246291 0.549604 1.840615
v 9.246291 0.199172 1.717380
v 9.246291 -0.120485 1.528148
v 9.246291 -0.397081 1.280189
v 9.246291 -0.619990 0.983033
v 9.246291 -0.780643 0.648101
v 9.246291 -0.872866 0.288261
v 9.246291 -0.893116 -0.082656
v 9.246291 -0.840616 -0.450396
v 9.246291 -0.717381 -0.800828
v 9.246291 -0.528148 -1.120485
v 9.246291 -0.280190 -1.397082
v 9.246291 0.016966 -1.619990
v 9.246291 0.351899 -1.780642
v 9.246291 0.711738 -1.872866
v 9.246291 1.082655 -1.893117
v 9.246291 1.450396 -1.840616
v 9.246291 1.800828 -1.717381
v 9.246291 2.120484 -1.528148
v 9.246291 2.397081 -1.280190
v 9.246291 2.619989 -0.983034
v 9.246291 2.780642 -0.648101
v 9.246291 2.872866 -0.288262
v 9.246291 2.893116 0.082655
v 9.246291 2.840615 0.450396
v 9.246291 2.717381 0.800827
v 9.246291 2.528148 1.120484
v 9.246291 2.280189 1.397081
v 9.246291 1.983034 1.619989
vn -0.0000 0.2483 0.9687
vn -0.0000 0.0545 0.9985
vn -0.0000 -0.1413 0.9900
vn -0.0000 -0.3317 0.9434
vn -0.0000 -0.5094 0.8605
vn -0.0000 -0.6675 0.7446
vn -0.0000 -0.7999 0.6001
vn -0.0000 -0.9016 0.4325
vn -0.0000 -0.9687 0.2483
vn -0.0000 -0.9985 0.0545
vn -0.0000 -0.9900 -0.1413
vn -0.0000 -0.8605 -0.5094
vn -0.0000 -0.7446 -0.6675
vn -0.0000 -0.6001 -0.7999
vn -0.0000 -0.4325 -0.9016
vn -0.0000 -0.2483 -0.9687
vn -0.0000 -0.0545 -0.9985
vn -0.0000 0.1413 -0.9900
vn -0.0000 0.3317 -0.9434
vn -0.0000 -0.9434 -0.3318
vn -0.0000 0.5094 -0.8605
vn -0.0000 0.6675 -0.7446
vn -0.0000 0.7999 -0.6001
vn -0.0000 0.9016 -0.4325
vn -0.0000 0.9687 -0.2483
vn -0.0000 0.9985 -0.0545
vn -0.0000 0.9900 0.1413
vn -0.0000 0.9434 0.3318
vn -0.0000 0.8605 0.5094
vn -1.0000 -0.0000 -0.0000
vn -0.0000 0.7446 0.6675
vn -0.0000 0.6001 0.7999
vn 1.0000 -0.0000 -0.0000
vn -0.0000 0.4325 0.9016
vn -0.4455 0.2223 0.8673
vn -0.4455 0.0488 0.8940
vn -0.4455 -0.1265 0.8863
vn -0.4455 -0.2970 0.8446
vn -0.4455 -0.4561 0.7704
vn -0.4455 -0.5976 0.6666
vn -0.4455 -0.7162 0.5372
vn -0.4455 -0.8072 0.3872
vn -0.4455 -0.8673 0.2223
vn -0.4455 -0.8940 0.0488
vn -0.4455 -0.8863 -0.1265
vn -0.4455 -0.8446 -0.2970
vn -0.4455 -0.7704 -0.4561
vn -0.4455 -0.6666 -0.5976
vn -0.4455 -0.5372 -0.7162
vn -0.4455 -0.3872 -0.8072
vn -0.4455 -0.2223 -0.8673
vn -0.4455 -0.0488 -0.8940
vn -0.4455 0.1265 -0.8863
vn -0.4455 0.2970 -0.8446
vn -0.4455 0.4561 -0.7704
vn -0.4455 0.5976 -0.6666
vn -0.4455 0.7162 -0.5372
vn -0.4455 0.8072 -0.3872
vn -0.4455 0.8673 -0.2223
vn -0.4455 0.8940 -0.0488
vn -0.4455 0.8863 0.1265
vn -0.4455 0.8446 0.2970
vn -0.4455 0.7704 0.4561
vn -0.4455 0.6666 0.5976
vn -0.4455 0.5372 0.7162
vn -0.4455 0.3872 0.8072
vn -0.5716 0.2037 0.7948
vn -0.5716 0.0447 0.8193
vn -0.5716 -0.1160 0.8123
vn -0.5716 -0.2722 0.7741
vn -0.5716 -0.4180 0.7061
vn -0.5716 -0.5477 0.6110
vn -0.5716 -0.6564 0.4924
vn -0.5716 -0.7398 0.3549
vn -0.5716 -0.7948 0.2037
vn -0.5716 -0.8193 0.0447
vn -0.5716 -0.8123 -0.1160
vn -0.5716 -0.7741 -0.2722
vn -0.5716 -0.7061 -0.4180
vn -0.5716 -0.6110 -0.5477
vn -0.5716 -0.4924 -0.6564
vn -0.5716 -0.3549 -0.7398
vn -0.5716 -0.2037 -0.7948
vn -0.5716 -0.0447 -0.8193
vn -0.5716 0.1160 -0.8123
vn -0.5716 0.2722 -0.7741
vn -0.5716 0.4180 -0.7061
vn -0.5716 0.5477 -0.6110
vn -0.5716 0.6564 -0.4924
vn -0.5716 0.7398 -0.3549
vn -0.5716 0.7948 -0.2037
vn -0.5716 0.8193 -0.0447
vn -0.5716 0.8123 0.1160
vn -0.5716 0.7741 0.2722
vn -0.5716 0.7061 0.4180
vn -0.5716 0.6110 0.5477
vn -0.5716 0.4924 0.6564
vn -0.5716 0.3549 0.7398
vn 0.9447 0.0814 0.3177
vn 0.9447 0.0179 0.3275
vn 0.9447 -0.0463 0.3246
vn 0.9447 -0.1088 0.3094
vn 0.9447 -0.1671 0.2822
vn 0.9447 -0.2189 0.2442
vn 0.9447 -0.2623 0.1968
vn 0.9447 -0.2957 0.1418
vn 0.9447 -0.3177 0.0814
vn 0.9447 -0.3275 0.0179
vn 0.9447 -0.3247 -0.0464
vn 0.9447 -0.3094 -0.1088
vn 0.9447 -0.2822 -0.1671
vn 0.9447 -0.2442 -0.2189
vn 0.9447 -0.1968 -0.2623
vn 0.9447 -0.1418 -0.2957
vn 0.9447 -0.0814 -0.3177
vn 0.9447 -0.0179 -0.3275
vn 0.9447 0.0463 -0.3247
vn 0.9447 0.1088 -0.3094
vn 0.9447 0.1671 -0.2822
vn 0.9447 0.2189 -0.2442
vn 0.9447 0.2623 -0.1968
vn 0.9447 0.2957 -0.1418
vn 0.9447 0.3177 -0.0814
vn 0.9447 0.3275 -0.0179
vn 0.9447 0.3247 0.0464
vn 0.9447 0.3094 0.1088
vn 0.9447 0.2822 0.1671
vn 0.9447 0.2442 0.2189
vn 0.9447 0.1968 0.2623
vn 0.9447 0.1418 0.2957
vn 0.6277 -0.1933 -0.7541
vn 0.6277 -0.0424 -0.7773
vn 0.6277 0.1100 -0.7706
vn 0.6277 0.2582 -0.7343
vn 0.6277 0.3965 -0.6699
vn 0.6277 0.5196 -0.5796
vn 0.6277 0.6227 -0.4671
vn 0.6277 0.7019 -0.3367
vn 0.6277 0.7541 -0.1933
vn 0.6277 0.7773 -0.0424
vn 0.6277 0.7706 0.1100
vn 0.6277 0.7343 0.2582
vn 0.6277 0.6699 0.3965
vn 0.6277 0.5796 0.5196
vn 0.6277 0.4671 0.6227
vn 0.6277 0.3367 0.7019
vn 0.6277 0.1933 0.7541
vn 0.6277 0.0424 0.7773
vn 0.6277 -0.1100 0.7706
vn 0.6277 -0.2582 0.7343
vn 0.6277 -0.3965 0.6699
vn 0.6277 -0.5196 0.5796
vn 0.6277 -0.6227 0.4671
vn 0.6277 -0.7019 0.3367
vn 0.6277 -0.7541 0.1933
vn 0.6277 -0.7773 0.0424
vn 0.6277 -0.7706 -0.1100
vn 0.6277 -0.7343 -0.2582
vn 0.6277 -0.6699 -0.3965
vn 0.6277 -0.5796 -0.5196
vn 0.6277 -0.4671 -0.6227
vn 0.6277 -0.3367 -0.7019
vn -0.0000 -0.9434 -0.3317
vn -0.0000 0.3318 -0.9434
vn 0.9447 -0.0463 0.3247
vt 0.263270 0.261485
vt 0.286047 0.520501
vt 0.260683 0.520248
vt 0.288633 0.261738
vt 0.311410 0.520755
vt 0.313997 0.261992
vt 0.336773 0.521008
vt 0.339360 0.262245
vt 0.362136 0.521262
vt 0.364723 0.262499
vt 0.387499 0.521515
vt 0.390086 0.262753
vt 0.412863 0.521769
vt 0.415449 0.263006
vt 0.438226 0.522022
vt 0.440813 0.263260
vt 0.463589 0.522276
vt 0.466176 0.263513
vt 0.488952 0.522530
vt 0.491539 0.263767
vt 0.514315 0.522783
vt 0.516902 0.264020
vt 0.539679 0.523037
vt 0.567255 0.264333
vt 0.594187 0.366414
vt 0.567012 0.366683
vt 0.596403 0.264551
vt 0.619703 0.365494
vt 0.621225 0.264999
vt 0.645091 0.365553
vt 0.646023 0.265236
vt 0.670537 0.365689
vt 0.670859 0.265282
vt 0.696038 0.365880
vt 0.695752 0.265141
vt 0.721609 0.366111
vt 0.720714 0.264794
vt 0.748444 0.365827
vt 0.749852 0.264659
vt 0.773914 0.365364
vt 0.542265 0.264274
vt 0.566345 0.420062
vt 0.773717 0.419132
vt 0.799580 0.265019
vt 0.824988 0.524234
vt 0.799580 0.524234
vt 0.009638 0.258949
vt 0.032415 0.517966
vt 0.007052 0.517712
vt 0.035002 0.259203
vt 0.057778 0.518219
vt 0.060365 0.259456
vt 0.083141 0.518473
vt 0.085728 0.259710
vt 0.108504 0.518726
vt 0.111091 0.259964
vt 0.133867 0.518980
vt 0.136454 0.260217
vt 0.159231 0.519233
vt 0.161817 0.260471
vt 0.184594 0.519487
vt 0.730062 0.236223
vt 0.712096 0.053813
vt 0.894506 0.035847
vt 0.187181 0.260724
vt 0.209957 0.519741
vt 0.212544 0.260978
vt 0.235320 0.519994
vt 0.688257 0.615595
vt 0.849907 0.529191
vt 0.936311 0.690841
vt 0.746725 0.419533
vt 0.774299 0.524400
vt 0.744833 0.524327
vt 0.721113 0.420057
vt 0.719752 0.523929
vt 0.695643 0.419942
vt 0.694673 0.523703
vt 0.670177 0.419712
vt 0.669565 0.523638
vt 0.644693 0.419367
vt 0.644423 0.523740
vt 0.617695 0.419586
vt 0.619053 0.523959
vt 0.591432 0.419739
vt 0.589658 0.523848
vt 0.564669 0.523397
vt 0.237907 0.261231
vt 0.748445 0.365853
vt 0.746725 0.419507
vt 0.591432 0.419713
vt 0.493384 0.791657
vt 0.614429 0.856358
vt 0.483087 0.816515
vt 0.477838 0.842904
vt 0.477838 0.869810
vt 0.483087 0.896199
vt 0.493383 0.921057
vt 0.508331 0.943429
vt 0.527357 0.962454
vt 0.549728 0.977403
vt 0.574586 0.987699
vt 0.600975 0.992948
vt 0.627881 0.992948
vt 0.654270 0.987699
vt 0.679128 0.977403
vt 0.701500 0.962455
vt 0.720525 0.943429
vt 0.735474 0.921058
vt 0.745770 0.896200
vt 0.751019 0.869811
vt 0.751019 0.842905
vt 0.745770 0.816516
vt 0.735474 0.791658
vt 0.720526 0.769286
vt 0.701500 0.750261
vt 0.679129 0.735313
vt 0.654271 0.725016
vt 0.627882 0.719767
vt 0.600976 0.719767
vt 0.574587 0.725016
vt 0.549729 0.735312
vt 0.527357 0.750261
vt 0.508332 0.769286
vt 0.433082 0.699546
vt 0.488254 0.741465
vt 0.428094 0.710617
vt 0.476911 0.764180
vt 0.421342 0.720907
vt 0.460774 0.785201
vt 0.412323 0.729581
vt 0.440040 0.803483
vt 0.401868 0.736725
vt 0.415044 0.817973
vt 0.390117 0.741737
vt 0.386200 0.820176
vt 0.377341 0.744432
vt 0.357926 0.823760
vt 0.364006 0.744202
vt 0.328215 0.821782
vt 0.350833 0.741639
vt 0.298068 0.813675
vt 0.338493 0.735982
vt 0.268718 0.799063
vt 0.327291 0.728115
vt 0.241500 0.777674
vt 0.317981 0.717979
vt 0.218027 0.749449
vt 0.311018 0.706184
vt 0.306688 0.693118
vt 0.210391 0.713594
vt 0.304811 0.679353
vt 0.210391 0.678499
vt 0.306357 0.665589
vt 0.217267 0.645507
vt 0.310400 0.652459
vt 0.230228 0.615644
vt 0.317013 0.640624
vt 0.248355 0.589845
vt 0.325778 0.630413
vt 0.270549 0.568785
vt 0.336508 0.622569
vt 0.295697 0.552964
vt 0.348259 0.616767
vt 0.322752 0.542693
vt 0.360758 0.613379
vt 0.350559 0.538013
vt 0.373591 0.612800
vt 0.378008 0.538715
vt 0.386106 0.614711
vt 0.428091 0.554940
vt 0.397958 0.618585
vt 0.408526 0.624899
vt 0.449079 0.569353
vt 0.417843 0.632724
vt 0.479909 0.607108
vt 0.425515 0.642039
vt 0.431026 0.652681
vt 0.494078 0.650817
vt 0.434882 0.663963
vt 0.495026 0.672743
vt 0.436754 0.675824
vt 0.496988 0.694880
vt 0.435941 0.687849
vt 0.494870 0.718057
vt 0.359280 0.657988
vt 0.377538 0.654461
vt 0.396514 0.681948
vt 0.424664 0.696786
vt 0.420361 0.706299
vt 0.414297 0.715017
vt 0.406599 0.722495
vt 0.397557 0.728435
vt 0.387316 0.732596
vt 0.376318 0.734780
vt 0.365051 0.734604
vt 0.353893 0.732185
vt 0.343401 0.727463
vt 0.334028 0.720727
vt 0.326169 0.712107
vt 0.320235 0.701977
vt 0.316469 0.690874
vt 0.315015 0.679222
vt 0.316110 0.667567
vt 0.319479 0.656482
vt 0.325055 0.646378
vt 0.332548 0.637642
vt 0.341525 0.630708
vt 0.351513 0.625731
vt 0.362301 0.622853
vt 0.373320 0.622150
vt 0.384036 0.623566
vt 0.394188 0.626943
vt 0.403424 0.632157
vt 0.411443 0.638887
vt 0.418064 0.647001
vt 0.423049 0.656111
vt 0.426297 0.665892
vt 0.427716 0.676223
vt 0.427139 0.686657
vt 0.395422 0.686458
vt 0.393477 0.690660
vt 0.390740 0.694413
vt 0.387311 0.697568
vt 0.383302 0.700035
vt 0.378866 0.701679
vt 0.374164 0.702430
vt 0.369391 0.702245
vt 0.364702 0.701056
vt 0.360313 0.698963
vt 0.356400 0.696041
vt 0.353131 0.692400
vt 0.350667 0.688146
vt 0.349084 0.683491
vt 0.348443 0.678629
vt 0.348770 0.673750
vt 0.350176 0.669091
vt 0.352467 0.664803
vt 0.355544 0.661053
vt 0.363522 0.655757
vt 0.368101 0.654401
vt 0.372833 0.653966
vt 0.382027 0.655774
vt 0.386148 0.657925
vt 0.389744 0.660814
vt 0.392700 0.664340
vt 0.394919 0.668357
vt 0.396312 0.672734
vt 0.396867 0.677319
vt 0.774710 0.264894
vt 0.824988 0.265019
vt 0.912472 0.053813
vt 0.926588 0.074939
vt 0.936311 0.098412
vt 0.941268 0.123331
vt 0.941268 0.148739
vt 0.936311 0.173658
vt 0.926588 0.197132
vt 0.912472 0.218257
vt 0.894506 0.236223
vt 0.873381 0.250339
vt 0.849907 0.260062
vt 0.774661 0.260062
vt 0.751187 0.250339
vt 0.712096 0.218257
vt 0.683300 0.148739
vt 0.697980 0.197132
vt 0.688257 0.173658
vt 0.683300 0.123331
vt 0.688257 0.098412
vt 0.697980 0.074938
vt 0.730062 0.035847
vt 0.799580 0.007052
vt 0.751187 0.021731
vt 0.774661 0.012008
vt 0.824988 0.007052
vt 0.849907 0.012008
vt 0.873381 0.021731
vt 0.926588 0.714315
vt 0.912472 0.735440
vt 0.894506 0.753406
vt 0.873381 0.767522
vt 0.849907 0.777245
vt 0.824988 0.782201
vt 0.799580 0.782201
vt 0.774661 0.777245
vt 0.751187 0.767522
vt 0.730062 0.753406
vt 0.712096 0.735440
vt 0.697980 0.714315
vt 0.688257 0.690841
vt 0.683300 0.665922
vt 0.683300 0.640514
vt 0.697980 0.592121
vt 0.712096 0.570996
vt 0.730062 0.553030
vt 0.751187 0.538914
vt 0.774661 0.529191
vt 0.873381 0.538914
vt 0.894506 0.553030
vt 0.912472 0.570996
vt 0.926588 0.592121
vt 0.936311 0.615595
vt 0.941268 0.640514
vt 0.941268 0.665922
vt 0.594188 0.366440
vt 0.404139 0.544517
vt 0.466489 0.587038
vt 0.489107 0.628661
s 0
usemtl Material
f 2/1/1 3/2/1 1/3/1
f 4/4/2 5/5/2 3/2/2
f 6/6/3 7/7/3 5/5/3
f 8/8/4 9/9/4 7/7/4
f 10/10/5 11/11/5 9/9/5
f 12/12/6 13/13/6 11/11/6
f 14/14/7 15/15/7 13/13/7
f 16/16/8 17/17/8 15/15/8
f 18/18/9 19/19/9 17/17/9
f 20/20/10 21/21/10 19/19/10
f 22/22/11 23/23/11 21/21/11
f 26/24/12 75/25/12 74/26/12
f 28/27/13 76/28/13 75/25/13
f 30/29/14 77/30/14 76/28/14
f 32/31/15 78/32/15 77/30/15
f 34/33/16 79/34/16 78/32/16
f 36/35/17 80/36/17 79/34/17
f 38/37/18 81/38/18 80/36/18
f 40/39/19 82/40/19 81/38/19
f 24/41/20 74/26/20 65/42/20
f 73/43/21 82/40/21 44/44/21
f 44/44/22 45/45/22 43/46/22
f 46/47/23 47/48/23 45/49/23
f 48/50/24 49/51/24 47/48/24
f 50/52/25 51/53/25 49/51/25
f 52/54/26 53/55/26 51/53/26
f 54/56/27 55/57/27 53/55/27
f 56/58/28 57/59/28 55/57/28
f 58/60/29 59/61/29 57/59/29
f 38/62/30 22/63/30 6/64/30
f 60/65/31 61/66/31 59/61/31
f 62/67/32 63/68/32 61/66/32
f 31/69/33 47/70/33 63/71/33
f 72/72/19 41/73/19 39/74/19
f 71/75/18 39/74/18 37/76/18
f 70/77/17 37/76/17 35/78/17
f 69/79/16 35/78/16 33/80/16
f 68/81/15 33/80/15 31/82/15
f 67/83/14 31/82/14 29/84/14
f 66/85/13 29/84/13 27/86/13
f 65/42/12 27/86/12 25/87/12
f 64/88/34 1/3/34 63/68/34
f 81/89/19 73/43/19 72/90/19
f 74/26/12 66/91/12 65/42/12
f 83/92/35 115/93/35 84/94/35
f 84/94/36 115/93/36 85/95/36
f 85/95/37 115/93/37 86/96/37
f 86/96/38 115/93/38 87/97/38
f 87/97/39 115/93/39 88/98/39
f 88/98/40 115/93/40 89/99/40
f 89/99/41 115/93/41 90/100/41
f 90/100/42 115/93/42 91/101/42
f 91/101/43 115/93/43 92/102/43
f 92/102/44 115/93/44 93/103/44
f 93/103/45 115/93/45 94/104/45
f 94/104/46 115/93/46 95/105/46
f 95/105/47 115/93/47 96/106/47
f 96/106/48 115/93/48 97/107/48
f 97/107/49 115/93/49 98/108/49
f 98/108/50 115/93/50 99/109/50
f 99/109/51 115/93/51 100/110/51
f 100/110/52 115/93/52 101/111/52
f 101/111/53 115/93/53 102/112/53
f 102/112/54 115/93/54 103/113/54
f 103/113/55 115/93/55 104/114/55
f 104/114/56 115/93/56 105/115/56
f 105/115/57 115/93/57 106/116/57
f 106/116/58 115/93/58 107/117/58
f 107/117/59 115/93/59 108/118/59
f 108/118/60 115/93/60 109/119/60
f 109/119/61 115/93/61 110/120/61
f 110/120/62 115/93/62 111/121/62
f 111/121/63 115/93/63 112/122/63
f 112/122/64 115/93/64 113/123/64
f 113/123/65 115/93/65 114/124/65
f 114/124/66 115/93/66 83/92/66
f 180/125/67 119/126/67 181/127/67
f 181/127/68 121/128/68 182/129/68
f 182/129/69 123/130/69 183/131/69
f 183/131/70 125/132/70 184/133/70
f 184/133/71 127/134/71 185/135/71
f 185/135/72 129/136/72 186/137/72
f 186/137/73 131/138/73 187/139/73
f 187/139/74 133/140/74 188/141/74
f 188/141/75 135/142/75 189/143/75
f 189/143/76 137/144/76 190/145/76
f 190/145/77 139/146/77 191/147/77
f 191/147/78 141/148/78 192/149/78
f 141/148/79 193/150/79 192/149/79
f 143/151/80 194/152/80 193/150/80
f 145/153/81 195/154/81 194/152/81
f 147/155/82 196/156/82 195/154/82
f 149/157/83 197/158/83 196/156/83
f 151/159/84 198/160/84 197/158/84
f 153/161/85 199/162/85 198/160/85
f 155/163/86 200/164/86 199/162/86
f 157/165/87 201/166/87 200/164/87
f 159/167/88 202/168/88 201/166/88
f 161/169/89 203/170/89 202/168/89
f 203/170/90 165/171/90 204/172/90
f 165/171/91 205/173/91 204/172/91
f 167/174/92 206/175/92 205/173/92
f 206/175/93 171/176/93 207/177/93
f 171/176/94 208/178/94 207/177/94
f 208/178/95 175/179/95 209/180/95
f 209/180/96 177/181/96 210/182/96
f 210/182/97 179/183/97 211/184/97
f 211/184/98 117/185/98 180/125/98
f 154/186/33 162/187/33 178/188/33
f 212/189/99 181/127/99 213/190/99
f 213/190/100 182/129/100 214/191/100
f 214/191/101 183/131/101 215/192/101
f 215/192/102 184/133/102 216/193/102
f 216/193/103 185/135/103 217/194/103
f 217/194/104 186/137/104 218/195/104
f 218/195/105 187/139/105 219/196/105
f 220/197/106 187/139/106 188/141/106
f 220/197/107 189/143/107 221/198/107
f 222/199/108 189/143/108 190/145/108
f 223/200/109 190/145/109 191/147/109
f 224/201/110 191/147/110 192/149/110
f 224/201/111 193/150/111 225/202/111
f 226/203/112 193/150/112 194/152/112
f 226/203/113 195/154/113 227/204/113
f 227/204/114 196/156/114 228/205/114
f 229/206/115 196/156/115 197/158/115
f 229/206/116 198/160/116 230/207/116
f 230/207/117 199/162/117 231/208/117
f 232/209/118 199/162/118 200/164/118
f 233/210/119 200/164/119 201/166/119
f 233/210/120 202/168/120 234/211/120
f 234/211/121 203/170/121 235/212/121
f 236/213/122 203/170/122 204/172/122
f 236/213/123 205/173/123 237/214/123
f 238/215/124 205/173/124 206/175/124
f 239/216/125 206/175/125 207/177/125
f 239/216/126 208/178/126 240/217/126
f 241/218/127 208/178/127 209/180/127
f 242/219/128 209/180/128 210/182/128
f 243/220/129 210/182/129 211/184/129
f 243/220/130 180/125/130 212/189/130
f 116/221/131 213/190/131 118/222/131
f 120/223/132 213/190/132 214/191/132
f 120/223/133 215/192/133 122/224/133
f 124/225/134 215/192/134 216/193/134
f 124/225/135 217/194/135 126/226/135
f 126/226/136 218/195/136 128/227/136
f 128/227/137 219/196/137 130/228/137
f 132/229/138 219/196/138 220/197/138
f 132/229/139 221/198/139 134/230/139
f 136/231/140 221/198/140 222/199/140
f 138/232/141 222/199/141 223/200/141
f 140/233/142 223/200/142 224/201/142
f 140/233/143 225/202/143 142/234/143
f 144/235/144 225/202/144 226/203/144
f 144/235/145 227/204/145 146/236/145
f 146/236/146 228/205/146 148/237/146
f 150/238/147 228/205/147 229/206/147
f 152/239/148 229/206/148 230/207/148
f 152/239/149 231/208/149 154/186/149
f 154/186/150 232/209/150 156/240/150
f 158/241/151 232/209/151 233/210/151
f 158/241/152 234/211/152 160/242/152
f 160/242/153 235/212/153 162/187/153
f 164/243/154 235/212/154 236/213/154
f 164/243/155 237/214/155 166/244/155
f 168/245/156 237/214/156 238/215/156
f 170/246/157 238/215/157 239/216/157
f 170/246/158 240/217/158 172/247/158
f 174/248/159 240/217/159 241/218/159
f 176/249/160 241/218/160 242/219/160
f 176/249/161 243/220/161 178/188/161
f 178/188/162 212/189/162 116/221/162
f 2/1/1 4/4/1 3/2/1
f 4/4/2 6/6/2 5/5/2
f 6/6/3 8/8/3 7/7/3
f 8/8/4 10/10/4 9/9/4
f 10/10/5 12/12/5 11/11/5
f 12/12/6 14/14/6 13/13/6
f 14/14/7 16/16/7 15/15/7
f 16/16/8 18/18/8 17/17/8
f 18/18/9 20/20/9 19/19/9
f 20/20/10 22/22/10 21/21/10
f 22/22/11 24/41/11 23/23/11
f 26/24/12 28/27/12 75/25/12
f 28/27/13 30/29/13 76/28/13
f 30/29/14 32/31/14 77/30/14
f 32/31/15 34/33/15 78/32/15
f 34/33/16 36/35/16 79/34/16
f 36/35/17 38/37/17 80/36/17
f 38/37/18 40/39/18 81/38/18
f 40/39/19 42/250/19 82/40/19
f 25/87/163 23/23/163 65/42/163
f 23/23/163 24/41/163 65/42/163
f 24/41/163 26/24/163 74/26/163
f 82/40/21 42/250/21 44/44/21
f 44/44/21 43/46/21 73/43/21
f 43/46/21 41/73/21 73/43/21
f 44/44/22 46/251/22 45/45/22
f 46/47/23 48/50/23 47/48/23
f 48/50/24 50/52/24 49/51/24
f 50/52/25 52/54/25 51/53/25
f 52/54/26 54/56/26 53/55/26
f 54/56/27 56/58/27 55/57/27
f 56/58/28 58/60/28 57/59/28
f 58/60/29 60/65/29 59/61/29
f 6/64/30 4/252/30 2/253/30
f 2/253/30 64/254/30 6/64/30
f 64/254/30 62/255/30 6/64/30
f 62/255/30 60/256/30 58/257/30
f 58/257/30 56/258/30 54/259/30
f 54/259/30 52/260/30 50/261/30
f 50/261/30 48/262/30 54/259/30
f 48/262/30 46/251/30 54/259/30
f 46/251/30 44/44/30 42/263/30
f 42/263/30 40/264/30 38/62/30
f 38/62/30 36/265/30 30/266/30
f 36/265/30 34/267/30 30/266/30
f 34/267/30 32/268/30 30/266/30
f 30/266/30 28/269/30 26/270/30
f 26/270/30 24/271/30 22/63/30
f 22/63/30 20/272/30 14/273/30
f 20/272/30 18/274/30 14/273/30
f 18/274/30 16/275/30 14/273/30
f 14/273/30 12/276/30 10/277/30
f 10/277/30 8/278/30 6/64/30
f 62/255/30 58/257/30 6/64/30
f 58/257/30 54/259/30 6/64/30
f 46/251/30 42/263/30 54/259/30
f 42/263/30 38/62/30 54/259/30
f 30/266/30 26/270/30 38/62/30
f 26/270/30 22/63/30 38/62/30
f 14/273/30 10/277/30 22/63/30
f 10/277/30 6/64/30 22/63/30
f 6/64/30 54/259/30 38/62/30
f 60/65/31 62/67/31 61/66/31
f 62/67/32 64/88/32 63/68/32
f 63/71/33 1/279/33 3/280/33
f 3/280/33 5/281/33 7/282/33
f 7/282/33 9/283/33 11/284/33
f 11/284/33 13/285/33 15/286/33
f 15/286/33 17/287/33 19/288/33
f 19/288/33 21/289/33 23/290/33
f 23/290/33 25/291/33 27/292/33
f 27/292/33 29/293/33 31/69/33
f 31/69/33 33/294/33 35/295/33
f 35/295/33 37/296/33 39/297/33
f 39/297/33 41/298/33 43/46/33
f 43/46/33 45/45/33 47/70/33
f 47/70/33 49/299/33 51/300/33
f 51/300/33 53/301/33 55/302/33
f 55/302/33 57/303/33 59/304/33
f 59/304/33 61/305/33 63/71/33
f 63/71/33 3/280/33 15/286/33
f 3/280/33 7/282/33 15/286/33
f 7/282/33 11/284/33 15/286/33
f 15/286/33 19/288/33 31/69/33
f 19/288/33 23/290/33 31/69/33
f 23/290/33 27/292/33 31/69/33
f 31/69/33 35/295/33 47/70/33
f 35/295/33 39/297/33 47/70/33
f 39/297/33 43/46/33 47/70/33
f 47/70/33 51/300/33 63/71/33
f 51/300/33 55/302/33 63/71/33
f 55/302/33 59/304/33 63/71/33
f 63/71/33 15/286/33 31/69/33
f 72/72/164 73/43/164 41/73/164
f 71/75/18 72/72/18 39/74/18
f 70/77/17 71/75/17 37/76/17
f 69/79/16 70/77/16 35/78/16
f 68/81/15 69/79/15 33/80/15
f 67/83/14 68/81/14 31/82/14
f 66/85/13 67/83/13 29/84/13
f 65/42/12 66/85/12 27/86/12
f 64/88/34 2/1/34 1/3/34
f 81/89/164 82/40/164 73/43/164
f 74/26/12 75/306/12 66/91/12
f 180/125/67 117/185/67 119/126/67
f 181/127/68 119/126/68 121/128/68
f 182/129/69 121/128/69 123/130/69
f 183/131/70 123/130/70 125/132/70
f 184/133/71 125/132/71 127/134/71
f 185/135/72 127/134/72 129/136/72
f 186/137/73 129/136/73 131/138/73
f 187/139/74 131/138/74 133/140/74
f 188/141/75 133/140/75 135/142/75
f 189/143/76 135/142/76 137/144/76
f 190/145/77 137/144/77 139/146/77
f 191/147/78 139/146/78 141/148/78
f 141/148/79 143/151/79 193/150/79
f 143/151/80 145/153/80 194/152/80
f 145/153/81 147/155/81 195/154/81
f 147/155/82 149/157/82 196/156/82
f 149/157/83 151/159/83 197/158/83
f 151/159/84 153/161/84 198/160/84
f 153/161/85 155/163/85 199/162/85
f 155/163/86 157/165/86 200/164/86
f 157/165/87 159/167/87 201/166/87
f 159/167/88 161/169/88 202/168/88
f 161/169/89 163/307/89 203/170/89
f 203/170/90 163/307/90 165/171/90
f 165/171/91 167/174/91 205/173/91
f 167/174/92 169/308/92 206/175/92
f 206/175/93 169/308/93 171/176/93
f 171/176/94 173/309/94 208/178/94
f 208/178/95 173/309/95 175/179/95
f 209/180/96 175/179/96 177/181/96
f 210/182/97 177/181/97 179/183/97
f 211/184/98 179/183/98 117/185/98
f 178/188/33 116/221/33 122/224/33
f 116/221/33 118/222/33 122/224/33
f 118/222/33 120/223/33 122/224/33
f 122/224/33 124/225/33 126/226/33
f 126/226/33 128/227/33 122/224/33
f 128/227/33 130/228/33 122/224/33
f 130/228/33 132/229/33 134/230/33
f 134/230/33 136/231/33 130/228/33
f 136/231/33 138/232/33 130/228/33
f 138/232/33 140/233/33 142/234/33
f 142/234/33 144/235/33 138/232/33
f 144/235/33 146/236/33 138/232/33
f 146/236/33 148/237/33 154/186/33
f 148/237/33 150/238/33 154/186/33
f 150/238/33 152/239/33 154/186/33
f 154/186/33 156/240/33 162/187/33
f 156/240/33 158/241/33 162/187/33
f 158/241/33 160/242/33 162/187/33
f 162/187/33 164/243/33 166/244/33
f 166/244/33 168/245/33 170/246/33
f 170/246/33 172/247/33 174/248/33
f 174/248/33 176/249/33 178/188/33
f 162/187/33 166/244/33 178/188/33
f 166/244/33 170/246/33 178/188/33
f 170/246/33 174/248/33 178/188/33
f 178/188/33 122/224/33 146/236/33
f 122/224/33 130/228/33 146/236/33
f 130/228/33 138/232/33 146/236/33
f 146/236/33 154/186/33 178/188/33
f 212/189/99 180/125/99 181/127/99
f 213/190/100 181/127/100 182/129/100
f 214/191/165 182/129/165 183/131/165
f 215/192/102 183/131/102 184/133/102
f 216/193/103 184/133/103 185/135/103
f 217/194/104 185/135/104 186/137/104
f 218/195/105 186/137/105 187/139/105
f 220/197/106 219/196/106 187/139/106
f 220/197/107 188/141/107 189/143/107
f 222/199/108 221/198/108 189/143/108
f 223/200/109 222/199/109 190/145/109
f 224/201/110 223/200/110 191/147/110
f 224/201/111 192/149/111 193/150/111
f 226/203/112 225/202/112 193/150/112
f 226/203/113 194/152/113 195/154/113
f 227/204/114 195/154/114 196/156/114
f 229/206/115 228/205/115 196/156/115
f 229/206/116 197/158/116 198/160/116
f 230/207/117 198/160/117 199/162/117
f 232/209/118 231/208/118 199/162/118
f 233/210/119 232/209/119 200/164/119
f 233/210/120 201/166/120 202/168/120
f 234/211/121 202/168/121 203/170/121
f 236/213/122 235/212/122 203/170/122
f 236/213/123 204/172/123 205/173/123
f 238/215/124 237/214/124 205/173/124
f 239/216/125 238/215/125 206/175/125
f 239/216/126 207/177/126 208/178/126
f 241/218/127 240/217/127 208/178/127
f 242/219/128 241/218/128 209/180/128
f 243/220/129 242/219/129 210/182/129
f 243/220/130 211/184/130 180/125/130
f 116/221/131 212/189/131 213/190/131
f 120/223/132 118/222/132 213/190/132
f 120/223/133 214/191/133 215/192/133
f 124/225/134 122/224/134 215/192/134
f 124/225/135 216/193/135 217/194/135
f 126/226/136 217/194/136 218/195/136
f 128/227/137 218/195/137 219/196/137
f 132/229/138 130/228/138 219/196/138
f 132/229/139 220/197/139 221/198/139
f 136/231/140 134/230/140 221/198/140
f 138/232/141 136/231/141 222/199/141
f 140/233/142 138/232/142 223/200/142
f 140/233/143 224/201/143 225/202/143
f 144/235/144 142/234/144 225/202/144
f 144/235/145 226/203/145 227/204/145
f 146/236/146 227/204/146 228/205/146
f 150/238/147 148/237/147 228/205/147
f 152/239/148 150/238/148 229/206/148
f 152/239/149 230/207/149 231/208/149
f 154/186/150 231/208/150 232/209/150
f 158/241/151 156/240/151 232/209/151
f 158/241/152 233/210/152 234/211/152
f 160/242/153 234/211/153 235/212/153
f 164/243/154 162/187/154 235/212/154
f 164/243/155 236/213/155 237/214/155
f 168/245/156 166/244/156 237/214/156
f 170/246/157 168/245/157 238/215/157
f 170/246/158 239/216/158 240/217/158
f 174/248/159 172/247/159 240/217/159
f 176/249/160 174/248/160 241/218/160
f 176/249/161 242/219/161 243/220/161
f 178/188/162 243/220/162 212/189/162
