# Blender 4.4.0
# www.blender.org
mtllib goal.mtl
o 立方体.003
v -0.200000 0.900000 0.100000
v -0.200000 2.900000 0.100000
v -2.200000 0.900000 0.100000
v -2.200000 2.900000 0.100000
v -0.200000 0.900000 -0.100000
v -0.200000 2.900000 -0.100000
v -2.200000 0.900000 -0.100000
v -2.200000 2.900000 -0.100000
v 0.200000 -2.800000 0.200000
v 0.200000 3.000000 0.200000
v -0.200000 -2.800000 0.200000
v -0.200000 3.000000 0.200000
v 0.200000 -2.800000 -0.200000
v 0.200000 3.000000 -0.200000
v -0.200000 -2.800000 -0.200000
v -0.200000 3.000000 -0.200000
v 0.700000 -3.000000 0.700000
v 0.700000 -2.800000 0.700000
v -0.700000 -3.000000 0.700000
v -0.700000 -2.800000 0.700000
v 0.700000 -3.000000 -0.700000
v 0.700000 -2.800000 -0.700000
v -0.700000 -3.000000 -0.700000
v -0.700000 -2.800000 -0.700000
vn -0.0000 -0.0000 1.0000
vn -1.0000 -0.0000 -0.0000
vn -0.0000 -0.0000 -1.0000
vn 1.0000 -0.0000 -0.0000
vn -0.0000 -1.0000 -0.0000
vn -0.0000 1.0000 -0.0000
vt 0.847513 0.368707
vt 0.766365 0.449855
vt 0.766365 0.368707
vt 0.847513 0.449855
vt 0.766365 0.531004
vt 0.847513 0.531004
vt 0.766365 0.612153
vt 0.847513 0.612153
vt 0.766365 0.693301
vt 0.685216 0.612153
vt 0.685216 0.531004
vt 0.928662 0.531004
vt 0.268793 0.364493
vt 0.185538 0.447749
vt 0.185538 0.364493
vt 0.268793 0.447749
vt 0.185538 0.531004
vt 0.268793 0.531004
vt 0.185538 0.614259
vt 0.268793 0.614259
vt 0.185538 0.697514
vt 0.102283 0.614259
vt 0.102283 0.531004
vt 0.352048 0.531004
vt 0.847513 0.693301
vt 0.928662 0.612153
vt 0.268793 0.697514
vt 0.352048 0.614259
s 0
usemtl マテリアル.002
f 2/1/1 3/2/1 1/3/1
f 4/4/2 7/5/2 3/2/2
f 8/6/3 5/7/3 7/5/3
f 6/8/4 1/9/4 5/7/4
f 7/5/5 1/10/5 3/11/5
f 4/12/6 6/8/6 8/6/6
f 10/13/1 11/14/1 9/15/1
f 12/16/2 15/17/2 11/14/2
f 16/18/3 13/19/3 15/17/3
f 14/20/4 9/21/4 13/19/4
f 15/17/5 9/22/5 11/23/5
f 12/24/6 14/20/6 16/18/6
f 18/13/1 19/14/1 17/15/1
f 20/16/2 23/17/2 19/14/2
f 24/18/3 21/19/3 23/17/3
f 22/20/4 17/21/4 21/19/4
f 23/17/5 17/22/5 19/23/5
f 20/24/6 22/20/6 24/18/6
f 2/1/1 4/4/1 3/2/1
f 4/4/2 8/6/2 7/5/2
f 8/6/3 6/8/3 5/7/3
f 6/8/4 2/25/4 1/9/4
f 7/5/5 5/7/5 1/10/5
f 4/12/6 2/26/6 6/8/6
f 10/13/1 12/16/1 11/14/1
f 12/16/2 16/18/2 15/17/2
f 16/18/3 14/20/3 13/19/3
f 14/20/4 10/27/4 9/21/4
f 15/17/5 13/19/5 9/22/5
f 12/24/6 10/28/6 14/20/6
f 18/13/1 20/16/1 19/14/1
f 20/16/2 24/18/2 23/17/2
f 24/18/3 22/20/3 21/19/3
f 22/20/4 18/27/4 17/21/4
f 23/17/5 21/19/5 17/22/5
f 20/24/6 18/28/6 22/20/6
