# Blender 4.4.1
# www.blender.org
mtllib repairpartLow.mtl
o 立方体
v -0.007394 -0.874592 -0.763363
v 0.547953 0.930013 -0.427215
v -0.819909 -0.681058 -0.459996
v -0.264562 1.123547 -0.123848
v 0.813111 0.687282 0.437816
v -0.554752 -0.923789 0.405034
v 0.257763 -1.117323 0.101668
v 0.000595 0.880816 0.741182
v 0.273138 0.603339 -0.954857
v 0.817051 0.105430 0.819565
v 0.004536 0.298964 1.122931
v -0.539377 0.796873 -0.651491
v -0.403399 0.672395 -0.207885
v 0.409116 0.478862 -0.511252
v -0.138242 0.429665 0.657145
v 0.674274 0.236131 0.353779
v 0.546319 -0.774315 0.655693
v -0.266196 -0.580781 0.959059
v -0.810109 -0.082872 -0.815363
v -0.674131 -0.207350 -0.371758
v 0.138384 -0.400883 -0.675124
v -0.408973 -0.450080 0.493273
v 0.403542 -0.643614 0.189907
v 0.002406 -0.276406 -1.118729
vn 0.9143 -0.2178 -0.3414
vn 0.0050 0.8491 -0.5283
vn -0.9143 0.2178 0.3414
vn 0.2896 0.9410 0.1753
vn -0.2896 -0.9410 -0.1753
vn 0.2831 -0.2591 0.9234
vn -0.2831 0.2591 -0.9234
vn 0.4049 0.5035 0.7632
vn -0.0050 -0.8491 0.5283
vn -0.4047 -0.4621 -0.7891
vt 0.562500 0.184375
vt 0.625000 0.184375
vt 0.562500 0.250000
vt 0.875000 0.687500
vt 0.562500 0.750000
vt 0.625000 0.687500
vt 0.562500 0.687500
vt 0.875000 0.565625
vt 0.625000 0.565625
vt 0.375000 0.565625
vt 0.125000 0.687500
vt 0.125000 0.565625
vt 0.562500 0.565625
vt 0.562500 0.000000
vt 0.625000 0.062500
vt 0.562500 0.062500
vt 0.562500 0.500000
vt 0.440625 0.062500
vt 0.440625 0.687500
vt 0.440625 0.565625
vt 0.440625 0.500000
vt 0.440625 0.000000
vt 0.440625 1.000000
vt 0.440625 0.750000
vt 0.440625 0.250000
vt 0.440625 0.184375
vt 0.375000 0.184375
vt 0.375000 0.687500
vt 0.375000 0.062500
vt 0.562500 1.000000
s 0
usemtl Material
f 16/1/1 5/2/1 10/3/1
f 2/4/2 12/5/2 4/6/2
f 13/7/3 4/6/3 12/5/3
f 5/8/4 4/6/4 8/9/4
f 6/10/5 1/11/5 7/12/5
f 8/9/3 13/7/3 15/13/3
f 9/14/1 2/15/1 14/16/1
f 11/17/3 8/9/3 15/13/3
f 2/15/1 16/1/1 14/16/1
f 21/18/6 13/7/6 20/19/6
f 11/17/3 22/20/3 18/21/3
f 9/14/1 21/18/1 24/22/1
f 16/1/5 13/7/5 14/16/5
f 12/5/7 24/23/7 19/24/7
f 13/7/3 19/24/3 20/19/3
f 10/3/6 18/21/6 17/25/6
f 16/1/1 17/25/1 23/26/1
f 7/27/1 23/26/1 17/25/1
f 8/9/8 10/3/8 5/8/8
f 3/28/3 20/19/3 19/24/3
f 6/10/9 17/25/9 18/21/9
f 22/20/3 3/28/3 6/10/3
f 1/29/1 24/22/1 21/18/1
f 18/21/3 22/20/3 6/10/3
f 21/18/1 7/27/1 1/29/1
f 23/26/4 20/19/4 22/20/4
f 15/13/7 23/26/7 22/20/7
f 3/28/10 24/23/10 1/11/10
f 2/4/2 9/30/2 12/5/2
f 5/8/4 2/4/4 4/6/4
f 6/10/5 3/28/5 1/11/5
f 8/9/3 4/6/3 13/7/3
f 2/15/1 5/2/1 16/1/1
f 21/18/6 14/16/6 13/7/6
f 11/17/3 15/13/3 22/20/3
f 9/14/1 14/16/1 21/18/1
f 16/1/5 15/13/5 13/7/5
f 12/5/7 9/30/7 24/23/7
f 13/7/3 12/5/3 19/24/3
f 10/3/6 11/17/6 18/21/6
f 16/1/1 10/3/1 17/25/1
f 8/9/8 11/17/8 10/3/8
f 6/10/9 7/12/9 17/25/9
f 22/20/3 20/19/3 3/28/3
f 21/18/1 23/26/1 7/27/1
f 23/26/4 21/18/4 20/19/4
f 15/13/7 16/1/7 23/26/7
f 3/28/10 19/24/10 24/23/10
