# Blender 4.1.1
# www.blender.org
mtllib stagePoint.mtl
o 円柱
v 0.000000 -0.031744 1.600000
v 0.000000 0.292146 1.600000
v -0.312145 -0.031744 1.569256
v -0.312145 0.292146 1.569256
v -0.612294 -0.031744 1.478207
v -0.612294 0.292146 1.478207
v -0.888912 -0.031744 1.330351
v -0.888912 0.292146 1.330351
v -1.131371 -0.031744 1.131371
v -1.131371 0.292146 1.131371
v -1.330351 -0.031744 0.888912
v -1.330351 0.292146 0.888912
v -1.478207 -0.031744 0.612294
v -1.478207 0.292146 0.612294
v -1.569256 -0.031744 0.312145
v -1.569256 0.292146 0.312145
v -1.600000 -0.031744 0.000000
v -1.600000 0.292146 0.000000
v -1.569256 -0.031744 -0.312145
v -1.569256 0.292146 -0.312145
v -1.478207 -0.031744 -0.612294
v -1.478207 0.292146 -0.612294
v -1.330351 -0.031744 -0.888912
v -1.330351 0.292146 -0.888912
v -1.131371 -0.031744 -1.131371
v -1.131371 0.292146 -1.131371
v -0.888912 -0.031744 -1.330351
v -0.888912 0.292146 -1.330351
v -0.612294 -0.031744 -1.478207
v -0.612294 0.292146 -1.478207
v -0.312145 -0.031744 -1.569256
v -0.312145 0.292146 -1.569256
v 0.000000 -0.031744 -1.600000
v 0.000000 0.292146 -1.600000
v 0.312145 -0.031744 -1.569256
v 0.312145 0.292146 -1.569256
v 0.612294 -0.031744 -1.478207
v 0.612294 0.292146 -1.478207
v 0.888912 -0.031744 -1.330351
v 0.888912 0.292146 -1.330351
v 1.131371 -0.031744 -1.131371
v 1.131371 0.292146 -1.131371
v 1.330351 -0.031744 -0.888912
v 1.330351 0.292146 -0.888912
v 1.478207 -0.031744 -0.612294
v 1.478207 0.292146 -0.612294
v 1.569256 -0.031744 -0.312145
v 1.569256 0.292146 -0.312145
v 1.600000 -0.031744 0.000000
v 1.600000 0.292146 0.000000
v 1.569256 -0.031744 0.312145
v 1.569256 0.292146 0.312145
v 1.478207 -0.031744 0.612294
v 1.478207 0.292146 0.612294
v 1.330351 -0.031744 0.888912
v 1.330351 0.292146 0.888912
v 1.131371 -0.031744 1.131371
v 1.131371 0.292146 1.131371
v 0.888912 -0.031744 1.330351
v 0.888912 0.292146 1.330351
v 0.612294 -0.031744 1.478207
v 0.612294 0.292146 1.478207
v 0.312145 -0.031744 1.569256
v 0.312145 0.292146 1.569256
v -0.000000 0.479121 1.105505
v -0.215673 0.479121 1.084263
v -0.423059 0.479121 1.021354
v -0.614186 0.479121 0.919194
v -0.781710 0.479121 0.781710
v -0.919194 0.479121 0.614186
v -1.021354 0.479121 0.423059
v -1.084263 0.479121 0.215673
v -1.105505 0.479121 -0.000000
v -1.084263 0.479121 -0.215673
v -1.021354 0.479121 -0.423059
v -0.919194 0.479121 -0.614186
v -0.781710 0.479121 -0.781710
v -0.614186 0.479121 -0.919194
v -0.423059 0.479121 -1.021354
v -0.215673 0.479121 -1.084263
v -0.000000 0.479121 -1.105505
v 0.215673 0.479121 -1.084263
v 0.423059 0.479121 -1.021354
v 0.614186 0.479121 -0.919194
v 0.781710 0.479121 -0.781710
v 0.919194 0.479121 -0.614186
v 1.021354 0.479121 -0.423059
v 1.084263 0.479121 -0.215673
v 1.105505 0.479121 -0.000000
v 1.084263 0.479121 0.215673
v 1.021354 0.479121 0.423059
v 0.919194 0.479121 0.614186
v 0.781710 0.479121 0.781710
v 0.614186 0.479121 0.919194
v 0.423059 0.479121 1.021354
v 0.215673 0.479121 1.084263
v 0.000000 0.273929 1.322809
v -0.258067 0.273929 1.297392
v -0.506217 0.273929 1.222116
v -0.734913 0.273929 1.099876
v -0.935367 0.273929 0.935367
v -1.099876 0.273929 0.734913
v -1.222116 0.273929 0.506217
v -1.297392 0.273929 0.258067
v -1.322809 0.273929 0.000000
v -1.297392 0.273929 -0.258067
v -1.222116 0.273929 -0.506217
v -1.099876 0.273929 -0.734913
v -0.935367 0.273929 -0.935367
v -0.734913 0.273929 -1.099876
v -0.506217 0.273929 -1.222116
v -0.258067 0.273929 -1.297392
v 0.000000 0.273929 -1.322809
v 0.258067 0.273929 -1.297392
v 0.506217 0.273929 -1.222116
v 0.734913 0.273929 -1.099876
v 0.935367 0.273929 -0.935367
v 1.099876 0.273929 -0.734913
v 1.222116 0.273929 -0.506217
v 1.297392 0.273929 -0.258067
v 1.322809 0.273929 0.000000
v 1.297392 0.273929 0.258067
v 1.222116 0.273929 0.506217
v 1.099876 0.273929 0.734913
v 0.935367 0.273929 0.935367
v 0.734913 0.273929 1.099876
v 0.506217 0.273929 1.222116
v 0.258067 0.273929 1.297392
v -0.000000 0.425629 1.244553
v -0.242800 0.425629 1.220639
v -0.476270 0.425629 1.149817
v -0.691437 0.425629 1.034808
v -0.880032 0.425629 0.880032
v -1.034808 0.425629 0.691437
v -1.149817 0.425629 0.476270
v -1.220639 0.425629 0.242800
v -1.244553 0.425629 -0.000000
v -1.220639 0.425629 -0.242800
v -1.149817 0.425629 -0.476270
v -1.034808 0.425629 -0.691437
v -0.880032 0.425629 -0.880032
v -0.691437 0.425629 -1.034808
v -0.476270 0.425629 -1.149817
v -0.242800 0.425629 -1.220639
v -0.000000 0.425629 -1.244553
v 0.242800 0.425629 -1.220639
v 0.476270 0.425629 -1.149817
v 0.691437 0.425629 -1.034808
v 0.880032 0.425629 -0.880032
v 1.034808 0.425629 -0.691437
v 1.149817 0.425629 -0.476270
v 1.220639 0.425629 -0.242800
v 1.244553 0.425629 -0.000000
v 1.220639 0.425629 0.242800
v 1.149817 0.425629 0.476270
v 1.034808 0.425629 0.691437
v 0.880032 0.425629 0.880032
v 0.691437 0.425629 1.034808
v 0.476270 0.425629 1.149817
v 0.242800 0.425629 1.220639
vn -0.0980 -0.0000 0.9952
vn -0.2903 -0.0000 0.9569
vn -0.4714 -0.0000 0.8819
vn -0.6344 -0.0000 0.7730
vn -0.7730 -0.0000 0.6344
vn -0.8819 -0.0000 0.4714
vn -0.9569 -0.0000 0.2903
vn -0.9952 -0.0000 0.0980
vn -0.9952 -0.0000 -0.0980
vn -0.9569 -0.0000 -0.2903
vn -0.8819 -0.0000 -0.4714
vn -0.7730 -0.0000 -0.6344
vn -0.6344 -0.0000 -0.7730
vn -0.4714 -0.0000 -0.8819
vn -0.2903 -0.0000 -0.9569
vn -0.0980 -0.0000 -0.9952
vn 0.0980 -0.0000 -0.9952
vn 0.2903 -0.0000 -0.9569
vn 0.4714 -0.0000 -0.8819
vn 0.6344 -0.0000 -0.7730
vn 0.7730 -0.0000 -0.6344
vn 0.8819 -0.0000 -0.4714
vn 0.9569 -0.0000 -0.2903
vn 0.9952 -0.0000 -0.0980
vn 0.9952 -0.0000 0.0980
vn 0.9569 -0.0000 0.2903
vn 0.8819 -0.0000 0.4714
vn 0.7730 -0.0000 0.6344
vn 0.6344 -0.0000 0.7730
vn 0.4714 -0.0000 0.8819
vn -0.0000 1.0000 -0.0000
vn 0.2903 -0.0000 0.9569
vn 0.0980 -0.0000 0.9952
vn -0.0000 -1.0000 -0.0000
vn -0.0353 0.9327 0.3588
vn -0.1047 0.9327 0.3450
vn -0.1700 0.9327 0.3180
vn -0.2287 0.9327 0.2787
vn -0.2787 0.9327 0.2287
vn -0.3180 0.9327 0.1700
vn -0.3450 0.9327 0.1047
vn -0.3588 0.9327 0.0353
vn -0.3588 0.9327 -0.0353
vn -0.3450 0.9327 -0.1047
vn -0.3180 0.9327 -0.1700
vn -0.2787 0.9327 -0.2287
vn -0.2287 0.9327 -0.2787
vn -0.1700 0.9327 -0.3180
vn -0.1047 0.9327 -0.3450
vn -0.0353 0.9327 -0.3588
vn 0.0353 0.9327 -0.3588
vn 0.1047 0.9327 -0.3450
vn 0.1700 0.9327 -0.3180
vn 0.2287 0.9327 -0.2787
vn 0.2787 0.9327 -0.2287
vn 0.3180 0.9327 -0.1700
vn 0.3450 0.9327 -0.1047
vn 0.3588 0.9327 -0.0353
vn 0.3588 0.9327 0.0353
vn 0.3450 0.9327 0.1047
vn 0.3180 0.9327 0.1700
vn 0.2787 0.9327 0.2287
vn 0.2287 0.9327 0.2787
vn 0.1700 0.9327 0.3180
vn 0.1047 0.9327 0.3450
vn 0.0353 0.9327 0.3588
vn 0.0872 0.4567 0.8853
vn 0.2582 0.4567 0.8513
vn 0.4194 0.4567 0.7846
vn 0.5644 0.4567 0.6877
vn 0.6877 0.4567 0.5644
vn 0.7846 0.4567 0.4194
vn 0.8513 0.4567 0.2582
vn 0.8853 0.4567 0.0872
vn 0.8853 0.4567 -0.0872
vn 0.8513 0.4567 -0.2582
vn 0.7846 0.4567 -0.4194
vn 0.6877 0.4567 -0.5644
vn 0.5644 0.4567 -0.6877
vn 0.4194 0.4567 -0.7846
vn 0.2582 0.4567 -0.8513
vn 0.0872 0.4567 -0.8853
vn -0.0872 0.4567 -0.8853
vn -0.2582 0.4567 -0.8513
vn -0.4194 0.4567 -0.7846
vn -0.5644 0.4567 -0.6877
vn -0.6877 0.4567 -0.5644
vn -0.7846 0.4567 -0.4194
vn -0.8513 0.4567 -0.2582
vn -0.8853 0.4567 -0.0872
vn -0.8853 0.4567 0.0872
vn -0.8513 0.4567 0.2582
vn -0.7846 0.4567 0.4194
vn -0.6877 0.4567 0.5644
vn -0.5644 0.4567 0.6877
vn -0.4194 0.4567 0.7846
vn -0.2582 0.4567 0.8513
vn -0.0872 0.4567 0.8853
vt 0.252383 0.491303
vt 0.292548 0.531002
vt 0.253156 0.534663
vt 0.291775 0.487643
vt 0.327970 0.526075
vt 0.353922 0.487091
vt 0.384982 0.535376
vt 0.354695 0.530450
vt 0.384209 0.492017
vt 0.420558 0.539037
vt 0.419784 0.495678
vt 0.460055 0.541291
vt 0.459282 0.497932
vt 0.501956 0.542053
vt 0.501183 0.498693
vt 0.544650 0.541291
vt 0.543877 0.497932
vt 0.586497 0.539037
vt 0.585724 0.495678
vt 0.625889 0.535376
vt 0.625116 0.492017
vt 0.661312 0.530450
vt 0.682340 0.487091
vt 0.716989 0.535377
vt 0.681566 0.530450
vt 0.717762 0.492017
vt 0.756381 0.539037
vt 0.757154 0.495678
vt 0.798228 0.541292
vt 0.799001 0.497932
vt 0.840923 0.542053
vt 0.841696 0.498693
vt 0.882824 0.541292
vt 0.883597 0.497932
vt 0.922321 0.539037
vt 0.923094 0.495678
vt 0.957896 0.535377
vt 0.958670 0.492017
vt 0.988183 0.530450
vt 0.927197 0.989017
vt 0.975483 0.954368
vt 0.970556 0.989790
vt 0.932123 0.953595
vt 0.979143 0.914976
vt 0.935784 0.914203
vt 0.981398 0.873129
vt 0.938038 0.872356
vt 0.982159 0.830434
vt 0.938800 0.829661
vt 0.981398 0.788533
vt 0.938038 0.787760
vt 0.979143 0.749036
vt 0.935784 0.748263
vt 0.975483 0.713460
vt 0.932123 0.712687
vt 0.970556 0.683173
vt 0.020580 0.482716
vt 0.051640 0.531002
vt 0.021353 0.526075
vt 0.050867 0.487643
vt 0.087216 0.534663
vt 0.086443 0.491303
vt 0.126713 0.536917
vt 0.125940 0.493558
vt 0.168614 0.537678
vt 0.793075 0.572654
vt 0.898839 0.701528
vt 0.481947 0.827990
vt 0.167841 0.494319
vt 0.211309 0.536917
vt 0.210536 0.493558
vt 0.370614 0.603548
vt 0.449203 0.750579
vt 0.015651 0.793280
vt 0.080337 0.289331
vt 0.089191 0.324826
vt 0.065704 0.301340
vt 0.101200 0.310193
vt 0.116808 0.343280
vt 0.125731 0.326585
vt 0.147494 0.355990
vt 0.181927 0.343631
vt 0.180071 0.362470
vt 0.213286 0.362470
vt 0.240368 0.337875
vt 0.245863 0.355990
vt 0.276550 0.343280
vt 0.292158 0.310193
vt 0.304167 0.324826
vt 0.327653 0.301340
vt 0.313020 0.289331
vt 0.346107 0.273723
vt 0.329412 0.264799
vt 0.358817 0.243036
vt 0.346458 0.208604
vt 0.365297 0.210459
vt 0.365297 0.177244
vt 0.340702 0.150163
vt 0.358817 0.144668
vt 0.346107 0.113981
vt 0.313020 0.098373
vt 0.327653 0.086364
vt 0.304167 0.062877
vt 0.292158 0.077510
vt 0.276550 0.044424
vt 0.267626 0.061119
vt 0.245863 0.031713
vt 0.211431 0.044072
vt 0.213286 0.025233
vt 0.180071 0.025233
vt 0.152990 0.049828
vt 0.147494 0.031713
vt 0.116808 0.044424
vt 0.101200 0.077510
vt 0.089191 0.062877
vt 0.065704 0.086364
vt 0.080337 0.098373
vt 0.047251 0.113981
vt 0.063946 0.122904
vt 0.034540 0.144667
vt 0.046899 0.179100
vt 0.028060 0.177244
vt 0.028060 0.210459
vt 0.052655 0.237541
vt 0.034540 0.243036
vt 0.047251 0.273723
vt 0.401243 0.188877
vt 0.425205 0.219987
vt 0.403107 0.223474
vt 0.422859 0.154227
vt 0.400614 0.153579
vt 0.401243 0.118937
vt 0.403107 0.086283
vt 0.423451 0.121634
vt 0.428052 0.063239
vt 0.406133 0.056870
vt 0.431884 0.039681
vt 0.410206 0.031830
vt 0.517331 0.057858
vt 0.534615 0.026135
vt 0.539134 0.051099
vt 0.520672 0.085475
vt 0.542684 0.080453
vt 0.545129 0.113069
vt 0.524146 0.148738
vt 0.546376 0.147694
vt 0.546376 0.182997
vt 0.545129 0.217623
vt 0.524146 0.181953
vt 0.520672 0.245217
vt 0.542684 0.250239
vt 0.517331 0.272834
vt 0.539134 0.279593
vt 0.558581 0.061330
vt 0.575865 0.029608
vt 0.580383 0.054571
vt 0.561922 0.088947
vt 0.583934 0.083925
vt 0.586379 0.116541
vt 0.565396 0.152210
vt 0.587626 0.151166
vt 0.587626 0.186469
vt 0.586379 0.221095
vt 0.565396 0.185425
vt 0.561922 0.248689
vt 0.583934 0.253711
vt 0.558581 0.276306
vt 0.580383 0.283065
vt 0.473189 0.236501
vt 0.455343 0.271201
vt 0.451269 0.241915
vt 0.470341 0.205860
vt 0.448243 0.209347
vt 0.446379 0.174750
vt 0.467996 0.140100
vt 0.445750 0.139452
vt 0.446379 0.104810
vt 0.448243 0.072156
vt 0.468588 0.107507
vt 0.473189 0.049112
vt 0.451269 0.042743
vt 0.431885 0.278181
vt 0.415169 0.310206
vt 0.410206 0.285328
vt 0.428052 0.250628
vt 0.406133 0.256042
vt 0.327197 0.482716
vt 0.660539 0.487091
vt 0.988956 0.487091
vt 0.927197 0.682400
vt 0.907169 0.743408
vt 0.882498 0.867441
vt 0.907169 0.786110
vt 0.898839 0.827990
vt 0.858774 0.902946
vt 0.753624 0.973205
vt 0.828580 0.933140
vt 0.793075 0.956864
vt 0.711743 0.981535
vt 0.587711 0.956864
vt 0.669042 0.981535
vt 0.627162 0.973205
vt 0.552206 0.933140
vt 0.522012 0.902946
vt 0.498288 0.867441
vt 0.473616 0.786110
vt 0.473616 0.743408
vt 0.481947 0.701528
vt 0.498288 0.662077
vt 0.522012 0.626572
vt 0.552206 0.596378
vt 0.587711 0.572654
vt 0.627162 0.556313
vt 0.669042 0.547983
vt 0.711744 0.547983
vt 0.753624 0.556313
vt 0.828580 0.596378
vt 0.858774 0.626572
vt 0.882498 0.662077
vt 0.449203 0.793280
vt 0.440873 0.835161
vt 0.424532 0.874612
vt 0.400808 0.910116
vt 0.370614 0.940311
vt 0.335109 0.964034
vt 0.295658 0.980375
vt 0.253778 0.988706
vt 0.211076 0.988706
vt 0.169196 0.980375
vt 0.129745 0.964034
vt 0.094240 0.940311
vt 0.064046 0.910116
vt 0.040322 0.874612
vt 0.023981 0.835161
vt 0.015651 0.750579
vt 0.023981 0.708698
vt 0.040322 0.669247
vt 0.064046 0.633743
vt 0.094240 0.603548
vt 0.129745 0.579825
vt 0.169196 0.563484
vt 0.211076 0.555153
vt 0.253778 0.555153
vt 0.295658 0.563484
vt 0.335109 0.579825
vt 0.400808 0.633743
vt 0.424532 0.669247
vt 0.440873 0.708698
vt 0.152990 0.337875
vt 0.211431 0.343631
vt 0.267626 0.326585
vt 0.340702 0.237541
vt 0.346458 0.179100
vt 0.329412 0.122904
vt 0.240368 0.049828
vt 0.181927 0.044072
vt 0.125731 0.061119
vt 0.052655 0.150163
vt 0.046899 0.208604
vt 0.063946 0.264799
vt 0.423451 0.187437
vt 0.425205 0.090912
vt 0.513080 0.034371
vt 0.522973 0.116161
vt 0.522973 0.214530
vt 0.513080 0.296320
vt 0.564223 0.119633
vt 0.564223 0.218002
vt 0.477021 0.264054
vt 0.468588 0.173310
vt 0.470341 0.076785
vt 0.477021 0.025554
s 0
usemtl マテリアル
f 2/1/1 3/2/1 1/3/1
f 4/4/2 5/5/2 3/2/2
f 6/6/3 7/7/3 5/8/3
f 8/9/4 9/10/4 7/7/4
f 10/11/5 11/12/5 9/10/5
f 12/13/6 13/14/6 11/12/6
f 14/15/7 15/16/7 13/14/7
f 16/17/8 17/18/8 15/16/8
f 18/19/9 19/20/9 17/18/9
f 20/21/10 21/22/10 19/20/10
f 22/23/11 23/24/11 21/25/11
f 24/26/12 25/27/12 23/24/12
f 26/28/13 27/29/13 25/27/13
f 28/30/14 29/31/14 27/29/14
f 30/32/15 31/33/15 29/31/15
f 32/34/16 33/35/16 31/33/16
f 34/36/17 35/37/17 33/35/17
f 36/38/18 37/39/18 35/37/18
f 38/40/19 39/41/19 37/42/19
f 40/43/20 41/44/20 39/41/20
f 42/45/21 43/46/21 41/44/21
f 44/47/22 45/48/22 43/46/22
f 46/49/23 47/50/23 45/48/23
f 48/51/24 49/52/24 47/50/24
f 50/53/25 51/54/25 49/52/25
f 52/55/26 53/56/26 51/54/26
f 54/57/27 55/58/27 53/59/27
f 56/60/28 57/61/28 55/58/28
f 58/62/29 59/63/29 57/61/29
f 60/64/30 61/65/30 59/63/30
f 14/66/31 6/67/31 38/68/31
f 62/69/32 63/70/32 61/65/32
f 64/71/33 1/3/33 63/70/33
f 55/72/34 63/73/34 31/74/34
f 65/75/35 130/76/35 129/77/35
f 66/78/36 131/79/36 130/76/36
f 67/80/37 132/81/37 131/79/37
f 132/81/38 69/82/38 133/83/38
f 69/82/39 134/84/39 133/83/39
f 134/84/40 71/85/40 135/86/40
f 71/85/41 136/87/41 135/86/41
f 136/87/42 73/88/42 137/89/42
f 73/88/43 138/90/43 137/89/43
f 74/91/44 139/92/44 138/90/44
f 75/93/45 140/94/45 139/92/45
f 140/94/46 77/95/46 141/96/46
f 77/95/47 142/97/47 141/96/47
f 142/97/48 79/98/48 143/99/48
f 79/98/49 144/100/49 143/99/49
f 144/100/50 81/101/50 145/102/50
f 81/101/51 146/103/51 145/102/51
f 82/104/52 147/105/52 146/103/52
f 83/106/53 148/107/53 147/105/53
f 148/107/54 85/108/54 149/109/54
f 85/108/55 150/110/55 149/109/55
f 150/110/56 87/111/56 151/112/56
f 87/111/57 152/113/57 151/112/57
f 152/113/58 89/114/58 153/115/58
f 89/114/59 154/116/59 153/115/59
f 90/117/60 155/118/60 154/116/60
f 91/119/61 156/120/61 155/118/61
f 156/120/62 93/121/62 157/122/62
f 93/121/63 158/123/63 157/122/63
f 158/123/64 95/124/64 159/125/64
f 83/106/31 75/93/31 67/80/31
f 95/124/65 160/126/65 159/125/65
f 160/126/66 65/75/66 129/77/66
f 128/127/67 129/128/67 97/129/67
f 159/130/68 128/127/68 127/131/68
f 126/132/69 159/130/69 127/131/69
f 125/133/70 158/134/70 126/132/70
f 156/135/71 125/133/71 124/136/71
f 155/137/72 124/136/72 123/138/72
f 154/139/73 123/140/73 122/141/73
f 153/142/74 122/141/74 121/143/74
f 120/144/75 153/142/75 121/143/75
f 151/145/76 120/144/76 119/146/76
f 118/147/77 151/145/77 119/146/77
f 117/148/78 150/149/78 118/147/78
f 148/150/79 117/148/79 116/151/79
f 147/152/80 116/151/80 115/153/80
f 146/154/81 115/155/81 114/156/81
f 145/157/82 114/156/82 113/158/82
f 112/159/83 145/157/83 113/158/83
f 143/160/84 112/159/84 111/161/84
f 110/162/85 143/160/85 111/161/85
f 109/163/86 142/164/86 110/162/86
f 140/165/87 109/163/87 108/166/87
f 139/167/88 108/166/88 107/168/88
f 138/169/89 107/170/89 106/171/89
f 137/172/90 106/171/90 105/173/90
f 104/174/91 137/172/91 105/173/91
f 135/175/92 104/174/92 103/176/92
f 102/177/93 135/175/93 103/176/93
f 101/178/94 134/179/94 102/177/94
f 132/180/95 101/178/95 100/181/95
f 131/182/96 100/183/96 99/184/96
f 130/185/97 99/184/97 98/186/97
f 129/128/98 98/186/98 97/129/98
f 2/1/1 4/4/1 3/2/1
f 4/4/2 6/187/2 5/5/2
f 6/6/3 8/9/3 7/7/3
f 8/9/4 10/11/4 9/10/4
f 10/11/5 12/13/5 11/12/5
f 12/13/6 14/15/6 13/14/6
f 14/15/7 16/17/7 15/16/7
f 16/17/8 18/19/8 17/18/8
f 18/19/9 20/21/9 19/20/9
f 20/21/10 22/188/10 21/22/10
f 22/23/11 24/26/11 23/24/11
f 24/26/12 26/28/12 25/27/12
f 26/28/13 28/30/13 27/29/13
f 28/30/14 30/32/14 29/31/14
f 30/32/15 32/34/15 31/33/15
f 32/34/16 34/36/16 33/35/16
f 34/36/17 36/38/17 35/37/17
f 36/38/18 38/189/18 37/39/18
f 38/40/19 40/43/19 39/41/19
f 40/43/20 42/45/20 41/44/20
f 42/45/21 44/47/21 43/46/21
f 44/47/22 46/49/22 45/48/22
f 46/49/23 48/51/23 47/50/23
f 48/51/24 50/53/24 49/52/24
f 50/53/25 52/55/25 51/54/25
f 52/55/26 54/190/26 53/56/26
f 54/57/27 56/60/27 55/58/27
f 56/60/28 58/62/28 57/61/28
f 58/62/29 60/64/29 59/63/29
f 60/64/30 62/69/30 61/65/30
f 6/67/31 4/191/31 62/192/31
f 4/191/31 2/193/31 62/192/31
f 2/193/31 64/194/31 62/192/31
f 62/192/31 60/195/31 54/196/31
f 60/195/31 58/197/31 54/196/31
f 58/197/31 56/198/31 54/196/31
f 54/196/31 52/199/31 46/200/31
f 52/199/31 50/201/31 46/200/31
f 50/201/31 48/202/31 46/200/31
f 46/200/31 44/203/31 42/204/31
f 42/204/31 40/205/31 46/200/31
f 40/205/31 38/68/31 46/200/31
f 38/68/31 36/206/31 34/207/31
f 34/207/31 32/208/31 38/68/31
f 32/208/31 30/209/31 38/68/31
f 30/209/31 28/210/31 26/211/31
f 26/211/31 24/212/31 30/209/31
f 24/212/31 22/213/31 30/209/31
f 22/213/31 20/214/31 14/66/31
f 20/214/31 18/215/31 14/66/31
f 18/215/31 16/216/31 14/66/31
f 14/66/31 12/217/31 6/67/31
f 12/217/31 10/218/31 6/67/31
f 10/218/31 8/219/31 6/67/31
f 6/67/31 62/192/31 38/68/31
f 62/192/31 54/196/31 38/68/31
f 54/196/31 46/200/31 38/68/31
f 38/68/31 30/209/31 22/213/31
f 22/213/31 14/66/31 38/68/31
f 62/69/32 64/71/32 63/70/32
f 64/71/33 2/1/33 1/3/33
f 63/73/34 1/220/34 3/221/34
f 3/221/34 5/222/34 7/223/34
f 7/223/34 9/224/34 11/225/34
f 11/225/34 13/226/34 15/227/34
f 15/227/34 17/228/34 19/229/34
f 19/229/34 21/230/34 23/231/34
f 23/231/34 25/232/34 27/233/34
f 27/233/34 29/234/34 31/74/34
f 31/74/34 33/235/34 35/236/34
f 35/236/34 37/237/34 39/238/34
f 39/238/34 41/239/34 43/240/34
f 43/240/34 45/241/34 47/242/34
f 47/242/34 49/243/34 51/244/34
f 51/244/34 53/245/34 55/72/34
f 55/72/34 57/246/34 59/247/34
f 59/247/34 61/248/34 63/73/34
f 63/73/34 3/221/34 7/223/34
f 7/223/34 11/225/34 15/227/34
f 15/227/34 19/229/34 23/231/34
f 23/231/34 27/233/34 31/74/34
f 31/74/34 35/236/34 39/238/34
f 39/238/34 43/240/34 47/242/34
f 47/242/34 51/244/34 55/72/34
f 55/72/34 59/247/34 63/73/34
f 63/73/34 7/223/34 15/227/34
f 15/227/34 23/231/34 63/73/34
f 23/231/34 31/74/34 63/73/34
f 31/74/34 39/238/34 47/242/34
f 47/242/34 55/72/34 31/74/34
f 65/75/35 66/78/35 130/76/35
f 66/78/36 67/80/36 131/79/36
f 67/80/37 68/249/37 132/81/37
f 132/81/38 68/249/38 69/82/38
f 69/82/39 70/250/39 134/84/39
f 134/84/40 70/250/40 71/85/40
f 71/85/41 72/251/41 136/87/41
f 136/87/42 72/251/42 73/88/42
f 73/88/43 74/91/43 138/90/43
f 74/91/44 75/93/44 139/92/44
f 75/93/45 76/252/45 140/94/45
f 140/94/46 76/252/46 77/95/46
f 77/95/47 78/253/47 142/97/47
f 142/97/48 78/253/48 79/98/48
f 79/98/49 80/254/49 144/100/49
f 144/100/50 80/254/50 81/101/50
f 81/101/51 82/104/51 146/103/51
f 82/104/52 83/106/52 147/105/52
f 83/106/53 84/255/53 148/107/53
f 148/107/54 84/255/54 85/108/54
f 85/108/55 86/256/55 150/110/55
f 150/110/56 86/256/56 87/111/56
f 87/111/57 88/257/57 152/113/57
f 152/113/58 88/257/58 89/114/58
f 89/114/59 90/117/59 154/116/59
f 90/117/60 91/119/60 155/118/60
f 91/119/61 92/258/61 156/120/61
f 156/120/62 92/258/62 93/121/62
f 93/121/63 94/259/63 158/123/63
f 158/123/64 94/259/64 95/124/64
f 67/80/31 66/78/31 65/75/31
f 65/75/31 96/260/31 67/80/31
f 96/260/31 95/124/31 67/80/31
f 95/124/31 94/259/31 93/121/31
f 93/121/31 92/258/31 95/124/31
f 92/258/31 91/119/31 95/124/31
f 91/119/31 90/117/31 87/111/31
f 90/117/31 89/114/31 87/111/31
f 89/114/31 88/257/31 87/111/31
f 87/111/31 86/256/31 85/108/31
f 85/108/31 84/255/31 87/111/31
f 84/255/31 83/106/31 87/111/31
f 83/106/31 82/104/31 81/101/31
f 81/101/31 80/254/31 83/106/31
f 80/254/31 79/98/31 83/106/31
f 79/98/31 78/253/31 77/95/31
f 77/95/31 76/252/31 79/98/31
f 76/252/31 75/93/31 79/98/31
f 75/93/31 74/91/31 73/88/31
f 73/88/31 72/251/31 75/93/31
f 72/251/31 71/85/31 75/93/31
f 71/85/31 70/250/31 67/80/31
f 70/250/31 69/82/31 67/80/31
f 69/82/31 68/249/31 67/80/31
f 67/80/31 95/124/31 91/119/31
f 91/119/31 87/111/31 83/106/31
f 83/106/31 79/98/31 75/93/31
f 75/93/31 71/85/31 67/80/31
f 67/80/31 91/119/31 83/106/31
f 95/124/65 96/260/65 160/126/65
f 160/126/66 96/260/66 65/75/66
f 128/127/67 160/261/67 129/128/67
f 159/130/68 160/261/68 128/127/68
f 126/132/69 158/134/69 159/130/69
f 125/133/70 157/262/70 158/134/70
f 156/135/71 157/262/71 125/133/71
f 155/137/72 156/135/72 124/136/72
f 154/139/73 155/263/73 123/140/73
f 153/142/74 154/139/74 122/141/74
f 120/144/75 152/264/75 153/142/75
f 151/145/76 152/264/76 120/144/76
f 118/147/77 150/149/77 151/145/77
f 117/148/78 149/265/78 150/149/78
f 148/150/79 149/265/79 117/148/79
f 147/152/80 148/150/80 116/151/80
f 146/266/81 147/152/81 115/153/81
f 145/157/82 146/154/82 114/156/82
f 112/159/83 144/267/83 145/157/83
f 143/160/84 144/267/84 112/159/84
f 110/162/85 142/164/85 143/160/85
f 109/163/86 141/268/86 142/164/86
f 140/165/87 141/268/87 109/163/87
f 139/167/88 140/165/88 108/166/88
f 138/169/89 139/269/89 107/170/89
f 137/172/90 138/169/90 106/171/90
f 104/174/91 136/270/91 137/172/91
f 135/175/92 136/270/92 104/174/92
f 102/177/93 134/179/93 135/175/93
f 101/178/94 133/271/94 134/179/94
f 132/180/95 133/271/95 101/178/95
f 131/272/96 132/180/96 100/181/96
f 130/185/97 131/182/97 99/184/97
f 129/128/98 130/185/98 98/186/98
