# Blender 4.1.1
# www.blender.org
mtllib attackFrame.mtl
o 平面
v 1.100000 0.000000 0.000000
v -1.100000 0.000000 0.000000
v 1.100000 0.000000 2.100000
v -1.100000 0.000000 2.100000
v 1.000000 0.000000 0.000000
v -1.000000 0.000000 0.000000
v -1.000000 0.000000 2.000000
v 1.000000 0.000000 2.000000
vn -0.0000 1.0000 -0.0000
vt 1.000000 1.000000
vt 0.000000 1.000000
vt 0.954545 0.952381
vt 0.954545 0.000000
vt 1.000000 0.000000
vt 0.000000 0.000000
vt 0.045455 0.952381
vt 0.045455 0.000000
s 0
usemtl マテリアル
f 4/1/1 3/2/1 7/3/1
f 7/3/1 6/4/1 2/5/1
f 3/2/1 1/6/1 8/7/1
f 1/6/1 5/8/1 8/7/1
f 7/3/1 2/5/1 4/1/1
f 3/2/1 8/7/1 7/3/1
