# Blender 4.4.0
# www.blender.org
mtllib carrier.mtl
o taiya
v 0.800000 -1.500000 2.300000
v 0.800000 -1.287868 2.212132
v 0.800000 -1.200000 2.000000
v 0.800000 -1.287868 1.787868
v 0.800000 -1.500000 1.700000
v 0.800000 -1.712132 1.787868
v 0.800000 -1.800000 2.000000
v 0.800000 -1.712132 2.212132
v 0.628224 -1.500000 2.300000
v 0.628224 -1.287868 2.212132
v 0.628224 -1.200000 2.000000
v 0.628224 -1.287868 1.787868
v 0.628224 -1.500000 1.700000
v 0.628224 -1.712132 1.787868
v 0.628224 -1.800000 2.000000
v 0.628224 -1.712132 2.212132
v 0.800000 -1.500000 1.300000
v 0.800000 -1.287868 1.212132
v 0.800000 -1.200000 1.000000
v 0.800000 -1.287868 0.787868
v 0.800000 -1.500000 0.700000
v 0.800000 -1.712132 0.787868
v 0.800000 -1.800000 1.000000
v 0.800000 -1.712132 1.212132
v 0.628224 -1.500000 1.300000
v 0.628224 -1.287868 1.212132
v 0.628224 -1.200000 1.000000
v 0.628224 -1.287868 0.787868
v 0.628224 -1.500000 0.700000
v 0.628224 -1.712132 0.787868
v 0.628224 -1.800000 1.000000
v 0.628224 -1.712132 1.212132
v 0.800000 -1.500000 0.300000
v 0.800000 -1.287868 0.212132
v 0.800000 -1.200000 0.000000
v 0.800000 -1.287868 -0.212132
v 0.800000 -1.500000 -0.300000
v 0.800000 -1.712132 -0.212132
v 0.800000 -1.800000 0.000000
v 0.800000 -1.712132 0.212132
v 0.628224 -1.500000 0.300000
v 0.628224 -1.287868 0.212132
v 0.628224 -1.200000 0.000000
v 0.628224 -1.287868 -0.212132
v 0.628224 -1.500000 -0.300000
v 0.628224 -1.712132 -0.212132
v 0.628224 -1.800000 0.000000
v 0.628224 -1.712132 0.212132
v 0.800000 -1.500000 -0.700000
v 0.800000 -1.287868 -0.787868
v 0.800000 -1.200000 -1.000000
v 0.800000 -1.287868 -1.212132
v 0.800000 -1.500000 -1.300000
v 0.800000 -1.712132 -1.212132
v 0.800000 -1.800000 -1.000000
v 0.800000 -1.712132 -0.787868
v 0.628224 -1.500000 -0.700000
v 0.628224 -1.287868 -0.787868
v 0.628224 -1.200000 -1.000000
v 0.628224 -1.287868 -1.212132
v 0.628224 -1.500000 -1.300000
v 0.628224 -1.712132 -1.212132
v 0.628224 -1.800000 -1.000000
v 0.628224 -1.712132 -0.787868
v 0.800000 -1.500000 -1.700000
v 0.800000 -1.287868 -1.787868
v 0.800000 -1.200000 -2.000000
v 0.800000 -1.287868 -2.212132
v 0.800000 -1.500000 -2.300000
v 0.800000 -1.712132 -2.212132
v 0.800000 -1.800000 -2.000000
v 0.800000 -1.712132 -1.787868
v 0.628224 -1.500000 -1.700000
v 0.628224 -1.287868 -1.787868
v 0.628224 -1.200000 -2.000000
v 0.628224 -1.287868 -2.212132
v 0.628224 -1.500000 -2.300000
v 0.628224 -1.712132 -2.212132
v 0.628224 -1.800000 -2.000000
v 0.628224 -1.712132 -1.787868
v -0.600000 -1.500000 2.300000
v -0.600000 -1.287868 2.212132
v -0.600000 -1.200000 2.000000
v -0.600000 -1.287868 1.787868
v -0.600000 -1.500000 1.700000
v -0.600000 -1.712132 1.787868
v -0.600000 -1.800000 2.000000
v -0.600000 -1.712132 2.212132
v -0.771776 -1.500000 2.300000
v -0.771776 -1.287868 2.212132
v -0.771776 -1.200000 2.000000
v -0.771776 -1.287868 1.787868
v -0.771776 -1.500000 1.700000
v -0.771776 -1.712132 1.787868
v -0.771776 -1.800000 2.000000
v -0.771776 -1.712132 2.212132
v -0.600000 -1.500000 1.300000
v -0.600000 -1.287868 1.212132
v -0.600000 -1.200000 1.000000
v -0.600000 -1.287868 0.787868
v -0.600000 -1.500000 0.700000
v -0.600000 -1.712132 0.787868
v -0.600000 -1.800000 1.000000
v -0.600000 -1.712132 1.212132
v -0.771776 -1.500000 1.300000
v -0.771776 -1.287868 1.212132
v -0.771776 -1.200000 1.000000
v -0.771776 -1.287868 0.787868
v -0.771776 -1.500000 0.700000
v -0.771776 -1.712132 0.787868
v -0.771776 -1.800000 1.000000
v -0.771776 -1.712132 1.212132
v -0.600000 -1.500000 0.300000
v -0.600000 -1.287868 0.212132
v -0.600000 -1.200000 -0.000000
v -0.600000 -1.287868 -0.212132
v -0.600000 -1.500000 -0.300000
v -0.600000 -1.712132 -0.212132
v -0.600000 -1.800000 -0.000000
v -0.600000 -1.712132 0.212132
v -0.771776 -1.500000 0.300000
v -0.771776 -1.287868 0.212132
v -0.771776 -1.200000 -0.000000
v -0.771776 -1.287868 -0.212132
v -0.771776 -1.500000 -0.300000
v -0.771776 -1.712132 -0.212132
v -0.771776 -1.800000 -0.000000
v -0.771776 -1.712132 0.212132
v -0.600000 -1.500000 -0.700000
v -0.600000 -1.287868 -0.787868
v -0.600000 -1.200000 -1.000000
v -0.600000 -1.287868 -1.212132
v -0.600000 -1.500000 -1.300000
v -0.600000 -1.712132 -1.212132
v -0.600000 -1.800000 -1.000000
v -0.600000 -1.712132 -0.787868
v -0.771776 -1.500000 -0.700000
v -0.771776 -1.287868 -0.787868
v -0.771776 -1.200000 -1.000000
v -0.771776 -1.287868 -1.212132
v -0.771776 -1.500000 -1.300000
v -0.771776 -1.712132 -1.212132
v -0.771776 -1.800000 -1.000000
v -0.771776 -1.712132 -0.787868
v -0.600000 -1.500000 -1.700000
v -0.600000 -1.287868 -1.787868
v -0.600000 -1.200000 -2.000000
v -0.600000 -1.287868 -2.212132
v -0.600000 -1.500000 -2.300000
v -0.600000 -1.712132 -2.212132
v -0.600000 -1.800000 -2.000000
v -0.600000 -1.712132 -1.787868
v -0.771776 -1.500000 -1.700000
v -0.771776 -1.287868 -1.787868
v -0.771776 -1.200000 -2.000000
v -0.771776 -1.287868 -2.212132
v -0.771776 -1.500000 -2.300000
v -0.771776 -1.712132 -2.212132
v -0.771776 -1.800000 -2.000000
v -0.771776 -1.712132 -1.787868
v 0.980000 -0.700000 0.320000
v 0.980000 2.100000 0.320000
v 0.980000 -0.700000 1.280000
v 0.980000 2.100000 1.280000
v -0.980000 -0.700000 0.320000
v -0.980000 2.100000 0.320000
v -0.980000 -0.700000 1.280000
v -0.980000 2.100000 1.280000
v 0.500000 -0.700000 -2.600000
v 0.500000 1.900000 -2.600000
v 0.500000 -0.700000 2.600000
v 0.500000 1.900000 2.600000
v -0.500000 -0.700000 -2.600000
v -0.500000 1.900000 -2.600000
v -0.500000 -0.700000 2.600000
v -0.500000 1.900000 2.600000
v 1.000000 -1.300000 -3.000000
v 1.000000 -0.700000 -3.000000
v 1.000000 -1.300000 3.000000
v 1.000000 -0.700000 3.000000
v -1.000000 -1.300000 -3.000000
v -1.000000 -0.700000 -3.000000
v -1.000000 -1.300000 3.000000
v -1.000000 -0.700000 3.000000
v -1.000000 -1.450000 -3.000000
v -1.000000 -1.050000 -3.000000
v -1.000000 -1.450000 3.000000
v -1.000000 -1.050000 3.000000
v -1.100000 -1.450000 -3.000000
v -1.100000 -1.050000 -3.000000
v -1.100000 -1.450000 3.000000
v -1.100000 -1.050000 3.000000
v 1.100000 -1.450000 -3.000000
v 1.100000 -1.050000 -3.000000
v 1.099999 -1.450000 3.000000
v 1.099999 -1.050000 3.000000
v 1.000000 -1.450000 -3.000000
v 1.000000 -1.050000 -3.000000
v 0.999999 -1.450000 3.000000
v 0.999999 -1.050000 3.000000
v 1.099999 -1.450000 3.000000
v 1.099999 -1.050000 3.000000
v 1.099999 -1.450000 3.100000
v 1.099999 -1.050000 3.100000
v -1.100000 -1.450000 3.000000
v -1.100000 -1.050000 3.000000
v -1.100000 -1.450000 3.100000
v -1.100000 -1.050000 3.100000
v 1.100000 -1.450000 -3.099999
v 1.100000 -1.050000 -3.099999
v 1.100000 -1.450000 -3.000000
v 1.100000 -1.050000 -3.000000
v -1.100000 -1.450000 -3.099999
v -1.100000 -1.050000 -3.099999
v -1.100000 -1.450000 -3.000000
v -1.100000 -1.050000 -3.000000
v 1.050000 2.100000 0.260000
v 1.050000 2.300000 0.260000
v 1.050000 2.100000 1.340000
v 1.050000 2.300000 1.340000
v -1.050000 2.100000 0.260000
v -1.050000 2.300000 0.260000
v -1.050000 2.100000 1.340000
v -1.050000 2.300000 1.340000
v -1.000000 -1.050000 -0.300000
v -1.000000 0.450000 -0.300000
v -1.000000 -1.050000 -0.200000
v -1.000000 0.450000 -0.200000
v -1.100000 -1.050000 -0.300000
v -1.100000 0.450000 -0.300000
v -1.100000 -1.050000 -0.200000
v -1.100000 0.450000 -0.200000
v 1.100000 -1.050000 -3.100000
v 1.100000 0.450000 -3.100000
v 1.100000 -1.050000 -3.000000
v 1.100000 0.450000 -3.000000
v 1.000000 -1.050000 -3.100000
v 1.000000 0.450000 -3.100000
v 1.000000 -1.050000 -3.000000
v 1.000000 0.450000 -3.000000
v -1.000000 -1.050000 -3.100000
v -1.000000 0.450000 -3.100000
v -1.000000 -1.050000 -3.000000
v -1.000000 0.450000 -3.000000
v -1.100000 -1.050000 -3.100000
v -1.100000 0.450000 -3.100000
v -1.100000 -1.050000 -3.000000
v -1.100000 0.450000 -3.000000
v 0.400000 -1.050000 -3.100000
v 0.400000 0.450000 -3.100000
v 0.400000 -1.050000 -3.000000
v 0.400000 0.450000 -3.000000
v 0.300000 -1.050000 -3.100000
v 0.300000 0.450000 -3.100000
v 0.300000 -1.050000 -3.000000
v 0.300000 0.450000 -3.000000
v -0.300000 -1.050000 -3.100000
v -0.300000 0.450000 -3.100000
v -0.300000 -1.050000 -3.000000
v -0.300000 0.450000 -3.000000
v -0.400000 -1.050000 -3.100000
v -0.400000 0.450000 -3.100000
v -0.400000 -1.050000 -3.000000
v -0.400000 0.450000 -3.000000
v 1.100000 -1.050000 3.000000
v 1.100000 0.450000 3.000000
v 1.100000 -1.050000 3.100000
v 1.100000 0.450000 3.100000
v 1.000000 -1.050000 3.000000
v 1.000000 0.450000 3.000000
v 1.000000 -1.050000 3.100000
v 1.000000 0.450000 3.100000
v -1.000000 -1.050000 3.000000
v -1.000000 0.450000 3.000000
v -1.000000 -1.050000 3.100000
v -1.000000 0.450000 3.100000
v -1.100000 -1.050000 3.000000
v -1.100000 0.450000 3.000000
v -1.100000 -1.050000 3.100000
v -1.100000 0.450000 3.100000
v 1.100000 -1.050000 -2.400000
v 1.100000 0.450000 -2.400000
v 1.100000 -1.050000 -2.300000
v 1.100000 0.450000 -2.300000
v 1.000000 -1.050000 -2.400000
v 1.000000 0.450000 -2.400000
v 1.000000 -1.050000 -2.300000
v 1.000000 0.450000 -2.300000
v 1.100000 -1.050000 -1.700000
v 1.100000 0.450000 -1.700000
v 1.100000 -1.050000 -1.600000
v 1.100000 0.450000 -1.600000
v 1.000000 -1.050000 -1.700000
v 1.000000 0.450000 -1.700000
v 1.000000 -1.050000 -1.600000
v 1.000000 0.450000 -1.600000
v 1.100000 -1.050000 -1.000000
v 1.100000 0.450000 -1.000000
v 1.100000 -1.050000 -0.900000
v 1.100000 0.450000 -0.900000
v 1.000000 -1.050000 -1.000000
v 1.000000 0.450000 -1.000000
v 1.000000 -1.050000 -0.900000
v 1.000000 0.450000 -0.900000
v 1.100000 -1.050000 -0.300000
v 1.100000 0.450000 -0.300000
v 1.100000 -1.050000 -0.200000
v 1.100000 0.450000 -0.200000
v 1.000000 -1.050000 -0.300000
v 1.000000 0.450000 -0.300000
v 1.000000 -1.050000 -0.200000
v 1.000000 0.450000 -0.200000
v -1.000000 -1.050000 -1.000000
v -1.000000 0.450000 -1.000000
v -1.000000 -1.050000 -0.900000
v -1.000000 0.450000 -0.900000
v -1.100000 -1.050000 -1.000000
v -1.100000 0.450000 -1.000000
v -1.100000 -1.050000 -0.900000
v -1.100000 0.450000 -0.900000
v -1.000000 -1.050000 -1.700000
v -1.000000 0.450000 -1.700000
v -1.000000 -1.050000 -1.600000
v -1.000000 0.450000 -1.600000
v -1.100000 -1.050000 -1.700000
v -1.100000 0.450000 -1.700000
v -1.100000 -1.050000 -1.600000
v -1.100000 0.450000 -1.600000
v -1.000000 -1.050000 -2.400000
v -1.000000 0.450000 -2.400000
v -1.000000 -1.050000 -2.300000
v -1.000000 0.450000 -2.300000
v -1.100000 -1.050000 -2.400000
v -1.100000 0.450000 -2.400000
v -1.100000 -1.050000 -2.300000
v -1.100000 0.450000 -2.300000
v 1.100000 0.450000 -3.100000
v 1.100000 0.550000 -3.100000
v 1.100000 0.450000 -3.000000
v 1.100000 0.550000 -3.000000
v -1.100000 0.450000 -3.100000
v -1.100000 0.550000 -3.100000
v -1.100000 0.450000 -3.000000
v -1.100000 0.550000 -3.000000
v 1.100000 0.450000 -3.000000
v 1.100000 0.550000 -3.000000
v 1.100000 0.450000 -0.200000
v 1.100000 0.550000 -0.200000
v 1.000000 0.450000 -3.000000
v 1.000000 0.550000 -3.000000
v 1.000000 0.450000 -0.200000
v 1.000000 0.550000 -0.200000
v -1.000000 0.450000 -3.000000
v -1.000000 0.550000 -3.000000
v -1.000000 0.450000 -0.200000
v -1.000000 0.550000 -0.200000
v -1.100000 0.450000 -3.000000
v -1.100000 0.550000 -3.000000
v -1.100000 0.450000 -0.200000
v -1.100000 0.550000 -0.200000
v 1.100000 -1.050000 2.300000
v 1.100000 0.450000 2.300000
v 1.100000 -1.050000 2.400000
v 1.100000 0.450000 2.400000
v 1.000000 -1.050000 2.300000
v 1.000000 0.450000 2.300000
v 1.000000 -1.050000 2.400000
v 1.000000 0.450000 2.400000
v 1.100000 -1.050000 1.600000
v 1.100000 0.450000 1.600000
v 1.100000 -1.050000 1.700000
v 1.100000 0.450000 1.700000
v 1.000000 -1.050000 1.600000
v 1.000000 0.450000 1.600000
v 1.000000 -1.050000 1.700000
v 1.000000 0.450000 1.700000
v 1.100000 0.450000 1.600000
v 1.100000 0.550000 1.600000
v 1.100000 0.450000 3.100000
v 1.100000 0.550000 3.100000
v 1.000000 0.450000 1.600000
v 1.000000 0.550000 1.600000
v 1.000000 0.450000 3.100000
v 1.000000 0.550000 3.100000
v -1.000000 0.450000 1.600000
v -1.000000 0.550000 1.600000
v -1.000000 0.450000 3.100000
v -1.000000 0.550000 3.100000
v -1.100000 0.450000 1.600000
v -1.100000 0.550000 1.600000
v -1.100000 0.450000 3.100000
v -1.100000 0.550000 3.100000
v -1.000000 -1.050000 1.600000
v -1.000000 0.450000 1.600000
v -1.000000 -1.050000 1.700000
v -1.000000 0.450000 1.700000
v -1.100000 -1.050000 1.600000
v -1.100000 0.450000 1.600000
v -1.100000 -1.050000 1.700000
v -1.100000 0.450000 1.700000
v -1.000000 -1.050000 2.300000
v -1.000000 0.450000 2.300000
v -1.000000 -1.050000 2.400000
v -1.000000 0.450000 2.400000
v -1.100000 -1.050000 2.300000
v -1.100000 0.450000 2.300000
v -1.100000 -1.050000 2.400000
v -1.100000 0.450000 2.400000
v 1.000000 0.450000 3.000000
v 1.000000 0.550000 3.000000
v 1.000000 0.450000 3.100000
v 1.000000 0.550000 3.100000
v -1.000000 0.450000 3.000000
v -1.000000 0.550000 3.000000
v -1.000000 0.450000 3.100000
v -1.000000 0.550000 3.100000
v -0.300001 -1.050000 3.000000
v -0.300000 0.450000 3.000000
v -0.300001 -1.050000 3.100000
v -0.300000 0.450000 3.100000
v -0.400000 -1.050000 3.000000
v -0.400000 0.450000 3.000000
v -0.400000 -1.050000 3.100000
v -0.400000 0.450000 3.100000
v 0.400000 -1.050000 3.000000
v 0.400000 0.450000 3.000000
v 0.400000 -1.050000 3.100000
v 0.400000 0.450000 3.100000
v 0.300000 -1.050000 3.000000
v 0.300000 0.450000 3.000000
v 0.300000 -1.050000 3.100000
v 0.300000 0.450000 3.100000
v 0.100000 1.500000 2.600000
v 0.100000 1.700000 2.600000
v 0.100000 1.500000 2.800000
v 0.100000 1.700000 2.800000
v -0.100000 1.500000 2.600000
v -0.100000 1.700000 2.600000
v -0.100000 1.500000 2.800000
v -0.100000 1.700000 2.800000
vn 1.0000 -0.0000 -0.0000
vn -1.0000 -0.0000 -0.0000
vn -0.0000 -0.9239 0.3827
vn -0.0000 -0.3827 -0.9239
vn -0.0000 0.9239 -0.3827
vn -0.0000 0.3827 0.9239
vn -0.0000 -0.3827 0.9239
vn -0.0000 -0.9239 -0.3827
vn -0.0000 0.3827 -0.9239
vn -0.0000 0.9239 0.3827
vn -0.0000 -0.0000 1.0000
vn -0.0000 -0.0000 -1.0000
vn -0.0000 -1.0000 -0.0000
vn -0.0000 1.0000 -0.0000
vt 0.474852 0.127330
vt 0.484176 0.123468
vt 0.488038 0.132792
vt 0.488156 0.087417
vt 0.497480 0.083555
vt 0.501342 0.092879
vt 0.512354 0.142352
vt 0.509290 0.147814
vt 0.509290 0.142352
vt 0.515537 0.147814
vt 0.512472 0.142352
vt 0.515537 0.142352
vt 0.518720 0.147814
vt 0.515655 0.142352
vt 0.518720 0.142352
vt 0.521903 0.147814
vt 0.518838 0.142352
vt 0.521903 0.142352
vt 0.525085 0.142352
vt 0.522021 0.147814
vt 0.522021 0.142352
vt 0.464612 0.147932
vt 0.461547 0.153394
vt 0.461547 0.147932
vt 0.467795 0.153394
vt 0.464730 0.147932
vt 0.467795 0.147932
vt 0.470978 0.153394
vt 0.467913 0.147932
vt 0.470978 0.147932
vt 0.488156 0.114025
vt 0.497480 0.110163
vt 0.501342 0.119487
vt 0.514647 0.100721
vt 0.514647 0.106183
vt 0.501460 0.100721
vt 0.461547 0.147814
vt 0.464612 0.142352
vt 0.464612 0.147814
vt 0.533531 0.124931
vt 0.528069 0.127996
vt 0.528069 0.124931
vt 0.521903 0.153394
vt 0.518838 0.147932
vt 0.521903 0.147932
vt 0.533531 0.112200
vt 0.528069 0.115264
vt 0.528069 0.112200
vt 0.528069 0.115383
vt 0.533531 0.118447
vt 0.528069 0.118447
vt 0.506107 0.142234
vt 0.509171 0.136772
vt 0.509171 0.142234
vt 0.528069 0.124813
vt 0.533531 0.121748
vt 0.533531 0.124813
vt 0.477343 0.142234
vt 0.474279 0.136772
vt 0.477343 0.136772
vt 0.492018 0.110045
vt 0.488156 0.100721
vt 0.497480 0.096859
vt 0.510785 0.110163
vt 0.514647 0.119487
vt 0.505323 0.123349
vt 0.467795 0.142352
vt 0.464730 0.147814
vt 0.464730 0.142352
vt 0.474160 0.147932
vt 0.471096 0.153394
vt 0.471096 0.147932
vt 0.533531 0.109017
vt 0.528069 0.112082
vt 0.528069 0.109017
vt 0.493257 0.147814
vt 0.490193 0.142352
vt 0.493257 0.142352
vt 0.496440 0.142352
vt 0.493376 0.147814
vt 0.493376 0.142352
vt 0.533531 0.137544
vt 0.528069 0.134479
vt 0.533531 0.134479
vt 0.477343 0.153394
vt 0.474279 0.147932
vt 0.477343 0.147932
vt 0.518720 0.153394
vt 0.515655 0.147932
vt 0.518720 0.147932
vt 0.474734 0.119487
vt 0.465410 0.123349
vt 0.461547 0.114025
vt 0.465410 0.136654
vt 0.461547 0.127330
vt 0.470872 0.123468
vt 0.486892 0.142234
vt 0.483827 0.136772
vt 0.486892 0.136772
vt 0.480526 0.147932
vt 0.477462 0.153394
vt 0.477462 0.147932
vt 0.470978 0.147814
vt 0.467913 0.142352
vt 0.470978 0.142352
vt 0.499623 0.147814
vt 0.496558 0.142352
vt 0.499623 0.142352
vt 0.502806 0.147814
vt 0.499741 0.142352
vt 0.502806 0.142352
vt 0.496558 0.142234
vt 0.499623 0.136772
vt 0.499623 0.142234
vt 0.483709 0.153394
vt 0.480644 0.147932
vt 0.483709 0.147932
vt 0.474160 0.147814
vt 0.471096 0.142352
vt 0.474160 0.142352
vt 0.474852 0.114025
vt 0.484176 0.110163
vt 0.488038 0.119487
vt 0.492018 0.123468
vt 0.497480 0.123468
vt 0.501342 0.127330
vt 0.502806 0.136772
vt 0.499741 0.142234
vt 0.499741 0.136772
vt 0.486892 0.153394
vt 0.483827 0.147932
vt 0.486892 0.147932
vt 0.470978 0.142234
vt 0.467913 0.136772
vt 0.470978 0.136772
vt 0.505989 0.147814
vt 0.502924 0.142352
vt 0.505989 0.142352
vt 0.509171 0.147814
vt 0.506107 0.142352
vt 0.509171 0.142352
vt 0.505989 0.136772
vt 0.502924 0.142234
vt 0.502924 0.136772
vt 0.490075 0.153394
vt 0.487010 0.147932
vt 0.490075 0.147932
vt 0.533531 0.128114
vt 0.528069 0.131178
vt 0.528069 0.128114
vt 0.501460 0.087417
vt 0.510785 0.083555
vt 0.514647 0.092879
vt 0.465410 0.096741
vt 0.461547 0.087417
vt 0.470872 0.083555
vt 0.490193 0.153394
vt 0.493257 0.147932
vt 0.493257 0.153394
vt 0.493376 0.147932
vt 0.496440 0.153394
vt 0.493376 0.153394
vt 0.525085 0.153394
vt 0.522021 0.147932
vt 0.525085 0.147932
vt 0.533531 0.089920
vt 0.528069 0.092985
vt 0.528069 0.089920
vt 0.533531 0.102651
vt 0.528069 0.105716
vt 0.528069 0.102651
vt 0.499741 0.153394
vt 0.502806 0.147932
vt 0.502806 0.153394
vt 0.505989 0.153394
vt 0.502924 0.147932
vt 0.505989 0.147932
vt 0.533531 0.083555
vt 0.528069 0.086619
vt 0.528069 0.083555
vt 0.478714 0.083555
vt 0.488038 0.087417
vt 0.484176 0.096741
vt 0.461547 0.100721
vt 0.470872 0.096859
vt 0.474734 0.106183
vt 0.512472 0.142234
vt 0.515537 0.136772
vt 0.515537 0.142234
vt 0.496558 0.147932
vt 0.499623 0.153394
vt 0.496558 0.153394
vt 0.467795 0.142234
vt 0.464730 0.136772
vt 0.467795 0.136772
vt 0.533531 0.105834
vt 0.528069 0.108899
vt 0.528069 0.105834
vt 0.528069 0.086737
vt 0.533531 0.089802
vt 0.528069 0.089802
vt 0.471096 0.136772
vt 0.474160 0.142234
vt 0.471096 0.142234
vt 0.528069 0.121630
vt 0.533531 0.118565
vt 0.533531 0.121630
vt 0.512354 0.142234
vt 0.509290 0.136772
vt 0.512354 0.136772
vt 0.484176 0.096859
vt 0.488038 0.106183
vt 0.478714 0.110045
vt 0.505323 0.123468
vt 0.514647 0.127330
vt 0.510785 0.136654
vt 0.461547 0.142234
vt 0.464612 0.136772
vt 0.464612 0.142234
vt 0.480644 0.147814
vt 0.483709 0.142352
vt 0.483709 0.147814
vt 0.477343 0.147814
vt 0.474279 0.142352
vt 0.477343 0.142352
vt 0.533531 0.093103
vt 0.528069 0.096168
vt 0.528069 0.093103
vt 0.518720 0.142234
vt 0.515655 0.136772
vt 0.518720 0.136772
vt 0.528069 0.137662
vt 0.533531 0.140727
vt 0.528069 0.140727
vt 0.509171 0.153394
vt 0.506107 0.147932
vt 0.509171 0.147932
vt 0.533531 0.131297
vt 0.528069 0.134361
vt 0.528069 0.131297
vt 0.524089 0.096741
vt 0.514765 0.092879
vt 0.518627 0.083555
vt 0.524089 0.110045
vt 0.514765 0.106183
vt 0.518627 0.096859
vt 0.487010 0.142234
vt 0.490075 0.136772
vt 0.490075 0.142234
vt 0.483827 0.147814
vt 0.486892 0.142352
vt 0.486892 0.147814
vt 0.480526 0.147814
vt 0.477462 0.142352
vt 0.480526 0.142352
vt 0.533531 0.096286
vt 0.528069 0.099350
vt 0.528069 0.096286
vt 0.521903 0.142234
vt 0.518838 0.136772
vt 0.521903 0.136772
vt 0.533531 0.147092
vt 0.528069 0.144028
vt 0.533531 0.144028
vt 0.512354 0.153394
vt 0.509290 0.147932
vt 0.512354 0.147932
vt 0.533531 0.140845
vt 0.528069 0.143910
vt 0.528069 0.140845
vt 0.524089 0.123349
vt 0.514765 0.119487
vt 0.518627 0.110163
vt 0.518627 0.123468
vt 0.524089 0.123468
vt 0.527951 0.127330
vt 0.490193 0.142234
vt 0.493257 0.136772
vt 0.493257 0.142234
vt 0.487010 0.142352
vt 0.490075 0.147814
vt 0.487010 0.147814
vt 0.480526 0.142234
vt 0.477462 0.136772
vt 0.480526 0.136772
vt 0.533531 0.099469
vt 0.528069 0.102533
vt 0.528069 0.099469
vt 0.525085 0.142234
vt 0.522021 0.136772
vt 0.525085 0.136772
vt 0.493376 0.136772
vt 0.496440 0.142234
vt 0.493376 0.142234
vt 0.515537 0.153394
vt 0.512472 0.147932
vt 0.515537 0.147932
vt 0.483709 0.142234
vt 0.480644 0.136772
vt 0.483709 0.136772
vt 0.131788 0.794700
vt 0.093114 0.833374
vt 0.093114 0.794700
vt 0.131788 0.833374
vt 0.093114 0.872047
vt 0.131788 0.872047
vt 0.093114 0.910720
vt 0.131788 0.910720
vt 0.093114 0.949394
vt 0.054441 0.910720
vt 0.054441 0.872047
vt 0.170461 0.872047
vt 0.195474 0.093986
vt 0.159800 0.129660
vt 0.159800 0.093986
vt 0.195474 0.129660
vt 0.159800 0.165334
vt 0.195474 0.165334
vt 0.159800 0.201007
vt 0.195474 0.201007
vt 0.159800 0.236681
vt 0.124127 0.201007
vt 0.124127 0.165334
vt 0.231148 0.165334
vt 0.910547 0.107891
vt 0.881825 0.136612
vt 0.881825 0.107891
vt 0.910547 0.136612
vt 0.881825 0.165334
vt 0.910547 0.165334
vt 0.881825 0.194055
vt 0.910547 0.194055
vt 0.881825 0.222776
vt 0.853104 0.194055
vt 0.853104 0.165334
vt 0.939268 0.165334
vt 0.879425 0.788516
vt 0.844045 0.823895
vt 0.844045 0.788516
vt 0.879425 0.823895
vt 0.844045 0.859274
vt 0.879425 0.859274
vt 0.844045 0.894654
vt 0.879425 0.894654
vt 0.844045 0.930033
vt 0.808666 0.894654
vt 0.808666 0.859274
vt 0.914804 0.859274
vt 0.914804 0.894654
vt 0.516350 0.806178
vt 0.483650 0.838878
vt 0.483650 0.806178
vt 0.516350 0.838878
vt 0.483650 0.871578
vt 0.516350 0.871578
vt 0.483650 0.904278
vt 0.516350 0.904278
vt 0.483650 0.936978
vt 0.450950 0.871578
vt 0.450950 0.904278
vt 0.549050 0.871578
vt 0.478714 0.136654
vt 0.474852 0.132792
vt 0.478714 0.123468
vt 0.488038 0.127330
vt 0.484176 0.136654
vt 0.497480 0.096741
vt 0.492018 0.096741
vt 0.488156 0.092879
vt 0.492018 0.083555
vt 0.501342 0.087417
vt 0.512354 0.147814
vt 0.512472 0.147814
vt 0.515655 0.147814
vt 0.518838 0.147814
vt 0.525085 0.147814
vt 0.464612 0.153394
vt 0.464730 0.153394
vt 0.467913 0.153394
vt 0.492018 0.123349
vt 0.488156 0.119487
vt 0.492018 0.110163
vt 0.501342 0.114025
vt 0.497480 0.123349
vt 0.510785 0.110045
vt 0.505323 0.110045
vt 0.501460 0.106183
vt 0.505323 0.096859
vt 0.510785 0.096859
vt 0.461547 0.142352
vt 0.533531 0.127996
vt 0.518838 0.153394
vt 0.533531 0.115264
vt 0.533531 0.115383
vt 0.506107 0.136772
vt 0.528069 0.121748
vt 0.474279 0.142234
vt 0.488156 0.106183
vt 0.492018 0.096859
vt 0.501342 0.100721
vt 0.501342 0.106183
vt 0.497480 0.110045
vt 0.514647 0.114025
vt 0.510785 0.123349
vt 0.501460 0.119487
vt 0.501460 0.114025
vt 0.505323 0.110163
vt 0.467795 0.147814
vt 0.474160 0.153394
vt 0.533531 0.112082
vt 0.490193 0.147814
vt 0.496440 0.147814
vt 0.528069 0.137544
vt 0.474279 0.153394
vt 0.515655 0.153394
vt 0.465410 0.110163
vt 0.470872 0.110163
vt 0.474734 0.114025
vt 0.470872 0.123349
vt 0.461547 0.119487
vt 0.474734 0.132792
vt 0.470871 0.136654
vt 0.461547 0.132792
vt 0.465410 0.123468
vt 0.474734 0.127330
vt 0.483827 0.142234
vt 0.480526 0.153394
vt 0.467913 0.147814
vt 0.496558 0.147814
vt 0.499741 0.147814
vt 0.496558 0.136772
vt 0.480644 0.153394
vt 0.471096 0.147814
vt 0.478714 0.110163
vt 0.488038 0.114025
vt 0.484176 0.123349
vt 0.478714 0.123349
vt 0.474852 0.119487
vt 0.501342 0.132792
vt 0.497480 0.136654
vt 0.492018 0.136654
vt 0.488156 0.132792
vt 0.488156 0.127330
vt 0.502806 0.142234
vt 0.483827 0.153394
vt 0.467913 0.142234
vt 0.502924 0.147814
vt 0.506107 0.147814
vt 0.505989 0.142234
vt 0.487010 0.153394
vt 0.533531 0.131178
vt 0.510785 0.096741
vt 0.505323 0.096741
vt 0.501460 0.092879
vt 0.505323 0.083555
vt 0.514647 0.087417
vt 0.461547 0.092879
vt 0.465410 0.083555
vt 0.474734 0.087417
vt 0.474734 0.092879
vt 0.470872 0.096741
vt 0.490193 0.147932
vt 0.496440 0.147932
vt 0.522021 0.153394
vt 0.533531 0.092985
vt 0.533531 0.105716
vt 0.499741 0.147932
vt 0.502924 0.153394
vt 0.533531 0.086619
vt 0.474852 0.092879
vt 0.474852 0.087417
vt 0.484176 0.083555
vt 0.488038 0.092879
vt 0.478714 0.096741
vt 0.470872 0.110045
vt 0.465410 0.110045
vt 0.461547 0.106183
vt 0.465410 0.096859
vt 0.474734 0.100721
vt 0.512472 0.136772
vt 0.499623 0.147932
vt 0.464730 0.142234
vt 0.533531 0.108899
vt 0.533531 0.086737
vt 0.474160 0.136772
vt 0.528069 0.118565
vt 0.509290 0.142234
vt 0.474852 0.100721
vt 0.478714 0.096859
vt 0.488038 0.100721
vt 0.484176 0.110045
vt 0.474852 0.106183
vt 0.505323 0.136654
vt 0.501460 0.132792
vt 0.501460 0.127330
vt 0.510785 0.123468
vt 0.514647 0.132792
vt 0.461547 0.136772
vt 0.480644 0.142352
vt 0.474279 0.147814
vt 0.533531 0.096168
vt 0.515655 0.142234
vt 0.533531 0.137662
vt 0.506107 0.153394
vt 0.533531 0.134361
vt 0.518627 0.096741
vt 0.514765 0.087417
vt 0.524089 0.083555
vt 0.527951 0.087417
vt 0.527951 0.092879
vt 0.527951 0.100721
vt 0.527951 0.106183
vt 0.518627 0.110045
vt 0.514765 0.100721
vt 0.524089 0.096859
vt 0.487010 0.136772
vt 0.483827 0.142352
vt 0.477462 0.147814
vt 0.533531 0.099350
vt 0.518838 0.142234
vt 0.528069 0.147092
vt 0.509290 0.153394
vt 0.533531 0.143910
vt 0.518627 0.123349
vt 0.514765 0.114025
vt 0.524089 0.110163
vt 0.527951 0.114025
vt 0.527951 0.119487
vt 0.527951 0.132792
vt 0.524089 0.136654
vt 0.518627 0.136654
vt 0.514765 0.132792
vt 0.514765 0.127330
vt 0.490193 0.136772
vt 0.490075 0.142352
vt 0.477462 0.142234
vt 0.533531 0.102533
vt 0.522021 0.142234
vt 0.496440 0.136772
vt 0.512472 0.153394
vt 0.480644 0.142234
vt 0.131788 0.949394
vt 0.170461 0.910720
vt 0.195474 0.236681
vt 0.231148 0.201007
vt 0.910547 0.222776
vt 0.939268 0.194055
vt 0.879425 0.930033
vt 0.516350 0.936978
vt 0.549050 0.904278
s 0
usemtl マテリアル.002
f 1/1/1 7/2/1 5/3/1
f 13/4/2 15/5/2 9/6/2
f 7/7/3 16/8/3 15/9/3
f 6/10/4 13/11/4 5/12/4
f 4/13/5 11/14/5 3/15/5
f 2/16/6 9/17/6 1/18/6
f 8/19/7 9/20/7 16/21/7
f 6/22/8 15/23/8 14/24/8
f 5/25/9 12/26/9 4/27/9
f 3/28/10 10/29/10 2/30/10
f 17/31/1 23/32/1 21/33/1
f 32/34/2 25/35/2 29/36/2
f 23/37/3 32/38/3 31/39/3
f 22/40/4 29/41/4 21/42/4
f 20/43/5 27/44/5 19/45/5
f 18/46/6 25/47/6 17/48/6
f 24/49/7 25/50/7 32/51/7
f 22/52/8 31/53/8 30/54/8
f 21/55/9 28/56/9 20/57/9
f 19/58/10 26/59/10 18/60/10
f 35/61/1 33/62/1 39/63/1
f 41/64/2 43/65/2 45/66/2
f 39/67/3 48/68/3 47/69/3
f 37/70/4 46/71/4 45/72/4
f 36/73/5 43/74/5 35/75/5
f 34/76/6 41/77/6 33/78/6
f 40/79/7 41/80/7 48/81/7
f 38/82/8 47/83/8 46/84/8
f 37/85/9 44/86/9 36/87/9
f 35/88/10 42/89/10 34/90/10
f 55/91/1 53/92/1 51/93/1
f 59/94/2 61/95/2 63/96/2
f 56/97/3 63/98/3 55/99/3
f 53/100/4 62/101/4 61/102/4
f 52/103/5 59/104/5 51/105/5
f 50/106/6 57/107/6 49/108/6
f 49/109/7 64/110/7 56/111/7
f 54/112/8 63/113/8 62/114/8
f 53/115/9 60/116/9 52/117/9
f 51/118/10 58/119/10 50/120/10
f 67/121/1 65/122/1 71/123/1
f 79/124/2 80/125/2 73/126/2
f 71/127/3 80/128/3 79/129/3
f 70/130/4 77/131/4 69/132/4
f 68/133/5 75/134/5 67/135/5
f 66/136/6 73/137/6 65/138/6
f 65/139/7 80/140/7 72/141/7
f 70/142/8 79/143/8 78/144/8
f 69/145/9 76/146/9 68/147/9
f 67/148/10 74/149/10 66/150/10
f 87/151/1 85/152/1 83/153/1
f 89/154/2 91/155/2 93/156/2
f 87/157/3 96/158/3 95/159/3
f 86/160/4 93/161/4 85/162/4
f 84/163/5 91/164/5 83/165/5
f 82/166/6 89/167/6 81/168/6
f 81/169/7 96/170/7 88/171/7
f 86/172/8 95/173/8 94/174/8
f 85/175/9 92/176/9 84/177/9
f 83/178/10 90/179/10 82/180/10
f 97/181/1 103/182/1 101/183/1
f 109/184/2 111/185/2 105/186/2
f 103/187/3 112/188/3 111/189/3
f 102/190/4 109/191/4 101/192/4
f 100/193/5 107/194/5 99/195/5
f 98/196/6 105/197/6 97/198/6
f 104/199/7 105/200/7 112/201/7
f 103/202/8 110/203/8 102/204/8
f 101/205/9 108/206/9 100/207/9
f 99/208/10 106/209/10 98/210/10
f 113/211/1 119/212/1 117/213/1
f 125/214/2 127/215/2 121/216/2
f 119/217/3 128/218/3 127/219/3
f 117/220/4 126/221/4 125/222/4
f 116/223/5 123/224/5 115/225/5
f 114/226/6 121/227/6 113/228/6
f 113/229/7 128/230/7 120/231/7
f 118/232/8 127/233/8 126/234/8
f 117/235/9 124/236/9 116/237/9
f 115/238/10 122/239/10 114/240/10
f 131/241/1 129/242/1 135/243/1
f 139/244/2 141/245/2 143/246/2
f 135/247/3 144/248/3 143/249/3
f 133/250/4 142/251/4 141/252/4
f 132/253/5 139/254/5 131/255/5
f 130/256/6 137/257/6 129/258/6
f 129/259/7 144/260/7 136/261/7
f 134/262/8 143/263/8 142/264/8
f 133/265/9 140/266/9 132/267/9
f 131/268/10 138/269/10 130/270/10
f 147/271/1 145/272/1 151/273/1
f 159/274/2 160/275/2 153/276/2
f 151/277/3 160/278/3 159/279/3
f 150/280/4 157/281/4 149/282/4
f 148/283/5 155/284/5 147/285/5
f 146/286/6 153/287/6 145/288/6
f 145/289/7 160/290/7 152/291/7
f 151/292/8 158/293/8 150/294/8
f 149/295/9 156/296/9 148/297/9
f 147/298/10 154/299/10 146/300/10
f 162/301/1 163/302/1 161/303/1
f 164/304/11 167/305/11 163/302/11
f 168/306/2 165/307/2 167/305/2
f 166/308/12 161/309/12 165/307/12
f 167/305/13 161/310/13 163/311/13
f 164/312/14 166/308/14 168/306/14
f 170/301/1 171/302/1 169/303/1
f 172/304/11 175/305/11 171/302/11
f 176/306/2 173/307/2 175/305/2
f 174/308/12 169/309/12 173/307/12
f 175/305/13 169/310/13 171/311/13
f 172/312/14 174/308/14 176/306/14
f 178/301/1 179/302/1 177/303/1
f 180/304/11 183/305/11 179/302/11
f 184/306/2 181/307/2 183/305/2
f 182/308/12 177/309/12 181/307/12
f 183/305/13 177/310/13 179/311/13
f 180/312/14 182/308/14 184/306/14
f 186/313/1 187/314/1 185/315/1
f 188/316/11 191/317/11 187/314/11
f 192/318/2 189/319/2 191/317/2
f 190/320/12 185/321/12 189/319/12
f 191/317/13 185/322/13 187/323/13
f 188/324/14 190/320/14 192/318/14
f 194/313/1 195/314/1 193/315/1
f 196/316/11 199/317/11 195/314/11
f 200/318/2 197/319/2 199/317/2
f 198/320/12 193/321/12 197/319/12
f 199/317/13 193/322/13 195/323/13
f 196/324/14 198/320/14 200/318/14
f 202/313/1 203/314/1 201/315/1
f 204/316/11 207/317/11 203/314/11
f 208/318/2 205/319/2 207/317/2
f 206/320/12 201/321/12 205/319/12
f 207/317/13 201/322/13 203/323/13
f 204/324/14 206/320/14 208/318/14
f 210/313/1 211/314/1 209/315/1
f 212/316/11 215/317/11 211/314/11
f 216/318/2 213/319/2 215/317/2
f 214/320/12 209/321/12 213/319/12
f 215/317/13 209/322/13 211/323/13
f 212/324/14 214/320/14 216/318/14
f 218/325/1 219/326/1 217/327/1
f 220/328/11 223/329/11 219/326/11
f 224/330/2 221/331/2 223/329/2
f 222/332/12 217/333/12 221/331/12
f 223/329/13 217/334/13 219/335/13
f 220/336/14 222/332/14 224/330/14
f 226/337/1 227/338/1 225/339/1
f 228/340/11 231/341/11 227/338/11
f 232/342/2 229/343/2 231/341/2
f 230/344/12 225/345/12 229/343/12
f 231/341/13 225/346/13 227/347/13
f 228/348/14 230/344/14 232/342/14
f 234/337/1 235/338/1 233/339/1
f 236/340/11 239/341/11 235/338/11
f 240/342/2 237/343/2 239/341/2
f 238/344/12 233/345/12 237/343/12
f 239/341/13 233/346/13 235/347/13
f 236/348/14 238/344/14 240/342/14
f 242/337/1 243/338/1 241/339/1
f 244/340/11 247/341/11 243/338/11
f 248/342/2 245/343/2 247/341/2
f 246/344/12 241/345/12 245/343/12
f 243/347/13 245/343/13 241/346/13
f 244/348/14 246/344/14 248/342/14
f 250/337/1 251/338/1 249/339/1
f 252/340/11 255/341/11 251/338/11
f 256/342/2 253/343/2 255/341/2
f 254/344/12 249/345/12 253/343/12
f 255/341/13 249/346/13 251/347/13
f 252/348/14 254/344/14 256/342/14
f 258/337/1 259/338/1 257/339/1
f 260/340/11 263/341/11 259/338/11
f 264/342/2 261/343/2 263/341/2
f 262/344/12 257/345/12 261/343/12
f 263/341/13 257/346/13 259/347/13
f 260/348/14 262/344/14 264/342/14
f 266/337/1 267/338/1 265/339/1
f 268/340/11 271/341/11 267/338/11
f 272/342/2 269/343/2 271/341/2
f 270/344/12 265/345/12 269/343/12
f 267/347/13 269/343/13 265/346/13
f 268/348/14 270/344/14 272/342/14
f 274/337/1 275/338/1 273/339/1
f 276/340/11 279/341/11 275/338/11
f 280/342/2 277/343/2 279/341/2
f 278/344/12 273/345/12 277/343/12
f 279/341/13 273/346/13 275/347/13
f 276/348/14 278/344/14 280/342/14
f 282/337/1 283/338/1 281/339/1
f 284/340/11 287/341/11 283/338/11
f 288/342/2 285/343/2 287/341/2
f 286/344/12 281/345/12 285/343/12
f 287/341/13 281/346/13 283/347/13
f 284/348/14 286/344/14 288/342/14
f 290/337/1 291/338/1 289/339/1
f 292/340/11 295/341/11 291/338/11
f 296/342/2 293/343/2 295/341/2
f 294/344/12 289/345/12 293/343/12
f 295/341/13 289/346/13 291/347/13
f 292/348/14 294/344/14 296/342/14
f 298/337/1 299/338/1 297/339/1
f 300/340/11 303/341/11 299/338/11
f 304/342/2 301/343/2 303/341/2
f 302/344/12 297/345/12 301/343/12
f 303/341/13 297/346/13 299/347/13
f 304/342/14 298/349/14 302/344/14
f 306/337/1 307/338/1 305/339/1
f 308/340/11 311/341/11 307/338/11
f 312/342/2 309/343/2 311/341/2
f 310/344/12 305/345/12 309/343/12
f 311/341/13 305/346/13 307/347/13
f 308/348/14 310/344/14 312/342/14
f 314/337/1 315/338/1 313/339/1
f 316/340/11 319/341/11 315/338/11
f 320/342/2 317/343/2 319/341/2
f 318/344/12 313/345/12 317/343/12
f 319/341/13 313/346/13 315/347/13
f 320/342/14 314/349/14 318/344/14
f 322/337/1 323/338/1 321/339/1
f 324/340/11 327/341/11 323/338/11
f 328/342/2 325/343/2 327/341/2
f 326/344/12 321/345/12 325/343/12
f 327/341/13 321/346/13 323/347/13
f 324/348/14 326/344/14 328/342/14
f 330/337/1 331/338/1 329/339/1
f 332/340/11 335/341/11 331/338/11
f 336/342/2 333/343/2 335/341/2
f 334/344/12 329/345/12 333/343/12
f 335/341/13 329/346/13 331/347/13
f 332/348/14 334/344/14 336/342/14
f 338/337/1 339/338/1 337/339/1
f 340/340/11 343/341/11 339/338/11
f 344/342/2 341/343/2 343/341/2
f 342/344/12 337/345/12 341/343/12
f 343/341/13 337/346/13 339/347/13
f 340/348/14 342/344/14 344/342/14
f 346/337/1 347/338/1 345/339/1
f 348/340/11 351/341/11 347/338/11
f 352/342/2 349/343/2 351/341/2
f 350/344/12 345/345/12 349/343/12
f 347/347/13 349/343/13 345/346/13
f 348/348/14 350/344/14 352/342/14
f 354/337/1 355/338/1 353/339/1
f 356/340/11 359/341/11 355/338/11
f 360/342/2 357/343/2 359/341/2
f 358/344/12 353/345/12 357/343/12
f 355/347/13 357/343/13 353/346/13
f 356/348/14 358/344/14 360/342/14
f 362/337/1 363/338/1 361/339/1
f 364/340/11 367/341/11 363/338/11
f 368/342/2 365/343/2 367/341/2
f 366/344/12 361/345/12 365/343/12
f 363/347/13 365/343/13 361/346/13
f 364/348/14 366/344/14 368/342/14
f 370/337/1 371/338/1 369/339/1
f 372/340/11 375/341/11 371/338/11
f 376/342/2 373/343/2 375/341/2
f 374/344/12 369/345/12 373/343/12
f 375/341/13 369/346/13 371/347/13
f 372/348/14 374/344/14 376/342/14
f 378/337/1 379/338/1 377/339/1
f 380/340/11 383/341/11 379/338/11
f 384/342/2 381/343/2 383/341/2
f 382/344/12 377/345/12 381/343/12
f 383/341/13 377/346/13 379/347/13
f 380/348/14 382/344/14 384/342/14
f 386/337/1 387/338/1 385/339/1
f 388/340/11 391/341/11 387/338/11
f 392/342/2 389/343/2 391/341/2
f 390/344/12 385/345/12 389/343/12
f 391/341/13 385/346/13 387/347/13
f 388/348/14 390/344/14 392/342/14
f 394/337/1 395/338/1 393/339/1
f 396/340/11 399/341/11 395/338/11
f 400/342/2 397/343/2 399/341/2
f 398/344/12 393/345/12 397/343/12
f 399/341/13 393/346/13 395/347/13
f 396/348/14 398/344/14 400/342/14
f 402/337/1 403/338/1 401/339/1
f 404/340/11 407/341/11 403/338/11
f 408/342/2 405/343/2 407/341/2
f 406/344/12 401/345/12 405/343/12
f 407/341/13 401/346/13 403/347/13
f 404/348/14 406/344/14 408/342/14
f 410/337/1 411/338/1 409/339/1
f 412/340/11 415/341/11 411/338/11
f 416/342/2 413/343/2 415/341/2
f 414/344/12 409/345/12 413/343/12
f 411/347/13 413/343/13 409/346/13
f 412/348/14 414/344/14 416/342/14
f 418/337/1 419/338/1 417/339/1
f 420/340/11 423/341/11 419/338/11
f 424/342/2 421/343/2 423/341/2
f 422/344/12 417/345/12 421/343/12
f 423/341/13 417/346/13 419/347/13
f 420/348/14 422/344/14 424/342/14
f 426/337/1 427/338/1 425/339/1
f 428/340/11 431/341/11 427/338/11
f 432/342/2 429/343/2 431/341/2
f 430/344/12 425/345/12 429/343/12
f 431/341/13 425/346/13 427/347/13
f 428/348/14 430/344/14 432/342/14
f 434/350/1 435/351/1 433/352/1
f 436/353/11 439/354/11 435/351/11
f 440/355/2 437/356/2 439/354/2
f 438/357/12 433/358/12 437/356/12
f 435/359/13 437/356/13 433/360/13
f 436/361/14 438/357/14 440/355/14
f 3/362/1 2/363/1 1/1/1
f 1/1/1 8/364/1 7/2/1
f 7/2/1 6/365/1 5/3/1
f 5/3/1 4/366/1 3/362/1
f 3/362/1 1/1/1 5/3/1
f 9/6/2 10/367/2 11/368/2
f 11/368/2 12/369/2 13/4/2
f 13/4/2 14/370/2 15/5/2
f 15/5/2 16/371/2 9/6/2
f 9/6/2 11/368/2 13/4/2
f 7/7/3 8/372/3 16/8/3
f 6/10/4 14/373/4 13/11/4
f 4/13/5 12/374/5 11/14/5
f 2/16/6 10/375/6 9/17/6
f 8/19/7 1/376/7 9/20/7
f 6/22/8 7/377/8 15/23/8
f 5/25/9 13/378/9 12/26/9
f 3/28/10 11/379/10 10/29/10
f 19/380/1 18/381/1 17/31/1
f 17/31/1 24/382/1 23/32/1
f 23/32/1 22/383/1 21/33/1
f 21/33/1 20/384/1 19/380/1
f 19/380/1 17/31/1 21/33/1
f 25/35/2 26/385/2 27/386/2
f 27/386/2 28/387/2 25/35/2
f 28/387/2 29/36/2 25/35/2
f 29/36/2 30/388/2 31/389/2
f 31/389/2 32/34/2 29/36/2
f 23/37/3 24/390/3 32/38/3
f 22/40/4 30/391/4 29/41/4
f 20/43/5 28/392/5 27/44/5
f 18/46/6 26/393/6 25/47/6
f 24/49/7 17/394/7 25/50/7
f 22/52/8 23/395/8 31/53/8
f 21/55/9 29/396/9 28/56/9
f 19/58/10 27/397/10 26/59/10
f 35/61/1 34/398/1 33/62/1
f 33/62/1 40/399/1 39/63/1
f 39/63/1 38/400/1 35/61/1
f 38/400/1 37/401/1 35/61/1
f 37/401/1 36/402/1 35/61/1
f 41/64/2 42/403/2 43/65/2
f 43/65/2 44/404/2 45/66/2
f 45/66/2 46/405/2 47/406/2
f 47/406/2 48/407/2 45/66/2
f 48/407/2 41/64/2 45/66/2
f 39/67/3 40/408/3 48/68/3
f 37/70/4 38/409/4 46/71/4
f 36/73/5 44/410/5 43/74/5
f 34/76/6 42/411/6 41/77/6
f 40/79/7 33/412/7 41/80/7
f 38/82/8 39/413/8 47/83/8
f 37/85/9 45/414/9 44/86/9
f 35/88/10 43/415/10 42/89/10
f 51/93/1 50/416/1 49/417/1
f 49/417/1 56/418/1 55/91/1
f 55/91/1 54/419/1 53/92/1
f 53/92/1 52/420/1 51/93/1
f 51/93/1 49/417/1 55/91/1
f 57/421/2 58/422/2 59/94/2
f 59/94/2 60/423/2 61/95/2
f 61/95/2 62/424/2 63/96/2
f 63/96/2 64/425/2 57/421/2
f 57/421/2 59/94/2 63/96/2
f 56/97/3 64/426/3 63/98/3
f 53/100/4 54/427/4 62/101/4
f 52/103/5 60/428/5 59/104/5
f 50/106/6 58/429/6 57/107/6
f 49/109/7 57/430/7 64/110/7
f 54/112/8 55/431/8 63/113/8
f 53/115/9 61/432/9 60/116/9
f 51/118/10 59/433/10 58/119/10
f 67/121/1 66/434/1 65/122/1
f 65/122/1 72/435/1 71/123/1
f 71/123/1 70/436/1 67/121/1
f 70/436/1 69/437/1 67/121/1
f 69/437/1 68/438/1 67/121/1
f 73/126/2 74/439/2 75/440/2
f 75/440/2 76/441/2 73/126/2
f 76/441/2 77/442/2 73/126/2
f 77/442/2 78/443/2 73/126/2
f 78/443/2 79/124/2 73/126/2
f 71/127/3 72/444/3 80/128/3
f 70/130/4 78/445/4 77/131/4
f 68/133/5 76/446/5 75/134/5
f 66/136/6 74/447/6 73/137/6
f 65/139/7 73/448/7 80/140/7
f 70/142/8 71/449/8 79/143/8
f 69/145/9 77/450/9 76/146/9
f 67/148/10 75/451/10 74/149/10
f 83/153/1 82/452/1 81/453/1
f 81/453/1 88/454/1 87/151/1
f 87/151/1 86/455/1 85/152/1
f 85/152/1 84/456/1 83/153/1
f 83/153/1 81/453/1 87/151/1
f 89/154/2 90/457/2 91/155/2
f 91/155/2 92/458/2 93/156/2
f 93/156/2 94/459/2 89/154/2
f 94/459/2 95/460/2 89/154/2
f 95/460/2 96/461/2 89/154/2
f 87/157/3 88/462/3 96/158/3
f 86/160/4 94/463/4 93/161/4
f 84/163/5 92/464/5 91/164/5
f 82/166/6 90/465/6 89/167/6
f 81/169/7 89/466/7 96/170/7
f 86/172/8 87/467/8 95/173/8
f 85/175/9 93/468/9 92/176/9
f 83/178/10 91/469/10 90/179/10
f 99/470/1 98/471/1 97/181/1
f 97/181/1 104/472/1 103/182/1
f 103/182/1 102/473/1 101/183/1
f 101/183/1 100/474/1 99/470/1
f 99/470/1 97/181/1 101/183/1
f 105/186/2 106/475/2 107/476/2
f 107/476/2 108/477/2 109/184/2
f 109/184/2 110/478/2 111/185/2
f 111/185/2 112/479/2 105/186/2
f 105/186/2 107/476/2 109/184/2
f 103/187/3 104/480/3 112/188/3
f 102/190/4 110/481/4 109/191/4
f 100/193/5 108/482/5 107/194/5
f 98/196/6 106/483/6 105/197/6
f 104/199/7 97/484/7 105/200/7
f 103/202/8 111/485/8 110/203/8
f 101/205/9 109/486/9 108/206/9
f 99/208/10 107/487/10 106/209/10
f 115/488/1 114/489/1 113/211/1
f 113/211/1 120/490/1 119/212/1
f 119/212/1 118/491/1 117/213/1
f 117/213/1 116/492/1 115/488/1
f 115/488/1 113/211/1 117/213/1
f 121/216/2 122/493/2 123/494/2
f 123/494/2 124/495/2 121/216/2
f 124/495/2 125/214/2 121/216/2
f 125/214/2 126/496/2 127/215/2
f 127/215/2 128/497/2 121/216/2
f 119/217/3 120/498/3 128/218/3
f 117/220/4 118/499/4 126/221/4
f 116/223/5 124/500/5 123/224/5
f 114/226/6 122/501/6 121/227/6
f 113/229/7 121/502/7 128/230/7
f 118/232/8 119/503/8 127/233/8
f 117/235/9 125/504/9 124/236/9
f 115/238/10 123/505/10 122/239/10
f 131/241/1 130/506/1 129/242/1
f 129/242/1 136/507/1 135/243/1
f 135/243/1 134/508/1 133/509/1
f 133/509/1 132/510/1 135/243/1
f 132/510/1 131/241/1 135/243/1
f 137/511/2 138/512/2 139/244/2
f 139/244/2 140/513/2 141/245/2
f 141/245/2 142/514/2 143/246/2
f 143/246/2 144/515/2 137/511/2
f 137/511/2 139/244/2 143/246/2
f 135/247/3 136/516/3 144/248/3
f 133/250/4 134/517/4 142/251/4
f 132/253/5 140/518/5 139/254/5
f 130/256/6 138/519/6 137/257/6
f 129/259/7 137/520/7 144/260/7
f 134/262/8 135/521/8 143/263/8
f 133/265/9 141/522/9 140/266/9
f 131/268/10 139/523/10 138/269/10
f 147/271/1 146/524/1 145/272/1
f 145/272/1 152/525/1 151/273/1
f 151/273/1 150/526/1 149/527/1
f 149/527/1 148/528/1 151/273/1
f 148/528/1 147/271/1 151/273/1
f 153/276/2 154/529/2 155/530/2
f 155/530/2 156/531/2 153/276/2
f 156/531/2 157/532/2 153/276/2
f 157/532/2 158/533/2 153/276/2
f 158/533/2 159/274/2 153/276/2
f 151/277/3 152/534/3 160/278/3
f 150/280/4 158/535/4 157/281/4
f 148/283/5 156/536/5 155/284/5
f 146/286/6 154/537/6 153/287/6
f 145/289/7 153/538/7 160/290/7
f 151/292/8 159/539/8 158/293/8
f 149/295/9 157/540/9 156/296/9
f 147/298/10 155/541/10 154/299/10
f 162/301/1 164/304/1 163/302/1
f 164/304/11 168/306/11 167/305/11
f 168/306/2 166/308/2 165/307/2
f 166/308/12 162/542/12 161/309/12
f 167/305/13 165/307/13 161/310/13
f 164/312/14 162/543/14 166/308/14
f 170/301/1 172/304/1 171/302/1
f 172/304/11 176/306/11 175/305/11
f 176/306/2 174/308/2 173/307/2
f 174/308/12 170/542/12 169/309/12
f 175/305/13 173/307/13 169/310/13
f 172/312/14 170/543/14 174/308/14
f 178/301/1 180/304/1 179/302/1
f 180/304/11 184/306/11 183/305/11
f 184/306/2 182/308/2 181/307/2
f 182/308/12 178/542/12 177/309/12
f 183/305/13 181/307/13 177/310/13
f 180/312/14 178/543/14 182/308/14
f 186/313/1 188/316/1 187/314/1
f 188/316/11 192/318/11 191/317/11
f 192/318/2 190/320/2 189/319/2
f 190/320/12 186/544/12 185/321/12
f 191/317/13 189/319/13 185/322/13
f 188/324/14 186/545/14 190/320/14
f 194/313/1 196/316/1 195/314/1
f 196/316/11 200/318/11 199/317/11
f 200/318/2 198/320/2 197/319/2
f 198/320/12 194/544/12 193/321/12
f 199/317/13 197/319/13 193/322/13
f 196/324/14 194/545/14 198/320/14
f 202/313/1 204/316/1 203/314/1
f 204/316/11 208/318/11 207/317/11
f 208/318/2 206/320/2 205/319/2
f 206/320/12 202/544/12 201/321/12
f 207/317/13 205/319/13 201/322/13
f 204/324/14 202/545/14 206/320/14
f 210/313/1 212/316/1 211/314/1
f 212/316/11 216/318/11 215/317/11
f 216/318/2 214/320/2 213/319/2
f 214/320/12 210/544/12 209/321/12
f 215/317/13 213/319/13 209/322/13
f 212/324/14 210/545/14 214/320/14
f 218/325/1 220/328/1 219/326/1
f 220/328/11 224/330/11 223/329/11
f 224/330/2 222/332/2 221/331/2
f 222/332/12 218/546/12 217/333/12
f 223/329/13 221/331/13 217/334/13
f 220/336/14 218/547/14 222/332/14
f 226/337/1 228/340/1 227/338/1
f 228/340/11 232/342/11 231/341/11
f 232/342/2 230/344/2 229/343/2
f 230/344/12 226/548/12 225/345/12
f 231/341/13 229/343/13 225/346/13
f 228/348/14 226/349/14 230/344/14
f 234/337/1 236/340/1 235/338/1
f 236/340/11 240/342/11 239/341/11
f 240/342/2 238/344/2 237/343/2
f 238/344/12 234/548/12 233/345/12
f 239/341/13 237/343/13 233/346/13
f 236/348/14 234/349/14 238/344/14
f 242/337/1 244/340/1 243/338/1
f 244/340/11 248/342/11 247/341/11
f 248/342/2 246/344/2 245/343/2
f 246/344/12 242/548/12 241/345/12
f 243/347/13 247/341/13 245/343/13
f 244/348/14 242/349/14 246/344/14
f 250/337/1 252/340/1 251/338/1
f 252/340/11 256/342/11 255/341/11
f 256/342/2 254/344/2 253/343/2
f 254/344/12 250/548/12 249/345/12
f 255/341/13 253/343/13 249/346/13
f 252/348/14 250/349/14 254/344/14
f 258/337/1 260/340/1 259/338/1
f 260/340/11 264/342/11 263/341/11
f 264/342/2 262/344/2 261/343/2
f 262/344/12 258/548/12 257/345/12
f 263/341/13 261/343/13 257/346/13
f 260/348/14 258/349/14 262/344/14
f 266/337/1 268/340/1 267/338/1
f 268/340/11 272/342/11 271/341/11
f 272/342/2 270/344/2 269/343/2
f 270/344/12 266/548/12 265/345/12
f 267/347/13 271/341/13 269/343/13
f 268/348/14 266/349/14 270/344/14
f 274/337/1 276/340/1 275/338/1
f 276/340/11 280/342/11 279/341/11
f 280/342/2 278/344/2 277/343/2
f 278/344/12 274/548/12 273/345/12
f 279/341/13 277/343/13 273/346/13
f 276/348/14 274/349/14 278/344/14
f 282/337/1 284/340/1 283/338/1
f 284/340/11 288/342/11 287/341/11
f 288/342/2 286/344/2 285/343/2
f 286/344/12 282/548/12 281/345/12
f 287/341/13 285/343/13 281/346/13
f 284/348/14 282/349/14 286/344/14
f 290/337/1 292/340/1 291/338/1
f 292/340/11 296/342/11 295/341/11
f 296/342/2 294/344/2 293/343/2
f 294/344/12 290/548/12 289/345/12
f 295/341/13 293/343/13 289/346/13
f 292/348/14 290/349/14 294/344/14
f 298/337/1 300/340/1 299/338/1
f 300/340/11 304/342/11 303/341/11
f 304/342/2 302/344/2 301/343/2
f 302/344/12 298/548/12 297/345/12
f 303/341/13 301/343/13 297/346/13
f 304/342/14 300/348/14 298/349/14
f 306/337/1 308/340/1 307/338/1
f 308/340/11 312/342/11 311/341/11
f 312/342/2 310/344/2 309/343/2
f 310/344/12 306/548/12 305/345/12
f 311/341/13 309/343/13 305/346/13
f 308/348/14 306/349/14 310/344/14
f 314/337/1 316/340/1 315/338/1
f 316/340/11 320/342/11 319/341/11
f 320/342/2 318/344/2 317/343/2
f 318/344/12 314/548/12 313/345/12
f 319/341/13 317/343/13 313/346/13
f 320/342/14 316/348/14 314/349/14
f 322/337/1 324/340/1 323/338/1
f 324/340/11 328/342/11 327/341/11
f 328/342/2 326/344/2 325/343/2
f 326/344/12 322/548/12 321/345/12
f 327/341/13 325/343/13 321/346/13
f 324/348/14 322/349/14 326/344/14
f 330/337/1 332/340/1 331/338/1
f 332/340/11 336/342/11 335/341/11
f 336/342/2 334/344/2 333/343/2
f 334/344/12 330/548/12 329/345/12
f 335/341/13 333/343/13 329/346/13
f 332/348/14 330/349/14 334/344/14
f 338/337/1 340/340/1 339/338/1
f 340/340/11 344/342/11 343/341/11
f 344/342/2 342/344/2 341/343/2
f 342/344/12 338/548/12 337/345/12
f 343/341/13 341/343/13 337/346/13
f 340/348/14 338/349/14 342/344/14
f 346/337/1 348/340/1 347/338/1
f 348/340/11 352/342/11 351/341/11
f 352/342/2 350/344/2 349/343/2
f 350/344/12 346/548/12 345/345/12
f 347/347/13 351/341/13 349/343/13
f 348/348/14 346/349/14 350/344/14
f 354/337/1 356/340/1 355/338/1
f 356/340/11 360/342/11 359/341/11
f 360/342/2 358/344/2 357/343/2
f 358/344/12 354/548/12 353/345/12
f 355/347/13 359/341/13 357/343/13
f 356/348/14 354/349/14 358/344/14
f 362/337/1 364/340/1 363/338/1
f 364/340/11 368/342/11 367/341/11
f 368/342/2 366/344/2 365/343/2
f 366/344/12 362/548/12 361/345/12
f 363/347/13 367/341/13 365/343/13
f 364/348/14 362/349/14 366/344/14
f 370/337/1 372/340/1 371/338/1
f 372/340/11 376/342/11 375/341/11
f 376/342/2 374/344/2 373/343/2
f 374/344/12 370/548/12 369/345/12
f 375/341/13 373/343/13 369/346/13
f 372/348/14 370/349/14 374/344/14
f 378/337/1 380/340/1 379/338/1
f 380/340/11 384/342/11 383/341/11
f 384/342/2 382/344/2 381/343/2
f 382/344/12 378/548/12 377/345/12
f 383/341/13 381/343/13 377/346/13
f 380/348/14 378/349/14 382/344/14
f 386/337/1 388/340/1 387/338/1
f 388/340/11 392/342/11 391/341/11
f 392/342/2 390/344/2 389/343/2
f 390/344/12 386/548/12 385/345/12
f 391/341/13 389/343/13 385/346/13
f 388/348/14 386/349/14 390/344/14
f 394/337/1 396/340/1 395/338/1
f 396/340/11 400/342/11 399/341/11
f 400/342/2 398/344/2 397/343/2
f 398/344/12 394/548/12 393/345/12
f 399/341/13 397/343/13 393/346/13
f 396/348/14 394/349/14 398/344/14
f 402/337/1 404/340/1 403/338/1
f 404/340/11 408/342/11 407/341/11
f 408/342/2 406/344/2 405/343/2
f 406/344/12 402/548/12 401/345/12
f 407/341/13 405/343/13 401/346/13
f 404/348/14 402/349/14 406/344/14
f 410/337/1 412/340/1 411/338/1
f 412/340/11 416/342/11 415/341/11
f 416/342/2 414/344/2 413/343/2
f 414/344/12 410/548/12 409/345/12
f 411/347/13 415/341/13 413/343/13
f 412/348/14 410/349/14 414/344/14
f 418/337/1 420/340/1 419/338/1
f 420/340/11 424/342/11 423/341/11
f 424/342/2 422/344/2 421/343/2
f 422/344/12 418/548/12 417/345/12
f 423/341/13 421/343/13 417/346/13
f 420/348/14 418/349/14 422/344/14
f 426/337/1 428/340/1 427/338/1
f 428/340/11 432/342/11 431/341/11
f 432/342/2 430/344/2 429/343/2
f 430/344/12 426/548/12 425/345/12
f 431/341/13 429/343/13 425/346/13
f 428/348/14 426/349/14 430/344/14
f 434/350/1 436/353/1 435/351/1
f 436/353/11 440/355/11 439/354/11
f 440/355/2 438/357/2 437/356/2
f 438/357/12 434/549/12 433/358/12
f 435/359/13 439/354/13 437/356/13
f 436/361/14 434/550/14 438/357/14
