# Blender 4.4.1
# www.blender.org
mtllib player.mtl
o 立方体.001
v 0.699840 -1.504800 0.699840
v 0.699840 0.244800 0.699840
v -0.699840 -1.504800 0.699840
v -0.699840 0.244800 0.699840
v 0.699840 -1.504800 -0.699840
v 0.699840 0.244800 -0.699840
v -0.699840 -1.504800 -0.699840
v -0.699840 0.244800 -0.699840
v 0.349920 -1.504800 0.879840
v 0.349920 0.244800 0.879840
v -0.349920 0.244800 0.879840
v -0.349920 -1.504800 0.879840
v -0.349920 0.244800 -0.879840
v -0.879840 0.244800 -0.349920
v 0.879840 -1.504800 -0.349920
v 0.349920 0.244800 -0.349920
v -0.349920 0.244800 -0.349920
v -0.879840 -1.505477 -0.349920
v 0.879840 0.244800 -0.349920
v 0.349920 -1.504800 -0.349920
v -0.879840 -1.505477 0.349920
v 0.879840 0.244800 0.349920
v 0.349920 -1.504800 0.349920
v -0.349920 -1.505477 0.349920
v -0.879840 0.244800 0.349920
v 0.879840 -1.504800 0.349920
v 0.349920 0.244800 0.349920
v -0.349920 0.244800 0.349920
v 0.349920 -1.504800 -0.879840
v 0.349920 0.244800 -0.879840
v -0.349920 -1.504800 -0.879840
v 0.879840 0.157320 -0.349920
v -0.879840 0.157320 -0.349920
v -0.879840 0.157320 0.349920
v 0.879840 0.157320 0.349920
v 0.879840 -0.175104 -0.349920
v -0.879840 -0.175104 -0.349920
v -0.879840 -0.175104 0.349920
v 0.879840 -0.175104 0.349920
v 1.059840 0.157320 0.349920
v 1.059840 0.157320 -0.349920
v 1.059840 -0.175104 -0.349920
v 1.059840 -0.175104 0.349920
v -1.059840 0.157320 -0.349920
v -1.059840 0.157320 0.349920
v -1.059840 -0.175104 -0.349920
v -1.059840 -0.175104 0.349920
v -0.349920 -1.504800 1.149840
v 0.349920 0.244800 1.149840
v 0.349920 -1.504800 1.149840
v -0.349920 0.244800 1.149840
v -0.349920 -1.505477 -0.349920
v 0.879920 -1.075509 0.348366
v 1.059920 -1.075509 0.348366
v 1.059920 -1.075509 -0.351474
v 0.879920 -1.075509 -0.351474
v -0.879840 -1.075104 0.349920
v -0.879840 -1.075104 -0.349920
v -1.059840 -1.075104 0.349920
v -1.059840 -1.075104 -0.349920
v 0.720000 0.291310 -0.720000
v 0.720000 2.091310 -0.720000
v 0.720000 0.291310 0.720000
v 0.720000 2.091310 0.720000
v -0.720000 0.291310 -0.720000
v -0.720000 2.091310 -0.720000
v -0.720000 0.291310 0.720000
v -0.720000 2.091310 0.720000
v -0.457520 2.091310 0.900000
v -0.457520 0.291310 -0.900000
v -0.457520 0.291310 0.900000
v -0.457520 2.181310 -0.810000
v 0.450000 0.291310 0.900000
v 0.450000 2.181310 -0.810000
v 0.450000 2.091310 0.900000
v 0.450000 0.291310 -0.900000
v 0.900000 0.291310 -0.450000
v -0.900000 2.091310 -0.450000
v -0.457520 2.361310 -0.450000
v -0.457520 0.291310 -0.450000
v 0.450000 0.291310 -0.450000
v 0.450000 2.361310 -0.450000
v 0.900000 2.091310 -0.450000
v -0.900000 0.291310 -0.450000
v 0.900000 2.091310 0.450000
v -0.900000 0.291310 0.450000
v 0.900000 0.291310 0.450000
v -0.900000 2.091310 0.450000
v -0.457520 2.361310 0.450000
v -0.457520 0.291310 0.450000
v 0.450000 0.291310 0.450000
v 0.450000 2.361310 0.450000
v 0.900000 1.821310 -0.900000
v 0.900000 1.641310 0.900000
v -0.900000 1.641310 0.900000
v -0.900000 1.821310 -0.900000
v -0.639400 1.821310 -0.858000
v -0.457520 1.641310 1.170000
v 0.450000 1.641310 1.170000
v 0.631128 1.821310 -0.858000
v 1.170000 1.641310 -0.450000
v -1.170000 1.641310 -0.450000
v -1.170000 1.641310 0.450000
v 1.170000 1.641310 0.450000
v 0.900000 0.741310 0.900000
v -0.900000 0.741310 0.900000
v -0.900000 0.561310 -0.900000
v -0.639400 0.561310 -0.858000
v -0.457520 0.741310 1.170000
v 0.450000 0.741310 1.170000
v 0.631128 0.561310 -0.858000
v 1.170000 0.741310 -0.450000
v -1.170000 0.741310 -0.450000
v -1.170000 0.741310 0.450000
v 1.170000 0.741310 0.450000
v 0.900000 0.561310 -0.900000
v -0.639400 1.821310 -1.027000
v 0.631128 1.821310 -1.027000
v -0.639400 0.561310 -1.027000
v 0.631128 0.561310 -1.027000
v 0.879668 -1.864800 0.349920
v 0.349747 -1.864800 -0.349920
v -0.350093 -1.865477 -0.349920
v 0.879668 -1.864800 -0.349920
v -0.880013 -1.865477 -0.349920
v -0.880013 -1.865477 0.349920
v 0.349748 -1.864800 0.349920
v -0.350093 -1.865477 0.349920
vn -0.0000 -1.0000 -0.0000
vn -0.0000 1.0000 -0.0000
vn -0.4574 -0.0000 -0.8892
vn -1.0000 -0.0000 -0.0000
vn 1.0000 -0.0000 -0.0000
vn 0.8892 -0.0000 -0.4574
vn 1.0000 -0.0005 -0.0000
vn -0.0000 -0.0000 -1.0000
vn -0.0007 -1.0000 0.0013
vn -0.0000 -0.0017 1.0000
vn -0.0000 -0.0000 1.0000
vn -0.0000 0.0017 -1.0000
vn 0.4574 -0.0000 -0.8892
vn 1.0000 0.0001 -0.0000
vn 0.7625 0.4575 0.4575
vn -0.4636 0.4559 0.7598
vn -0.8193 0.4916 -0.2950
vn 0.3194 0.6638 -0.6763
vn 0.4082 0.8165 -0.4082
vn 0.4271 -0.0000 -0.9042
vn -0.0000 -0.4256 -0.9049
vn -0.0000 0.8575 0.5145
vn -0.3270 0.6654 -0.6711
vn -0.4921 0.8064 -0.3280
vn 0.4575 0.4575 0.7625
vn -0.8575 0.5145 -0.0000
vn 0.8575 0.5145 -0.0000
vn 0.8575 -0.5145 -0.0000
vn 0.8193 0.4916 -0.2950
vn -0.7625 0.4575 0.4575
vn 0.3244 0.8111 0.4867
vn -0.5209 0.8536 -0.0000
vn -0.4921 0.8064 0.3280
vn -0.5209 -0.0000 0.8536
vn -0.8575 -0.0000 -0.5145
vn 0.8575 -0.0000 0.5145
vn -0.4381 -0.0000 -0.8989
vn -0.0000 0.5162 -0.8564
vn 0.5145 -0.0000 0.8575
vn -0.0000 0.8944 -0.4472
vn 0.7276 -0.4851 0.4851
vn -0.4943 -0.4860 0.7208
vn -0.6110 -0.6788 -0.4073
vn 0.4409 -0.6068 -0.6613
vn -0.0000 0.5145 0.8575
vn -0.4483 -0.6095 -0.6538
vn 0.4851 -0.4851 0.7276
vn -0.8575 -0.0000 0.5145
vn -0.8575 -0.5145 -0.0000
vn 0.6110 -0.6788 -0.4073
vn -0.7276 -0.4851 0.4851
vn -0.0000 -0.5145 0.8575
vn 0.5145 0.8575 -0.0000
vn 0.0010 -1.0000 -0.0000
vn -1.0000 0.0005 -0.0000
vn 0.4574 -0.0000 0.8892
vn -0.4574 -0.0000 0.8892
vn -1.0000 -0.0001 -0.0000
vn 0.8892 -0.0000 0.4574
vn -0.8892 -0.0000 -0.4574
vn -0.8892 -0.0000 0.4574
vn -0.0000 -1.0000 -0.0019
vn 0.8575 -0.0000 -0.5145
vn -0.0000 -1.0000 0.0019
vn 0.7276 0.4851 0.4851
vn -0.4943 0.4860 0.7208
vn -0.6110 0.6788 -0.4073
vn 0.4261 0.6146 -0.6639
vn 0.4867 0.8111 -0.3244
vn -0.4361 0.6158 -0.6561
vn -0.4179 0.8126 -0.4063
vn 0.4851 0.4851 0.7276
vn 0.6110 0.6788 -0.4073
vn -0.7276 0.4851 0.4851
vn 0.4867 0.8111 0.3244
vn -0.3327 0.8086 0.4852
vn 0.7625 -0.4575 0.4575
vn -0.4636 -0.4559 0.7598
vn -0.8193 -0.4916 -0.2950
vn 0.3194 -0.6638 -0.6763
vn -0.3270 -0.6654 -0.6711
vn 0.4575 -0.4575 0.7625
vn 0.8193 -0.4916 -0.2950
vn -0.7625 -0.4575 0.4575
vn 0.0010 -1.0000 0.0013
vn 0.0010 -1.0000 -0.0013
vn -0.0007 -1.0000 -0.0013
vt 0.863205 0.804674
vt 0.823817 0.844061
vt 0.823817 0.784413
vt 0.352603 0.771804
vt 0.313215 0.732417
vt 0.352603 0.712156
vt 0.685394 0.345559
vt 0.842944 0.301266
vt 0.842944 0.345559
vt 0.172244 0.732417
vt 0.251019 0.762351
vt 0.172244 0.762351
vt 0.251019 0.863656
vt 0.172244 0.944700
vt 0.172244 0.863656
vt 0.313215 0.889966
vt 0.352603 0.850579
vt 0.352603 0.910227
vt 0.693272 0.133905
vt 0.723206 0.133905
vt 0.685394 0.178198
vt 0.663720 0.823348
vt 0.631302 0.744573
vt 0.663720 0.744573
vt 0.685394 0.222491
vt 0.685394 0.301266
vt 0.956745 0.122030
vt 0.897097 0.043255
vt 0.956745 0.043255
vt 0.109873 0.944773
vt 0.031098 0.924512
vt 0.109873 0.924512
vt 0.431377 0.771804
vt 0.470765 0.732417
vt 0.491026 0.771804
vt 0.470765 0.889966
vt 0.431378 0.850579
vt 0.491026 0.850579
vt 0.823817 0.922836
vt 0.863205 0.962223
vt 0.823817 0.982484
vt 0.685394 0.389852
vt 0.693272 0.468627
vt 0.685394 0.468627
vt 0.271280 0.762351
vt 0.251019 0.732417
vt 0.271280 0.732417
vt 0.705655 0.962223
vt 0.745043 0.922836
vt 0.745043 0.982484
vt 0.031098 0.894578
vt 0.011012 0.813456
vt 0.031273 0.813497
vt 0.010837 0.894578
vt 0.010837 0.924512
vt 0.109873 0.894577
vt 0.130309 0.813543
vt 0.130134 0.894624
vt 0.130134 0.924512
vt 0.130134 0.894578
vt 0.151983 0.732417
vt 0.151983 0.762351
vt 0.842944 0.178198
vt 0.989163 0.043255
vt 0.989163 0.122030
vt 0.251019 0.712156
vt 0.685394 0.055130
vt 0.685394 0.133905
vt 0.110048 0.793236
vt 0.031273 0.793236
vt 0.110048 0.813497
vt 0.251019 0.843395
vt 0.172244 0.843395
vt 0.151983 0.843395
vt 0.571654 0.823348
vt 0.571654 0.744573
vt 0.491297 0.389556
vt 0.511593 0.320808
vt 0.554631 0.370463
vt 0.380716 0.261412
vt 0.372686 0.204100
vt 0.412670 0.232636
vt 0.188107 0.367111
vt 0.176174 0.422305
vt 0.129742 0.383963
vt 0.282453 0.523174
vt 0.318768 0.512095
vt 0.301267 0.540862
vt 0.081660 0.562063
vt 0.097001 0.520305
vt 0.123830 0.535182
vt 0.339580 0.461521
vt 0.299766 0.487865
vt 0.230694 0.604665
vt 0.213138 0.584239
vt 0.620994 0.564925
vt 0.583513 0.690481
vt 0.540787 0.650378
vt 0.131091 0.508157
vt 0.419786 0.376069
vt 0.333620 0.295192
vt 0.204794 0.403910
vt 0.194130 0.441162
vt 0.253414 0.380645
vt 0.450073 0.321158
vt 0.475020 0.284001
vt 0.160570 0.636775
vt 0.202437 0.620209
vt 0.215297 0.656581
vt 0.479358 0.149401
vt 0.592320 0.173349
vt 0.548112 0.206584
vt 0.286869 0.251312
vt 0.163937 0.296661
vt 0.244143 0.211209
vt 0.386973 0.506005
vt 0.509906 0.460656
vt 0.429699 0.546109
vt 0.185688 0.593315
vt 0.498061 0.610274
vt 0.356200 0.527783
vt 0.339806 0.586894
vt 0.455316 0.185760
vt 0.578268 0.524822
vt 0.313155 0.233015
vt 0.321328 0.173834
vt 0.459154 0.122715
vt 0.501049 0.101353
vt 0.472015 0.349974
vt 0.206663 0.336764
vt 0.351437 0.245192
vt 0.579169 0.221463
vt 0.620040 0.231447
vt 0.420858 0.150182
vt 0.070189 0.450293
vt 0.559616 0.264372
vt 0.614025 0.293609
vt 0.212734 0.569232
vt 0.197794 0.460430
vt 0.262799 0.519716
vt 0.111768 0.492022
vt 0.229261 0.421547
vt 0.517411 0.236126
vt 0.060313 0.508360
vt 0.380675 0.101589
vt 0.175782 0.147044
vt 0.052849 0.192393
vt 0.133056 0.106940
vt 0.441719 0.084816
vt 0.146057 0.508253
vt 0.010837 0.152960
vt 0.091043 0.067507
vt 0.095575 0.232496
vt 0.572448 0.010837
vt 0.663720 0.082833
vt 0.467180 0.420553
vt 0.745043 0.844061
vt 0.539236 0.744573
vt 0.539236 0.823348
vt 0.571673 0.855765
vt 0.631302 0.823348
vt 0.631322 0.855765
vt 0.897116 0.010837
vt 0.956765 0.010837
vt 0.897116 0.154447
vt 0.956765 0.154447
vt 0.897097 0.122030
vt 0.864679 0.043255
vt 0.571673 0.712156
vt 0.903727 0.688054
vt 0.873335 0.609279
vt 0.903727 0.609279
vt 0.715786 0.609279
vt 0.873335 0.578887
vt 0.873335 0.718445
vt 0.715786 0.688054
vt 0.873335 0.688054
vt 0.685394 0.688054
vt 0.685394 0.609279
vt 0.843005 0.468627
vt 0.723206 0.389852
vt 0.843005 0.389852
vt 0.842944 0.055130
vt 0.842944 0.133905
vt 0.873335 0.762738
vt 0.715786 0.718445
vt 0.715786 0.534594
vt 0.715786 0.578887
vt 0.109873 0.712156
vt 0.431378 0.712156
vt 0.431378 0.910227
vt 0.292955 0.771804
vt 0.292954 0.850579
vt 0.723206 0.055130
vt 0.693272 0.055130
vt 0.685394 0.010837
vt 0.693272 0.389852
vt 0.723206 0.468627
vt 0.685394 0.512920
vt 0.745043 0.784413
vt 0.705655 0.804674
vt 0.685394 0.844061
vt 0.273018 0.646329
vt 0.883466 0.844061
vt 0.251019 0.944700
vt 0.842944 0.222491
vt 0.031098 0.944773
vt 0.883466 0.922836
vt 0.685394 0.922836
vt 0.010837 0.894536
vt 0.172244 0.712156
vt 0.271280 0.843395
vt 0.663720 0.605029
vt 0.864679 0.122030
vt 0.631322 0.712155
vt 0.715786 0.762738
vt 0.873335 0.534594
vt 0.031098 0.712156
vt 0.842944 0.010837
vt 0.842944 0.512920
s 0
usemtl Material
f 5/1/1 20/2/1 29/3/1
f 27/4/2 2/5/2 22/6/2
f 8/7/3 31/8/3 7/9/3
f 45/10/4 46/11/4 47/12/4
f 58/13/5 38/14/5 57/15/5
f 4/16/2 28/17/2 25/18/2
f 32/19/6 36/20/6 6/21/6
f 26/22/7 124/23/7 15/24/7
f 30/25/8 31/8/8 13/26/8
f 128/27/1 125/28/1 123/29/1
f 32/30/2 40/31/2 41/32/2
f 16/33/2 6/34/2 30/35/2
f 8/36/2 17/37/2 13/38/2
f 23/39/1 1/40/1 9/41/1
f 14/42/4 34/43/4 25/44/4
f 37/45/8 44/46/8 33/47/8
f 3/48/9 24/49/9 12/50/9
f 43/51/10 53/52/10 54/53/10
f 39/54/11 40/31/11 35/55/11
f 42/56/12 56/57/12 36/58/12
f 42/56/5 40/31/5 43/51/5
f 32/59/8 42/56/8 36/60/8
f 34/61/11 47/12/11 38/62/11
f 5/63/13 30/25/13 6/21/13
f 128/27/7 52/64/7 24/65/7
f 45/10/2 33/66/2 44/46/2
f 22/67/5 32/19/5 19/68/5
f 56/69/1 54/53/1 53/70/1
f 42/56/14 54/53/14 55/71/14
f 60/72/1 57/15/1 59/73/1
f 47/12/11 57/74/11 38/62/11
f 37/45/8 60/72/8 46/11/8
f 124/23/1 127/75/1 122/76/1
f 85/77/15 94/78/15 104/79/15
f 69/80/16 95/81/16 98/82/16
f 78/83/17 96/84/17 102/85/17
f 118/86/18 62/87/18 93/88/18
f 80/89/1 65/90/1 70/91/1
f 82/92/19 62/87/19 74/93/19
f 118/86/20 116/94/20 120/95/20
f 87/96/1 81/97/1 77/98/1
f 120/95/21 70/91/21 119/99/21
f 69/80/22 92/100/22 89/101/22
f 66/102/23 117/103/23 96/84/23
f 79/104/24 66/102/24 78/83/24
f 94/78/25 75/105/25 99/106/25
f 81/107/1 61/108/1 77/109/1
f 71/110/1 91/111/1 73/112/1
f 88/113/26 102/114/26 103/115/26
f 83/116/27 104/117/27 101/118/27
f 80/89/1 76/119/1 81/107/1
f 112/120/28 87/96/28 77/98/28
f 93/88/29 83/121/29 101/122/29
f 109/123/11 99/106/11 98/82/11
f 115/124/5 101/118/5 104/117/5
f 95/81/30 88/125/30 103/126/30
f 67/127/1 90/128/1 71/110/1
f 64/129/31 92/100/31 75/105/31
f 89/101/32 78/130/32 88/113/32
f 68/131/33 89/101/33 88/125/33
f 63/132/1 91/111/1 87/133/1
f 98/82/34 106/134/34 109/123/34
f 96/84/35 113/135/35 102/85/35
f 104/79/36 105/136/36 115/137/36
f 111/138/8 97/139/8 100/140/8
f 118/86/4 111/138/4 100/140/4
f 96/84/37 119/99/37 107/141/37
f 72/142/38 118/86/38 117/103/38
f 94/78/39 110/143/39 105/136/39
f 79/104/40 74/93/40 72/142/40
f 87/133/41 105/136/41 63/132/41
f 71/110/42 106/134/42 67/127/42
f 84/144/43 107/141/43 65/90/43
f 120/95/44 61/108/44 76/119/44
f 75/105/45 98/82/45 99/106/45
f 65/90/46 119/99/46 70/91/46
f 105/136/47 73/112/47 63/132/47
f 95/81/48 114/145/48 106/134/48
f 114/146/49 84/147/49 86/148/49
f 116/94/50 77/109/50 61/108/50
f 106/134/51 86/149/51 67/127/51
f 97/139/1 118/86/1 100/140/1
f 108/150/2 120/95/2 119/99/2
f 86/148/1 80/151/1 90/152/1
f 108/150/5 117/103/5 97/139/5
f 92/100/2 79/104/2 89/101/2
f 113/153/4 103/115/4 102/114/4
f 91/111/1 80/154/1 81/155/1
f 110/143/52 71/110/52 73/112/52
f 85/156/53 82/92/53 92/100/53
f 52/157/54 23/39/54 24/49/54
f 20/158/55 127/75/55 23/159/55
f 23/160/11 121/161/11 26/162/11
f 123/29/8 18/163/8 52/164/8
f 21/165/11 128/27/11 24/166/11
f 126/167/55 18/168/55 125/28/55
f 20/169/8 124/23/8 122/76/8
f 12/50/1 23/39/1 9/41/1
f 9/170/1 48/171/1 12/172/1
f 51/173/4 12/174/4 48/171/4
f 9/175/5 49/176/5 50/177/5
f 49/176/11 48/171/11 50/177/11
f 51/173/2 10/178/2 11/179/2
f 21/180/4 37/181/4 18/182/4
f 36/20/5 26/183/5 15/184/5
f 1/185/56 10/186/56 9/175/56
f 4/187/57 12/174/57 11/188/57
f 60/72/4 47/12/4 46/11/4
f 53/70/58 36/189/58 56/69/58
f 16/33/2 22/6/2 19/190/2
f 28/17/2 14/191/2 25/18/2
f 13/38/2 16/33/2 30/35/2
f 10/192/2 28/17/2 11/193/2
f 16/33/2 28/17/2 27/4/2
f 39/194/59 35/195/59 2/196/59
f 37/181/60 33/197/60 8/7/60
f 34/43/61 38/198/61 4/199/61
f 20/2/1 31/200/1 29/3/1
f 7/201/62 52/157/62 18/202/62
f 93/88/63 112/203/63 116/94/63
f 5/1/1 15/204/1 20/2/1
f 27/4/2 10/192/2 2/5/2
f 8/7/3 13/26/3 31/8/3
f 45/10/4 44/46/4 46/11/4
f 58/13/5 37/205/5 38/14/5
f 4/16/2 11/193/2 28/17/2
f 36/20/6 15/184/6 5/63/6
f 5/63/6 6/21/6 36/20/6
f 6/21/6 19/68/6 32/19/6
f 26/22/7 121/161/7 124/23/7
f 30/25/8 29/206/8 31/8/8
f 128/27/1 126/167/1 125/28/1
f 32/30/2 35/207/2 40/31/2
f 16/33/2 19/190/2 6/34/2
f 8/36/2 14/191/2 17/37/2
f 23/39/1 26/208/1 1/40/1
f 14/42/4 33/197/4 34/43/4
f 37/45/8 46/11/8 44/46/8
f 3/48/64 21/209/64 24/49/64
f 43/51/10 39/210/10 53/52/10
f 39/54/11 43/51/11 40/31/11
f 42/56/12 55/71/12 56/57/12
f 42/56/5 41/32/5 40/31/5
f 32/59/8 41/32/8 42/56/8
f 34/61/11 45/10/11 47/12/11
f 5/63/13 29/206/13 30/25/13
f 128/27/7 123/29/7 52/64/7
f 45/10/2 34/211/2 33/66/2
f 22/67/5 35/195/5 32/19/5
f 56/69/1 55/71/1 54/53/1
f 42/56/14 43/51/14 54/53/14
f 60/72/1 58/13/1 57/15/1
f 47/12/11 59/73/11 57/74/11
f 37/45/8 58/212/8 60/72/8
f 124/23/1 121/161/1 127/75/1
f 85/77/65 64/129/65 94/78/65
f 69/80/66 68/131/66 95/81/66
f 78/83/67 66/102/67 96/84/67
f 118/86/68 74/93/68 62/87/68
f 80/89/1 84/144/1 65/90/1
f 82/92/69 83/121/69 62/87/69
f 118/86/20 93/88/20 116/94/20
f 87/96/1 91/213/1 81/97/1
f 120/95/21 76/119/21 70/91/21
f 69/80/22 75/105/22 92/100/22
f 66/102/70 72/142/70 117/103/70
f 79/104/71 72/142/71 66/102/71
f 94/78/72 64/129/72 75/105/72
f 81/107/1 76/119/1 61/108/1
f 71/110/1 90/128/1 91/111/1
f 88/113/26 78/130/26 102/114/26
f 83/116/27 85/156/27 104/117/27
f 80/89/1 70/91/1 76/119/1
f 112/120/28 115/124/28 87/96/28
f 93/88/73 62/87/73 83/121/73
f 109/123/11 110/143/11 99/106/11
f 115/124/5 112/120/5 101/118/5
f 95/81/74 68/131/74 88/125/74
f 67/127/1 86/149/1 90/128/1
f 64/129/75 85/77/75 92/100/75
f 89/101/32 79/104/32 78/130/32
f 68/131/76 69/80/76 89/101/76
f 63/132/1 73/112/1 91/111/1
f 98/82/34 95/81/34 106/134/34
f 96/84/35 107/141/35 113/135/35
f 104/79/36 94/78/36 105/136/36
f 111/138/8 108/150/8 97/139/8
f 118/86/4 120/95/4 111/138/4
f 96/84/37 117/103/37 119/99/37
f 72/142/38 74/93/38 118/86/38
f 94/78/39 99/106/39 110/143/39
f 79/104/40 82/92/40 74/93/40
f 87/133/77 115/137/77 105/136/77
f 71/110/78 109/123/78 106/134/78
f 84/144/79 113/135/79 107/141/79
f 120/95/80 116/94/80 61/108/80
f 75/105/45 69/80/45 98/82/45
f 65/90/81 107/141/81 119/99/81
f 105/136/82 110/143/82 73/112/82
f 95/81/48 103/126/48 114/145/48
f 114/146/49 113/153/49 84/147/49
f 116/94/83 112/203/83 77/109/83
f 106/134/84 114/145/84 86/149/84
f 97/139/1 117/103/1 118/86/1
f 108/150/2 111/138/2 120/95/2
f 86/148/1 84/147/1 80/151/1
f 108/150/5 119/99/5 117/103/5
f 92/100/2 82/92/2 79/104/2
f 113/153/4 114/146/4 103/115/4
f 91/111/1 90/128/1 80/154/1
f 110/143/52 109/123/52 71/110/52
f 85/156/53 83/116/53 82/92/53
f 52/157/54 20/2/54 23/39/54
f 20/158/55 122/76/55 127/75/55
f 23/160/11 127/75/11 121/161/11
f 123/29/8 125/28/8 18/163/8
f 21/165/11 126/167/11 128/27/11
f 126/167/55 21/214/55 18/168/55
f 20/169/8 15/215/8 124/23/8
f 12/50/85 24/49/85 23/39/85
f 9/170/1 50/177/1 48/171/1
f 51/173/4 11/188/4 12/174/4
f 9/175/5 10/186/5 49/176/5
f 49/176/11 51/173/11 48/171/11
f 51/173/2 49/176/2 10/178/2
f 21/180/4 38/198/4 37/181/4
f 36/20/5 39/194/5 26/183/5
f 1/185/56 2/216/56 10/186/56
f 4/187/57 3/217/57 12/174/57
f 60/72/4 59/73/4 47/12/4
f 53/70/58 39/218/58 36/189/58
f 16/33/2 27/4/2 22/6/2
f 28/17/2 17/37/2 14/191/2
f 13/38/2 17/37/2 16/33/2
f 10/192/2 27/4/2 28/17/2
f 16/33/2 17/37/2 28/17/2
f 35/195/59 22/67/59 2/196/59
f 2/196/59 1/219/59 39/194/59
f 1/219/59 26/183/59 39/194/59
f 33/197/60 14/42/60 8/7/60
f 8/7/60 7/9/60 37/181/60
f 7/9/60 18/182/60 37/181/60
f 38/198/61 21/180/61 3/220/61
f 3/220/61 4/199/61 38/198/61
f 4/199/61 25/44/61 34/43/61
f 20/2/86 52/157/86 31/200/86
f 7/201/87 31/200/87 52/157/87
f 93/88/63 101/122/63 112/203/63
